<svg width="125" height="127" viewBox="0 0 125 127" fill="none" xmlns="http://www.w3.org/2000/svg">
<rect x="0.747608" y="0.747608" width="123.505" height="125.299" rx="61.7524" fill="#2C68E1" fill-opacity="0.1"/>
<rect x="0.747608" y="0.747608" width="123.505" height="125.299" rx="61.7524" stroke="#2C68E1" stroke-width="1.49522"/>
<path d="M62.1084 80.4071L64.3674 81.0525L78.0825 105.417" stroke="white" stroke-width="0.897129"/>
<path d="M45.3276 66.0454L45.1663 69.9179L46.9412 73.6291H48.232" stroke="white" stroke-width="0.897129"/>
<path d="M47.4252 65.4L48.716 75.888H52.2658" stroke="white" stroke-width="0.897129"/>
<path d="M51.1364 66.0454L51.7818 72.4996L52.2658 76.0494L53.5567 78.7924L56.7837 78.4697" stroke="white" stroke-width="0.897129"/>
<path d="M55.1702 66.8523V73.4678L58.3972 81.5355L61.947 80.7288L60.0108 73.4678L60.1721 67.9818" stroke="white" stroke-width="0.897129"/>
<path d="M43.5527 19.7368C43.5527 19.7368 50.8137 36.5177 54.5248 43.2945C58.236 50.0714 64.0447 49.426 66.9491 57.4937" stroke="white" stroke-width="0.897129"/>
<path d="M95.9928 96.0573C86.8996 86.9255 81.8881 81.3558 73.2418 70.5633L72.3387 69.5957C71.4436 68.6366 70.7458 67.5108 70.2852 66.2824L68.3077 61.0092C68.158 60.6099 67.8982 60.2611 67.5586 60.0032L60.0259 54.284C59.6113 53.9692 59.0704 53.8738 58.5731 54.0277L52.5885 55.8801L54.3634 59.1072H58.8813C61.3749 61.1436 60.1166 65.9407 60.1721 68.143C60.2277 70.3452 60.6952 71.093 61.463 72.4996C62.5436 73.5596 63.3514 73.9558 65.0128 74.4358" stroke="white" stroke-width="0.897129"/>
<path d="M28.7081 30.2249L42.2619 49.9101V57.171" stroke="white" stroke-width="0.897129"/>
<path d="M42.1005 50.394C39.3575 50.394 39.0348 54.912 42.1005 54.912" stroke="white" stroke-width="0.897129"/>
<path d="M43.3914 58.9456V61.5273C43.3914 61.5273 39.519 63.1406 39.5189 60.0751C39.5189 57.0096 43.3914 56.8302 43.3914 58.9456Z" stroke="white" stroke-width="0.897129"/>
<path d="M44.0368 63.3506V65.8037C44.0368 65.8037 40.1644 67.3367 40.1643 64.4239C40.1642 61.5111 44.0368 61.3406 44.0368 63.3506Z" stroke="white" stroke-width="0.897129"/>
<path d="M45.0049 67.2369V69.1239C45.0049 69.1239 41.7779 70.3031 41.7778 68.0625C41.7778 65.8219 45.0049 65.6908 45.0049 67.2369Z" stroke="white" stroke-width="0.897129"/>
</svg>
