<svg width="1309" height="129" viewBox="0 0 1309 129" fill="none" xmlns="http://www.w3.org/2000/svg">
<path fill-rule="evenodd" clip-rule="evenodd" d="M436.275 0V128.555H472.056V33.6401H559.968V0H436.275ZM247.076 0V128.555H282.864V33.6401H370.776V0H247.076ZM627.25 128.555H663.038V0H627.25V128.555ZM1186.47 0V128.555H1308.26V94.9151H1222.26V0H1186.47ZM873.334 0L819.717 92.8659L766.107 0H724.787L799.002 128.555H840.433L914.654 0H873.334ZM1012.95 0L938.735 128.555H980.049L1033.67 35.6893L1087.29 128.555H1128.6L1054.38 0H1012.95ZM74.2149 0L0 128.555H41.3134L94.93 35.6893L148.547 128.555H189.86L115.658 0H74.2149Z" fill="white"/>
</svg>
