<svg width="1310" height="129" viewBox="0 0 1310 129" fill="none" xmlns="http://www.w3.org/2000/svg">
<path fill-rule="evenodd" clip-rule="evenodd" d="M437.117 0.383789V128.939H472.898V34.0239H560.811V0.383789H437.117ZM247.918 0.383789V128.939H283.706V34.0239H371.619V0.383789H247.918ZM628.092 128.939H663.88V0.383789H628.092V128.939ZM1187.31 0.383789V128.939H1309.1V95.2989H1223.1V0.383789H1187.31ZM874.176 0.383789L820.56 93.2497L766.949 0.383789H725.63L799.845 128.939H841.275L915.496 0.383789H874.176ZM1013.79 0.383789L939.577 128.939H980.891L1034.51 36.0731L1088.13 128.939H1129.44L1055.22 0.383789H1013.79ZM75.0571 0.383789L0.842163 128.939H42.1556L95.7722 36.0731L149.389 128.939H190.702L116.5 0.383789H75.0571Z" fill="#0F1011"/>
</svg>
