<svg width="45" height="45" viewBox="0 0 45 45" fill="none" xmlns="http://www.w3.org/2000/svg">
<g clip-path="url(#clip0_1726_9490)">
<path d="M22.3321 8.61353H22.3265L6.4873 39.073L6.48996 39.0777H38.1686L38.1712 39.073L22.3321 8.61353ZM20.7592 16.748H23.8993V29.3084H20.7592V16.748ZM22.3293 36.2865C21.9152 36.2865 21.5105 36.1637 21.1662 35.9337C20.822 35.7037 20.5537 35.3767 20.3952 34.9942C20.2368 34.6117 20.1953 34.1908 20.2761 33.7847C20.3569 33.3786 20.5562 33.0056 20.849 32.7128C21.1418 32.42 21.5148 32.2207 21.9209 32.1399C22.327 32.0591 22.7479 32.1006 23.1304 32.259C23.5129 32.4175 23.8399 32.6858 24.0699 33.03C24.2999 33.3743 24.4227 33.779 24.4227 34.1931C24.4227 34.7483 24.2021 35.2808 23.8095 35.6733C23.4169 36.0659 22.8845 36.2865 22.3293 36.2865Z" fill="white"/>
<path d="M40.4725 41.8683H4.18664C3.94686 41.8683 3.71113 41.8065 3.50217 41.6889C3.29321 41.5713 3.11808 41.4019 2.99365 41.1969C2.86922 40.992 2.79969 40.7584 2.79178 40.5188C2.78386 40.2791 2.83782 40.0415 2.94845 39.8287L21.0914 4.93852C21.2092 4.71192 21.387 4.52201 21.6053 4.38946C21.8236 4.25692 22.0741 4.18683 22.3295 4.18683C22.585 4.18683 22.8355 4.25692 23.0538 4.38946C23.2721 4.52201 23.4499 4.71192 23.5677 4.93852L41.7106 39.8287C41.8213 40.0415 41.8752 40.2791 41.8673 40.5188C41.8594 40.7584 41.7899 40.992 41.6654 41.1969C41.541 41.4019 41.3659 41.5713 41.1569 41.6889C40.948 41.8065 40.7122 41.8683 40.4725 41.8683ZM6.49037 39.0771H38.1687L38.1715 39.0725L22.3323 8.61288H22.3268L6.48758 39.0725L6.49037 39.0771Z" fill="white"/>
</g>
<defs>
<clipPath id="clip0_1726_9490">
<rect width="44.6595" height="44.6595" fill="white"/>
</clipPath>
</defs>
</svg>
