<svg width="95" height="95" viewBox="0 0 95 95" fill="none" xmlns="http://www.w3.org/2000/svg">
<path d="M80.1563 65.7323V53.4375C80.1563 51.8628 79.5307 50.3526 78.4172 49.2391C77.3037 48.1256 75.7935 47.5 74.2188 47.5H50.4688V35.625H56.4063C57.9804 35.6232 59.4896 34.9971 60.6027 33.8839C61.7158 32.7708 62.342 31.2617 62.3438 29.6875V11.875C62.342 10.3008 61.7158 8.79165 60.6027 7.67855C59.4896 6.56544 57.9804 5.93931 56.4063 5.9375H38.5938C37.0195 5.93907 35.5102 6.56513 34.3971 7.67829C33.2839 8.79145 32.6579 10.3008 32.6563 11.875V29.6875C32.6579 31.2617 33.2839 32.7711 34.3971 33.8842C35.5102 34.9974 37.0195 35.6234 38.5938 35.625H44.5313V47.5H20.7813C19.2066 47.5 17.6963 48.1256 16.5828 49.2391C15.4693 50.3526 14.8438 51.8628 14.8438 53.4375V65.7344C12.0453 66.4569 9.60634 68.1754 7.98418 70.5675C6.36202 72.9597 5.66799 75.8613 6.03218 78.7286C6.39637 81.5958 7.79377 84.2318 9.96246 86.1425C12.1312 88.0532 14.9222 89.1073 17.8125 89.1073C20.7028 89.1073 23.4939 88.0532 25.6626 86.1425C27.8313 84.2318 29.2287 81.5958 29.5929 78.7286C29.9571 75.8613 29.263 72.9597 27.6409 70.5675C26.0187 68.1754 23.5798 66.4569 20.7813 65.7344V53.4375H44.5313V65.7341C41.7328 66.4566 39.2938 68.1751 37.6717 70.5672C36.0495 72.9594 35.3555 75.861 35.7197 78.7283C36.0839 81.5955 37.4813 84.2315 39.65 86.1422C41.8187 88.0529 44.6097 89.107 47.5 89.107C50.3903 89.107 53.1814 88.0529 55.3501 86.1422C57.5188 84.2315 58.9162 81.5955 59.2804 78.7283C59.6446 75.861 58.9505 72.9594 57.3284 70.5672C55.7062 68.1751 53.2673 66.4566 50.4688 65.7341V53.4375H74.2188V65.7323C71.4203 66.4549 68.9813 68.1733 67.3592 70.5654C65.737 72.9576 65.043 75.8592 65.4072 78.7265C65.7714 81.5938 67.1688 84.2298 69.3375 86.1404C71.5062 88.0511 74.2972 89.1052 77.1875 89.1052C80.0778 89.1052 82.8689 88.0511 85.0376 86.1404C87.2063 84.2298 88.6037 81.5938 88.9679 78.7265C89.3321 75.8592 88.638 72.9576 87.0159 70.5654C85.3937 68.1733 82.9548 66.4549 80.1563 65.7323V65.7323ZM38.5938 11.875H56.4063L56.4092 29.6875H38.5938V11.875ZM23.75 77.1875C23.75 78.3618 23.4018 79.5098 22.7494 80.4862C22.097 81.4626 21.1696 82.2236 20.0847 82.673C18.9998 83.1224 17.8059 83.24 16.6542 83.0109C15.5024 82.7818 14.4445 82.2163 13.6141 81.3859C12.7837 80.5556 12.2182 79.4976 11.9891 78.3458C11.76 77.1941 11.8776 76.0003 12.327 74.9153C12.7764 73.8304 13.5374 72.9031 14.5138 72.2506C15.4902 71.5982 16.6382 71.25 17.8125 71.25C19.3867 71.2518 20.8959 71.8779 22.009 72.991C23.1221 74.1042 23.7482 75.6133 23.75 77.1875ZM53.4375 77.1875C53.4375 78.3618 53.0893 79.5098 52.4369 80.4862C51.7845 81.4626 50.8571 82.2236 49.7722 82.673C48.6873 83.1224 47.4934 83.24 46.3417 83.0109C45.1899 82.7818 44.132 82.2163 43.3016 81.3859C42.4712 80.5556 41.9057 79.4976 41.6766 78.3458C41.4475 77.1941 41.5651 76.0003 42.0145 74.9153C42.4639 73.8304 43.2249 72.9031 44.2013 72.2506C45.1777 71.5982 46.3257 71.25 47.5 71.25C49.0741 71.2521 50.5831 71.8784 51.6961 72.9914C52.8092 74.1044 53.4354 75.6134 53.4375 77.1875ZM77.1875 83.125C76.0132 83.125 74.8652 82.7768 73.8888 82.1244C72.9124 81.4719 72.1514 80.5446 71.702 79.4597C71.2526 78.3747 71.135 77.1809 71.3641 76.0292C71.5932 74.8774 72.1587 73.8194 72.9891 72.9891C73.8195 72.1587 74.8774 71.5932 76.0292 71.3641C77.1809 71.135 78.3748 71.2526 79.4597 71.702C80.5446 72.1514 81.472 72.9124 82.1244 73.8888C82.7768 74.8652 83.125 76.0132 83.125 77.1875C83.1232 78.7617 82.4971 80.2708 81.384 81.384C80.2709 82.4971 78.7617 83.1232 77.1875 83.125Z" fill="black"/>
</svg>
