<svg width="45" height="22" viewBox="0 0 45 22" fill="none" xmlns="http://www.w3.org/2000/svg">
<g clip-path="url(#clip0_619_193)">
<path d="M6.41771 2.55531C6.40955 2.52715 6.40078 2.4983 6.39184 2.46892C6.37105 2.40055 6.34937 2.32929 6.33257 2.2571C6.20897 1.73287 6.52819 1.3629 7.06699 1.40796C7.5874 1.45175 8.0049 1.69147 8.35277 2.07421C8.41607 2.14379 8.53253 2.20331 8.62485 2.20346C9.67373 2.20434 10.7194 2.16202 11.7506 1.94306C12.438 1.79727 13.0886 1.54691 13.7191 1.2443C14.5509 0.845085 15.4254 0.753907 16.3362 0.821678C17.6213 0.916556 18.7642 1.41182 19.8959 1.97668C20.5922 2.32442 21.3079 2.64398 22.0391 2.90939C22.7596 3.1706 23.5254 3.21944 24.2939 3.1911C24.6178 3.17898 24.9418 3.16577 25.2658 3.15257L25.2659 3.15256C26.3122 3.10991 27.3586 3.06726 28.4052 3.06115C30.0956 3.05152 31.7786 3.15633 33.4318 3.56859C34.8351 3.91877 36.1394 4.46922 37.2872 5.35824C38.2721 6.12056 39.0347 7.06537 39.5848 8.18083C39.641 8.29454 39.6937 8.40994 39.7465 8.52539L39.7465 8.5255L39.7466 8.5257C39.7913 8.62351 39.836 8.72135 39.8828 8.8182C40.0012 9.0613 40.0391 9.3123 39.965 9.5747C39.8769 9.88733 39.8991 10.1542 40.1217 10.4344C41.0614 11.6132 41.8198 12.9115 42.5403 14.2311C43.1876 15.4171 43.8059 16.6176 44.1895 17.9209C44.1913 17.927 44.1937 17.933 44.196 17.9391C44.399 18.4804 44.3667 18.9721 43.922 19.3981C43.7552 19.558 43.5943 19.7241 43.4334 19.8902L43.4332 19.8904C43.2328 20.0973 43.0324 20.3042 42.8206 20.499C42.5237 20.772 42.1569 20.9083 41.7426 20.9071C40.8258 20.9044 39.909 20.9035 38.9924 20.9026H38.9922C38.3792 20.902 37.7662 20.9013 37.1532 20.9002C36.8751 20.8998 36.8094 20.7947 36.9272 20.5436C37.1468 20.0749 37.4665 19.7243 37.9987 19.6003C38.1661 19.5612 38.3283 19.5015 38.4906 19.4418C38.573 19.4115 38.6553 19.3811 38.7384 19.3535C38.9741 19.275 39.0105 19.1632 38.8353 18.9913C38.786 18.9429 38.7369 18.8944 38.6877 18.8459L38.6853 18.8435C38.41 18.5719 38.1345 18.3002 37.8408 18.0495C36.5825 16.9738 35.1464 16.2016 33.6092 15.6048C32.3446 15.1139 31.0395 14.7732 29.703 14.548C28.2091 14.2963 26.7036 14.1953 25.19 14.2531C24.8489 14.2663 24.5085 14.3009 24.168 14.3356C23.9589 14.3568 23.7497 14.3781 23.5404 14.3944C23.37 14.4077 23.3845 14.5094 23.4048 14.6205C23.4431 14.831 23.4837 15.0411 23.5243 15.2513C23.6076 15.682 23.6909 16.1128 23.7541 16.5465C23.8831 17.4356 23.9922 18.3285 24.0836 19.2224C24.1186 19.5667 24.0971 19.9194 23.9309 20.2443C23.8062 20.4884 23.6267 20.6888 23.3603 20.7392C22.9455 20.8173 22.5216 20.8845 22.1008 20.8906C21.017 20.906 19.9328 20.9049 18.8486 20.9039C18.5235 20.9035 18.1984 20.9032 17.8733 20.9033C17.4663 20.9036 17.3871 20.7711 17.5972 20.4208C17.8571 19.9856 18.2212 19.6812 18.7243 19.549C18.8874 19.5063 19.0459 19.4461 19.2044 19.3859L19.2045 19.3858C19.2711 19.3605 19.3377 19.3353 19.4046 19.3113C19.5166 19.271 19.5645 19.1995 19.5311 19.0754C19.1483 17.6606 18.5574 16.3413 17.6898 15.1564C16.7023 13.8072 15.4607 12.7339 14.0219 11.8881C12.5712 11.0352 11.0325 10.4013 9.36053 10.1431C8.98747 10.0855 8.60847 10.0679 8.22951 10.0502C8.05744 10.0422 7.88537 10.0342 7.71388 10.0225C7.55625 10.0116 7.46737 10.0652 7.4541 10.2413C7.44206 10.3981 7.40782 10.5569 7.35555 10.7051C7.32314 10.7968 7.25355 10.9171 7.17565 10.9399C7.09997 10.9621 6.97064 10.8996 6.9019 10.8351C6.29573 10.2684 5.63358 9.78403 4.80942 9.61224C4.54986 9.55815 4.27511 9.57239 4.00163 9.58657C3.90539 9.59156 3.8093 9.59654 3.71408 9.59853C3.52888 9.60221 3.34367 9.6103 3.15844 9.61838L3.15836 9.61839C2.91276 9.62911 2.66714 9.63984 2.42146 9.64029C2.17178 9.6409 2.03325 9.5153 1.9778 9.30075C1.92659 9.10108 1.99553 8.95253 2.22614 8.82088C2.36333 8.7425 2.50372 8.6695 2.64415 8.59647L2.64419 8.59646C2.75722 8.53768 2.87028 8.47889 2.98172 8.41727C3.09157 8.356 3.19899 8.28591 3.29391 8.2039C3.32425 8.1777 3.33924 8.13354 3.35422 8.08938C3.36106 8.06923 3.3679 8.04908 3.3762 8.03064C3.35592 8.02654 3.33504 8.02008 3.31414 8.01362C3.26883 7.9996 3.22346 7.98557 3.1841 7.99556C3.07507 8.02357 2.96811 8.0599 2.8611 8.09625L2.86105 8.09627C2.79389 8.11908 2.72671 8.1419 2.65899 8.16267C2.58771 8.1845 2.5165 8.20678 2.44527 8.22906L2.44522 8.22908C2.20793 8.30331 1.97038 8.37762 1.72918 8.43594C1.57818 8.47261 1.40989 8.48193 1.25748 8.45595C1.114 8.43143 0.952538 8.37403 0.85136 8.277C0.658664 8.09216 0.494703 7.87449 0.334684 7.65896C0.221694 7.50672 0.283809 7.30173 0.46186 7.18235C0.59981 7.09017 0.737735 6.99796 0.875659 6.90574L0.877372 6.9046C1.6553 6.38447 2.43321 5.86436 3.21569 5.35094C3.42284 5.21482 3.55379 5.05378 3.56311 4.80116C3.57402 4.4958 3.77651 4.30098 3.99417 4.13744C4.51644 3.74573 5.04612 3.36161 5.58735 2.99665C5.76215 2.87852 5.95348 2.7851 6.14871 2.68978C6.23797 2.6462 6.32804 2.60223 6.41771 2.55531Z" fill="black"/>
<path d="M11.8756 11.9068C11.9321 11.9289 11.986 11.9487 12.0378 11.9678C12.1459 12.0077 12.245 12.0443 12.3397 12.0905C14.0295 12.9153 15.4721 14.0534 16.6682 15.5022C16.8009 15.6634 16.927 15.8315 17.0389 16.0076C17.0804 16.0732 17.1085 16.1841 17.0822 16.2507C16.6202 17.4171 16.1531 18.5815 15.5074 19.6639C15.202 20.1755 14.8296 20.6055 14.2518 20.8298C13.9858 20.9332 13.7153 20.9295 13.4449 20.9258C13.3752 20.9248 13.3054 20.9238 13.2357 20.9247C12.4059 20.9346 11.5762 20.9389 10.7467 20.9431C10.4151 20.9448 10.0836 20.9465 9.75205 20.9485C9.69115 20.9488 9.63026 20.9493 9.56937 20.9498H9.56927C9.4017 20.9512 9.23421 20.9525 9.06695 20.9506C8.82719 20.9476 8.75034 20.8445 8.83823 20.6234C8.99823 20.2215 9.24488 19.8887 9.6708 19.7371C10.0162 19.614 10.3656 19.5007 10.7176 19.3991C11.0513 19.3028 11.285 19.0846 11.3842 18.7739C11.5473 18.2632 11.7019 17.7438 11.7884 17.2165C12.0148 15.8374 12.088 14.4466 11.987 13.0498C11.9729 12.854 11.9476 12.6588 11.9222 12.4635L11.9222 12.4634C11.9084 12.3573 11.8947 12.251 11.8827 12.1446C11.8772 12.0999 11.8769 12.0549 11.8767 11.9984V11.9983C11.8765 11.9709 11.8764 11.9408 11.8756 11.9068Z" fill="black"/>
<path d="M34.4681 17.5306C34.5596 17.4199 34.6516 17.3087 34.7445 17.197C34.7376 17.1878 34.7319 17.1796 34.727 17.1725C34.7169 17.1579 34.7098 17.1475 34.6999 17.1414C34.6581 17.1129 34.6152 17.0856 34.5708 17.0611C33.6293 16.5457 32.6273 16.1832 31.5904 15.9247C31.092 15.8002 30.5878 15.6987 30.0837 15.5973C29.8231 15.5449 29.5624 15.4924 29.3026 15.4368C29.078 15.3886 29.0642 15.395 29.0408 15.6152C29.0271 15.7437 29.0137 15.8723 29.0003 16.0009C28.9565 16.4202 28.9127 16.8393 28.8604 17.2574C28.7896 17.8182 28.6915 18.3779 28.4041 18.8742C28.3115 19.0338 28.1553 19.1854 27.9914 19.2679C27.7517 19.3886 27.4832 19.4707 27.218 19.5226C26.6294 19.6374 26.259 20.0035 25.99 20.506C25.8859 20.6997 25.9669 20.8605 26.1877 20.8866C26.2841 20.8977 26.382 20.897 26.4794 20.8964C26.4962 20.8963 26.5131 20.8962 26.5299 20.8961C26.9104 20.8957 27.2909 20.8948 27.6715 20.8939C27.8621 20.8934 28.0527 20.893 28.2433 20.8926C28.4689 20.8923 28.6946 20.8921 28.9202 20.892C29.5953 20.8915 30.2702 20.891 30.9454 20.8858C31.0361 20.8852 31.1279 20.8566 31.2175 20.8287C31.231 20.8244 31.2445 20.8202 31.258 20.8161C31.725 20.6745 32.0394 20.3296 32.3496 19.9893C32.3714 19.9653 32.3932 19.9414 32.4151 19.9175C32.8222 19.4729 33.2142 19.0143 33.606 18.5558C33.6754 18.4746 33.7448 18.3934 33.8143 18.3123C34.0341 18.0553 34.2498 17.7945 34.4681 17.5306Z" fill="black"/>
</g>
<defs>
<clipPath id="clip0_619_193">
<rect width="44.5366" height="22" fill="white"/>
</clipPath>
</defs>
</svg>
