<svg width="137" height="137" viewBox="0 0 137 137" fill="none" xmlns="http://www.w3.org/2000/svg">
<g clip-path="url(#clip0_1547_8517)">
<path d="M120.721 97.573C125.696 88.6683 128.308 78.6381 128.308 68.4379C128.308 58.2378 125.696 48.2075 120.721 39.3029L121.525 38.4988C123.127 36.8935 124.026 34.7185 124.026 32.4509C124.026 30.1833 123.127 28.0083 121.525 26.403L110.466 15.3426C108.86 13.7414 106.685 12.8422 104.418 12.8422C102.15 12.8422 99.9747 13.7414 98.369 15.3426L97.5662 16.1445C88.6611 11.1702 78.6307 8.55859 68.4305 8.55859C58.2302 8.55859 48.1999 11.1702 39.2948 16.1445L38.4907 15.3426C36.8852 13.7409 34.71 12.8415 32.4421 12.8415C30.1743 12.8415 27.9991 13.7409 26.3936 15.3426L15.3345 26.403C13.7329 28.0083 12.8335 30.1833 12.8335 32.4509C12.8335 34.7185 13.7329 36.8935 15.3345 38.4988L16.1377 39.3007C11.1633 48.2064 8.55176 58.2372 8.55176 68.4379C8.55176 78.6386 11.1633 88.6695 16.1377 97.5751L15.3345 98.3771C13.7329 99.9824 12.8335 102.157 12.8335 104.425C12.8335 106.693 13.7329 108.868 15.3345 110.473L26.3936 121.533C27.9989 123.135 30.1742 124.035 32.4421 124.035C34.7101 124.035 36.8854 123.135 38.4907 121.533L39.2948 120.729C48.1997 125.704 58.23 128.316 68.4302 128.316C78.6304 128.317 88.6609 125.705 97.5662 120.731L98.369 121.533C99.9743 123.135 102.15 124.035 104.418 124.035C106.685 124.035 108.861 123.135 110.466 121.533L121.525 110.473C123.127 108.868 124.026 106.693 124.026 104.425C124.026 102.157 123.127 99.9824 121.525 98.3771L120.721 97.573ZM119.754 68.4379C119.751 76.3514 117.915 84.1566 114.388 91.2408L97.73 74.5819C98.5819 70.5302 98.5819 66.3456 97.73 62.294L114.388 45.635C117.915 52.7193 119.751 60.5244 119.754 68.4379ZM115.477 32.4507L94.3717 53.556C91.7237 48.9602 87.9092 45.145 83.3139 42.4961L104.418 21.3907L115.477 32.4507ZM68.4298 89.823C64.2003 89.823 60.0657 88.5688 56.5489 86.219C53.0322 83.8692 50.2912 80.5293 48.6726 76.6216C47.054 72.714 46.6305 68.4142 47.4556 64.2659C48.2808 60.1176 50.3175 56.3071 53.3083 53.3164C56.299 50.3256 60.1095 48.2889 64.2578 47.4637C68.4061 46.6386 72.7059 47.0621 76.6136 48.6807C80.5212 50.2993 83.8611 53.0402 86.2109 56.557C88.5607 60.0738 89.8149 64.2084 89.8149 68.4379C89.8085 74.1076 87.5533 79.5433 83.5442 83.5523C79.5352 87.5614 74.0995 89.8166 68.4298 89.823V89.823ZM91.1639 22.5477L74.5738 39.1378C70.5221 38.2858 66.3376 38.2858 62.2859 39.1378L45.6958 22.5477C52.7876 19.1316 60.5581 17.3577 68.4298 17.3577C76.3015 17.3577 84.072 19.1316 91.1639 22.5477V22.5477ZM32.4426 21.3907L53.5479 42.4961C48.952 45.1449 45.1368 48.9601 42.488 53.556L21.3826 32.4507L32.4426 21.3907ZM17.1056 68.4379C17.1084 60.525 18.9451 52.7204 22.4716 45.6367L39.1297 62.294C38.2777 66.3456 38.2777 70.5302 39.1297 74.5819L22.4716 91.2391C18.9451 84.1555 17.1084 76.3509 17.1056 68.4379V68.4379ZM32.4417 115.485L21.3826 104.425L42.488 83.3219C45.1366 87.9181 48.9518 91.7333 53.5479 94.3819L32.4417 115.485ZM45.6958 114.33L62.2859 97.7402C66.3376 98.5922 70.5221 98.5922 74.5738 97.7402L91.1639 114.33C84.072 117.746 76.3015 119.52 68.4298 119.52C60.5581 119.52 52.7876 117.746 45.6958 114.33V114.33ZM104.419 115.485L83.3139 94.3797C87.9087 91.7312 91.7231 87.9168 94.3717 83.3219L115.477 104.425L104.419 115.485Z" fill="#022D40"/>
</g>
<defs>
<clipPath id="clip0_1547_8517">
<rect width="136.865" height="136.865" fill="white"/>
</clipPath>
</defs>
</svg>
