<svg width="68" height="68" viewBox="0 0 68 68" fill="none" xmlns="http://www.w3.org/2000/svg">
<mask id="mask0_1773_12685" style="mask-type:alpha" maskUnits="userSpaceOnUse" x="0" y="0" width="68" height="68">
<g clip-path="url(#clip0_1773_12685)">
<path d="M39.6033 12.5941L41.2277 15.5245L16.5026 35.7617C15.9372 36.2255 15.5548 36.8749 15.4233 37.5943C15.2919 38.3137 15.4201 39.0564 15.785 39.6902L19.0338 45.551C19.3778 46.1963 19.9398 46.6986 20.6195 46.9684C21.2992 47.2382 22.0526 47.258 22.7456 47.0242L26.1946 45.7303L28.7696 50.3758C29.1667 51.0921 29.832 51.6213 30.6193 51.8471C31.4066 52.0728 32.2513 51.9766 32.9676 51.5795L43.771 45.5911C44.4873 45.194 45.0165 44.5287 45.2423 43.7414C45.468 42.9541 45.3718 42.1094 44.9747 41.3931L44.0316 39.6916L52.95 36.6722L54.5744 39.6027L57.2753 38.1056L42.3042 11.097L39.6033 12.5941ZM42.2739 42.8902L31.4705 48.8787L29.1724 44.7329L41.0612 40.7025L42.2739 42.8902ZM21.7047 43.9999L18.456 38.139L42.7473 18.2659L51.4305 33.9309L21.7047 43.9999Z" fill="white"/>
</g>
</mask>
<g mask="url(#mask0_1773_12685)">
<rect x="10" y="9" width="50" height="50" fill="white"/>
</g>
<defs>
<clipPath id="clip0_1773_12685">
<rect width="49.4085" height="49.4085" fill="white" transform="translate(0 23.9541) rotate(-29)"/>
</clipPath>
</defs>
</svg>
