<svg width="45" height="45" viewBox="0 0 45 45" fill="none" xmlns="http://www.w3.org/2000/svg">
<g clip-path="url(#clip0_1733_8969)">
<path d="M34.9021 12.9928L25.1233 3.21401C24.8439 2.93462 24.5645 2.79492 24.1454 2.79492H10.1758C8.63911 2.79492 7.38184 4.05219 7.38184 5.58886V39.1161C7.38184 40.6527 8.63911 41.91 10.1758 41.91H32.5273C34.0639 41.91 35.3212 40.6527 35.3212 39.1161V13.9707C35.3212 13.5516 35.1815 13.2722 34.9021 12.9928ZM24.1454 6.14764L31.9685 13.9707H24.1454V6.14764ZM32.5273 39.1161H10.1758V5.58886H21.3515V13.9707C21.3515 15.5073 22.6088 16.7646 24.1454 16.7646H32.5273V39.1161Z" fill="white"/>
<path d="M29.7333 30.7354H12.9697V33.5293H29.7333V30.7354Z" fill="white"/>
<path d="M29.7333 22.3535H12.9697V25.1475H29.7333V22.3535Z" fill="white"/>
</g>
<defs>
<clipPath id="clip0_1733_8969">
<rect width="44.703" height="44.703" fill="white"/>
</clipPath>
</defs>
</svg>
