<svg width="119" height="119" viewBox="0 0 119 119" fill="none" xmlns="http://www.w3.org/2000/svg">
<g clip-path="url(#clip0_1547_8523)">
<path d="M94.9307 34.3514L69.0742 8.49486C68.3354 7.7561 67.5967 7.38672 66.4885 7.38672H29.5507C25.4875 7.38672 22.1631 10.7111 22.1631 14.7743V103.425C22.1631 107.488 25.4875 110.813 29.5507 110.813H88.6513C92.7144 110.813 96.0389 107.488 96.0389 103.425V36.937C96.0389 35.8289 95.6695 35.0901 94.9307 34.3514ZM66.4885 16.2518L87.1738 36.937H66.4885V16.2518ZM88.6513 103.425H29.5507V14.7743H59.101V36.937C59.101 41.0002 62.4254 44.3246 66.4885 44.3246H88.6513V103.425Z" fill="#022D40"/>
<path d="M81.2639 81.2656H36.9385V88.6532H81.2639V81.2656Z" fill="#022D40"/>
<path d="M81.2639 59.1055H36.9385V66.493H81.2639V59.1055Z" fill="#022D40"/>
</g>
<defs>
<clipPath id="clip0_1547_8523">
<rect width="118.201" height="118.201" fill="white"/>
</clipPath>
</defs>
</svg>
