<svg width="43" height="43" viewBox="0 0 43 43" fill="none" xmlns="http://www.w3.org/2000/svg">
<g clip-path="url(#clip0_1726_9495)">
<path d="M21.169 2.64624C17.5054 2.64624 13.9241 3.73263 10.8779 5.76802C7.83175 7.80341 5.45754 10.6964 4.05554 14.0811C2.65353 17.4659 2.28671 21.1903 3.00144 24.7835C3.71618 28.3767 5.48037 31.6773 8.07093 34.2679C10.6615 36.8584 13.9621 38.6226 17.5553 39.3374C21.1485 40.0521 24.873 39.6853 28.2577 38.2833C31.6424 36.8813 34.5354 34.5071 36.5708 31.4609C38.6062 28.4147 39.6926 24.8334 39.6926 21.1698C39.6926 16.257 37.741 11.5455 34.2672 8.07166C30.7933 4.59782 26.0818 2.64624 21.169 2.64624ZM21.169 33.0778C20.7765 33.0778 20.3928 32.9614 20.0664 32.7433C19.7401 32.5252 19.4857 32.2152 19.3355 31.8526C19.1852 31.4899 19.1459 31.0909 19.2225 30.7059C19.2991 30.3209 19.4881 29.9673 19.7657 29.6897C20.0432 29.4122 20.3969 29.2231 20.7819 29.1466C21.1668 29.07 21.5659 29.1093 21.9285 29.2595C22.2912 29.4097 22.6012 29.6641 22.8192 29.9905C23.0373 30.3168 23.1537 30.7006 23.1537 31.0931C23.1537 31.6195 22.9446 32.1243 22.5724 32.4965C22.2002 32.8687 21.6954 33.0778 21.169 33.0778ZM22.6802 22.8184V26.128H19.7032V19.8467H22.5148C23.3486 19.8467 24.1484 19.5154 24.738 18.9258C25.3276 18.3361 25.6589 17.5364 25.6589 16.7026C25.6589 15.8687 25.3276 15.069 24.738 14.4793C24.1484 13.8897 23.3486 13.5585 22.5148 13.5585H20.5301C19.697 13.5594 18.8983 13.8908 18.3092 14.4799C17.7201 15.069 17.3887 15.8677 17.3877 16.7008V17.5445H14.4107V16.7007C14.4127 15.0787 15.0582 13.5237 16.2054 12.3771C17.3527 11.2305 18.9081 10.5859 20.5301 10.5849H22.5148C24.1238 10.5837 25.6685 11.2164 26.8143 12.346C27.9601 13.4756 28.6148 15.0111 28.6365 16.62C28.6583 18.2288 28.0454 19.7815 26.9305 20.9416C25.8156 22.1018 24.2886 22.7761 22.6802 22.8184Z" fill="white"/>
</g>
<defs>
<clipPath id="clip0_1726_9495">
<rect width="42.3395" height="42.3395" fill="white"/>
</clipPath>
</defs>
</svg>
