<svg width="45" height="45" viewBox="0 0 45 45" fill="none" xmlns="http://www.w3.org/2000/svg">
<g clip-path="url(#clip0_1726_9502)">
<path d="M36.9853 27.3961L28.2488 22.3301L36.9853 17.264C38.199 16.5807 39.1805 15.5498 39.8033 14.304C40.4262 13.0582 40.662 11.6545 40.4804 10.2735C40.2988 8.89254 39.708 7.59753 38.7842 6.55514C37.8604 5.51275 36.6457 4.77068 35.2966 4.42443C34.7088 4.27014 34.1039 4.19042 33.4963 4.18718C32.2652 4.1829 31.0549 4.50439 29.9883 5.119C28.9216 5.73361 28.0365 6.61947 27.4228 7.68667C26.8091 8.75388 26.4887 9.96444 26.4941 11.1955C26.4994 12.4265 26.8303 13.6343 27.4533 14.6961C28.2163 16.0101 29.3875 17.0392 30.7888 17.6269L25.4576 20.7112L5.58409 9.21137L4.18848 11.6397L22.6663 22.3301L4.18848 33.0484L5.58409 35.4767L25.4576 23.949L30.7888 27.0333C29.3875 27.621 28.2163 28.65 27.4533 29.9641C26.8303 31.0259 26.4994 32.2336 26.4941 33.4647C26.4887 34.6957 26.8091 35.9063 27.4228 36.9735C28.0365 38.0407 28.9216 38.9266 29.9883 39.5412C31.0549 40.1558 32.2652 40.4773 33.4963 40.473C34.1039 40.4697 34.7088 40.39 35.2966 40.2357C36.6457 39.8895 37.8604 39.1474 38.7842 38.105C39.708 37.0626 40.2988 35.7676 40.4804 34.3867C40.662 33.0057 40.4262 31.602 39.8033 30.3562C39.1805 29.1104 38.199 28.0795 36.9853 27.3961ZM29.8677 13.3005C29.5881 12.8229 29.406 12.2946 29.3318 11.7461C29.2577 11.1977 29.293 10.64 29.4358 10.1053C29.5785 9.57059 29.8259 9.0695 30.1635 8.631C30.5012 8.19249 30.9224 7.82528 31.4028 7.55059C31.8801 7.27595 32.4069 7.09815 32.9529 7.02737C33.499 6.9566 34.0537 6.99423 34.5852 7.13813C35.1167 7.28203 35.6146 7.52936 36.0504 7.86596C36.4862 8.20255 36.8513 8.62181 37.1248 9.09972C37.4022 9.57674 37.5826 10.1039 37.6556 10.6509C37.7285 11.1979 37.6926 11.7539 37.55 12.2869C37.4073 12.82 37.1607 13.3196 36.8242 13.757C36.4878 14.1944 36.0683 14.561 35.5897 14.8357C35.1132 15.1109 34.5872 15.2895 34.0417 15.3613C33.4962 15.4331 32.9419 15.3967 32.4105 15.2541C31.8791 15.1115 31.381 14.8656 30.9446 14.5304C30.5083 14.1952 30.1424 13.7772 29.8677 13.3005ZM37.1248 35.6302C36.8513 36.1081 36.4862 36.5274 36.0504 36.864C35.6146 37.2006 35.1167 37.4479 34.5852 37.5918C34.0537 37.7357 33.499 37.7734 32.9529 37.7026C32.4069 37.6318 31.8801 37.454 31.4028 37.1794C30.9224 36.9047 30.5012 36.5375 30.1635 36.099C29.8259 35.6604 29.5785 35.1594 29.4358 34.6247C29.293 34.09 29.2577 33.5323 29.3318 32.9838C29.406 32.4354 29.5881 31.9071 29.8677 31.4295C30.1424 30.9527 30.5083 30.5348 30.9446 30.1996C31.381 29.8644 31.8791 29.6185 32.4105 29.4759C32.9419 29.3333 33.4962 29.2969 34.0417 29.3687C34.5872 29.4405 35.1132 29.6191 35.5897 29.8943C36.5375 30.4488 37.2295 31.3534 37.5167 32.4132C37.8038 33.4731 37.6631 34.6034 37.1248 35.5605V35.6302Z" fill="white"/>
</g>
<defs>
<clipPath id="clip0_1726_9502">
<rect width="44.6595" height="44.6595" fill="white"/>
</clipPath>
</defs>
</svg>
