<svg width="598" height="223" viewBox="0 0 598 223" fill="none" xmlns="http://www.w3.org/2000/svg">
<g clip-path="url(#clip0_680_16809)">
<rect x="0.769531" y="0.507812" width="597.151" height="221.523" rx="23.8265" fill="#46E297"/>
<rect x="0.769531" y="0.507812" width="597.151" height="221.523" rx="23.8265" fill="white" fill-opacity="0.9"/>
<path d="M47.7377 67.9667C45.6231 69.992 42.8979 71.0046 39.5622 71.0046C36.2265 71.0046 33.4864 69.992 31.3421 67.9667C29.2275 65.9415 28.1702 63.127 28.1702 59.5232V38.6602H32.5036V59.3892C32.5036 61.8016 33.1142 63.6631 34.3353 64.9735C35.5862 66.284 37.3285 66.9392 39.5622 66.9392C41.7959 66.9392 43.5233 66.284 44.7445 64.9735C45.9656 63.6631 46.5761 61.8016 46.5761 59.3892V38.6602H50.9542V59.5232C50.9542 63.127 49.882 65.9415 47.7377 67.9667ZM69.9017 48.6226V53.0901C69.2763 53.0007 68.6657 52.956 68.0701 52.956C64.1387 52.956 62.173 55.16 62.173 59.5679V70.3345H57.9736V48.846H62.0837V52.5986C63.3941 49.8586 65.5385 48.4886 68.5168 48.4886C68.9934 48.4886 69.455 48.5332 69.9017 48.6226ZM72.6889 71.496L76.7543 70.5578C76.9032 72.0768 77.5138 73.3277 78.586 74.3105C79.6581 75.3231 80.9984 75.8295 82.6067 75.8295C86.9848 75.8295 89.1738 73.5064 89.1738 68.8602V65.7777C88.6378 66.8201 87.7889 67.6689 86.6274 68.3241C85.4956 68.9793 84.1554 69.307 82.6067 69.307C79.7475 69.307 77.3797 68.339 75.5034 66.4031C73.6569 64.4374 72.7336 61.9356 72.7336 58.8978C72.7336 55.9492 73.6569 53.4772 75.5034 51.4818C77.35 49.4565 79.7177 48.4439 82.6067 48.4439C85.8828 48.4439 88.0868 49.5757 89.2185 51.8392V48.846H93.3733V68.7262C93.3733 70.1558 93.1797 71.4811 92.7925 72.7022C92.4351 73.9531 91.8543 75.0998 91.0502 76.1422C90.246 77.1846 89.1143 78.0036 87.6549 78.5993C86.2253 79.1949 84.5426 79.4928 82.6067 79.4928C79.956 79.4928 77.7074 78.7333 75.8608 77.2144C74.0143 75.7252 72.957 73.8191 72.6889 71.496ZM83.2321 65.7777C85.0489 65.7777 86.5232 65.1522 87.6549 63.9013C88.7867 62.6207 89.3525 60.9528 89.3525 58.8978C89.3525 56.8427 88.7867 55.1898 87.6549 53.9389C86.5232 52.6582 85.0489 52.0179 83.2321 52.0179C81.3856 52.0179 79.8815 52.6433 78.72 53.8942C77.5882 55.1451 77.0223 56.8129 77.0223 58.8978C77.0223 61.0124 77.5733 62.6951 78.6753 63.946C79.8071 65.1671 81.326 65.7777 83.2321 65.7777ZM102.898 57.3788H114.648C114.588 55.7705 114.052 54.4601 113.039 53.4475C112.027 52.4051 110.597 51.8838 108.751 51.8838C107.083 51.8838 105.713 52.4348 104.641 53.5368C103.568 54.609 102.988 55.8897 102.898 57.3788ZM115.273 62.9632L118.892 64.214C118.266 66.2095 117.105 67.8476 115.407 69.1283C113.71 70.3791 111.654 71.0046 109.242 71.0046C106.234 71.0046 103.673 69.9771 101.558 67.922C99.4732 65.8372 98.4308 63.0376 98.4308 59.5232C98.4308 56.2471 99.4434 53.5368 101.469 51.3924C103.494 49.248 105.906 48.1759 108.706 48.1759C111.952 48.1759 114.484 49.2034 116.301 51.2584C118.117 53.2837 119.026 56.0088 119.026 59.4339C119.026 59.97 118.996 60.4167 118.936 60.7741H102.764C102.794 62.6802 103.419 64.2438 104.641 65.4649C105.891 66.686 107.425 67.2966 109.242 67.2966C112.31 67.2966 114.32 65.8521 115.273 62.9632ZM128.679 57.9149V70.3345H124.479V48.846H128.59V51.9285C130.019 49.4565 132.223 48.2205 135.201 48.2205C137.673 48.2205 139.565 49.0098 140.875 50.5883C142.215 52.1668 142.885 54.2069 142.885 56.7087V70.3345H138.686V57.4235C138.686 53.8197 137.018 52.0179 133.682 52.0179C132.104 52.0179 130.868 52.5837 129.974 53.7155C129.111 54.8175 128.679 56.2173 128.679 57.9149ZM155.287 42.0554V48.846H159.934V52.6433H155.287V63.812C155.287 64.8246 155.511 65.5692 155.958 66.0457C156.434 66.5222 157.208 66.7605 158.281 66.7605C158.906 66.7605 159.457 66.7009 159.934 66.5818V70.1558C159.219 70.4238 158.266 70.5578 157.074 70.5578C155.228 70.5578 153.768 70.0218 152.696 68.9496C151.624 67.8774 151.088 66.3733 151.088 64.4374V52.6433H146.978V48.846H148.139C149.241 48.846 150.06 48.5481 150.597 47.9525C151.162 47.327 151.445 46.5229 151.445 45.54V42.0554H155.287ZM181.093 70.3345H176.894V37.99H181.093V70.3345ZM192.485 70.3345H188.33V48.846H192.485V70.3345ZM188.241 42.8596C187.675 42.2639 187.392 41.5491 187.392 40.7152C187.392 39.8813 187.675 39.1665 188.241 38.5708C188.836 37.9751 189.551 37.6773 190.385 37.6773C191.219 37.6773 191.934 37.9751 192.529 38.5708C193.125 39.1367 193.423 39.8515 193.423 40.7152C193.423 41.5491 193.125 42.2639 192.529 42.8596C191.934 43.4254 191.219 43.7084 190.385 43.7084C189.551 43.7084 188.836 43.4254 188.241 42.8596ZM210.534 52.6433H205.352V70.3345H201.018V52.6433H197.042V48.846H201.018V45.2273C201.018 42.934 201.688 41.1321 203.028 39.8217C204.369 38.5112 206.051 37.856 208.077 37.856C209.357 37.856 210.191 38.0049 210.578 38.3028V42.0554C210.132 41.8767 209.521 41.7874 208.747 41.7874C207.824 41.7874 207.019 42.0703 206.334 42.6362C205.679 43.1723 205.352 44.1105 205.352 45.4507V48.846H210.534V52.6433ZM220.758 42.0554V48.846H225.404V52.6433H220.758V63.812C220.758 64.8246 220.981 65.5692 221.428 66.0457C221.905 66.5222 222.679 66.7605 223.751 66.7605C224.377 66.7605 224.927 66.7009 225.404 66.5818V70.1558C224.689 70.4238 223.736 70.5578 222.545 70.5578C220.698 70.5578 219.239 70.0218 218.167 68.9496C217.095 67.8774 216.558 66.3733 216.558 64.4374V52.6433H212.448V48.846H213.61C214.712 48.846 215.531 48.5481 216.067 47.9525C216.633 47.327 216.916 46.5229 216.916 45.54V42.0554H220.758ZM246.564 57.9149V70.3345H242.364V48.846H246.474V51.9285C247.904 49.4565 250.108 48.2205 253.086 48.2205C255.558 48.2205 257.449 49.0098 258.76 50.5883C260.1 52.1668 260.77 54.2069 260.77 56.7087V70.3345H256.571V57.4235C256.571 53.8197 254.903 52.0179 251.567 52.0179C249.989 52.0179 248.753 52.5837 247.859 53.7155C246.995 54.8175 246.564 56.2173 246.564 57.9149ZM270.268 57.3788H282.018C281.958 55.7705 281.422 54.4601 280.409 53.4475C279.397 52.4051 277.967 51.8838 276.121 51.8838C274.453 51.8838 273.083 52.4348 272.01 53.5368C270.938 54.609 270.358 55.8897 270.268 57.3788ZM282.643 62.9632L286.262 64.214C285.636 66.2095 284.475 67.8476 282.777 69.1283C281.079 70.3791 279.024 71.0046 276.612 71.0046C273.604 71.0046 271.043 69.9771 268.928 67.922C266.843 65.8372 265.801 63.0376 265.801 59.5232C265.801 56.2471 266.813 53.5368 268.839 51.3924C270.864 49.248 273.276 48.1759 276.076 48.1759C279.322 48.1759 281.854 49.2034 283.671 51.2584C285.487 53.2837 286.396 56.0088 286.396 59.4339C286.396 59.97 286.366 60.4167 286.306 60.7741H270.134C270.164 62.6802 270.789 64.2438 272.01 65.4649C273.261 66.686 274.795 67.2966 276.612 67.2966C279.68 67.2966 281.69 65.8521 282.643 62.9632ZM294.575 57.3788H306.324C306.264 55.7705 305.728 54.4601 304.716 53.4475C303.703 52.4051 302.274 51.8838 300.427 51.8838C298.759 51.8838 297.389 52.4348 296.317 53.5368C295.245 54.609 294.664 55.8897 294.575 57.3788ZM306.949 62.9632L310.568 64.214C309.943 66.2095 308.781 67.8476 307.083 69.1283C305.386 70.3791 303.331 71.0046 300.918 71.0046C297.91 71.0046 295.349 69.9771 293.234 67.922C291.15 65.8372 290.107 63.0376 290.107 59.5232C290.107 56.2471 291.12 53.5368 293.145 51.3924C295.17 49.248 297.583 48.1759 300.382 48.1759C303.629 48.1759 306.16 49.2034 307.977 51.2584C309.794 53.2837 310.702 56.0088 310.702 59.4339C310.702 59.97 310.672 60.4167 310.613 60.7741H294.441C294.47 62.6802 295.096 64.2438 296.317 65.4649C297.568 66.686 299.102 67.2966 300.918 67.2966C303.986 67.2966 305.996 65.8521 306.949 62.9632ZM318.658 59.5232C318.658 61.7867 319.209 63.6333 320.311 65.0629C321.442 66.4925 322.991 67.2072 324.957 67.2072C326.833 67.2072 328.337 66.4776 329.469 65.0182C330.601 63.5588 331.166 61.6974 331.166 59.4339C331.166 57.2001 330.615 55.3983 329.514 54.0282C328.412 52.6582 326.907 51.9732 325.001 51.9732C323.095 51.9732 321.561 52.6731 320.4 54.0729C319.238 55.4727 318.658 57.2895 318.658 59.5232ZM331.211 67.4306V67.0732C330.645 68.1752 329.782 69.0985 328.62 69.8431C327.488 70.5578 326.133 70.9152 324.555 70.9152C321.487 70.9152 319.015 69.8431 317.139 67.6987C315.292 65.5245 314.369 62.7994 314.369 59.5232C314.369 56.396 315.322 53.7453 317.228 51.5711C319.134 49.3672 321.576 48.2652 324.555 48.2652C326.312 48.2652 327.741 48.6226 328.843 49.3374C329.945 50.0224 330.705 50.8712 331.122 51.8838V37.99H335.277V66.3584C335.277 67.8178 335.351 69.1431 335.5 70.3345H331.435C331.286 69.5005 331.211 68.5326 331.211 67.4306ZM345.238 57.3788H356.987C356.928 55.7705 356.392 54.4601 355.379 53.4475C354.366 52.4051 352.937 51.8838 351.09 51.8838C349.422 51.8838 348.052 52.4348 346.98 53.5368C345.908 54.609 345.327 55.8897 345.238 57.3788ZM357.613 62.9632L361.231 64.214C360.606 66.2095 359.444 67.8476 357.747 69.1283C356.049 70.3791 353.994 71.0046 351.582 71.0046C348.574 71.0046 346.012 69.9771 343.898 67.922C341.813 65.8372 340.77 63.0376 340.77 59.5232C340.77 56.2471 341.783 53.5368 343.808 51.3924C345.833 49.248 348.246 48.1759 351.046 48.1759C354.292 48.1759 356.823 49.2034 358.64 51.2584C360.457 53.2837 361.365 56.0088 361.365 59.4339C361.365 59.97 361.336 60.4167 361.276 60.7741H345.104C345.134 62.6802 345.759 64.2438 346.98 65.4649C348.231 66.686 349.765 67.2966 351.582 67.2966C354.649 67.2966 356.66 65.8521 357.613 62.9632ZM369.321 59.5232C369.321 61.7867 369.872 63.6333 370.974 65.0629C372.106 66.4925 373.654 67.2072 375.62 67.2072C377.496 67.2072 379 66.4776 380.132 65.0182C381.264 63.5588 381.83 61.6974 381.83 59.4339C381.83 57.2001 381.279 55.3983 380.177 54.0282C379.075 52.6582 377.571 51.9732 375.665 51.9732C373.758 51.9732 372.225 52.6731 371.063 54.0729C369.902 55.4727 369.321 57.2895 369.321 59.5232ZM381.874 67.4306V67.0732C381.309 68.1752 380.445 69.0985 379.283 69.8431C378.151 70.5578 376.796 70.9152 375.218 70.9152C372.15 70.9152 369.678 69.8431 367.802 67.6987C365.955 65.5245 365.032 62.7994 365.032 59.5232C365.032 56.396 365.985 53.7453 367.891 51.5711C369.797 49.3672 372.24 48.2652 375.218 48.2652C376.975 48.2652 378.405 48.6226 379.507 49.3374C380.609 50.0224 381.368 50.8712 381.785 51.8838V37.99H385.94V66.3584C385.94 67.8178 386.014 69.1431 386.163 70.3345H382.098C381.949 69.5005 381.874 68.5326 381.874 67.4306ZM410.067 42.0554V48.846H414.713V52.6433H410.067V63.812C410.067 64.8246 410.29 65.5692 410.737 66.0457C411.213 66.5222 411.988 66.7605 413.06 66.7605C413.685 66.7605 414.236 66.7009 414.713 66.5818V70.1558C413.998 70.4238 413.045 70.5578 411.854 70.5578C410.007 70.5578 408.548 70.0218 407.476 68.9496C406.403 67.8774 405.867 66.3733 405.867 64.4374V52.6433H401.757V48.846H402.919C404.021 48.846 404.84 48.5481 405.376 47.9525C405.942 47.327 406.225 46.5229 406.225 45.54V42.0554H410.067ZM424.616 65.2416C425.926 66.5818 427.52 67.2519 429.396 67.2519C431.272 67.2519 432.851 66.5818 434.132 65.2416C435.442 63.8715 436.097 61.9803 436.097 59.5679C436.097 57.1852 435.442 55.3238 434.132 53.9836C432.851 52.6135 431.272 51.9285 429.396 51.9285C427.52 51.9285 425.926 52.6135 424.616 53.9836C423.335 55.3238 422.695 57.1852 422.695 59.5679C422.695 61.9803 423.335 63.8715 424.616 65.2416ZM421.489 51.4371C423.573 49.2629 426.209 48.1759 429.396 48.1759C432.583 48.1759 435.204 49.2629 437.259 51.4371C439.344 53.5815 440.386 56.2917 440.386 59.5679C440.386 62.8738 439.358 65.6139 437.303 67.788C435.248 69.9324 432.613 71.0046 429.396 71.0046C426.179 71.0046 423.544 69.9324 421.489 67.788C419.434 65.6139 418.406 62.8738 418.406 59.5679C418.406 56.2917 419.434 53.5815 421.489 51.4371ZM32.995 113.447H39.3388C41.2152 113.447 42.7043 112.971 43.8063 112.018C44.9083 111.035 45.4592 109.725 45.4592 108.087C45.4592 106.419 44.9083 105.093 43.8063 104.11C42.7043 103.098 41.2152 102.592 39.3388 102.592H32.995V113.447ZM40.143 117.379H32.995V130.334H28.6169V98.6602H40.143C43.0319 98.6602 45.3848 99.5536 47.2016 101.341C49.0183 103.128 49.9267 105.361 49.9267 108.042C49.9267 110.752 49.0183 112.986 47.2016 114.743C45.3848 116.5 43.0319 117.379 40.143 117.379ZM57.5537 125.242C58.8642 126.582 60.4576 127.252 62.3339 127.252C64.2103 127.252 65.7888 126.582 67.0694 125.242C68.3799 123.872 69.0351 121.98 69.0351 119.568C69.0351 117.185 68.3799 115.324 67.0694 113.984C65.7888 112.614 64.2103 111.929 62.3339 111.929C60.4576 111.929 58.8642 112.614 57.5537 113.984C56.2731 115.324 55.6327 117.185 55.6327 119.568C55.6327 121.98 56.2731 123.872 57.5537 125.242ZM54.4265 111.437C56.5113 109.263 59.1471 108.176 62.3339 108.176C65.5207 108.176 68.1416 109.263 70.1967 111.437C72.2815 113.581 73.3239 116.292 73.3239 119.568C73.3239 122.874 72.2964 125.614 70.2413 127.788C68.1863 129.932 65.5505 131.005 62.3339 131.005C59.1174 131.005 56.4816 129.932 54.4265 127.788C52.3715 125.614 51.344 122.874 51.344 119.568C51.344 116.292 52.3715 113.581 54.4265 111.437ZM82.9892 130.334H78.7898V97.99H82.9892V130.334ZM88.8858 124.571C88.8858 122.725 89.4814 121.251 90.6728 120.149C91.8641 119.017 93.4426 118.317 95.4083 118.049L101.216 117.2C102.318 117.051 102.869 116.515 102.869 115.592C102.869 114.46 102.482 113.537 101.707 112.822C100.933 112.107 99.7715 111.75 98.2228 111.75C96.7932 111.75 95.6614 112.152 94.8275 112.956C93.9936 113.73 93.5022 114.773 93.3532 116.083L89.3325 115.145C89.541 113.09 90.4792 111.422 92.147 110.142C93.8149 108.831 95.8104 108.176 98.1334 108.176C101.171 108.176 103.42 108.92 104.879 110.41C106.339 111.869 107.068 113.745 107.068 116.039V126.805C107.068 128.086 107.158 129.262 107.336 130.334H103.226C103.077 129.441 103.003 128.473 103.003 127.431C102.407 128.384 101.529 129.218 100.367 129.932C99.2354 130.647 97.8058 131.005 96.0784 131.005C93.9638 131.005 92.2364 130.379 90.8961 129.128C89.5559 127.848 88.8858 126.329 88.8858 124.571ZM96.6592 127.475C98.5355 127.475 100.04 126.969 101.171 125.956C102.303 124.944 102.869 123.335 102.869 121.131V120.149L96.3018 121.131C95.3487 121.28 94.5892 121.623 94.0234 122.159C93.4575 122.695 93.1746 123.425 93.1746 124.348C93.1746 125.182 93.4873 125.912 94.1127 126.537C94.7679 127.163 95.6168 127.475 96.6592 127.475ZM117.903 117.915V130.334H113.703V108.846H117.814V111.929C119.243 109.457 121.447 108.221 124.425 108.221C126.897 108.221 128.789 109.01 130.099 110.588C131.439 112.167 132.109 114.207 132.109 116.709V130.334H127.91V117.424C127.91 113.82 126.242 112.018 122.906 112.018C121.328 112.018 120.092 112.584 119.198 113.716C118.335 114.817 117.903 116.217 117.903 117.915ZM141.384 119.523C141.384 121.787 141.935 123.633 143.037 125.063C144.169 126.492 145.718 127.207 147.683 127.207C149.56 127.207 151.064 126.478 152.195 125.018C153.327 123.559 153.893 121.697 153.893 119.434C153.893 117.2 153.342 115.398 152.24 114.028C151.138 112.658 149.634 111.973 147.728 111.973C145.822 111.973 144.288 112.673 143.126 114.073C141.965 115.473 141.384 117.289 141.384 119.523ZM153.938 127.431V127.073C153.372 128.175 152.508 129.098 151.347 129.843C150.215 130.558 148.86 130.915 147.281 130.915C144.214 130.915 141.742 129.843 139.865 127.699C138.019 125.525 137.095 122.799 137.095 119.523C137.095 116.396 138.048 113.745 139.955 111.571C141.861 109.367 144.303 108.265 147.281 108.265C149.038 108.265 150.468 108.623 151.57 109.337C152.672 110.022 153.431 110.871 153.848 111.884V97.99H158.003V126.358C158.003 127.818 158.078 129.143 158.227 130.334H154.161C154.012 129.501 153.938 128.533 153.938 127.431ZM184.819 119.345H172.712V115.681H184.819V119.345ZM204.373 130.334H199.995V98.6602H219.25V102.726H204.373V112.911H217.865V117.021H204.373V130.334ZM221.336 124.571C221.336 122.725 221.932 121.251 223.123 120.149C224.315 119.017 225.893 118.317 227.859 118.049L233.666 117.2C234.768 117.051 235.319 116.515 235.319 115.592C235.319 114.46 234.932 113.537 234.158 112.822C233.383 112.107 232.222 111.75 230.673 111.75C229.244 111.75 228.112 112.152 227.278 112.956C226.444 113.73 225.953 114.773 225.804 116.083L221.783 115.145C221.991 113.09 222.93 111.422 224.597 110.142C226.265 108.831 228.261 108.176 230.584 108.176C233.622 108.176 235.87 108.92 237.33 110.41C238.789 111.869 239.519 113.745 239.519 116.039V126.805C239.519 128.086 239.608 129.262 239.787 130.334H235.677C235.528 129.441 235.453 128.473 235.453 127.431C234.858 128.384 233.979 129.218 232.818 129.932C231.686 130.647 230.256 131.005 228.529 131.005C226.414 131.005 224.687 130.379 223.347 129.128C222.006 127.848 221.336 126.329 221.336 124.571ZM229.11 127.475C230.986 127.475 232.49 126.969 233.622 125.956C234.753 124.944 235.319 123.335 235.319 121.131V120.149L228.752 121.131C227.799 121.28 227.04 121.623 226.474 122.159C225.908 122.695 225.625 123.425 225.625 124.348C225.625 125.182 225.938 125.912 226.563 126.537C227.218 127.163 228.067 127.475 229.11 127.475ZM250.309 130.334H246.154V108.846H250.175V111.705C250.83 110.573 251.753 109.71 252.944 109.114C254.136 108.518 255.387 108.221 256.697 108.221C258.097 108.221 259.378 108.563 260.539 109.248C261.701 109.933 262.564 110.946 263.13 112.286C264.619 109.576 267.017 108.221 270.323 108.221C272.378 108.221 274.12 108.92 275.55 110.32C277.009 111.72 277.739 113.745 277.739 116.396V130.334H273.584V116.843C273.584 115.354 273.197 114.162 272.423 113.269C271.678 112.375 270.546 111.929 269.027 111.929C267.568 111.929 266.377 112.45 265.453 113.492C264.53 114.505 264.068 115.785 264.068 117.334V130.334H259.869V116.843C259.869 115.354 259.482 114.162 258.707 113.269C257.963 112.375 256.831 111.929 255.312 111.929C253.823 111.929 252.617 112.435 251.694 113.447C250.77 114.46 250.309 115.771 250.309 117.379V130.334ZM288.707 130.334H284.552V108.846H288.707V130.334ZM284.463 102.86C283.897 102.264 283.614 101.549 283.614 100.715C283.614 99.8813 283.897 99.1665 284.463 98.5708C285.058 97.9751 285.773 97.6773 286.607 97.6773C287.441 97.6773 288.156 97.9751 288.751 98.5708C289.347 99.1367 289.645 99.8515 289.645 100.715C289.645 101.549 289.347 102.264 288.751 102.86C288.156 103.425 287.441 103.708 286.607 103.708C285.773 103.708 285.058 103.425 284.463 102.86ZM300.144 130.334H295.945V97.99H300.144V130.334ZM312.742 139.314H308.14L313.501 127.967L304.254 108.846H309.078L315.78 123.678L322.213 108.846H326.725L312.742 139.314ZM346.543 125.242C347.853 126.582 349.447 127.252 351.323 127.252C353.199 127.252 354.778 126.582 356.059 125.242C357.369 123.872 358.024 121.98 358.024 119.568C358.024 117.185 357.369 115.324 356.059 113.984C354.778 112.614 353.199 111.929 351.323 111.929C349.447 111.929 347.853 112.614 346.543 113.984C345.262 115.324 344.622 117.185 344.622 119.568C344.622 121.98 345.262 123.872 346.543 125.242ZM343.416 111.437C345.5 109.263 348.136 108.176 351.323 108.176C354.51 108.176 357.131 109.263 359.186 111.437C361.271 113.581 362.313 116.292 362.313 119.568C362.313 122.874 361.285 125.614 359.23 127.788C357.175 129.932 354.54 131.005 351.323 131.005C348.106 131.005 345.471 129.932 343.416 127.788C341.361 125.614 340.333 122.874 340.333 119.568C340.333 116.292 341.361 113.581 343.416 111.437ZM378.59 112.643H373.408V130.334H369.074V112.643H365.098V108.846H369.074V105.227C369.074 102.934 369.745 101.132 371.085 99.8217C372.425 98.5112 374.108 97.856 376.133 97.856C377.414 97.856 378.248 98.0049 378.635 98.3028V102.055C378.188 101.877 377.577 101.787 376.803 101.787C375.88 101.787 375.076 102.07 374.391 102.636C373.735 103.172 373.408 104.11 373.408 105.451V108.846H378.59V112.643ZM400.925 116.887L398.78 113.269L407.313 105.406H393.464V101.385H413.121V105.317L404.856 112.956C407.209 112.956 409.279 113.73 411.066 115.279C412.883 116.828 413.791 118.987 413.791 121.757C413.791 124.318 412.853 126.507 410.977 128.324C409.1 130.141 406.539 131.049 403.293 131.049C400.106 131.049 397.544 130.171 395.608 128.413C393.702 126.626 392.675 124.467 392.526 121.936L396.815 120.953C396.904 122.829 397.544 124.348 398.736 125.51C399.957 126.641 401.461 127.207 403.248 127.207C405.154 127.207 406.643 126.701 407.715 125.688C408.817 124.646 409.368 123.365 409.368 121.846C409.368 120.089 408.787 118.749 407.626 117.826C406.464 116.902 405.079 116.441 403.471 116.441C402.607 116.441 401.759 116.59 400.925 116.887ZM419.244 129.664C418.648 129.069 418.35 128.339 418.35 127.475C418.35 126.612 418.648 125.882 419.244 125.286C419.839 124.661 420.569 124.348 421.433 124.348C422.296 124.348 423.026 124.661 423.622 125.286C424.247 125.882 424.56 126.612 424.56 127.475C424.56 128.339 424.247 129.069 423.622 129.664C423.026 130.26 422.296 130.558 421.433 130.558C420.569 130.558 419.839 130.26 419.244 129.664Z" fill="black"/>
<rect width="597.151" height="53.8699" transform="translate(0.769531 168.161)" fill="#46E297"/>
<path d="M38.9633 187.345H33.6262V201.117H30.3143V187.345H24.9772V184.224H38.9633V187.345ZM46.6165 189.347V192.54C46.2988 192.476 45.9811 192.444 45.6634 192.444C44.758 192.444 44.0273 192.706 43.4714 193.231C42.9154 193.739 42.6374 194.581 42.6374 195.756V201.117H39.4685V189.395H42.5421V191.134C43.114 189.911 44.2259 189.299 45.8778 189.299C46.0526 189.299 46.2988 189.315 46.6165 189.347ZM48.3513 197.924C48.3513 196.924 48.677 196.122 49.3282 195.518C49.9795 194.914 50.8214 194.533 51.8538 194.374L54.7368 193.945C55.3246 193.866 55.6184 193.588 55.6184 193.111C55.6184 192.667 55.4437 192.301 55.0942 192.015C54.7607 191.73 54.2762 191.587 53.6408 191.587C52.9737 191.587 52.4416 191.769 52.0444 192.135C51.6632 192.5 51.4488 192.953 51.4011 193.493L48.5896 192.897C48.7008 191.88 49.2012 190.983 50.0907 190.205C50.9802 189.426 52.1556 189.037 53.617 189.037C55.3643 189.037 56.6509 189.458 57.4769 190.3C58.3029 191.126 58.7159 192.19 58.7159 193.493V199.259C58.7159 199.958 58.7635 200.577 58.8588 201.117H55.952C55.8726 200.768 55.8329 200.299 55.8329 199.711C55.0863 200.871 53.9347 201.451 52.378 201.451C51.1708 201.451 50.1939 201.101 49.4474 200.402C48.7167 199.703 48.3513 198.877 48.3513 197.924ZM53.0452 199.092C53.7917 199.092 54.4033 198.885 54.8798 198.472C55.3722 198.044 55.6184 197.345 55.6184 196.376V195.852L52.9737 196.257C52.0047 196.4 51.5203 196.892 51.5203 197.734C51.5203 198.115 51.6553 198.441 51.9253 198.711C52.1953 198.965 52.5686 199.092 53.0452 199.092ZM65.2298 194.374V201.117H62.0609V189.395H65.1345V190.848C65.4681 190.276 65.9446 189.839 66.5641 189.538C67.1836 189.236 67.8348 189.085 68.5179 189.085C69.8998 189.085 70.9482 189.522 71.663 190.395C72.3936 191.253 72.759 192.365 72.759 193.731V201.117H69.5901V194.279C69.5901 193.58 69.4074 193.016 69.042 192.587C68.6926 192.158 68.1525 191.944 67.4218 191.944C66.7547 191.944 66.2226 192.174 65.8255 192.635C65.4284 193.096 65.2298 193.675 65.2298 194.374ZM75.1253 197.853L77.8415 197.257C77.8732 197.766 78.0718 198.194 78.4371 198.544C78.8184 198.877 79.3346 199.044 79.9859 199.044C80.4783 199.044 80.8595 198.933 81.1295 198.711C81.3996 198.488 81.5346 198.21 81.5346 197.877C81.5346 197.289 81.1136 196.908 80.2718 196.733L78.7231 196.376C77.627 196.137 76.8011 195.709 76.2451 195.089C75.705 194.47 75.435 193.731 75.435 192.873C75.435 191.809 75.848 190.904 76.674 190.157C77.5158 189.41 78.5642 189.037 79.8191 189.037C80.6133 189.037 81.3122 189.156 81.9158 189.395C82.5194 189.617 82.988 189.911 83.3216 190.276C83.6551 190.626 83.9093 190.983 84.084 191.348C84.2587 191.714 84.3699 192.071 84.4176 192.421L81.7728 193.016C81.7093 192.603 81.5187 192.238 81.201 191.92C80.8992 191.602 80.4465 191.444 79.8429 191.444C79.4299 191.444 79.0725 191.555 78.7707 191.777C78.4848 192 78.3418 192.278 78.3418 192.611C78.3418 193.183 78.6992 193.532 79.414 193.66L81.0819 194.017C82.2097 194.255 83.0674 194.692 83.6551 195.327C84.2587 195.963 84.5605 196.725 84.5605 197.615C84.5605 198.663 84.1634 199.568 83.3692 200.331C82.575 201.093 81.4552 201.475 80.0097 201.475C79.1837 201.475 78.4451 201.355 77.7938 201.117C77.1426 200.863 76.6343 200.545 76.2689 200.164C75.9195 199.767 75.6494 199.378 75.4588 198.997C75.2841 198.6 75.1729 198.218 75.1253 197.853ZM90.4282 205.644H87.2593V189.395H90.3329V190.824C90.6188 190.348 91.0795 189.951 91.7148 189.633C92.3502 189.299 93.0888 189.132 93.9307 189.132C95.5985 189.132 96.9169 189.704 97.8859 190.848C98.8548 191.976 99.3393 193.437 99.3393 195.232C99.3393 197.027 98.8231 198.504 97.7906 199.664C96.774 200.823 95.4476 201.403 93.8116 201.403C92.2549 201.403 91.1271 200.927 90.4282 199.974V205.644ZM95.3841 197.686C95.9401 197.083 96.218 196.272 96.218 195.256C96.218 194.239 95.9401 193.437 95.3841 192.849C94.844 192.262 94.1531 191.968 93.3112 191.968C92.4693 191.968 91.7704 192.27 91.2145 192.873C90.6585 193.461 90.3805 194.255 90.3805 195.256C90.3805 196.257 90.6585 197.059 91.2145 197.662C91.7704 198.266 92.4693 198.568 93.3112 198.568C94.1531 198.568 94.844 198.274 95.3841 197.686ZM105.144 197.71C105.732 198.298 106.439 198.592 107.265 198.592C108.091 198.592 108.79 198.298 109.362 197.71C109.949 197.122 110.243 196.304 110.243 195.256C110.243 194.208 109.949 193.389 109.362 192.802C108.79 192.214 108.091 191.92 107.265 191.92C106.439 191.92 105.732 192.214 105.144 192.802C104.572 193.389 104.286 194.208 104.286 195.256C104.286 196.304 104.572 197.122 105.144 197.71ZM102.857 190.8C104.032 189.625 105.502 189.037 107.265 189.037C109.028 189.037 110.489 189.625 111.649 190.8C112.824 191.976 113.412 193.461 113.412 195.256C113.412 197.051 112.824 198.536 111.649 199.711C110.489 200.887 109.028 201.475 107.265 201.475C105.502 201.475 104.032 200.887 102.857 199.711C101.697 198.536 101.118 197.051 101.118 195.256C101.118 193.461 101.697 191.976 102.857 190.8ZM123.212 189.347V192.54C122.894 192.476 122.577 192.444 122.259 192.444C121.354 192.444 120.623 192.706 120.067 193.231C119.511 193.739 119.233 194.581 119.233 195.756V201.117H116.064V189.395H119.138V191.134C119.71 189.911 120.822 189.299 122.474 189.299C122.648 189.299 122.894 189.315 123.212 189.347ZM129.965 185.892V189.395H132.324V192.206H129.965V197.114C129.965 197.607 130.076 197.956 130.298 198.163C130.521 198.369 130.87 198.472 131.347 198.472C131.776 198.472 132.101 198.441 132.324 198.377V200.998C131.863 201.189 131.267 201.284 130.537 201.284C129.393 201.284 128.488 200.966 127.821 200.331C127.153 199.68 126.82 198.79 126.82 197.662V192.206H124.699V189.395H125.295C125.883 189.395 126.327 189.228 126.629 188.894C126.947 188.545 127.106 188.092 127.106 187.536V185.892H129.965Z" fill="black"/>
<path d="M445.785 196.781L448.859 196.09C448.89 196.82 449.16 197.44 449.669 197.948C450.193 198.441 450.86 198.687 451.67 198.687C452.433 198.687 453.068 198.457 453.576 197.996C454.085 197.535 454.339 196.924 454.339 196.161C454.339 195.319 454.069 194.676 453.529 194.231C453.004 193.787 452.361 193.564 451.599 193.564C450.63 193.564 449.835 193.914 449.216 194.613C448.088 194.184 447.087 193.842 446.214 193.588L448.048 185.654H456.769V188.489H450.288L449.526 191.896C450.209 191.261 451.138 190.943 452.313 190.943C453.902 190.943 455.181 191.404 456.149 192.325C457.118 193.231 457.603 194.493 457.603 196.114C457.603 197.607 457.063 198.877 455.983 199.926C454.903 200.974 453.465 201.498 451.67 201.498C450.05 201.498 448.684 201.03 447.572 200.093C446.476 199.155 445.88 198.052 445.785 196.781ZM463.409 189.466C462.853 190.34 462.575 191.65 462.575 193.397C462.575 195.145 462.853 196.455 463.409 197.329C463.933 198.171 464.712 198.592 465.744 198.592C466.761 198.592 467.531 198.171 468.055 197.329C468.627 196.471 468.913 195.161 468.913 193.397C468.913 191.634 468.627 190.324 468.055 189.466C467.531 188.624 466.761 188.203 465.744 188.203C464.712 188.203 463.933 188.624 463.409 189.466ZM460.645 198.901C459.74 197.519 459.287 195.685 459.287 193.397C459.287 191.11 459.74 189.275 460.645 187.893C461.805 186.162 463.504 185.296 465.744 185.296C467.984 185.296 469.675 186.162 470.819 187.893C471.74 189.291 472.201 191.126 472.201 193.397C472.201 195.669 471.74 197.504 470.819 198.901C469.675 200.633 467.984 201.498 465.744 201.498C463.504 201.498 461.805 200.633 460.645 198.901ZM478.324 189.466C477.768 190.34 477.49 191.65 477.49 193.397C477.49 195.145 477.768 196.455 478.324 197.329C478.848 198.171 479.626 198.592 480.659 198.592C481.676 198.592 482.446 198.171 482.97 197.329C483.542 196.471 483.828 195.161 483.828 193.397C483.828 191.634 483.542 190.324 482.97 189.466C482.446 188.624 481.676 188.203 480.659 188.203C479.626 188.203 478.848 188.624 478.324 189.466ZM475.56 198.901C474.655 197.519 474.202 195.685 474.202 193.397C474.202 191.11 474.655 189.275 475.56 187.893C476.72 186.162 478.419 185.296 480.659 185.296C482.899 185.296 484.59 186.162 485.734 187.893C486.655 189.291 487.116 191.126 487.116 193.397C487.116 195.669 486.655 197.504 485.734 198.901C484.59 200.633 482.899 201.498 480.659 201.498C478.419 201.498 476.72 200.633 475.56 198.901ZM493.047 201.117H489.878V189.395H492.904V190.824C493.206 190.284 493.682 189.855 494.334 189.538C494.985 189.22 495.652 189.061 496.335 189.061C498.035 189.061 499.194 189.712 499.814 191.015C500.656 189.712 501.895 189.061 503.531 189.061C504.722 189.061 505.723 189.434 506.533 190.181C507.359 190.927 507.772 192.039 507.772 193.517V201.117H504.698V194.16C504.698 193.493 504.523 192.961 504.174 192.563C503.84 192.15 503.324 191.944 502.625 191.944C501.974 191.944 501.45 192.166 501.053 192.611C500.656 193.056 500.457 193.604 500.457 194.255V201.117H497.312V194.16C497.312 193.493 497.137 192.961 496.788 192.563C496.438 192.15 495.922 191.944 495.239 191.944C494.572 191.944 494.04 192.166 493.643 192.611C493.246 193.04 493.047 193.588 493.047 194.255V201.117ZM516.34 197.924C516.34 196.924 516.666 196.122 517.317 195.518C517.969 194.914 518.81 194.533 519.843 194.374L522.726 193.945C523.314 193.866 523.607 193.588 523.607 193.111C523.607 192.667 523.433 192.301 523.083 192.015C522.75 191.73 522.265 191.587 521.63 191.587C520.963 191.587 520.431 191.769 520.033 192.135C519.652 192.5 519.438 192.953 519.39 193.493L516.579 192.897C516.69 191.88 517.19 190.983 518.08 190.205C518.969 189.426 520.145 189.037 521.606 189.037C523.353 189.037 524.64 189.458 525.466 190.3C526.292 191.126 526.705 192.19 526.705 193.493V199.259C526.705 199.958 526.753 200.577 526.848 201.117H523.941C523.862 200.768 523.822 200.299 523.822 199.711C523.075 200.871 521.924 201.451 520.367 201.451C519.16 201.451 518.183 201.101 517.436 200.402C516.706 199.703 516.34 198.877 516.34 197.924ZM521.034 199.092C521.781 199.092 522.392 198.885 522.869 198.472C523.361 198.044 523.607 197.345 523.607 196.376V195.852L520.963 196.257C519.994 196.4 519.509 196.892 519.509 197.734C519.509 198.115 519.644 198.441 519.914 198.711C520.184 198.965 520.558 199.092 521.034 199.092ZM536.5 189.395H539.836L542.361 196.948L544.53 189.395H547.675L544.006 201.117H540.837L538.097 193.111L535.404 201.117H532.188L528.447 189.395H531.783L533.951 196.924L536.5 189.395ZM548.985 197.924C548.985 196.924 549.311 196.122 549.962 195.518C550.614 194.914 551.455 194.533 552.488 194.374L555.371 193.945C555.959 193.866 556.253 193.588 556.253 193.111C556.253 192.667 556.078 192.301 555.728 192.015C555.395 191.73 554.91 191.587 554.275 191.587C553.608 191.587 553.076 191.769 552.679 192.135C552.297 192.5 552.083 192.953 552.035 193.493L549.224 192.897C549.335 191.88 549.835 190.983 550.725 190.205C551.614 189.426 552.79 189.037 554.251 189.037C555.998 189.037 557.285 189.458 558.111 190.3C558.937 191.126 559.35 192.19 559.35 193.493V199.259C559.35 199.958 559.398 200.577 559.493 201.117H556.586C556.507 200.768 556.467 200.299 556.467 199.711C555.72 200.871 554.569 201.451 553.012 201.451C551.805 201.451 550.828 201.101 550.081 200.402C549.351 199.703 548.985 198.877 548.985 197.924ZM553.679 199.092C554.426 199.092 555.037 198.885 555.514 198.472C556.006 198.044 556.253 197.345 556.253 196.376V195.852L553.608 196.257C552.639 196.4 552.154 196.892 552.154 197.734C552.154 198.115 552.289 198.441 552.559 198.711C552.829 198.965 553.203 199.092 553.679 199.092ZM566.385 205.74H563.026L565.79 199.64L560.81 189.395H564.36L567.481 196.257L570.364 189.395H573.748L566.385 205.74Z" fill="black" fill-opacity="0.8"/>
</g>
<defs>
<clipPath id="clip0_680_16809">
<rect x="0.769531" y="0.507812" width="597.151" height="221.523" rx="23.8265" fill="white"/>
</clipPath>
</defs>
</svg>
