<?xml version="1.0" encoding="utf-8"?>
<svg width="1112" height="834" viewBox="-556 -417 1112 834" xmlns="http://www.w3.org/2000/svg">
  <style>

#looom {
--version:2; --tempo:118; --musicTime:0; 
}

#t0 {
--visible:1; --timeOffset:4.799998; --speed:10; --bookmarkIndex:-1; --latched:0; --playMode:0; --masked:0; --blendMode:0; --pressureEnabled:1; 
stroke:#FF2200; stroke-opacity:1; fill-opacity:0; stroke-width:36.76836; stroke-linecap:round; stroke-linejoin:round;
}
@keyframes t0 { 0% { opacity: 1; } 4.166667% { opacity: 0; } }
#t0 .frame { animation:t0 2.4s calc(var(--index) * 0.1s) steps(1) infinite; }

#t1 {
--visible:1; --timeOffset:2.4; --speed:10; --bookmarkIndex:-1; --latched:0; --playMode:0; --masked:0; --blendMode:0; --pressureEnabled:0; 
fill:#FF2000; stroke-opacity:0; fill-opacity:1; stroke-width:10; stroke-linecap:round; stroke-linejoin:round;
}
@keyframes t1 { 0% { opacity: 1; } 4.166667% { opacity: 0; } }
#t1 .frame { animation:t1 2.4s calc(var(--index) * 0.1s) steps(1) infinite; }

</style>
  <g id="w0" transform="translate(44.25 -12.25) scale(0.39 0.39) rotate(-1.29)" class="weave">
    <g id="t0" transform="translate(-34.63 -5.62)" class="thread">
      <g id="f0" style="--index:0; opacity:1;" class="frame">
        <path d="M-12.36,-288.51L-13.55,-287.85" stroke-profile="1.617118 1.559882 " />
      </g>
      <g id="f1" style="--index:1; opacity:0;" class="frame" />
      <g id="f2" style="--index:2; opacity:0;" class="frame" />
      <g id="f3" style="--index:3; opacity:0;" class="frame" />
      <g id="f4" style="--index:4; opacity:0;" class="frame" />
      <g id="f5" style="--index:5; opacity:0;" class="frame" />
      <g id="f6" style="--index:6; opacity:0;" class="frame" />
      <g id="f7" style="--index:7; opacity:0;" class="frame" />
      <g id="f8" style="--index:8; opacity:0;" class="frame" />
      <g id="f9" style="--index:9; opacity:0;" class="frame" />
      <g id="f10" style="--index:10; opacity:0;" class="frame" />
      <g id="f11" style="--index:11; opacity:0;" class="frame" />
      <g id="f12" style="--index:12; opacity:0;" class="frame" />
      <g id="f13" style="--index:13; opacity:0;" class="frame">
        <path d="M-99.90,1032.46" stroke-profile="0.1 " />
      </g>
      <g id="f14" style="--index:14; opacity:0;" class="frame">
        <path d="M-99.90,1032.46L-99.73,1001.98" stroke-profile="0.1917578 0.5041989 " />
      </g>
      <g id="f15" style="--index:15; opacity:0;" class="frame">
        <path d="M-99.73,1001.98L-96.85,971.70L-95.04,891.21" stroke-profile="0.5041989 0.4999179 0.7715017 " />
      </g>
      <g id="f16" style="--index:16; opacity:0;" class="frame">
        <path d="M-95.04,891.21L-88.44,816.69L-82.24,690.62" stroke-profile="0.7715017 0.7504687 0.6565614 " />
      </g>
      <g id="f17" style="--index:17; opacity:0;" class="frame">
        <path d="M-82.24,690.62L-74.64,599.97L-71.71,490.51" stroke-profile="0.6565614 0.7405376 1.010553 " />
      </g>
      <g id="f18" style="--index:18; opacity:0;" class="frame">
        <path d="M-71.71,490.51L-58.47,299.04" stroke-profile="1.010553 0.783316 " />
      </g>
      <g id="f19" style="--index:19; opacity:0;" class="frame">
        <path d="M-58.47,299.04L-46.11,156.43L-43.10,110.83" stroke-profile="0.783316 0.9062361 0.844014 " />
      </g>
      <g id="f20" style="--index:20; opacity:0;" class="frame">
        <path d="M-43.10,110.83L-37.53,14.90L-31.61,-62.32" stroke-profile="0.844014 1.0875 1.005025 " />
      </g>
      <g id="f21" style="--index:21; opacity:0;" class="frame">
        <path d="M-31.61,-62.32L-20.81,-189.44" stroke-profile="1.005025 1.170967 " />
      </g>
      <g id="f22" style="--index:22; opacity:0;" class="frame">
        <path d="M-20.81,-189.44L-13.45,-253.64L-12.34,-274.19" stroke-profile="1.170967 1.183144 1.262611 " />
      </g>
      <g id="f23" style="--index:23; opacity:0;" class="frame">
        <path d="M-12.34,-274.19L-12.36,-288.51" stroke-profile="1.262611 1.578642 " />
      </g>
    </g>
    <g id="t1" class="thread">
      <g id="f0" style="--index:0; opacity:1;" class="frame">
        <path d="M-11.19,-557.72L-20.12,-558.08L-14.50,-558.80" />
        <path d="M-14.50,-558.80L41.93,-571.00L97.83,-586.79L132.92,-593.42L156.77,-595.73L228.39,-599.70L250.32,-599.37L256.39,-598.55L277.83,-591.49L286.51,-587.60L293.49,-583.24L299.13,-578.54L303.95,-573.74L307.19,-568.09L309.32,-557.26L310.41,-538.54L319.29,-520.14L320.56,-509.32L322.44,-502.71L326.69,-497.88L335.21,-492.64L349.62,-480.52L358.75,-475.43L385.24,-466.25L389.72,-463.94L408.49,-449.72L429.12,-437.47L435.79,-432.27L441.05,-426.25L454.02,-403.71L458.54,-393.50L461.78,-380.11L464.36,-375.84L472.13,-367.89L475.56,-362.96L481.63,-346.63L491.98,-326.34L493.85,-319.24L493.81,-304.08L487.19,-286.51L482.63,-279.55L474.41,-273.16L448.82,-262.43L433.27,-253.03L417.89,-244.95L414.98,-242.49L413.65,-236.95L413.87,-231.37L417.44,-224.71L425.80,-214.61L449.59,-190.98L456.64,-182.05L462.17,-172.33L466.18,-162.30L475.25,-131.42L475.56,-122.31L472.07,-117.01L469.17,-114.55L461.12,-110.00L451.06,-106.53L440.91,-104.40L354.61,-102.45L323.91,-102.65L313.44,-101.85L302.70,-98.92L299.10,-96.11L297.34,-92.62L296.63,-82.18L301.16,-66.75L304.58,-45.78L304.85,-34.83L304.11,-32.64L300.13,-28.52L293.79,-25.13L285.31,-22.44L276.15,-20.47L265.67,-19.35L254.17,-18.76L235.78,-19.18L194.84,-28.87L151.23,-33.38L132.66,-33.48L128.92,-32.20L123.62,-28.95L120.16,-24.82L114.82,-13.99L108.66,-9.23L90.76,-2.22L80.60,-0.08L69.97,0.36L59.18,-0.08L53.29,-1.54L27.15,-10.38L8.14,-19.75L-18.63,-37.52L-33.31,-45.62L-51.36,-53.45L-60.43,-55.50L-74.28,-55.97L-84.60,-54.00L-96.65,-50.25L-131.54,-37.04L-165.19,-27.34L-178.94,-24.79L-193.31,-23.27L-214.21,-23.38L-227.48,-27.05L-233.34,-29.71L-238.66,-32.87L-247.09,-40.48L-250.71,-44.77L-255.89,-54.15L-264.08,-79.96L-268.29,-88.96L-271.05,-92.59L-279.25,-97.14L-296.41,-98.37L-303.86,-97.53L-353.37,-87.02L-375.90,-83.80L-402.27,-83.06L-420.12,-84.11L-425.14,-85.75L-433.80,-90.67L-446.89,-101.91L-457.01,-108.88L-468.56,-114.03L-485.96,-119.99L-494.96,-124.89L-498.61,-128.02L-501.89,-131.78L-506.62,-140.67L-512.58,-160.01L-515.79,-174.40L-516.82,-195.83L-519.14,-206.16L-521.90,-210.43L-525.37,-213.55L-535.24,-218.15L-555.01,-224.49L-559.02,-226.78L-565.62,-232.98L-574.45,-245.65L-578.64,-255.17L-580.24,-266.68L-580.08,-273.57L-579.05,-281.13L-571.93,-298.01L-557.42,-320.91L-548.16,-333.37L-487.01,-404.10L-481.78,-412.24L-477.25,-425.10L-476.20,-435.70L-476.23,-447.49L-483.94,-473.45L-485.14,-479.73L-484.32,-493.02L-480.63,-499.68L-475.07,-507.13L-467.45,-515.71L-458.01,-524.28L-436.01,-540.46L-424.41,-547.10L-413.32,-552.59L-390.68,-560.66L-366.24,-566.37L-342.06,-569.68L-319.75,-570.86L-281.61,-570.85L-256.38,-573.00L-232.46,-578.69L-177.88,-597.03L-151.07,-604.17L-140.07,-605.77L-131.30,-605.73L-124.09,-601.88L-116.65,-596.66L-107.29,-592.23L-77.06,-584.30L-60.40,-576.02L-50.51,-572.07L-24.65,-565.92L-18.33,-562.77L-14.50,-558.80" />
        <path d="M-14.50,-558.80L-12.54,-556.90" />
      </g>
      <g id="f1" style="--index:1; opacity:0;" class="frame" />
      <g id="f2" style="--index:2; opacity:0;" class="frame" />
      <g id="f3" style="--index:3; opacity:0;" class="frame" />
      <g id="f4" style="--index:4; opacity:0;" class="frame" />
      <g id="f5" style="--index:5; opacity:0;" class="frame" />
      <g id="f6" style="--index:6; opacity:0;" class="frame" />
      <g id="f7" style="--index:7; opacity:0;" class="frame" />
      <g id="f8" style="--index:8; opacity:0;" class="frame" />
      <g id="f9" style="--index:9; opacity:0;" class="frame" />
      <g id="f10" style="--index:10; opacity:0;" class="frame" />
      <g id="f11" style="--index:11; opacity:0;" class="frame" />
      <g id="f12" style="--index:12; opacity:0;" class="frame" />
      <g id="f13" style="--index:13; opacity:0;" class="frame" />
      <g id="f14" style="--index:14; opacity:0;" class="frame" />
      <g id="f15" style="--index:15; opacity:0;" class="frame" />
      <g id="f16" style="--index:16; opacity:0;" class="frame" />
      <g id="f17" style="--index:17; opacity:0;" class="frame" />
      <g id="f18" style="--index:18; opacity:0;" class="frame" />
      <g id="f19" style="--index:19; opacity:0;" class="frame">
        <path d="M-31.23,-355.77L-36.08,-351.19L-26.13,-357.70L-16.56,-362.70L-0.59,-368.08L4.64,-368.28L5.66,-367.42L8.49,-358.61L8.42,-355.40L5.67,-346.52L5.50,-338.95L8.93,-334.17L14.22,-329.16L26.25,-322.48L32.54,-317.80L36.65,-312.46L38.75,-308.04L38.65,-303.51L31.16,-293.05L24.11,-281.26L23.94,-273.49L25.22,-269.09L27.48,-265.67L36.26,-258.41L37.24,-256.18L37.19,-253.82L18.22,-243.62L9.91,-240.96L2.64,-240.28L-11.39,-240.59L-23.49,-242.39L-31.86,-244.58L-35.40,-244.66L-37.45,-244.03L-46.24,-237.00L-51.19,-234.23L-57.96,-232.54L-64.73,-233.01L-70.02,-237.86L-81.79,-254.13L-86.14,-256.91L-97.84,-260.74L-100.00,-262.80L-100.56,-268.38L-99.62,-272.05L-99.62,-279.63L-105.50,-294.76L-106.51,-303.72L-103.19,-309.38L-90.91,-321.42L-85.25,-325.31L-77.93,-328.35L-76.38,-329.84L-76.11,-334.04L-76.93,-336.10L-89.05,-352.21L-80.16,-357.55L-73.68,-359.77L-65.61,-359.43L-57.88,-357.41L-42.31,-358.55L-33.90,-357.71" />
      </g>
      <g id="f20" style="--index:20; opacity:0;" class="frame">
        <path d="M-44.62,-353.55L-40.91,-361.05L-31.24,-370.61L-6.67,-389.62L10.20,-404.05L15.81,-407.81L21.60,-409.69L23.45,-409.65L22.67,-403.61L11.47,-385.65L5.68,-368.10L-5.30,-354.19L-6.52,-352.05L-6.38,-350.52L-3.73,-349.26L-0.14,-349.38L16.86,-356.57L42.69,-364.25L51.67,-366.06L60.46,-366.87L71.60,-366.62L79.67,-364.75L80.44,-362.37L79.56,-359.54L66.71,-351.05L35.79,-326.15L26.48,-317.58L17.24,-306.00L14.79,-300.68L14.36,-296.80L14.67,-295.43L17.81,-292.67L31.43,-283.95L51.11,-273.56L64.40,-263.67L78.92,-248.51L83.79,-240.46L84.56,-236.07L81.98,-234.61L77.55,-233.54L40.17,-228.65L27.46,-226.25L7.25,-220.80L1.80,-218.56L-5.21,-213.99L-7.30,-211.35L-7.56,-207.47L-3.24,-197.94L-1.54,-190.84L-0.47,-163.67L-1.36,-160.49L-3.80,-157.53L-8.39,-154.91L-13.48,-155.22L-15.32,-156.10L-22.09,-162.64L-55.82,-216.32L-60.18,-224.00L-67.09,-239.48L-70.18,-244.28L-73.08,-244.18L-93.04,-226.59L-98.70,-222.66L-118.51,-211.64L-120.54,-211.52L-122.44,-217.46L-122.70,-228.94L-109.59,-264.53L-107.14,-275.43L-107.31,-283.53L-111.28,-285.30L-127.75,-288.52L-138.47,-292.29L-173.16,-310.95L-174.18,-311.82L-174.44,-313.67L-160.27,-313.87L-139.05,-312.55L-111.20,-312.09L-101.72,-313.04L-94.92,-315.94L-94.09,-322.14L-98.17,-328.80L-123.28,-352.98L-130.82,-363.58L-132.75,-367.84L-133.77,-374.43L-133.72,-376.80L-130.95,-378.91L-121.85,-378.22L-102.63,-370.89L-79.82,-365.13L-70.96,-361.72L-60.26,-355.42L-47.95,-355.50" />
      </g>
      <g id="f21" style="--index:21; opacity:0;" class="frame">
        <path d="M-30.49,-380.86" />
        <path d="M-50.91,-359.94L-50.83,-369.37L-45.05,-380.54L-39.30,-388.58" />
        <path d="M-39.30,-388.58L-16.95,-414.60L11.88,-442.43L32.00,-459.50L53.90,-473.17L76.75,-482.76L130.95,-497.90L140.93,-499.88L164.21,-500.04L164.00,-498.33L156.78,-492.11L142.64,-477.75L125.10,-464.15L91.66,-440.83L77.39,-428.33L54.77,-405.77L39.15,-393.13L13.90,-374.49L6.28,-366.08L1.23,-358.41L-1.64,-352.10L-3.34,-343.52L6.98,-343.29L39.25,-353.35L55.02,-357.21L62.12,-358.08L75.98,-357.93L82.50,-356.10L111.11,-345.00L148.33,-333.05L154.02,-330.56L161.97,-325.33L168.77,-318.44L172.50,-312.98L174.25,-308.53L174.22,-307.04L172.52,-306.40L167.99,-306.50L157.78,-309.58L148.17,-310.64L135.18,-310.93L77.55,-308.69L54.92,-306.68L42.19,-303.43L40.13,-302.12L39.94,-301.12L40.25,-299.91L44.24,-296.81L65.54,-283.50L109.97,-263.49L122.61,-255.43L135.38,-245.20L154.40,-228.29L164.90,-215.22L167.50,-209.63L168.72,-204.54L168.51,-195.09L163.80,-195.20L149.25,-200.93L140.71,-203.30L95.80,-211.40L85.75,-213.99L62.33,-223.10L50.74,-226.56L38.62,-227.16L35.06,-226.40L33.99,-224.74L34.27,-221.69L52.74,-202.06L76.39,-174.10L84.95,-162.92L88.02,-157.48L90.40,-152.04L92.72,-141.53L92.59,-120.64L89.15,-117.19L83.35,-114.95L64.95,-115.01L41.47,-121.27L31.11,-125.55L21.78,-131.33L10.18,-141.54L-4.75,-159.72L-9.87,-164.40L-11.87,-165.45L-17.26,-166.06L-18.96,-165.25L-20.87,-162.77L-25.73,-150.25L-34.03,-119.11L-38.74,-95.96L-42.79,-81.05L-45.29,-75.37L-50.86,-67.92L-53.62,-66.13L-58.69,-65.40L-61.23,-65.95L-66.80,-71.48L-70.89,-77.95L-73.93,-84.79L-82.00,-110.24L-94.19,-160.04L-101.06,-184.82L-104.55,-194.65L-110.54,-207.09L-114.78,-212.40L-117.13,-213.65L-122.52,-213.93L-126.82,-210.82L-137.93,-196.76L-147.10,-186.69L-159.02,-175.17L-176.19,-160.88L-202.42,-142.78L-205.64,-141.81L-208.53,-142.07L-208.80,-153.19L-206.44,-159.88L-202.74,-167.05L-161.32,-222.71L-151.64,-240.37L-148.25,-248.88L-144.20,-264.14L-143.08,-275.39L-144.53,-277.95L-150.73,-280.97L-160.95,-283.37L-202.99,-290.73L-228.59,-293.15L-281.71,-295.02L-304.93,-297.91L-310.11,-300.03L-309.92,-300.71L-307.22,-301.49L-299.08,-302.48L-268.52,-303.47L-203.30,-307.74L-171.22,-307.19L-151.91,-303.58L-123.26,-294.32L-123.66,-297.89L-126.10,-302.80L-148.75,-338.56L-156.03,-352.68L-169.07,-381.80L-179.24,-409.50L-190.92,-445.30L-194.59,-462.58L-195.12,-475.74L-192.27,-475.68L-188.11,-472.38L-152.29,-436.69L-137.22,-424.72L-130.19,-420.35L-117.84,-414.86L-104.04,-413.87L-98.75,-416.60L-92.90,-421.20L-87.01,-427.64L-80.38,-436.27L-74.63,-446.41L-69.09,-458.24L-49.02,-511.37L-37.70,-534.73L-36.57,-531.14L-35.34,-519.00L-35.09,-506.68L-36.51,-443.35L-39.30,-388.58" />
        <path d="M-39.30,-388.58L-39.24,-368.26L-37.31,-363.49L-34.48,-362.78" />
      </g>
      <g id="f22" style="--index:22; opacity:0;" class="frame">
        <path d="M-49.23,-411.64L-53.88,-406.69L-54.12,-403.65L-52.61,-403.61L-43.87,-417.93L-35.36,-427.65L-29.31,-433.25L8.46,-463.24L20.98,-472.58L34.00,-481.03L47.35,-488.99L72.95,-501.73L91.68,-509.05L123.13,-518.81L156.91,-526.64L177.89,-530.05L193.13,-531.72L228.27,-532.78L260.63,-531.72L309.94,-525.05L320.86,-522.79L332.91,-519.15L340.93,-514.76L344.39,-510.96L346.16,-507.06L347.00,-500.15L345.81,-499.14L312.06,-492.67L235.54,-481.75L205.69,-475.85L166.31,-464.42L79.16,-432.17L58.18,-423.02L26.74,-406.04L15.62,-399.07L-1.15,-386.97L-14.09,-376.48L-16.14,-373.64L-16.39,-369.95L-7.13,-369.07L41.48,-377.56L55.86,-379.28L74.97,-380.21L115.94,-379.45L166.77,-381.00L198.14,-379.97L216.97,-375.99L253.88,-365.73L274.52,-361.38L295.05,-358.07L314.50,-353.26L331.40,-346.14L362.37,-326.72L371.03,-322.16L388.74,-314.50L395.89,-309.45L399.83,-304.15L402.03,-296.52L394.49,-299.05L364.99,-301.24L312.87,-309.15L252.88,-315.19L210.55,-322.88L191.68,-325.02L165.39,-325.41L88.91,-318.38L77.73,-316.59L76.71,-315.61L76.67,-313.77L78.15,-312.21L83.67,-309.72L135.89,-298.44L184.15,-281.88L236.97,-266.18L257.69,-258.30L285.57,-243.87L360.17,-199.89L367.15,-195.20L379.45,-185.14L408.35,-158.71L409.01,-157.17L408.61,-154.65L402.51,-152.42L392.14,-150.32L371.21,-149.27L363.61,-149.44L355.70,-150.95L325.69,-158.72L271.93,-171.03L253.02,-177.19L213.40,-193.92L178.92,-203.90" />
        <path d="M178.92,-203.90L175.52,-207.08L176.55,-207.06L178.92,-203.90" />
        <path d="M178.92,-203.90L186.14,-191.68L193.09,-183.95L216.46,-164.86L258.30,-127.71L277.10,-114.49L311.23,-93.83L323.83,-83.61L331.25,-75.70L341.41,-62.80L350.77,-50.64L351.87,-47.57L336.19,-47.44L323.27,-51.26L312.41,-56.23L271.11,-80.58L260.26,-85.87L196.68,-110.72L170.48,-125.11L133.82,-152.24L120.14,-160.45L96.25,-172.13L86.48,-179.25L95.44,-164.73L102.65,-154.94L132.11,-122.28L142.94,-108.56L157.48,-86.50L175.33,-62.32L181.84,-52.07L185.51,-42.56L185.76,-30.41L184.18,-27.27L180.40,-24.31L175.97,-23.40L170.58,-23.52L164.07,-26.00L132.99,-40.53L115.62,-49.86L101.65,-58.44L84.41,-71.46L47.97,-102.95L11.72,-127.51L-2.21,-137.93L-11.49,-145.88L-29.83,-163.81L-33.49,-166.42L-37.13,-167.70L-37.04,-165.85L-30.52,-154.40L-25.38,-142.82L-20.99,-128.76L-14.18,-101.14L3.06,-57.28L7.87,-38.61L13.10,-0.27L13.11,14.73L8.52,22.72L1.31,28.62L-5.12,30.16L-11.89,29.85L-18.68,24.32L-32.41,4.60L-50.82,-17.87L-70.95,-44.59L-78.14,-55.22L-99.29,-90.42L-126.80,-128.93L-132.39,-135.80L-135.19,-138.06L-141.25,-139.72L-147.17,-139.50L-152.95,-135.74L-170.19,-119.96L-207.32,-82.38L-225.42,-66.94L-258.74,-40.90L-279.12,-27.53L-294.98,-19.46L-305.68,-16.33L-311.94,-16.15L-312.92,-17.18L-313.40,-26.29L-309.79,-37.00L-302.87,-51.00L-281.82,-86.25L-240.15,-147.64L-223.11,-175.57L-214.84,-191.91L-211.25,-201.61L-209.95,-213.53L-212.11,-215.43L-215.80,-216.35L-224.91,-216.56L-232.19,-215.23L-282.24,-196.63L-307.71,-189.62L-323.98,-186.26L-358.85,-181.50L-377.10,-180.71L-393.63,-181.08L-402.02,-182.31L-417.82,-186.68L-428.53,-190.65L-442.54,-197.70L-450.51,-204.10L-456.73,-212.17L-460.42,-220.68L-461.01,-225.23L-460.99,-231.96L-460.07,-236.35L-457.43,-240.50L-449.50,-249.07L-433.55,-259.33L-416.48,-267.73L-347.99,-297.84L-300.45,-316.50L-273.37,-328.20L-260.90,-335.34L-256.41,-338.77L-251.40,-344.88L-250.61,-349.26L-251.54,-353.98L-258.48,-360.39L-298.56,-379.50L-312.04,-387.02L-328.66,-399.02L-342.52,-412.81L-354.02,-427.42L-358.90,-435.11L-362.95,-443.27L-367.55,-456.00L-370.27,-469.38L-371.56,-486.77L-371.22,-501.92L-369.57,-508.46L-364.79,-519.30L-361.62,-523.80L-354.19,-531.37L-345.13,-537.06L-341.03,-538.66L-336.13,-539.39L-326.21,-539.00L-320.34,-536.86L-291.30,-522.06L-266.02,-513.23L-241.66,-507.27L-228.06,-505.12L-214.90,-504.50L-207.80,-505.51L-193.96,-511.93L-185.94,-517.16L-170.10,-529.93L-145.58,-554.68L-103.91,-606.12L-98.39,-611.41L-94.83,-612.49L-91.81,-612.26L-90.68,-610.55L-89.81,-602.95L-90.79,-559.50L-89.29,-499.15L-87.76,-484.77L-84.00,-471.21L-78.00,-459.64L-62.96,-438.89L-55.96,-427.46L-50.71,-420.93L-44.12,-414.53L-37.93,-411.03L-30.71,-409.37L-24.32,-409.23L-12.42,-412.33" />
      </g>
      <g id="f23" style="--index:23; opacity:0;" class="frame">
        <path d="M-18.17,-510.19L-10.96,-515.92L-3.12,-518.76L22.95,-522.06" />
        <path d="M22.95,-522.06L78.03,-531.77L141.92,-536.24L187.94,-541.10L205.14,-541.75L261.83,-540.80L305.44,-544.03L392.98,-541.55L435.62,-530.68L443.17,-528.15L451.47,-523.07L457.41,-516.36L458.10,-510.61L457.07,-508.79L451.91,-504.17L438.22,-496.41L420.02,-489.89L372.72,-479.84L254.37,-456.55L223.83,-448.81L220.60,-447.20L219.22,-445.55L219.44,-441.50L220.78,-439.94L228.26,-436.24L254.45,-429.60L286.29,-420.11L313.36,-413.93L322.53,-410.87L355.07,-393.97L383.55,-375.62L405.79,-367.70L419.63,-358.80L431.20,-348.96L434.16,-344.32L437.63,-335.66L443.97,-323.37L446.03,-317.27L445.38,-295.71L444.05,-290.52L440.60,-286.71L429.88,-282.58L413.60,-278.90L364.68,-272.09L349.58,-269.06L342.61,-266.01L340.17,-263.38L339.12,-260.68L339.47,-255.29L344.45,-249.97L359.60,-242.05L376.77,-231.20L392.63,-224.10L399.27,-219.91L407.38,-211.82L419.67,-195.51L426.31,-183.25L431.09,-155.67L430.89,-146.73L425.13,-138.44L420.15,-134.18L415.87,-131.91L402.83,-130.19L376.50,-130.79L345.32,-138.71L320.19,-140.80L295.31,-144.72L287.24,-144.90L285.37,-144.27L283.61,-142.98L280.84,-138.83L280.35,-132.59L284.59,-124.91L291.28,-115.34L298.39,-108.76L311.88,-99.88L316.14,-95.05L319.72,-89.43L327.27,-71.38L328.95,-63.76L328.79,-48.77L326.50,-44.77L325.27,-43.96L319.36,-42.40L309.89,-41.97L298.58,-42.22L290.37,-43.74L241.11,-60.36L208.24,-69.68L195.81,-71.97L181.30,-72.29L175.70,-71.09L169.90,-68.69L167.48,-66.38L165.88,-62.37L164.82,-53.97L164.48,-38.46L166.70,-24.26L166.65,-13.99L163.88,-12.04L156.96,-11.52L122.04,-12.30L111.44,-13.55L96.50,-17.41L68.73,-27.30L49.17,-35.35L29.41,-42.01L21.16,-43.72L1.95,-44.15L-3.83,-42.60L-11.18,-38.39L-16.72,-32.26L-26.02,-16.15L-29.34,-12.82L-34.29,-9.56L-46.34,-5.62L-56.70,-3.84L-73.92,-2.55L-93.82,-3.32L-101.88,-6.03L-112.70,-12.36L-119.66,-18.05L-131.66,-31.80L-138.95,-38.21L-147.48,-42.78L-156.83,-45.68L-167.60,-46.96L-195.61,-47.75L-208.12,-46.50L-235.27,-41.54L-253.21,-39.26L-267.21,-38.89L-271.25,-39.50L-275.10,-41.27L-282.25,-45.80L-291.62,-55.64L-299.11,-68.60L-305.80,-85.95L-311.47,-97.03L-338.69,-133.17L-352.40,-153.53L-360.33,-161.81L-375.61,-171.93L-388.82,-178.13L-396.02,-180.49L-413.30,-184.25L-456.44,-188.23L-469.20,-191.40L-474.68,-193.69L-479.53,-196.84L-483.64,-200.31L-490.58,-208.72L-494.92,-217.40L-496.06,-226.01L-495.96,-230.58L-494.18,-234.91L-490.88,-239.57L-486.88,-244.37L-476.03,-254.39L-434.51,-284.14L-422.48,-294.65L-413.30,-305.23L-406.61,-316.88L-404.44,-322.88L-402.13,-335.47L-401.69,-349.29L-402.53,-356.21L-405.07,-364.17L-412.26,-380.69L-421.51,-397.58L-429.89,-414.97L-436.28,-432.12L-439.44,-449.03L-439.67,-467.76L-438.97,-477.85L-436.20,-487.54L-432.28,-496.91L-427.68,-505.55L-417.22,-521.16L-404.61,-534.71L-397.53,-540.44L-383.15,-549.90L-366.77,-557.96L-341.62,-566.14L-326.36,-568.84L-319.09,-569.36L-292.80,-568.93L-280.25,-569.98L-268.23,-572.43L-248.00,-578.87L-240.67,-582.08L-232.62,-586.95L-212.53,-602.50L-189.32,-622.55L-182.10,-626.76L-171.26,-628.72L-138.48,-630.35L-124.32,-630.03L-117.77,-629.20L-111.39,-627.02L-99.55,-621.38L-81.74,-610.68L-68.87,-604.69L-49.14,-596.47L-30.21,-589.66L-11.37,-586.03L25.86,-584.19L35.09,-581.62L41.57,-577.94L45.19,-573.65L45.82,-571.08L45.53,-565.71L32.45,-546.95L26.12,-535.99L24.12,-529.62L22.95,-522.06" />
        <path d="M22.95,-522.06L22.91,-519.86L23.70,-518.84L32.10,-515.64" />
      </g>
    </g>
  </g>
</svg>