<svg width="447" height="447" viewBox="0 0 447 447" fill="none" xmlns="http://www.w3.org/2000/svg">
<circle cx="223.5" cy="223.5" r="222.842" stroke="black" stroke-width="1.31571"/>
<circle cx="223.5" cy="223.5" r="148.017" stroke="black" stroke-width="1.31571"/>
<circle cx="223.5" cy="223.5" r="68.6369" stroke="black" stroke-width="1.31571"/>
<path d="M202.713 224.738H193.244V232.847H191.76V215.589H193.244V223.427H202.713V215.589H204.197V232.847H202.713V224.738ZM215.405 233.144C213.196 233.144 211.465 232.394 210.213 230.894C208.96 229.378 208.334 227.152 208.334 224.218C208.334 221.284 208.96 219.067 210.213 217.567C211.465 216.051 213.196 215.293 215.405 215.293C217.597 215.293 219.32 216.051 220.572 217.567C221.825 219.084 222.452 221.301 222.452 224.218C222.452 227.136 221.825 229.353 220.572 230.869C219.32 232.386 217.597 233.144 215.405 233.144ZM215.405 231.809C216.229 231.809 216.971 231.669 217.63 231.389C218.306 231.092 218.883 230.663 219.361 230.103C219.839 229.543 220.21 228.858 220.474 228.051C220.737 227.243 220.869 226.328 220.869 225.306V223.131C220.869 222.109 220.737 221.194 220.474 220.386C220.21 219.578 219.839 218.903 219.361 218.359C218.883 217.798 218.306 217.37 217.63 217.073C216.971 216.776 216.229 216.628 215.405 216.628C214.581 216.628 213.831 216.776 213.155 217.073C212.479 217.37 211.902 217.798 211.424 218.359C210.946 218.903 210.575 219.578 210.312 220.386C210.048 221.194 209.916 222.109 209.916 223.131V225.306C209.916 226.328 210.048 227.243 210.312 228.051C210.575 228.858 210.946 229.543 211.424 230.103C211.902 230.663 212.479 231.092 213.155 231.389C213.831 231.669 214.581 231.809 215.405 231.809ZM240.14 217.493H240.041L234.082 228.051L228.124 217.493H228.025V232.847H226.591V215.589H228.618L234.082 225.306H234.156L239.621 215.589H241.574V232.847H240.14V217.493ZM246.589 232.847V215.589H256.677V216.9H248.073V223.427H256.257V224.738H248.073V231.537H256.677V232.847H246.589Z" fill="black"/>
<g clip-path="url(#clip0_1726_10625)">
<path d="M110.932 210.378C110.932 211.514 110.011 212.435 108.875 212.435C107.739 212.435 106.818 211.514 106.818 210.378C106.818 209.242 107.739 208.321 108.875 208.321C110.011 208.321 110.932 209.242 110.932 210.378Z" fill="black" stroke="#F1F1F1" stroke-width="0.657853"/>
<path d="M127.632 210.378C127.632 211.514 126.711 212.435 125.575 212.435C124.439 212.435 123.518 211.514 123.518 210.378C123.518 209.242 124.439 208.321 125.575 208.321C126.711 208.321 127.632 209.242 127.632 210.378Z" fill="black" stroke="#F1F1F1" stroke-width="0.657853"/>
<path d="M130.347 185.657V185.657L130.355 185.657C130.486 185.654 130.616 185.68 130.736 185.735C130.855 185.79 130.961 185.871 131.044 185.973L131.298 185.764L131.044 185.973C131.127 186.075 131.186 186.194 131.217 186.322C131.247 186.45 131.248 186.583 131.219 186.711L131.218 186.712L128.833 197.447C128.833 197.447 128.833 197.447 128.833 197.447C128.789 197.642 128.679 197.816 128.521 197.938C128.364 198.061 128.169 198.126 127.969 198.121L127.969 198.121H127.961H106.489H106.086L106.167 198.516L107.145 203.287L107.199 203.55H107.467H127.632V205.278H106.489V205.278L106.483 205.278C106.28 205.282 106.083 205.215 105.925 205.089L105.72 205.346L105.925 205.089C105.768 204.963 105.659 204.785 105.619 204.588C105.619 204.587 105.619 204.587 105.619 204.587L101.062 181.685L101.01 181.421H100.74H97.2752V179.693H101.718V179.693L101.724 179.693C101.927 179.689 102.124 179.755 102.282 179.882C102.439 180.008 102.547 180.185 102.588 180.383L103.566 185.391L103.618 185.657H103.889H130.347ZM127.007 196.393H127.271L127.328 196.135L129.177 187.785L129.265 187.385H128.855H104.366H103.965L104.043 187.778L105.713 196.128L105.766 196.393H106.036H127.007Z" fill="black" stroke="#F1F1F1" stroke-width="0.657853"/>
</g>
<g clip-path="url(#clip1_1726_10625)">
<path d="M319.582 246.269V244.542H327.274V246.269H319.582Z" fill="black" stroke="#F1F1F1" stroke-width="0.657853"/>
<path d="M339.862 241.128V240.992L339.765 240.895L336.419 237.549L337.641 236.328L343.373 242.059C343.564 242.25 343.715 242.477 343.819 242.727L344.123 242.601L343.819 242.727C343.922 242.976 343.975 243.244 343.975 243.514V261.509C343.974 262.082 343.846 262.649 343.598 263.166C343.351 263.683 342.991 264.139 342.545 264.5C342.099 264.861 341.578 265.117 341.021 265.251C340.464 265.384 339.884 265.392 339.324 265.274C338.45 265.072 337.672 264.578 337.119 263.872C336.565 263.166 336.27 262.292 336.283 261.395H336.283V261.39V252.563V252.234H335.954H332.375H332.047V252.563V263.299V263.627H332.375H334.432V265.355H312.426V263.627H314.482H314.811V263.299V238.248C314.811 238.019 314.902 237.799 315.064 237.637C315.226 237.475 315.446 237.384 315.675 237.384H331.183C331.412 237.384 331.631 237.475 331.793 237.637C331.955 237.799 332.047 238.019 332.047 238.248V250.177V250.506H332.375H337.147C337.376 250.506 337.596 250.597 337.758 250.759C337.92 250.921 338.011 251.141 338.011 251.37V261.509C338.011 262.071 338.234 262.61 338.631 263.007C339.028 263.404 339.567 263.627 340.129 263.627C340.691 263.627 341.23 263.404 341.627 263.007C342.024 262.61 342.247 262.071 342.247 261.509V248.984V248.656L341.919 248.655C341.373 248.655 340.85 248.438 340.465 248.052C340.079 247.666 339.862 247.143 339.862 246.598V241.128ZM329.99 263.627H330.319V263.299V239.441V239.112H329.99H316.868H316.539V239.441V263.299V263.627H316.868H329.99Z" fill="black" stroke="#F1F1F1" stroke-width="0.657853"/>
</g>
<g clip-path="url(#clip2_1726_10625)">
<path d="M224.905 112.78V113.109H225.234H229.677V114.837H225.234H224.905V115.166V119.608H223.178V115.166V114.837H222.849H218.406V113.109H222.849H223.178V112.78V108.337H224.905V112.78Z" fill="black" stroke="#F1F1F1" stroke-width="0.657853"/>
<path d="M235.643 112.78V113.109H235.972H238.357C238.902 113.109 239.425 113.326 239.811 113.712C240.197 114.098 240.414 114.62 240.414 115.166V136.308H207.672V115.166C207.672 114.62 207.889 114.098 208.275 113.712C208.661 113.326 209.183 113.109 209.729 113.109H212.114H212.443V112.78V105.623C212.444 105.078 212.661 104.555 213.046 104.169C213.432 103.783 213.955 103.566 214.5 103.566H233.586C234.131 103.566 234.654 103.783 235.039 104.169C235.425 104.555 235.642 105.078 235.643 105.623V112.78ZM221.328 134.251V134.58H221.657H226.429H226.758V134.251V127.094V126.765H226.429H221.657H221.328V127.094V134.251ZM228.485 134.251V134.58H228.814H238.357H238.686V134.251V115.165V114.837H238.357H233.915V105.623V105.294H233.586H214.5H214.171V105.623V114.837H209.729H209.4V115.165V134.251V134.58H209.729H219.271H219.6V134.251V125.901C219.6 125.672 219.691 125.452 219.853 125.29C220.015 125.128 220.235 125.037 220.464 125.037H227.622C227.851 125.037 228.07 125.128 228.232 125.29C228.394 125.452 228.485 125.672 228.485 125.901V134.251Z" fill="black" stroke="#F1F1F1" stroke-width="0.657853"/>
</g>
<g clip-path="url(#clip3_1726_10625)">
<path d="M333.138 60.5077V56.3941H334.866V60.5077H333.138Z" fill="black" stroke="#F1F1F1" stroke-width="0.657853"/>
<path d="M304.511 60.5077V56.3941H306.238V60.5077H304.511Z" fill="black" stroke="#F1F1F1" stroke-width="0.657853"/>
<path d="M324.789 68.8578V67.13H326.517V68.8578H324.789Z" fill="black" stroke="#F1F1F1" stroke-width="0.657853"/>
<path d="M312.86 68.8578V67.13H314.588V68.8578H312.86Z" fill="black" stroke="#F1F1F1" stroke-width="0.657853"/>
<path d="M310.474 72.7653V72.4368L310.146 72.4364C309.6 72.4358 309.078 72.2188 308.692 71.8332C308.306 71.4475 308.089 70.9247 308.089 70.3794V53.6796C308.091 52.1855 308.685 50.7531 309.741 49.6966C310.798 48.6402 312.23 48.0458 313.724 48.044H325.653C327.147 48.0458 328.579 48.6402 329.636 49.6966C330.692 50.7532 331.286 52.1856 331.288 53.6798V70.3791C331.287 70.9245 331.07 71.4474 330.685 71.833C330.299 72.2187 329.776 72.4356 329.231 72.4364L328.902 72.4368V72.7653V76.015H327.175V72.7653V72.4364H326.846H312.531H312.202V72.7653V76.015H310.474V72.7653ZM329.56 54.8722L329.56 54.5434H329.231H310.146H309.817V54.8723V62.0295V62.3584H310.146H329.232H329.561L329.561 62.0294L329.56 54.8722ZM313.724 49.7719L313.723 49.7719C312.918 49.7744 312.132 50.0261 311.476 50.4926C310.819 50.9591 310.323 51.6175 310.055 52.3773L309.901 52.8155H310.365H329.012H329.476L329.322 52.3773C329.054 51.6175 328.558 50.9591 327.901 50.4926C327.244 50.0261 326.459 49.7744 325.654 49.7719H325.653L313.724 49.7719ZM309.817 70.3796V70.7085H310.146H329.234H329.563L329.563 70.3795L329.562 64.4152L329.562 64.0863H329.233H310.146H309.817V64.4152V70.3796Z" fill="black" stroke="#F1F1F1" stroke-width="0.657853"/>
</g>
<g clip-path="url(#clip4_1726_10625)">
<path d="M334.441 366.64V355.369H336.169V366.64H334.441Z" fill="black" stroke="#F1F1F1" stroke-width="0.657853"/>
<path d="M334.443 372.826V372.548L334.169 372.502C332.579 372.233 331.135 371.41 330.094 370.179C329.052 368.948 328.48 367.388 328.478 365.776V355.369H330.206V365.776C330.206 367.129 330.744 368.426 331.7 369.383C332.657 370.339 333.954 370.876 335.307 370.876C336.659 370.876 337.957 370.339 338.913 369.383C339.87 368.426 340.407 367.129 340.407 365.776V355.369H342.135V365.776C342.133 367.388 341.561 368.948 340.52 370.179C339.478 371.41 338.035 372.233 336.445 372.502L336.171 372.548V372.826V388.112H334.443V372.826Z" fill="black" stroke="#F1F1F1" stroke-width="0.657853"/>
<path d="M349.621 355.37V355.37L349.633 355.37C350.538 355.334 351.44 355.487 352.283 355.817C353.125 356.147 353.891 356.648 354.531 357.288C355.171 357.928 355.672 358.693 356.002 359.536C356.332 360.379 356.484 361.281 356.449 362.185L356.449 362.185V362.198V374.127C356.449 374.672 356.232 375.195 355.846 375.581C355.461 375.967 354.938 376.184 354.392 376.184H350.813H350.485V376.512V388.112H348.757V355.37H349.621ZM354.392 374.456H354.721V374.127V362.198C354.721 361.955 354.683 360.903 354.191 359.815C353.692 358.714 352.721 357.57 350.876 357.211L350.485 357.135V357.534V374.127V374.456H350.813H354.392Z" fill="black" stroke="#F1F1F1" stroke-width="0.657853"/>
</g>
<g clip-path="url(#clip5_1726_10625)">
<path d="M403.729 122.868H403.738L403.746 122.867C403.935 122.858 404.121 122.91 404.277 123.016L404.462 122.744L404.277 123.016C404.433 123.122 404.55 123.276 404.61 123.455C404.61 123.455 404.61 123.455 404.61 123.455L406.985 130.58C406.995 130.668 406.994 130.757 406.982 130.845L406.979 130.867V130.889V138.046C406.979 138.275 406.888 138.495 406.726 138.657C406.564 138.819 406.344 138.91 406.115 138.91H404.922H404.593V139.239V150.839H386.165V139.239V138.91H385.836H378.679H378.35V139.239V150.839H376.622V139.239V138.91H376.293H375.1C374.871 138.91 374.651 138.819 374.489 138.657C374.327 138.495 374.236 138.275 374.236 138.046V130.889V130.867L374.233 130.845C374.221 130.757 374.22 130.668 374.23 130.58L376.605 123.455C376.605 123.455 376.605 123.455 376.605 123.455C376.665 123.276 376.782 123.122 376.938 123.016C377.094 122.91 377.28 122.858 377.469 122.867L377.477 122.868H377.486H403.729ZM402.536 149.111H402.865V148.782V139.239V138.91H402.536H388.222H387.893V139.239V148.782V149.111H388.222H402.536ZM404.922 137.182H405.251V136.853V131.08V131.027L405.234 130.976L403.182 124.821L403.107 124.596H402.87H378.345H378.108L378.033 124.821L375.981 130.976L375.964 131.027V131.08V136.853V137.182H376.293H381.065H381.394V136.853V132.411H383.121V136.853V137.182H383.45H389.415H389.744V136.853V132.411H391.472V136.853V137.182H391.8H397.765H398.094V136.853V132.411H399.822V136.853V137.182H400.151H404.922Z" fill="black" stroke="white" stroke-width="0.657853"/>
</g>
<g clip-path="url(#clip6_1726_10625)">
<path d="M94.1289 353.418H94.4578V353.09V341.161C94.4583 340.616 94.6752 340.093 95.0609 339.707C95.4465 339.322 95.9694 339.105 96.5148 339.104H110.829C111.374 339.105 111.897 339.322 112.283 339.707C112.668 340.093 112.885 340.616 112.886 341.161V371.847H80.1434V355.475C80.144 354.93 80.3609 354.407 80.7465 354.022C81.1322 353.636 81.6551 353.419 82.2005 353.418H94.1289ZM87.8356 369.79V370.119H88.1645H92.936H93.2649V369.79V361.44V361.111H92.936H88.1645H87.8356V361.44V369.79ZM110.829 370.119H111.158V369.79V341.161V340.832H110.829H96.5146H96.1857V341.161V355.146H82.2002H81.8713V355.475V369.79V370.119H82.2002H85.7788H86.1077V369.79V360.247C86.1077 360.018 86.1987 359.798 86.3608 359.636C86.5228 359.474 86.7425 359.383 86.9717 359.383H94.1289C94.358 359.383 94.5777 359.474 94.7398 359.636C94.9018 359.798 94.9928 360.018 94.9928 360.247V369.79V370.119H95.3217H110.829Z" fill="black" stroke="#F1F1F1" stroke-width="0.657853"/>
<path d="M99.2283 347.989V346.261H100.956V347.989H99.2283Z" fill="black" stroke="#F1F1F1" stroke-width="0.657853"/>
<path d="M106.386 347.989V346.261H108.113V347.989H106.386Z" fill="black" stroke="#F1F1F1" stroke-width="0.657853"/>
<path d="M99.2283 355.146V353.419H100.956V355.146H99.2283Z" fill="black" stroke="#F1F1F1" stroke-width="0.657853"/>
<path d="M106.386 355.146V353.419H108.113V355.146H106.386Z" fill="black" stroke="#F1F1F1" stroke-width="0.657853"/>
<path d="M99.2283 362.303V360.576H100.956V362.303H99.2283Z" fill="black" stroke="#F1F1F1" stroke-width="0.657853"/>
<path d="M106.386 362.303V360.576H108.113V362.303H106.386Z" fill="black" stroke="#F1F1F1" stroke-width="0.657853"/>
</g>
<circle cx="340.944" cy="231.633" r="12.3624" fill="#FF2E2E"/>
<g clip-path="url(#clip7_1726_10625)">
<path d="M340.942 222.524C335.932 222.524 331.833 226.624 331.833 231.634C331.833 236.644 335.932 240.743 340.942 240.743C345.952 240.743 350.051 236.644 350.051 231.634C350.051 226.624 345.952 222.524 340.942 222.524ZM340.226 226.428H341.658V233.586H340.226V226.428ZM340.942 237.489C340.422 237.489 339.966 237.034 339.966 236.513C339.966 235.993 340.422 235.538 340.942 235.538C341.463 235.538 341.918 235.993 341.918 236.513C341.918 237.034 341.463 237.489 340.942 237.489Z" fill="#FF2E2E"/>
</g>
<circle cx="302.613" cy="46.3128" r="10.5256" fill="#FF2E2E"/>
<defs>
<clipPath id="clip0_1726_10625">
<rect width="38.1718" height="38.1718" fill="white" transform="translate(96.9473 176.978)"/>
</clipPath>
<clipPath id="clip1_1726_10625">
<rect width="38.1718" height="38.1718" fill="white" transform="translate(309.712 232.284)"/>
</clipPath>
<clipPath id="clip2_1726_10625">
<rect width="38.1718" height="38.1718" fill="white" transform="translate(204.956 100.852)"/>
</clipPath>
<clipPath id="clip3_1726_10625">
<rect width="38.1718" height="38.1718" fill="white" transform="translate(300.603 42.9431)"/>
</clipPath>
<clipPath id="clip4_1726_10625">
<rect width="38.1718" height="38.1718" fill="white" transform="translate(323.376 352.655)"/>
</clipPath>
<clipPath id="clip5_1726_10625">
<rect width="38.1718" height="38.1718" fill="white" transform="translate(371.523 117.769)"/>
</clipPath>
<clipPath id="clip6_1726_10625">
<rect width="38.1718" height="38.1718" fill="white" transform="translate(77.4277 336.389)"/>
</clipPath>
<clipPath id="clip7_1726_10625">
<rect width="20.821" height="20.821" fill="white" transform="translate(330.533 221.223)"/>
</clipPath>
</defs>
</svg>
