<svg width="156" height="51" viewBox="0 0 156 51" fill="none" xmlns="http://www.w3.org/2000/svg">
<path d="M20.9382 0C20.9382 3.34923 20.9382 10.1165 20.9382 20.3018C19.1874 20.3018 15.6859 20.3018 10.4336 20.3018C10.4336 16.9067 10.4336 10.1394 10.4336 0C8.73017 0 5.25231 0 3.65017e-05 0C3.65017e-05 3.34923 3.65017e-05 10.1165 3.65017e-05 20.3018C3.65017e-05 21.9535 3.65017e-05 25.3257 3.65017e-05 30.4183C3.65017e-05 32.1159 3.65017e-05 34.6622 3.65017e-05 38.0573C3.65017e-05 41.4524 -4.56271e-05 46.9809 3.65017e-05 50.7202C10.4339 50.7202 3.02837 50.7202 10.4336 50.7202C10.4336 46.2239 10.4336 39.4567 10.4336 30.4183C12.7995 30.4183 16.301 30.4183 20.9382 30.4183C20.9382 34.9146 20.9382 41.6818 20.9382 50.7202C23.2567 50.7202 26.7346 50.7202 31.3717 50.7202C31.3717 46.2239 31.3717 39.4567 31.3717 30.4183C31.3717 28.1702 31.3717 24.798 31.3717 20.3018C31.3717 15.7597 31.3717 8.99245 31.3717 0C29.0531 0 25.5753 0 20.9382 0Z" fill="white"/>
<path d="M73.2479 10.1165C73.2479 8.41895 73.2479 5.04678 73.2479 0C69.7938 0 62.8144 0 52.3098 0C50.6064 0 47.1285 0 41.8763 0C41.8763 1.69755 41.8763 5.06972 41.8763 10.1165C41.8763 11.8141 41.8763 15.2092 41.8763 20.3018C41.8763 21.9535 41.8763 25.3257 41.8763 30.4183C41.8763 32.1159 41.8763 35.511 41.8763 40.6036C41.8763 41.7048 41.8763 43.1041 41.8763 44.8017C41.8763 46.4992 41.8763 48.472 41.8763 50.7202C44.1948 50.7202 47.6727 50.7202 52.3098 50.7202C56.9943 50.7202 63.9737 50.7202 73.2479 50.7202C73.2479 48.472 73.2479 45.0999 73.2479 40.6036C68.6108 40.6036 61.6314 40.6036 52.3098 40.6036C52.3098 38.3097 52.3098 34.9146 52.3098 30.4183C55.8113 30.4183 61.0636 30.4183 68.0667 30.4183C68.0667 28.1702 68.0667 24.798 68.0667 20.3018C64.5651 20.3018 59.3129 20.3018 52.3098 20.3018C52.3098 18.0078 52.3098 14.6127 52.3098 10.1165C56.9943 10.1165 63.9737 10.1165 73.2479 10.1165Z" fill="white"/>
<path d="M103.311 25.3257C102.27 24.3163 104.73 25.3257 103.311 25.3257C110.196 25.3257 113.744 30.4183 113.744 38.172C113.744 42.6682 113.744 41.6818 113.744 50.7202C111.426 50.7202 107.948 50.7202 103.311 50.7202C103.311 35.2357 103.311 30.4183 92.8061 30.4183C97.4905 30.4183 90.4875 30.4183 92.8061 30.4183C92.8061 34.9146 92.8061 41.6818 92.8061 50.7202C90.4875 50.7202 87.0096 50.7202 82.3725 50.7202C82.3725 46.2239 82.3725 39.4567 82.3725 30.4183C82.3725 28.1702 82.3725 24.798 82.3725 20.3018C82.3725 18.0537 82.3725 15.2321 82.3725 11.837C82.3725 8.44189 82.3725 4.49622 82.3725 0C84.691 0 88.1689 0 92.8061 0C96.3076 0 101.56 0 108.563 0C109.982 0 111.213 0.481738 112.254 1.44521C113.247 2.45457 113.744 3.64745 113.744 5.02384C113.744 8.41895 113.744 5.04678 113.744 11.837C113.744 20.5542 110.196 25.3257 103.311 25.3257C102.27 26.2891 104.73 25.3257 103.311 25.3257ZM92.8061 20.3018C103.311 20.3018 103.311 17.6179 103.311 10.1165C103.311 17.6179 103.311 8.23543 103.311 10.1165C100.992 10.1165 97.4905 10.1165 92.8061 10.1165C92.8061 12.3646 92.8061 15.7597 92.8061 20.3018C95.1719 20.3018 88.1689 20.3018 92.8061 20.3018Z" fill="white"/>
<path d="M155.62 5.02384C155.62 14.0622 155.62 12.1352 155.62 30.166C155.62 28.489 155.62 31.5883 155.62 30.166C155.62 48.1968 138.184 50.7202 134.682 50.7202C145.187 50.7202 131.181 50.7202 134.682 50.7202C133.547 50.7202 131.82 50.7202 129.501 50.7202C128.318 50.7202 126.567 50.7202 124.249 50.7202C124.249 45.0769 124.249 38.0344 124.249 29.5925C124.249 21.1506 124.249 11.2864 124.249 0C126.283 0 129.335 0 133.405 0C133.689 0 134.114 0 134.682 0C138.184 0 143.436 0 150.439 0C151.859 0 153.089 0.481738 154.13 1.44521C155.124 2.45457 155.62 3.64745 155.62 5.02384ZM134.682 40.6036C130.045 40.6036 137.048 40.6036 134.682 40.6036C140.739 40.6036 145.187 36.0386 145.187 30.166C145.187 23.8346 145.187 22.7793 145.187 10.1165C142.868 10.1165 139.367 10.1165 134.682 10.1165C134.682 13.5116 134.682 18.5813 134.682 25.3257C134.682 28.7208 134.682 33.8134 134.682 40.6036Z" fill="white"/>
</svg>
