<?xml version="1.0" encoding="utf-8"?>
<svg width="1112" height="834" viewBox="-556 -417 1112 834" xmlns="http://www.w3.org/2000/svg">
  <style>
svg { background-color:#0A0A0A; }

#looom {
--version:2; --tempo:120; --musicTime:0; 
}

#t0 {
--visible:1; --timeOffset:-5.960464E-08; --speed:12; --bookmarkIndex:-1; --latched:0; --playMode:0; --masked:0; --blendMode:0; --pressureEnabled:0; 
stroke:#584E31; stroke-opacity:1; fill-opacity:0; stroke-width:1; stroke-linecap:round; stroke-linejoin:round;
}
@keyframes t0 { 0% { opacity: 1; } 5% { opacity: 0; } }
#t0 .frame { animation:t0 1.666667s calc(var(--index) * 0.08333334s) steps(1) infinite; }

#t1 {
--visible:1; --timeOffset:0; --speed:12; --bookmarkIndex:-1; --latched:0; --playMode:0; --masked:0; --blendMode:0; --pressureEnabled:0; 
stroke:#6F6E6E; stroke-opacity:1; fill-opacity:0; stroke-width:1; stroke-linecap:round; stroke-linejoin:round;
}
@keyframes t1 { 0% { opacity: 1; } 5% { opacity: 0; } }
#t1 .frame { animation:t1 1.666667s calc(var(--index) * 0.08333334s) steps(1) infinite; }

#t2 {
--visible:1; --timeOffset:0; --speed:12; --bookmarkIndex:-1; --latched:0; --playMode:0; --masked:0; --blendMode:0; --pressureEnabled:0; 
stroke:#372A00; stroke-opacity:1; fill-opacity:0; stroke-width:1; stroke-linecap:round; stroke-linejoin:round;
}
@keyframes t2 { 0% { opacity: 1; } 5% { opacity: 0; } }
#t2 .frame { animation:t2 1.666667s calc(var(--index) * 0.08333334s) steps(1) infinite; }

</style>
  <g id="w0" class="weave">
    <g id="t0" class="thread">
      <g id="f0" style="--index:0; opacity:1;" class="frame">
        <path d="M-384.83,-283.81" />
        <path d="M-486.47,-285.67L-478.72,-271.51L-472.35,-262.64" />
        <path d="M-336.49,156.81L-334.44,176.60" />
        <path d="M-255.93,140.91L-253.35,167.40" />
        <path d="M193.81,-345.38L191.81,-331.28L187.11,-308.97" />
        <path d="M331.52,262.59L332.25,282.66" />
        <path d="M232.46,-367.96L232.46,-356.11L234.11,-342.14" />
        <path d="M363.81,141.91L364.93,160.64" />
        <path d="M176.89,7.33L191.94,39.23" />
        <path d="M-112.45,196.26L-100.52,229.75" />
        <path d="M-91.30,-334.26L-89.12,-308.64" />
        <path d="M-94.48,271.93L-91.10,305.82" />
        <path d="M-15.05,-64.04L-5.04,-24.18" />
        <path d="M444.22,228.97L446.29,261.26" />
        <path d="M344.57,-261.17L340.07,-223.11" />
        <path d="M272.96,125.43L278.73,162.37" />
        <path d="M110.60,-337.96L105.74,-294.48" />
        <path d="M245.51,368.38L247.17,378.71L247.24,383.94" />
        <path d="M-90.97,-145.39L-91.51,-120.30L-90.97,-113.55" />
        <path d="M-369.97,142.31L-371.17,159.79L-376.01,185.94" />
        <path d="M64.44,265.91L68.48,299.07" />
      </g>
      <g id="f1" style="--index:1; opacity:0;" class="frame">
        <path d="M-472.35,-262.64L-453.04,-239.26" />
        <path d="M-334.44,176.60L-332.71,194.61" />
        <path d="M-326.14,-361.94" />
        <path d="M-253.35,167.40L-251.89,195.47" />
        <path d="M187.11,-308.97L177.62,-265.95" />
        <path d="M332.25,282.66L333.03,301.85" />
        <path d="M234.11,-342.14L236.50,-308.52" />
        <path d="M364.93,160.64L364.86,179.84" />
        <path d="M191.94,39.23L205.60,69.23" />
        <path d="M-100.52,229.75L-92.10,259.94" />
        <path d="M-89.12,-308.64L-88.39,-282.43" />
        <path d="M-91.10,305.82L-90.12,337.59" />
        <path d="M-5.04,-24.18L4.11,17.05" />
        <path d="M446.29,261.26L447.41,288.28" />
        <path d="M340.07,-223.11L334.56,-183.72" />
        <path d="M278.73,162.37L284.11,198.58" />
        <path d="M105.74,-294.48L102.30,-270.64L101.18,-250.38" />
        <path d="M247.24,383.94L247.04,390.56" />
        <path d="M-90.97,-113.55L-89.51,-94.29L-89.39,-75.10" />
        <path d="M-376.01,185.94L-378.13,198.45L-379.79,221.48" />
        <path d="M68.48,299.07L70.21,312.51L72.61,323.23" />
      </g>
      <g id="f2" style="--index:2; opacity:0;" class="frame">
        <path d="M-453.04,-239.26L-436.60,-221.66L-428.12,-211.26" />
        <path d="M-332.71,194.61L-332.25,211.42" />
        <path d="M-326.14,-361.94L-325.89,-352.73L-322.56,-338.50" />
        <path d="M-251.89,195.47L-249.24,225.66" />
        <path d="M177.62,-265.95L170.92,-225.03" />
        <path d="M333.03,301.85L334.56,318.99" />
        <path d="M236.50,-308.52L238.42,-267.27" />
        <path d="M364.86,179.84L363.67,197.06" />
        <path d="M205.60,69.23L217.21,100.54" />
        <path d="M-92.10,259.94L-86.33,290.06" />
        <path d="M-88.39,-282.43L-88.39,-258.46" />
        <path d="M-90.12,337.59L-89.44,362.75" />
        <path d="M4.11,17.05L9.35,38.45L11.93,53.07" />
        <path d="M447.41,288.28L448.21,310.65" />
        <path d="M334.56,-183.72L329.72,-142.09" />
        <path d="M284.11,198.58L287.76,238.70" />
        <path d="M101.18,-250.38L97.19,-206.76" />
        <path d="M-89.39,-75.10L-88.66,-36.63" />
        <path d="M-379.79,221.48L-379.79,247.04L-379.06,257.69" />
        <path d="M-227.88,-339.03L-230.14,-326.65" />
        <path d="M72.61,323.23L77.24,344.75" />
      </g>
      <g id="f3" style="--index:3; opacity:0;" class="frame">
        <path d="M-428.12,-211.26L-408.03,-183.72" />
        <path d="M-332.25,211.42L-331.45,227.58" />
        <path d="M-322.56,-338.50L-315.54,-313.34" />
        <path d="M-249.24,225.66L-247.31,255.18" />
        <path d="M170.92,-225.03L163.10,-176.78" />
        <path d="M334.56,318.99L335.63,335.67" />
        <path d="M238.42,-267.27L240.67,-226.89" />
        <path d="M363.67,197.06L361.74,215.86" />
        <path d="M217.21,100.54L228.47,131.32" />
        <path d="M-86.33,290.06L-83.48,313.63" />
        <path d="M-88.39,-258.46L-89.32,-233.18" />
        <path d="M-89.44,362.75L-88.84,382.21" />
        <path d="M11.93,53.07L18.36,89.81" />
        <path d="M448.21,310.65L449.14,334.95" />
        <path d="M329.72,-142.09L328.72,-101.50" />
        <path d="M250.89,-383.51L251.23,-376.70" />
        <path d="M287.76,238.70L289.08,259.21L289.01,279.68" />
        <path d="M97.19,-206.76L94.55,-163.20" />
        <path d="M-88.66,-36.63L-87.32,-1.74" />
        <path d="M-379.06,257.69L-375.01,287.22" />
        <path d="M-230.14,-326.65L-231.53,-311.49L-231.66,-296.40L-230.00,-275.42" />
        <path d="M77.24,344.75L79.89,361.23" />
      </g>
      <g id="f4" style="--index:4; opacity:0;" class="frame">
        <path d="M-408.03,-183.72L-390.53,-154.99" />
        <path d="M-331.45,227.58L-331.45,242.47" />
        <path d="M-315.54,-313.34L-304.93,-284.48" />
        <path d="M-247.31,255.18L-245.92,281.99" />
        <path d="M163.10,-176.78L161.25,-152.88L160.97,-125.61" />
        <path d="M335.63,335.67L336.75,352.56" />
        <path d="M240.67,-226.89L240.81,-188.42" />
        <path d="M361.74,215.86L358.63,231.74" />
        <path d="M228.47,131.32L238.96,162.83" />
        <path d="M-83.48,313.63L-82.35,340.78" />
        <path d="M-89.32,-233.18L-91.69,-209.47" />
        <path d="M-88.84,382.21L-88.39,389.24" />
        <path d="M18.36,89.81L24.54,123.71" />
        <path d="M433.36,-373.38L437.13,-373.38" />
        <path d="M449.14,334.95L449.14,355.67" />
        <path d="M328.72,-101.50L329.86,-59.34" />
        <path d="M251.23,-376.70L254.01,-368.75L257.66,-353.59" />
        <path d="M289.01,279.68L287.35,317.27" />
        <path d="M94.55,-163.20L94.48,-147.18L96.46,-137.06L99.98,-125.13" />
        <path d="M-87.32,-1.74L-85.40,19.64L-83.14,31.69" />
        <path d="M-375.01,287.22L-370.70,313.43" />
        <path d="M-230.00,-275.42L-228.88,-253.36L-229.15,-218.28" />
        <path d="M79.89,361.23L80.22,376.98" />
      </g>
      <g id="f5" style="--index:5; opacity:0;" class="frame">
        <path d="M-390.53,-154.99L-376.94,-126.46" />
        <path d="M-331.45,242.47L-331.25,259.75" />
        <path d="M-304.93,-284.48L-300.03,-273.35L-294.33,-256.48" />
        <path d="M-245.92,281.99L-245.25,307.22" />
        <path d="M160.97,-125.61L162.37,-108.92L166.15,-85.15" />
        <path d="M336.75,352.56L337.09,362.30" />
        <path d="M240.81,-188.42L240.22,-151.16" />
        <path d="M358.63,231.74L357.04,244.33" />
        <path d="M238.96,162.83L247.90,192.42" />
        <path d="M-82.35,340.78L-80.95,362.30" />
        <path d="M-91.69,-209.47L-94.88,-185.18" />
        <path d="M24.54,123.71L30.17,155.61" />
        <path d="M437.13,-373.38L439.11,-357.43" />
        <path d="M449.14,355.67L449.14,367.05" />
        <path d="M329.86,-59.34L333.50,-14.79" />
        <path d="M257.66,-353.59L259.58,-329.30" />
        <path d="M287.35,317.27L284.64,349.77" />
        <path d="M99.98,-125.13L105.56,-108.65L116.09,-87.87" />
        <path d="M-83.14,31.69L-75.73,64.99" />
        <path d="M-372.43,-360.60" />
        <path d="M-370.70,313.43L-366.25,335.01" />
        <path d="M-229.15,-218.28L-230.20,-162.21" />
        <path d="M80.22,376.98L79.43,391.29" />
      </g>
      <g id="f6" style="--index:6; opacity:0;" class="frame">
        <path d="M-376.94,-126.46L-370.83,-112.29L-366.93,-100.71" />
        <path d="M-331.25,259.75L-330.99,276.29" />
        <path d="M-294.33,-256.48L-289.49,-239.53L-287.30,-228.28" />
        <path d="M-245.25,307.22L-245.05,328.93" />
        <path d="M166.15,-85.15L170.19,-66.35L174.18,-52.46" />
        <path d="M337.09,362.30L337.29,373.28" />
        <path d="M240.22,-151.16L240.42,-132.02L241.54,-118.12" />
        <path d="M357.04,244.33L356.17,255.51" />
        <path d="M247.90,192.42L254.93,219.50" />
        <path d="M-80.95,362.30L-80.16,376.59" />
        <path d="M-94.88,-185.18L-100.18,-161.54" />
        <path d="M30.17,155.61L34.80,188.45" />
        <path d="M439.11,-357.43L439.25,-344.33L437.72,-320.69" />
        <path d="M449.14,367.05L449.14,369.10" />
        <path d="M333.50,-14.79L340.00,30.76" />
        <path d="M259.58,-329.30L261.10,-305.86" />
        <path d="M284.64,349.77L283.38,373.01" />
        <path d="M116.09,-87.87L125.97,-69.13L137.05,-52.98" />
        <path d="M-75.73,64.99L-64.51,94.97" />
        <path d="M-372.43,-360.60L-374.35,-338.76L-374.87,-322.21" />
        <path d="M-366.25,335.01L-364.27,345.68L-363.54,356.66" />
        <path d="M-230.20,-162.21L-226.23,-108.65" />
        <path d="M79.43,391.29L78.63,392.88" />
      </g>
      <g id="f7" style="--index:7; opacity:0;" class="frame">
        <path d="M-366.93,-100.71L-359.43,-70.32" />
        <path d="M-330.99,276.29L-330.52,293.10" />
        <path d="M-287.30,-228.28L-282.38,-201.67" />
        <path d="M-245.05,328.93L-244.13,343.69" />
        <path d="M174.18,-52.46L179.61,-35.11L186.83,-18.62" />
        <path d="M337.29,373.28L337.41,381.49" />
        <path d="M241.54,-118.12L243.00,-103.55L245.46,-90.19" />
        <path d="M356.17,255.51L355.72,270.01" />
        <path d="M254.93,219.50L260.51,244.85" />
        <path d="M-228.81,-366.30L-226.83,-356.38" />
        <path d="M-80.16,376.59L-79.43,384.60" />
        <path d="M-100.18,-161.54L-107.34,-137.91" />
        <path d="M34.80,188.45L40.38,221.02" />
        <path d="M437.72,-320.69L437.40,-280.77" />
        <path d="M340.00,30.76L349.22,73.72" />
        <path d="M261.10,-305.86L262.43,-281.83" />
        <path d="M283.38,373.01L282.11,385.13" />
        <path d="M137.05,-52.98L155.61,-28.29L163.76,-18.89" />
        <path d="M-64.51,94.97L-59.68,107.62L-51.45,125.63" />
        <path d="M-374.87,-322.21L-373.68,-311.42L-367.71,-282.49" />
        <path d="M-363.54,356.66L-362.94,376.13" />
        <path d="M-226.23,-108.65L-226.37,-61.91L-225.16,-48.47" />
      </g>
      <g id="f8" style="--index:8; opacity:0;" class="frame">
        <path d="M-359.43,-70.32L-353.93,-47.62" />
        <path d="M-330.52,293.10L-328.94,304.96" />
        <path d="M-282.38,-201.67L-277.88,-172.93" />
        <path d="M-244.13,343.69L-243.47,355.67" />
        <path d="M186.83,-18.62L202.75,12.69" />
        <path d="M337.41,381.49L337.34,384.46" />
        <path d="M245.46,-90.19L249.16,-75.49L252.42,-66.35" />
        <path d="M355.72,270.01L355.19,286.56" />
        <path d="M128.50,-332.27L128.68,-328.51" />
        <path d="M260.51,244.85L262.70,253.98L264.62,267.36" />
        <path d="M-226.83,-356.38L-214.83,-317.18" />
        <path d="M-79.43,384.60L-79.43,385.46" />
        <path d="M-107.34,-137.91L-115.43,-114.01" />
        <path d="M40.38,221.02L44.08,249.35" />
        <path d="M437.40,-280.77L436.67,-239.67" />
        <path d="M349.22,73.72L359.89,116.76" />
        <path d="M262.43,-281.83L262.15,-259.33" />
        <path d="M282.11,385.13" />
        <path d="M163.76,-18.89L191.08,16.66" />
        <path d="M-51.45,125.63L-47.68,136.28L-40.77,162.50" />
        <path d="M-367.71,-282.49L-363.67,-262.17L-361.76,-246.22" />
        <path d="M-362.94,376.13L-362.67,389.69" />
        <path d="M-225.16,-48.47L-219.53,11.63" />
        <path d="M48.53,-315.13L44.81,-305.27L41.71,-291.36" />
      </g>
      <g id="f9" style="--index:9; opacity:0;" class="frame">
        <path d="M-353.93,-47.62L-351.15,-28.48" />
        <path d="M-328.94,304.96L-327.48,316.15" />
        <path d="M-277.88,-172.93L-274.90,-148.37" />
        <path d="M-243.47,355.67L-242.01,360.70" />
        <path d="M202.75,12.69L220.52,41.28" />
        <path d="M337.34,384.46L336.68,384.79" />
        <path d="M252.42,-66.35L257.12,-55.29L263.02,-44.91" />
        <path d="M355.19,286.56L355.12,303.04" />
        <path d="M128.68,-328.51L129.82,-307.45" />
        <path d="M264.62,267.36L266.67,286.89" />
        <path d="M-214.83,-317.18L-208.06,-294.81L-202.16,-278.58" />
        <path d="M-115.43,-114.01L-122.41,-90.52" />
        <path d="M44.08,249.35L46.48,279.81" />
        <path d="M436.67,-239.67L437.72,-202.72" />
        <path d="M359.89,116.76L372.36,161.84" />
        <path d="M262.15,-259.33L261.36,-236.88" />
        <path d="M191.08,16.66L206.47,35.99L216.41,51.88" />
        <path d="M-40.77,162.50L-31.42,199.11" />
        <path d="M-361.76,-246.22L-359.57,-220.86L-356.38,-206.16" />
        <path d="M-362.67,389.69L-362.67,390.75" />
        <path d="M-219.53,11.63L-216.54,37.71L-214.90,67.10" />
        <path d="M41.71,-291.36L39.98,-271.43L39.31,-230.59" />
      </g>
      <g id="f10" style="--index:10; opacity:0;" class="frame">
        <path d="M-351.15,-28.48L-348.89,-9.68" />
        <path d="M-327.48,316.15L-326.14,323.70" />
        <path d="M-274.90,-148.37L-271.39,-122.16" />
        <path d="M220.52,41.28L237.69,64.92" />
        <path d="M263.02,-44.91L276.41,-24.38" />
        <path d="M355.12,303.04L356.65,320.31" />
        <path d="M129.82,-307.45L129.62,-298.45L126.84,-277.86" />
        <path d="M266.67,286.89L267.86,305.63" />
        <path d="M-202.16,-278.58L-183.80,-232.85" />
        <path d="M-122.41,-90.52L-127.11,-64.70" />
        <path d="M46.48,279.81L49.12,308.46" />
        <path d="M437.72,-202.72L438.13,-162.28" />
        <path d="M372.36,161.84L377.52,179.72L384.09,208.58" />
        <path d="M261.36,-236.88L259.58,-208.35" />
        <path d="M216.41,51.88L229.07,75.52L235.91,91.00" />
        <path d="M-31.42,199.11L-21.09,235.12" />
        <path d="M-356.38,-206.16L-352.87,-189.55L-349.29,-165.32" />
        <path d="M-214.90,67.10L-212.96,88.42L-208.06,122.12" />
        <path d="M39.31,-230.59L40.04,-174.92" />
      </g>
      <g id="f11" style="--index:11; opacity:0;" class="frame">
        <path d="M-348.89,-9.68L-347.62,9.38" />
        <path d="M-326.14,323.70L-325.95,326.54" />
        <path d="M-271.39,-122.16L-268.13,-95.88" />
        <path d="M237.69,64.92L251.09,83.79" />
        <path d="M276.41,-24.38L282.84,-15.51L291.73,-5.51" />
        <path d="M356.65,320.31L358.89,336.33" />
        <path d="M126.84,-277.86L121.80,-247.07" />
        <path d="M267.86,305.63L268.79,322.64" />
        <path d="M-183.80,-232.85L-175.38,-210.93L-169.27,-192.00" />
        <path d="M-127.11,-64.70L-129.96,-36.36" />
        <path d="M49.12,308.46L53.25,332.43" />
        <path d="M438.13,-162.28L438.40,-120.30" />
        <path d="M384.09,208.58L390.79,236.58L392.64,247.57" />
        <path d="M259.58,-208.35L256.66,-172.33" />
        <path d="M235.91,91.00L250.50,131.71" />
        <path d="M-21.09,235.12L-10.88,271.46" />
        <path d="M-349.29,-165.32L-347.50,-150.03L-347.44,-128.91" />
        <path d="M-208.06,122.12L-199.90,176.74" />
        <path d="M40.04,-174.92L40.04,-124.54" />
      </g>
      <g id="f12" style="--index:12; opacity:0;" class="frame">
        <path d="M-347.62,9.38L-346.37,25.07" />
        <path d="M-268.13,-95.88L-265.62,-72.97" />
        <path d="M251.09,83.79L265.01,104.98" />
        <path d="M291.73,-5.51L306.51,12.23" />
        <path d="M358.89,336.33L361.74,349.19" />
        <path d="M121.80,-247.07L116.69,-211.06" />
        <path d="M268.79,322.64L270.38,337.40" />
        <path d="M-169.27,-192.00L-164.57,-171.15L-158.87,-134.67" />
        <path d="M-129.96,-36.36L-130.23,-5.59" />
        <path d="M-82.82,-368.42" />
        <path d="M53.25,332.43L56.69,356.40" />
        <path d="M438.40,-120.30L438.66,-76.34" />
        <path d="M392.64,247.57L395.69,280.47" />
        <path d="M256.66,-172.33L255.79,-138.31" />
        <path d="M250.50,131.71L255.13,148.46L258.64,173.23" />
        <path d="M-10.88,271.46L-5.04,294.03L-2.32,308.01" />
        <path d="M-347.44,-128.91L-351.75,-94.35" />
        <path d="M-199.90,176.74L-197.05,197.85L-194.54,227.77" />
        <path d="M40.04,-124.54L40.04,-74.56" />
      </g>
      <g id="f13" style="--index:13; opacity:0;" class="frame">
        <path d="M-346.37,25.07L-344.31,44.73" />
        <path d="M-265.62,-72.97L-263.68,-49.80" />
        <path d="M265.01,104.98L279.33,126.88" />
        <path d="M306.51,12.23L314.28,20.63L320.37,29.04" />
        <path d="M361.74,349.19L364.27,359.90" />
        <path d="M116.69,-211.06L115.43,-192.86L115.30,-174.71" />
        <path d="M270.38,337.40L272.37,350.18" />
        <path d="M-158.87,-134.67L-153.36,-90.32" />
        <path d="M-130.23,-5.59L-128.16,25.80" />
        <path d="M-82.82,-368.42L-83.21,-345.78L-82.41,-337.51" />
        <path d="M56.69,356.40L58.88,371.03" />
        <path d="M438.66,-76.34L439.18,-32.26" />
        <path d="M395.69,280.47L396.63,307.55" />
        <path d="M255.79,-138.31L254.93,-102.89" />
        <path d="M258.64,173.23L259.83,190.30L260.10,211.23" />
        <path d="M-104.44,-363.06L-107.02,-358.43L-108.02,-351.27" />
        <path d="M-2.32,308.01L-0.14,336.14" />
        <path d="M-351.75,-94.35L-354.19,-82.83L-361.03,-60.33" />
        <path d="M-194.54,227.77L-190.96,275.11" />
        <path d="M40.04,-74.56L41.30,-24.12" />
      </g>
      <g id="f14" style="--index:14; opacity:0;" class="frame">
        <path d="M-344.31,44.73L-343.31,63.20" />
        <path d="M-263.68,-49.80L-263.36,-20.54" />
        <path d="M279.33,126.88L293.58,148.87" />
        <path d="M320.37,29.04L330.72,46.59" />
        <path d="M364.27,359.90L366.32,370.36" />
        <path d="M115.30,-174.71L115.96,-164.85L121.20,-139.17" />
        <path d="M272.37,350.18L274.29,362.55" />
        <path d="M-153.36,-90.32L-152.83,-62.45L-153.49,-43.65" />
        <path d="M-128.16,25.80L-124.46,59.76" />
        <path d="M-82.41,-337.51L-75.25,-293.82" />
        <path d="M58.88,371.03L59.68,374.40" />
        <path d="M439.18,-32.26L440.25,13.88" />
        <path d="M396.63,307.55L397.15,333.95" />
        <path d="M254.93,-102.89L254.33,-63.97" />
        <path d="M260.10,211.23L259.51,240.48" />
        <path d="M-108.02,-351.27L-107.81,-341.41L-102.77,-311.56" />
        <path d="M-0.14,336.14L-0.48,365.73" />
        <path d="M-361.03,-60.33L-363.88,-46.49L-369.44,-25.91" />
        <path d="M-190.96,275.11L-189.89,310.32" />
        <path d="M41.30,-24.12L47.20,26.19" />
      </g>
      <g id="f15" style="--index:15; opacity:0;" class="frame">
        <path d="M-343.31,63.20L-342.33,82.67" />
        <path d="M-263.36,-20.54L-263.68,13.02" />
        <path d="M293.58,148.87L305.25,171.30" />
        <path d="M330.72,46.59L340.07,65.84" />
        <path d="M366.32,370.36L367.12,377.52" />
        <path d="M121.20,-139.17L128.02,-114.01" />
        <path d="M274.29,362.55L275.68,371.62" />
        <path d="M-153.49,-43.65L-154.95,1.96" />
        <path d="M-124.46,59.76L-117.55,99.54" />
        <path d="M-75.25,-293.82L-70.48,-272.44L-61.73,-245.09" />
        <path d="M440.25,13.88L441.64,60.88" />
        <path d="M397.15,333.95L397.49,355.33" />
        <path d="M254.33,-63.97L253.67,-27.23" />
        <path d="M259.51,240.48L257.52,266.30" />
        <path d="M-102.77,-311.56L-95.61,-271.97" />
        <path d="M-0.48,365.73L-3.05,386.05" />
        <path d="M-369.44,-25.91L-372.82,-14.25L-377.33,8.26" />
        <path d="M-189.89,310.32L-188.63,337.00" />
        <path d="M47.20,26.19L52.70,74.65" />
      </g>
      <g id="f16" style="--index:16; opacity:0;" class="frame">
        <path d="M-342.33,82.67L-341.07,101.46" />
        <path d="M-263.68,13.02L-262.83,48.04" />
        <path d="M305.25,171.30L315.74,194.07" />
        <path d="M340.07,65.84L348.69,85.84" />
        <path d="M367.12,377.52L367.39,378.97" />
        <path d="M128.02,-114.01L137.58,-83.83" />
        <path d="M275.68,371.62L276.75,377.31" />
        <path d="M-154.95,1.96L-154.95,20.96L-152.30,49.90" />
        <path d="M-117.55,99.54L-111.12,143.43" />
        <path d="M-61.73,-245.09L-49.00,-201.67" />
        <path d="M441.64,60.88L443.30,105.64" />
        <path d="M348.88,-348.69" />
        <path d="M397.49,355.33L397.68,371.50" />
        <path d="M253.67,-27.23L254.60,12.29" />
        <path d="M257.52,266.30L252.35,291.06" />
        <path d="M-95.61,-271.97L-92.90,-239.67" />
        <path d="M-3.05,386.05L-3.65,390.89" />
        <path d="M-377.33,8.26L-379.86,24.27L-379.91,40.70" />
        <path d="M-188.63,337.00L-187.58,359.84" />
        <path d="M52.70,74.65L56.94,109.01L58.15,125.49" />
      </g>
      <g id="f17" style="--index:17; opacity:0;" class="frame">
        <path d="M-341.07,101.46L-339.07,119.80" />
        <path d="M-262.83,48.04L-261.37,80.15" />
        <path d="M315.74,194.07L323.63,214.73" />
        <path d="M348.69,85.84L355.65,104.38" />
        <path d="M367.39,378.97L367.05,376.92" />
        <path d="M137.58,-83.83L149.32,-53.78" />
        <path d="M276.75,377.31L276.02,377.78" />
        <path d="M-152.30,49.90L-148.32,79.94L-143.89,100.34" />
        <path d="M-111.12,143.43L-104.37,189.97" />
        <path d="M-49.00,-201.67L-36.28,-155.59" />
        <path d="M443.30,105.64L442.90,150.45" />
        <path d="M348.88,-348.69L349.42,-322.62" />
        <path d="M397.68,371.50L398.41,376.32" />
        <path d="M254.60,12.29L259.12,50.89" />
        <path d="M252.35,291.06L247.83,315.62" />
        <path d="M-92.90,-239.67L-90.44,-209.47" />
        <path d="M-379.91,40.70L-375.94,71.28" />
        <path d="M-187.58,359.84L-187.04,372.29L-186.05,373.07" />
        <path d="M58.15,125.49L58.68,173.16" />
      </g>
      <g id="f18" style="--index:18; opacity:0;" class="frame">
        <path d="M-489.53,-319.56L-489.39,-311.68" />
        <path d="M-339.07,119.80L-337.68,136.09" />
        <path d="M-261.37,80.15L-258.85,111.99" />
        <path d="M193.74,-372.72" />
        <path d="M323.63,214.73L329.65,238.50" />
        <path d="M355.65,104.38L360.69,122.78" />
        <path d="M149.32,-53.78L162.11,-24.12" />
        <path d="M-143.89,100.34L-135.86,130.72L-129.82,149.53" />
        <path d="M-92.49,-352.80" />
        <path d="M-104.37,189.97L-99.06,232.48" />
        <path d="M-36.28,-155.59L-24.99,-108.26" />
        <path d="M442.90,150.45L443.63,192.75" />
        <path d="M349.42,-322.62L347.10,-294.42" />
        <path d="M398.41,376.32" />
        <path d="M259.12,50.89L265.41,87.36" />
        <path d="M247.83,315.62L244.78,343.36" />
        <path d="M-90.44,-209.47L-89.39,-176.84" />
        <path d="M-375.94,71.28L-371.97,104.71" />
        <path d="M-186.05,373.07L-184.46,373.74" />
        <path d="M58.68,173.16L60.07,223.20" />
      </g>
      <g id="f19" style="--index:19; opacity:0;" class="frame">
        <path d="M-489.39,-311.68L-489.32,-295.99L-486.47,-285.67" />
        <path d="M-337.68,136.09L-336.49,156.81" />
        <path d="M-258.85,111.99L-255.93,140.91" />
        <path d="M193.74,-372.72L193.81,-345.38" />
        <path d="M329.65,238.50L331.52,262.59" />
        <path d="M232.46,-371.39L232.46,-367.96" />
        <path d="M360.69,122.78L363.81,141.91" />
        <path d="M162.11,-24.12L176.89,7.33" />
        <path d="M-129.82,149.53L-112.45,196.26" />
        <path d="M-92.49,-352.80L-91.30,-334.26" />
        <path d="M-99.06,232.48L-94.48,271.93" />
        <path d="M-24.99,-108.26L-15.05,-64.04" />
        <path d="M443.63,192.75L444.22,228.97" />
        <path d="M347.10,-294.42L344.57,-261.17" />
        <path d="M265.41,87.36L272.96,125.43" />
        <path d="M112.58,-363.66L112.79,-359.22L110.60,-337.96" />
        <path d="M244.78,343.36L244.39,358.39L245.51,368.38" />
        <path d="M-89.39,-176.84L-90.97,-145.39" />
        <path d="M-371.97,104.71L-370.10,125.16L-369.97,142.31" />
        <path d="M60.07,223.20L64.44,265.91" />
      </g>
    </g>
    <g id="t1" class="thread">
      <g id="f0" style="--index:0; opacity:1;" class="frame">
        <path d="M-386.89,13.62L-391.86,45.85" />
        <path d="M-136.59,-318.44L-135.66,-275.48" />
        <path d="M-139.83,339.39L-139.63,358.91" />
        <path d="M119.54,-354.05L119.81,-343.86L122.14,-324.40L122.32,-308.85" />
        <path d="M-159.72,223.60L-154.56,271.72" />
        <path d="M6.30,282.45L7.89,319.73" />
        <path d="M200.17,333.56L198.58,363.02" />
        <path d="M421.42,194.81L421.62,244.72" />
        <path d="M249.95,-122.22L249.04,-61.58" />
      </g>
      <g id="f1" style="--index:1; opacity:0;" class="frame">
        <path d="M-391.86,45.85L-397.29,71.47L-398.49,82.53" />
        <path d="M-135.66,-275.48L-133.88,-234.11" />
        <path d="M-139.63,358.91L-139.70,371.56" />
        <path d="M122.32,-308.85L122.32,-281.17L124.26,-256.08" />
        <path d="M-154.56,271.72L-150.18,309.72" />
        <path d="M7.89,319.73L8.14,322.70" />
        <path d="M198.58,363.02L198.51,367.26" />
        <path d="M421.62,244.72L422.28,284.71" />
        <path d="M249.04,-61.58L249.09,-15.37L249.89,4.29" />
      </g>
      <g id="f2" style="--index:2; opacity:0;" class="frame">
        <path d="M-398.49,82.53L-398.95,124.10" />
        <path d="M-133.88,-234.11L-133.54,-190.55" />
        <path d="M-139.70,371.56L-139.58,378.71" />
        <path d="M124.26,-256.08L125.58,-201.80" />
        <path d="M-150.18,309.72L-149.45,336.54" />
        <path d="M422.28,284.71L421.94,316.21" />
        <path d="M249.89,4.29L251.55,75.85" />
      </g>
      <g id="f3" style="--index:3; opacity:0;" class="frame">
        <path d="M-398.95,124.10L-397.88,170.97" />
        <path d="M-133.54,-190.55L-134.59,-150.69" />
        <path d="M-139.58,378.71L-139.51,379.50" />
        <path d="M125.58,-201.80L127.23,-177.96L127.63,-151.88" />
        <path d="M-149.45,336.54" />
        <path d="M421.94,316.21L422.01,344.87" />
        <path d="M251.55,75.85L255.20,138.41" />
      </g>
      <g id="f4" style="--index:4; opacity:0;" class="frame">
        <path d="M-397.88,170.97L-397.88,193.88L-396.69,209.70" />
        <path d="M-134.59,-150.69L-136.05,-113.55" />
        <path d="M127.63,-151.88L126.63,-101.24" />
        <path d="M324.68,-371.80" />
        <path d="M422.01,344.87L421.89,352.17" />
        <path d="M255.20,138.41L257.39,192.95" />
      </g>
      <g id="f5" style="--index:5; opacity:0;" class="frame">
        <path d="M-396.69,209.70L-395.76,224.85L-395.76,243.99" />
        <path d="M-136.05,-113.55L-138.90,-80.19" />
        <path d="M126.63,-101.24L124.12,-51.53" />
        <path d="M324.68,-371.80L323.02,-361.20L323.15,-352.80L324.68,-343.52" />
        <path d="M257.39,192.95L258.44,239.22" />
      </g>
      <g id="f6" style="--index:6; opacity:0;" class="frame">
        <path d="M-395.76,243.99L-395.51,256.50L-393.98,272.32" />
        <path d="M-138.90,-80.19L-143.35,-45.43" />
        <path d="M124.12,-51.53L120.20,-0.75" />
        <path d="M324.68,-343.52L329.06,-316.13L331.71,-278.46" />
        <path d="M258.44,239.22L259.24,278.81" />
      </g>
      <g id="f7" style="--index:7; opacity:0;" class="frame">
        <path d="M-393.98,272.32L-393.50,284.77" />
        <path d="M-143.35,-45.43L-145.14,-11.28" />
        <path d="M120.20,-0.75L117.69,51.41" />
        <path d="M331.71,-278.46L334.42,-248.40L340.87,-203.12" />
        <path d="M-114.64,-335.52" />
        <path d="M-378.93,-334.53L-380.46,-329.50L-380.78,-321.75" />
        <path d="M259.24,278.81L260.37,310.59" />
      </g>
      <g id="f8" style="--index:8; opacity:0;" class="frame">
        <path d="M-368.05,-358.16L-367.98,-337.63" />
        <path d="M-145.14,-11.28L-146.60,26.39" />
        <path d="M117.69,51.41L117.69,104.65" />
        <path d="M340.87,-203.12L349.29,-129.51" />
        <path d="M-114.64,-335.52L-115.30,-322.21L-113.65,-300.64" />
        <path d="M-380.78,-321.75L-376.81,-255.28" />
        <path d="M260.37,310.59L262.82,338.65" />
      </g>
      <g id="f9" style="--index:9; opacity:0;" class="frame">
        <path d="M-367.98,-337.63L-367.98,-309.43" />
        <path d="M-146.60,26.39L-146.93,58.90" />
        <path d="M117.69,104.65L117.62,152.30" />
        <path d="M349.29,-129.51L354.05,-83.16L356.45,-49.34" />
        <path d="M-113.65,-300.64L-113.45,-274.02L-114.25,-265.21L-120.88,-231.98" />
        <path d="M-376.81,-255.28L-374.55,-207.09L-372.96,-188.69L-369.31,-162.47" />
        <path d="M167.29,-347.10L164.96,-335.06L164.44,-322.74" />
        <path d="M262.82,338.65L263.95,358.31" />
      </g>
      <g id="f10" style="--index:10; opacity:0;" class="frame">
        <path d="M-367.98,-309.43L-364.01,-278.46" />
        <path d="M-146.93,58.90L-147.33,88.62" />
        <path d="M117.62,152.30L121.00,195.53" />
        <path d="M356.45,-49.34L360.62,32.74" />
        <path d="M-120.88,-231.98L-123.66,-210.07L-127.70,-157.05" />
        <path d="M-369.31,-162.47L-359.96,-93.17L-357.45,-61.58" />
        <path d="M49.99,-321.42" />
        <path d="M164.44,-322.74L164.89,-310.36L169.87,-279.18L171.85,-257.41" />
        <path d="M263.95,358.31L264.09,359.24" />
      </g>
      <g id="f11" style="--index:11; opacity:0;" class="frame">
        <path d="M-364.01,-278.46L-360.76,-262.31L-359.64,-248.93" />
        <path d="M-147.33,88.62L-146.26,116.49" />
        <path d="M121.00,195.53L122.92,211.82L127.57,234.59" />
        <path d="M360.62,32.74L362.21,121.25" />
        <path d="M-127.70,-157.05L-136.32,-105.08L-140.24,-71.11" />
        <path d="M-357.45,-61.58L-356.97,-10.16L-360.37,44.01" />
        <path d="M-182.07,-338.17L-180.88,-335.65" />
        <path d="M49.99,-321.42L47.07,-304.74L46.68,-291.42" />
        <path d="M171.85,-257.41L172.78,-176.18" />
        <path d="M427.64,-371.60L425.86,-364.18L425.59,-357.62" />
      </g>
      <g id="f12" style="--index:12; opacity:0;" class="frame">
        <path d="M-359.64,-248.93L-356.51,-216.95" />
        <path d="M-146.26,116.49L-145.53,146.87" />
        <path d="M127.57,234.59L133.61,268.68" />
        <path d="M362.21,121.25L363.54,192.23" />
        <path d="M-140.24,-71.11L-142.95,-20.68L-142.89,15.33" />
        <path d="M-360.37,44.01L-367.66,144.82" />
        <path d="M-180.88,-335.65L-179.22,-326.45L-177.82,-297.98" />
        <path d="M46.68,-291.42L46.61,-258.59L43.35,-231.32" />
        <path d="M172.78,-176.18L176.57,-95.75" />
        <path d="M425.59,-357.62L426.13,-305.19" />
      </g>
      <g id="f13" style="--index:13; opacity:0;" class="frame">
        <path d="M-356.51,-216.95L-354.78,-182.60" />
        <path d="M-145.53,146.87L-145.21,177.46" />
        <path d="M133.61,268.68L138.97,304.04" />
        <path d="M363.54,192.23L364.86,248.23" />
        <path d="M-142.89,15.33L-140.31,80.48L-138.44,106.82" />
        <path d="M-367.66,144.82L-369.17,197.25L-368.26,243.07" />
        <path d="M-177.82,-297.98L-176.84,-259.66L-177.23,-229.67" />
        <path d="M43.35,-231.32L36.19,-164.19" />
        <path d="M176.57,-95.75L179.49,-18.22" />
        <path d="M426.13,-305.19L425.40,-239.59" />
      </g>
      <g id="f14" style="--index:14; opacity:0;" class="frame">
        <path d="M-354.78,-182.60L-353.59,-149.70" />
        <path d="M-145.21,177.46L-144.07,208.50" />
        <path d="M138.97,304.04L141.16,320.25L141.95,335.01" />
        <path d="M364.86,248.23L367.64,291.98" />
        <path d="M-138.44,106.82L-127.63,190.30" />
        <path d="M-368.26,243.07L-366.32,287.89L-366.00,317.47" />
        <path d="M-177.23,-229.67L-179.22,-154.20" />
        <path d="M36.19,-164.19L23.92,-89.53" />
        <path d="M179.49,-18.22L183.46,32.88L184.32,55.59" />
        <path d="M425.40,-239.59L425.00,-167.10" />
      </g>
      <g id="f15" style="--index:15; opacity:0;" class="frame">
        <path d="M-353.59,-149.70L-354.26,-137.19L-357.24,-117.13" />
        <path d="M-144.07,208.50L-143.21,240.55" />
        <path d="M141.95,335.01L142.68,359.30" />
        <path d="M367.64,291.98L368.58,328.00" />
        <path d="M-127.63,190.30L-120.88,260.14" />
        <path d="M-366.00,317.47L-365.27,336.21L-361.62,368.65" />
        <path d="M-179.22,-154.20L-179.55,-112.42L-178.69,-70.78" />
        <path d="M23.92,-89.53L14.91,-37.10L11.67,-13.99" />
        <path d="M184.32,55.59L185.26,91.60L187.90,124.89" />
        <path d="M425.00,-167.10L424.13,-93.50" />
        <path d="M239.28,-352.47L238.62,-324.46" />
      </g>
      <g id="f16" style="--index:16; opacity:0;" class="frame">
        <path d="M-357.24,-117.13L-367.85,-82.17" />
        <path d="M-143.21,240.55L-141.95,269.28" />
        <path d="M142.68,359.30L141.68,380.43" />
        <path d="M368.58,328.00L370.50,359.44" />
        <path d="M-120.88,260.14L-115.04,309.33" />
        <path d="M-361.62,368.65L-360.37,373.94" />
        <path d="M-178.69,-70.78L-173.92,12.03" />
        <path d="M11.67,-13.99L9.49,9.05L6.75,66.17" />
        <path d="M187.90,124.89L190.75,159.58L193.93,187.06" />
        <path d="M424.13,-93.50L424.13,-16.17" />
        <path d="M238.62,-324.46L242.27,-294.42L242.86,-283.69" />
      </g>
      <g id="f17" style="--index:17; opacity:0;" class="frame">
        <path d="M-367.85,-82.17L-370.83,-70.59L-378.86,-47.68" />
        <path d="M-141.95,269.28L-140.90,296.09" />
        <path d="M141.68,380.43" />
        <path d="M370.50,359.44L371.09,367.98" />
        <path d="M-115.04,309.33L-111.78,335.01" />
        <path d="M-173.92,12.03L-171.14,95.18" />
        <path d="M6.75,66.17L5.50,100.54L5.24,148.79" />
        <path d="M193.93,187.06L198.58,221.15L200.49,243.79" />
        <path d="M424.13,-16.17L422.94,55.65" />
        <path d="M242.86,-283.69L244.12,-264.22L247.10,-239.46" />
      </g>
      <g id="f18" style="--index:18; opacity:0;" class="frame">
        <path d="M-378.86,-47.68L-384.15,-16.90" />
        <path d="M-141.82,-356.24" />
        <path d="M-140.90,296.09L-140.04,318.93" />
        <path d="M-111.78,335.01L-111.46,341.23L-110.07,343.03" />
        <path d="M-171.14,95.18L-169.54,138.27L-166.88,166.07" />
        <path d="M5.24,148.79L7.23,217.18" />
        <path d="M200.49,243.79L202.43,292.91" />
        <path d="M422.94,55.65L422.42,123.84" />
        <path d="M247.10,-239.46L250.29,-184.26" />
      </g>
      <g id="f19" style="--index:19; opacity:0;" class="frame">
        <path d="M-384.15,-16.90L-386.89,13.62" />
        <path d="M-141.82,-356.24L-142.29,-348.42L-137.58,-326.45L-136.59,-318.44" />
        <path d="M-140.04,318.93L-139.83,339.39" />
        <path d="M122.80,-364.78L120.20,-359.61L119.54,-354.05" />
        <path d="M-166.88,166.07L-159.72,223.60" />
        <path d="M7.23,217.18L6.30,282.45" />
        <path d="M202.43,292.91L200.17,333.56" />
        <path d="M422.42,123.84L421.42,194.81" />
        <path d="M250.29,-184.26L251.02,-142.21L249.95,-122.22" />
      </g>
    </g>
    <g id="t2" class="thread">
      <g id="f0" style="--index:0; opacity:1;" class="frame">
        <path d="M-424.88,117.94L-424.47,145.29" />
        <path d="M-297.97,-354.98L-297.38,-331.68" />
        <path d="M-264.29,371.69L-265.48,371.17" />
        <path d="M-149.59,66.51L-142.62,102.52" />
        <path d="M-53.25,-347.97L-52.97,-315.73" />
        <path d="M97.60,108.48L103.56,141.12" />
        <path d="M231.39,164.88L233.38,197.39" />
        <path d="M339.87,-297.52L343.52,-264.75" />
        <path d="M482.21,-33.32L483.48,12.89" />
        <path d="M538.65,305.16L538.65,326.08" />
        <path d="M-492.56,-68.94L-487.00,-31.39" />
        <path d="M-515.11,319.98L-513.45,334.22" />
        <path d="M-367.19,-89.92L-363.88,-47.89" />
        <path d="M-218.28,278.09L-216.61,311.44" />
        <path d="M-148.79,-197.56L-146.74,-167.64" />
        <path d="M-37.99,194.27L-36.28,225.78" />
        <path d="M70.35,-237.15L72.61,-202.39" />
        <path d="M204.28,133.97L205.74,175.07" />
        <path d="M290.68,-304.40L290.86,-275.28" />
        <path d="M410.74,-28.23L409.49,14.81" />
        <path d="M459.93,-321.09" />
        <path d="M457.56,314.83L457.69,342.56" />
        <path d="M507.95,78.95L507.48,117.94" />
        <path d="M-0.59,-300.97L-1.14,-270.44" />
        <path d="M30.10,334.22L33.16,347.00" />
        <path d="M-233.58,23.28L-233.85,52.41" />
        <path d="M159.72,-231.71L153.88,-205.04L152.42,-181.47" />
        <path d="M331.71,217.04L333.69,246.91" />
        <path d="M402.33,-165.51L399.68,-122.30" />
        <path d="M504.49,60.49L501.71,97.82" />
        <path d="M77.17,389.90L76.05,387.25" />
        <path d="M-255.40,-78.93L-254.08,-58.68L-254.01,-33.46" />
        <path d="M-71.35,383.08L-71.21,403.01" />
        <path d="M114.91,245.38L117.88,260.41L120.40,281.33" />
        <path d="M135.46,298.21L136.91,326.34" />
        <path d="M-270.79,52.28L-268.06,89.29" />
        <path d="M332.25,-82.04L329.92,-60.59L329.86,-29.14" />
        <path d="M348.95,-134.93L346.03,-132.82L344.64,-125.86L344.18,-101.83" />
        <path d="M165.90,-177.83L161.64,-175.97L158.26,-172.33L155.14,-166.18L153.75,-159.16" />
        <path d="M-67.70,-175.31L-69.09,-153.07L-69.16,-132.49" />
        <path d="M138.17,322.64L138.83,354.01" />
      </g>
      <g id="f1" style="--index:1; opacity:0;" class="frame">
        <path d="M-424.47,145.29L-424.54,173.16" />
        <path d="M-297.38,-331.68L-295.85,-305.52L-296.24,-287.72" />
        <path d="M-142.62,102.52L-135.27,137.34" />
        <path d="M-52.97,-315.73L-51.72,-267.60" />
        <path d="M103.56,141.12L107.27,160.12L108.59,173.68" />
        <path d="M233.38,197.39L235.24,230.15" />
        <path d="M343.52,-264.75L346.82,-231.05" />
        <path d="M483.48,12.89L484.15,58.77" />
        <path d="M528.43,-285.20L528.50,-275.75" />
        <path d="M538.65,326.08L538.65,349.71" />
        <path d="M-487.00,-31.39L-481.43,1.83" />
        <path d="M-532.01,-293.22" />
        <path d="M-513.45,334.22L-513.45,335.61" />
        <path d="M-363.88,-47.89L-361.09,-6.64" />
        <path d="M-262.36,-347.57L-263.09,-338.23" />
        <path d="M-216.61,311.44L-215.75,338.79" />
        <path d="M-146.74,-167.64L-144.87,-133.81" />
        <path d="M-36.28,225.78L-34.89,256.24" />
        <path d="M72.61,-202.39L74.85,-174.05" />
        <path d="M205.74,175.07L207.06,211.82" />
        <path d="M290.86,-275.28L292.32,-243.83" />
        <path d="M409.49,14.81L409.22,56.58" />
        <path d="M459.93,-321.09L459.02,-311.42L460.87,-295.47" />
        <path d="M457.69,342.56L458.49,369.97" />
        <path d="M507.48,117.94L506.68,156.21" />
        <path d="M-1.14,-270.44L-1.14,-236.88" />
        <path d="M33.16,347.00L33.09,350.51" />
        <path d="M-233.85,52.41L-234.99,83.72" />
        <path d="M152.42,-181.47L151.90,-135.20" />
        <path d="M333.69,246.91L334.69,272.98" />
        <path d="M399.68,-122.30L396.03,-77.00" />
        <path d="M501.71,97.82L497.21,132.58" />
        <path d="M-254.01,-33.46L-255.93,8.26" />
        <path d="M-71.21,403.01L-71.21,415.45" />
        <path d="M120.40,281.33L125.04,313.57" />
        <path d="M136.91,326.34L138.65,349.31" />
        <path d="M-268.06,89.29L-266.01,124.56" />
        <path d="M329.86,-29.14L330.38,18.25" />
        <path d="M344.18,-101.83L344.91,-75.02L341.85,-42.78" />
        <path d="M153.75,-159.16L153.63,-152.08L155.61,-134.14L155.55,-120.77" />
        <path d="M-69.16,-132.49L-68.57,-91.84" />
        <path d="M138.83,354.01L138.51,370.63" />
      </g>
      <g id="f2" style="--index:2; opacity:0;" class="frame">
        <path d="M-424.54,173.16L-424.15,201.29" />
        <path d="M-296.24,-287.72L-297.38,-270.18L-297.84,-243.04" />
        <path d="M-135.27,137.34L-129.09,168.66" />
        <path d="M-51.72,-267.60L-49.67,-217.28" />
        <path d="M108.59,173.68L110.99,205.93" />
        <path d="M235.24,230.15L236.77,258.88" />
        <path d="M346.82,-231.05L350.20,-193.98" />
        <path d="M484.15,58.77L484.15,102.85" />
        <path d="M528.50,-275.75L528.36,-245.29" />
        <path d="M538.65,349.71L538.51,370.90" />
        <path d="M-481.43,1.83L-477.99,32.95" />
        <path d="M-532.01,-293.22L-533.15,-289.64L-532.35,-277.46" />
        <path d="M-361.09,-6.64L-360.23,15.07L-358.18,38.11" />
        <path d="M-263.09,-338.23L-264.09,-323.67L-263.43,-311.23" />
        <path d="M-215.75,338.79L-214.83,359.90" />
        <path d="M-144.87,-133.81L-142.09,-98.92" />
        <path d="M-34.89,256.24L-33.16,284.04" />
        <path d="M74.85,-174.05L77.51,-144.40" />
        <path d="M207.06,211.82L209.64,245.78" />
        <path d="M292.32,-243.83L294.38,-211.20" />
        <path d="M409.22,56.58L409.74,96.50" />
        <path d="M460.87,-295.47L462.19,-262.10" />
        <path d="M458.49,369.97L459.88,385.66" />
        <path d="M506.68,156.21L507.09,192.02" />
        <path d="M-1.14,-236.88L-0.59,-203.84" />
        <path d="M-234.99,83.72L-236.18,117.94" />
        <path d="M151.90,-135.20L150.64,-92.63" />
        <path d="M334.69,272.98L335.35,298.60" />
        <path d="M396.03,-77.00L390.92,-31.66" />
        <path d="M497.21,132.58L496.14,150.71L493.75,161.77" />
        <path d="M-255.93,8.26L-256.59,26.99L-256.00,52.61" />
        <path d="M125.04,313.57L129.69,343.42" />
        <path d="M138.65,349.31L139.76,359.64" />
        <path d="M-266.01,124.56L-264.48,156.15" />
        <path d="M330.38,18.25L331.84,38.38L332.05,57.84" />
        <path d="M341.85,-42.78L340.92,-21.14L341.79,8.45" />
        <path d="M155.55,-120.77L153.81,-96.21L153.70,-71.91" />
        <path d="M-68.57,-91.84L-63.92,-52.38" />
        <path d="M138.51,370.63L138.51,374.14" />
      </g>
      <g id="f3" style="--index:3; opacity:0;" class="frame">
        <path d="M-430.17,-364.84L-431.31,-361.07L-431.70,-351.54" />
        <path d="M-424.15,201.29L-423.60,227.71" />
        <path d="M-297.84,-243.04L-298.64,-196.30" />
        <path d="M-129.09,168.66L-124.12,196.53" />
        <path d="M-49.67,-217.28L-46.88,-167.31" />
        <path d="M110.99,205.93L111.06,233.86" />
        <path d="M236.77,258.88L237.96,284.71" />
        <path d="M350.20,-193.98L353.19,-158.37" />
        <path d="M484.15,102.85L484.21,143.23" />
        <path d="M528.36,-245.29L529.16,-211.00" />
        <path d="M538.51,370.90L538.17,381.69" />
        <path d="M-477.99,32.95L-472.68,67.10" />
        <path d="M-532.35,-277.46L-531.28,-261.51L-531.16,-240.39L-530.10,-234.03" />
        <path d="M-358.18,38.11L-354.73,80.42" />
        <path d="M-263.43,-311.23L-261.56,-283.75" />
        <path d="M-214.83,359.90L-213.97,375.86" />
        <path d="M-142.09,-98.92L-140.24,-61.85" />
        <path d="M-33.16,284.04L-32.04,311.38" />
        <path d="M77.51,-144.40L79.49,-111.90" />
        <path d="M209.64,245.78L210.71,275.44" />
        <path d="M294.38,-211.20L295.70,-177.37" />
        <path d="M409.74,96.50L410.68,135.16" />
        <path d="M462.19,-262.10L462.26,-227.22" />
        <path d="M459.88,385.66" />
        <path d="M507.09,192.02L506.75,224.66" />
        <path d="M-0.59,-203.84L-1.59,-169.89" />
        <path d="M-236.18,117.94L-236.63,147.80" />
        <path d="M150.64,-92.63L150.17,-52.85" />
        <path d="M335.35,298.60L334.56,323.96" />
        <path d="M390.92,-31.66L388.99,-5.26L388.60,11.50" />
        <path d="M493.75,161.77L491.17,174.49L490.58,187.59" />
        <path d="M53.84,-148.64L54.57,-145.73L55.37,-128.71" />
        <path d="M-256.00,52.61L-254.88,93.65" />
        <path d="M-38.26,-207.62" />
        <path d="M129.69,343.42L131.01,367.65" />
        <path d="M-264.48,156.15L-264.16,188.65" />
        <path d="M332.05,57.84L331.77,94.91" />
        <path d="M341.79,8.45L343.77,51.88" />
        <path d="M153.70,-71.91L155.94,-22.46" />
        <path d="M-63.92,-52.38L-63.19,-34.97L-63.32,-6.77" />
        <path d="M163.96,-339.55L161.84,-336.72L160.06,-328.30" />
      </g>
      <g id="f4" style="--index:4; opacity:0;" class="frame">
        <path d="M-431.70,-351.54L-430.17,-336.91L-430.17,-324.60" />
        <path d="M-423.60,227.71L-422.48,250.28" />
        <path d="M-298.64,-196.30L-296.51,-152.08" />
        <path d="M-124.12,196.53L-120.61,225.45" />
        <path d="M-46.88,-167.31L-44.56,-118.19" />
        <path d="M111.06,233.86L109.94,256.44" />
        <path d="M234.51,-385.57L234.31,-382.19" />
        <path d="M237.96,284.71L239.42,309.99" />
        <path d="M353.19,-158.37L355.31,-122.82" />
        <path d="M484.21,143.23L485.47,179.31" />
        <path d="M529.16,-211.00L529.16,-179.75" />
        <path d="M538.17,381.69L536.12,380.49" />
        <path d="M-472.68,67.10L-467.18,108.22" />
        <path d="M-530.10,-234.03L-528.04,-215.57L-528.04,-203.06L-528.91,-195.18" />
        <path d="M-354.73,80.42L-351.34,121.25" />
        <path d="M-261.56,-283.75L-260.71,-254.10" />
        <path d="M-213.97,375.86L-214.10,378.84" />
        <path d="M-140.24,-61.85L-138.37,-20.21" />
        <path d="M-32.04,311.38L-31.76,338.40" />
        <path d="M79.49,-111.90L80.61,-100.18L80.95,-80.00" />
        <path d="M210.71,275.44L212.17,303.50" />
        <path d="M295.70,-177.37L295.97,-143.54" />
        <path d="M410.68,135.16L411.20,170.18" />
        <path d="M462.26,-227.22L462.53,-194.12" />
        <path d="M506.75,224.66L506.29,251.67" />
        <path d="M-1.59,-169.89L-1.59,-130.63" />
        <path d="M-236.63,147.80L-237.50,173.68" />
        <path d="M150.17,-52.85L150.05,-13.46" />
        <path d="M334.56,323.96L334.42,346.94" />
        <path d="M388.60,11.50L386.55,52.74" />
        <path d="M490.58,187.59L489.05,215.20" />
        <path d="M55.37,-128.71L54.76,-111.43L50.12,-71.65" />
        <path d="M-254.88,93.65L-253.81,109.14L-253.94,133.57" />
        <path d="M-38.26,-207.62L-44.24,-185.84L-45.29,-167.31" />
        <path d="M131.01,367.65L131.08,376.26" />
        <path d="M-264.16,188.65L-263.68,211.68L-264.48,223.47" />
        <path d="M331.77,94.91L330.84,133.10" />
        <path d="M343.77,51.88L344.31,91.07" />
        <path d="M155.94,-22.46L156.87,-4.39L156.94,25.60" />
        <path d="M-63.32,-6.77L-63.78,28.58L-62.80,41.75" />
        <path d="M160.06,-328.30L159.52,-311.42L160.25,-293.49" />
      </g>
      <g id="f5" style="--index:5; opacity:0;" class="frame">
        <path d="M-430.17,-324.60L-433.36,-294.15" />
        <path d="M-422.48,250.28L-421.82,270.01" />
        <path d="M-296.51,-152.08L-294.26,-110.11" />
        <path d="M-120.61,225.45L-118.42,255.12" />
        <path d="M-44.56,-118.19L-41.78,-72.78" />
        <path d="M109.94,256.44L108.41,277.55" />
        <path d="M234.31,-382.19L233.58,-366.76L234.17,-352.00" />
        <path d="M239.42,309.99L240.42,338.52" />
        <path d="M355.31,-122.82L357.77,-88.93" />
        <path d="M485.47,179.31L486.06,212.41" />
        <path d="M529.16,-179.75L530.21,-148.37" />
        <path d="M-467.18,108.22L-463.67,147.61" />
        <path d="M-528.91,-195.18L-529.89,-180.02L-529.82,-154.99" />
        <path d="M-351.34,121.25L-348.35,158.73" />
        <path d="M-260.71,-254.10L-259.32,-222.91" />
        <path d="M-138.37,-20.21L-136.00,21.95" />
        <path d="M-31.76,338.40L-31.56,360.44" />
        <path d="M80.95,-80.00L82.68,-46.76" />
        <path d="M212.17,303.50L213.35,329.59" />
        <path d="M295.97,-143.54L295.04,-107.60" />
        <path d="M411.20,170.18L411.61,200.89" />
        <path d="M462.53,-194.12L462.46,-164.66" />
        <path d="M506.29,251.67L504.69,276.36" />
        <path d="M-1.59,-130.63L-1.46,-90.52" />
        <path d="M-237.50,173.68L-238.82,201.55" />
        <path d="M150.05,-13.46L150.44,26.13" />
        <path d="M339.14,-303.95L339.27,-289.64" />
        <path d="M334.42,346.94L333.76,354.88L332.78,356.47L331.91,356.53" />
        <path d="M386.55,52.74L384.15,95.18" />
        <path d="M489.05,215.20L488.12,247.49" />
        <path d="M50.12,-71.65L46.68,-12.87" />
        <path d="M-253.94,133.57L-255.33,169.05" />
        <path d="M-45.29,-167.31L-45.36,-143.41L-46.88,-117.65" />
        <path d="M-264.48,223.47L-268.13,265.11" />
        <path d="M330.84,133.10L330.52,169.98" />
        <path d="M344.31,91.07L344.70,128.01" />
        <path d="M156.94,25.60L155.55,51.55L150.64,81.20" />
        <path d="M-62.80,41.75L-60.02,71.01L-57.88,82.80" />
        <path d="M160.25,-293.49L159.33,-252.11" />
      </g>
      <g id="f6" style="--index:6; opacity:0;" class="frame">
        <path d="M-433.36,-294.15L-434.09,-264.48" />
        <path d="M-421.82,270.01L-421.69,288.80" />
        <path d="M-294.26,-110.11L-293.73,-65.90" />
        <path d="M-118.42,255.12L-117.37,285.16" />
        <path d="M-41.78,-72.78L-40.52,-32.92" />
        <path d="M70.21,-379.27" />
        <path d="M108.41,277.55L108.14,297.61" />
        <path d="M234.17,-352.00L234.58,-336.05L232.19,-317.91" />
        <path d="M240.42,338.52L240.42,355.21L241.15,361.04" />
        <path d="M357.77,-88.93L360.09,-55.96" />
        <path d="M486.06,212.41L486.06,241.87" />
        <path d="M530.21,-148.37L532.40,-113.16" />
        <path d="M-463.67,147.61L-460.34,184.41" />
        <path d="M-529.82,-154.99L-530.96,-112.42" />
        <path d="M-348.35,158.73L-346.96,196.65" />
        <path d="M-259.32,-222.91L-258.91,-188.81" />
        <path d="M-136.00,21.95L-132.42,63.34" />
        <path d="M-58.22,-344.39L-57.69,-341.74L-58.22,-330.09" />
        <path d="M-31.56,360.44L-31.97,378.18" />
        <path d="M82.68,-46.76L84.13,-13.20" />
        <path d="M196.85,-347.24" />
        <path d="M213.35,329.59L213.35,354.55" />
        <path d="M295.04,-107.60L293.92,-74.23" />
        <path d="M411.61,200.89L411.93,231.41" />
        <path d="M462.46,-164.66L460.73,-134.60" />
        <path d="M504.69,276.36L504.42,296.88" />
        <path d="M-1.46,-90.52L-1.26,-50.00" />
        <path d="M-238.82,201.55L-239.89,233.33" />
        <path d="M150.44,26.13L151.37,68.16" />
        <path d="M339.27,-289.64L339.73,-263.49L339.21,-256.21" />
        <path d="M384.15,95.18L383.10,118.61L381.58,133.70" />
        <path d="M488.12,247.49L488.05,275.77" />
        <path d="M46.68,-12.87L46.48,15.07L49.05,42.28" />
        <path d="M-255.33,169.05L-255.40,192.89L-254.67,201.76" />
        <path d="M-46.88,-117.65L-48.14,-90.05L-48.14,-71.11" />
        <path d="M-268.13,265.11L-269.40,303.97" />
        <path d="M330.52,169.98L330.45,204.28" />
        <path d="M344.70,128.01L344.98,163.43" />
        <path d="M150.64,81.20L145.99,104.90L140.88,138.14" />
        <path d="M-57.88,82.80L-52.13,106.10L-49.14,125.36" />
        <path d="M159.33,-252.11L158.01,-210.93" />
      </g>
      <g id="f7" style="--index:7; opacity:0;" class="frame">
        <path d="M-434.09,-264.48L-432.17,-235.35" />
        <path d="M-421.69,288.80L-421.69,308.07" />
        <path d="M-293.73,-65.90L-290.75,-17.83" />
        <path d="M-117.37,285.16L-116.89,313.24" />
        <path d="M-40.52,-32.92L-39.65,7.60" />
        <path d="M70.21,-379.27L69.55,-369.55" />
        <path d="M108.14,297.61L109.87,314.95" />
        <path d="M232.19,-317.91L227.22,-288.45" />
        <path d="M241.15,361.04L243.46,380.16" />
        <path d="M360.09,-55.96L361.88,-19.81" />
        <path d="M486.06,241.87L486.59,271.60" />
        <path d="M532.40,-113.16L535.53,-79.86" />
        <path d="M-460.34,184.41L-457.24,221.48" />
        <path d="M-530.96,-112.42L-533.54,-84.69L-534.02,-66.75" />
        <path d="M-346.96,196.65L-344.72,236.37" />
        <path d="M-258.91,-188.81L-257.25,-154.47" />
        <path d="M-132.42,63.34L-129.96,100.47" />
        <path d="M-58.22,-330.09L-58.81,-309.10L-57.03,-289.04" />
        <path d="M-31.97,378.18L-31.90,389.82" />
        <path d="M84.13,-13.20L84.74,25.80" />
        <path d="M196.85,-347.24L197.64,-341.02L197.57,-326.78" />
        <path d="M213.35,354.55L214.81,376.40" />
        <path d="M293.92,-74.23L292.39,-39.35" />
        <path d="M411.93,231.41L412.13,259.55" />
        <path d="M460.73,-134.60L460.27,-101.97" />
        <path d="M504.42,296.88L503.17,315.55" />
        <path d="M-1.26,-50.00L-1.26,-7.43" />
        <path d="M-239.89,233.33L-243.13,267.30" />
        <path d="M151.37,68.16L151.03,108.02" />
        <path d="M339.21,-256.21L338.21,-241.84L338.27,-225.10" />
        <path d="M381.58,133.70L378.98,151.58L377.86,167.93" />
        <path d="M488.05,275.77L487.32,301.19" />
        <path d="M49.05,42.28L52.18,64.99L53.91,86.70" />
        <path d="M-254.67,201.76L-250.29,232.73" />
        <path d="M-48.14,-71.11L-48.14,-46.82L-46.29,-25.58" />
        <path d="M-269.40,303.97L-268.72,338.52" />
        <path d="M330.45,204.28L328.60,237.96" />
        <path d="M344.98,163.43L346.50,196.86" />
        <path d="M140.88,138.14L131.35,187.00" />
        <path d="M-49.14,125.36L-43.30,170.77" />
        <path d="M158.01,-210.93L154.95,-163.46" />
      </g>
      <g id="f8" style="--index:8; opacity:0;" class="frame">
        <path d="M-432.17,-235.35L-428.05,-206.63" />
        <path d="M-421.69,308.07L-421.69,326.94" />
        <path d="M-290.75,-17.83L-288.49,25.86" />
        <path d="M-145.01,-343.60L-144.62,-336.97" />
        <path d="M-116.89,313.24L-116.37,339.52" />
        <path d="M-39.65,7.60L-37.99,51.29" />
        <path d="M69.55,-369.55L70.28,-327.31" />
        <path d="M109.87,314.95L111.33,329.12" />
        <path d="M227.22,-288.45L225.03,-273.89L220.72,-257.47" />
        <path d="M243.46,380.16L244.32,385.60" />
        <path d="M361.88,-19.81L363.01,20.63" />
        <path d="M486.59,271.60L486.93,299.47" />
        <path d="M535.53,-79.86L537.58,-59.47L537.92,-46.82" />
        <path d="M-457.24,221.48L-453.77,257.69" />
        <path d="M-534.02,-66.75L-532.95,-25.58" />
        <path d="M-344.72,236.37L-341.80,268.89" />
        <path d="M-257.25,-154.47L-255.67,-120.11" />
        <path d="M-129.96,100.47L-128.29,134.96" />
        <path d="M-57.03,-289.04L-54.98,-243.64" />
        <path d="M-31.90,389.82L-31.90,390.42" />
        <path d="M84.74,25.80L86.06,66.17" />
        <path d="M197.57,-326.78L197.05,-296.20" />
        <path d="M214.81,376.40L214.56,389.03" />
        <path d="M292.39,-39.35L292.12,-1.15" />
        <path d="M412.13,259.55L412.80,285.97" />
        <path d="M460.27,-101.97L459.27,-65.03" />
        <path d="M503.17,315.55L502.37,333.23" />
        <path d="M-1.26,-7.43L-1.14,8.45L0.25,30.16" />
        <path d="M-243.13,267.30L-244.53,296.55" />
        <path d="M151.03,108.02L149.84,146.02" />
        <path d="M338.27,-225.10L338.54,-204.84L337.81,-190.07" />
        <path d="M377.86,167.93L376.06,199.30" />
        <path d="M487.32,301.19L486.93,324.30" />
        <path d="M53.91,86.70L58.81,129.00" />
        <path d="M-250.29,232.73L-247.65,260.60" />
        <path d="M-46.29,-25.58L-42.64,16.66" />
        <path d="M-268.72,338.52L-267.94,359.30" />
        <path d="M328.60,237.96L327.60,266.43" />
        <path d="M346.50,196.86L346.57,226.25" />
        <path d="M131.35,187.00L127.50,208.04L124.85,229.23" />
        <path d="M-43.30,170.77L-42.37,197.46L-40.84,213.87" />
        <path d="M154.95,-163.46L154.48,-126.06" />
      </g>
      <g id="f9" style="--index:9; opacity:0;" class="frame">
        <path d="M-428.05,-206.63L-426.86,-196.57L-426.13,-176.51" />
        <path d="M-421.69,326.94L-421.48,344.68" />
        <path d="M-288.49,25.86L-284.57,65.45" />
        <path d="M-144.62,-336.97L-144.14,-315.13L-145.14,-298.39" />
        <path d="M-116.37,339.52L-115.96,358.58" />
        <path d="M-37.99,51.29L-35.48,93.12" />
        <path d="M70.28,-327.31L70.01,-312.88L67.29,-278.19" />
        <path d="M111.33,329.12L112.79,343.30" />
        <path d="M220.72,-257.47L216.75,-241.25L214.42,-223.90" />
        <path d="M363.01,20.63L365.25,64.33" />
        <path d="M486.93,299.47L487.39,321.98" />
        <path d="M537.92,-46.82L538.17,-13.65" />
        <path d="M-453.77,257.69L-451.19,286.49" />
        <path d="M-532.95,-25.58L-530.49,11.57" />
        <path d="M-341.80,268.89L-340.53,288.94L-339.00,300.13" />
        <path d="M-255.67,-120.11L-253.67,-85.68" />
        <path d="M-128.29,134.96L-124.85,170.71" />
        <path d="M-54.98,-243.64L-52.18,-198.03" />
        <path d="M86.06,66.17L86.45,105.43" />
        <path d="M197.05,-296.20L197.18,-265.81" />
        <path d="M292.12,-1.15L292.19,40.43" />
        <path d="M412.80,285.97L413.14,310.92" />
        <path d="M459.27,-65.03L457.95,-27.30" />
        <path d="M502.37,333.23L502.37,345.61" />
        <path d="M0.25,30.16L1.12,47.84L3.38,64.79" />
        <path d="M-244.53,296.55L-244.93,318.40" />
        <path d="M149.84,146.02L149.32,183.55" />
        <path d="M337.81,-190.07L336.49,-151.02" />
        <path d="M376.06,199.30L376.33,228.97" />
        <path d="M507.68,-274.09L507.34,-267.00" />
        <path d="M486.93,324.30L486.40,343.63" />
        <path d="M58.81,129.00L59.68,142.17L59.68,169.52" />
        <path d="M-247.65,260.60L-245.12,286.03" />
        <path d="M-42.64,16.66L-41.98,42.94L-42.89,53.67" />
        <path d="M-267.94,359.30L-267.40,364.28L-266.01,365.13" />
        <path d="M327.60,266.43L326.87,290.72" />
        <path d="M346.57,226.25L347.30,251.13" />
        <path d="M124.85,229.23L123.26,263.25" />
        <path d="M-40.84,213.87L-38.99,254.79" />
        <path d="M154.48,-126.06L153.95,-85.48" />
      </g>
      <g id="f10" style="--index:10; opacity:0;" class="frame">
        <path d="M-426.13,-176.51L-424.88,-146.32" />
        <path d="M-421.48,344.68L-420.96,359.11" />
        <path d="M-284.57,65.45L-280.19,106.03" />
        <path d="M-145.14,-298.39L-146.47,-283.15L-150.05,-259.00" />
        <path d="M-115.96,358.58L-115.70,366.85" />
        <path d="M-35.48,93.12L-34.16,131.38" />
        <path d="M67.29,-278.19L66.04,-232.12" />
        <path d="M112.79,343.30L114.57,356.92" />
        <path d="M214.42,-223.90L209.77,-183.85" />
        <path d="M365.25,64.33L367.71,108.68" />
        <path d="M450.06,-381.07" />
        <path d="M487.39,321.98L487.98,342.16" />
        <path d="M538.17,-13.65L536.71,20.57" />
        <path d="M-451.19,286.49L-448.55,309.00" />
        <path d="M-530.49,11.57L-530.23,49.10" />
        <path d="M-339.00,300.13L-337.15,314.36L-336.36,330.19" />
        <path d="M-253.67,-85.68L-251.23,-47.56" />
        <path d="M-124.85,170.71L-122.80,205.33" />
        <path d="M-52.18,-198.03L-50.79,-151.22" />
        <path d="M86.45,105.43L86.86,142.24" />
        <path d="M197.18,-265.81L197.85,-233.11" />
        <path d="M292.19,40.43L292.85,83.13" />
        <path d="M419.29,-361.34L418.43,-355.18" />
        <path d="M413.14,310.92L413.59,334.82" />
        <path d="M457.95,-27.30L457.95,9.05" />
        <path d="M511.53,-295.60L509.60,-289.91L509.39,-277.20" />
        <path d="M502.37,345.61L502.05,352.29" />
        <path d="M3.38,64.79L6.36,80.87L8.14,97.23" />
        <path d="M-239.35,-253.77L-239.35,-248.40" />
        <path d="M-244.93,318.40" />
        <path d="M149.32,183.55L149.25,197.19L150.71,217.58" />
        <path d="M336.49,-151.02L335.03,-109.58" />
        <path d="M376.33,228.97L377.86,259.35" />
        <path d="M507.34,-267.00L507.48,-236.16" />
        <path d="M486.40,343.63L485.86,359.97" />
        <path d="M59.68,169.52L60.59,208.17" />
        <path d="M-245.12,286.03L-244.66,311.38" />
        <path d="M-42.89,53.67L-45.68,75.78L-48.48,89.95" />
        <path d="M102.23,-260.84L101.32,-242.71" />
        <path d="M112.65,-180.68" />
        <path d="M326.87,290.72L325.61,313.96" />
        <path d="M347.30,251.13L347.03,273.46" />
        <path d="M123.26,263.25L123.32,288.68" />
        <path d="M-38.99,254.79L-38.86,278.81L-40.66,295.95" />
        <path d="M153.95,-85.48L153.70,-65.82L151.56,-45.50" />
      </g>
      <g id="f11" style="--index:11; opacity:0;" class="frame">
        <path d="M-424.88,-146.32L-423.55,-116.33" />
        <path d="M-420.96,359.11L-420.30,371.23" />
        <path d="M-280.19,106.03L-276.36,148.27" />
        <path d="M-150.05,-259.00L-154.68,-222.32" />
        <path d="M-34.16,131.38L-31.24,166.67" />
        <path d="M66.04,-232.12L60.41,-186.83" />
        <path d="M114.57,356.92L115.76,365.01" />
        <path d="M209.77,-183.85L208.45,-141.09" />
        <path d="M367.71,108.68L370.90,148.33" />
        <path d="M450.06,-381.07L451.65,-359.02" />
        <path d="M487.98,342.16L488.78,365.53" />
        <path d="M536.71,20.57L536.71,54.39" />
        <path d="M-448.55,309.00L-446.02,327.40" />
        <path d="M-530.23,49.10L-528.57,85.24" />
        <path d="M-378.45,-356.96L-380.85,-349.29" />
        <path d="M-336.36,330.19L-333.18,356.73" />
        <path d="M-251.23,-47.56L-247.24,-5.38" />
        <path d="M-122.80,205.33L-121.13,235.19" />
        <path d="M-50.79,-151.22L-48.87,-126.19L-48.55,-109.71" />
        <path d="M86.86,142.24L87.18,175.34" />
        <path d="M197.85,-233.11L198.64,-213.25L198.17,-194.91" />
        <path d="M292.85,83.13L294.97,124.97" />
        <path d="M418.43,-355.18L417.11,-333.80L417.11,-320.69" />
        <path d="M413.59,334.82L414.32,359.64" />
        <path d="M457.95,9.05L457.56,44.67" />
        <path d="M509.39,-277.20L510.40,-260.18L510.33,-234.03" />
        <path d="M502.05,352.29L501.57,353.41L501.25,352.17" />
        <path d="M8.14,97.23L12.79,127.62" />
        <path d="M-239.35,-248.40L-239.03,-239.20L-236.57,-224.91" />
        <path d="M150.71,217.58L150.57,253.26" />
        <path d="M335.03,-109.58L334.56,-66.89" />
        <path d="M377.86,259.35L380.57,290.66" />
        <path d="M507.48,-236.16L507.55,-215.03L506.75,-200.54" />
        <path d="M485.86,359.97L485.27,368.38" />
        <path d="M60.59,208.17L59.86,233.47L60.66,243.40" />
        <path d="M-244.66,311.38L-244.13,331.10L-245.00,339.06" />
        <path d="M-48.48,89.95L-56.10,124.83" />
        <path d="M101.32,-242.71L97.01,-194.85" />
        <path d="M112.65,-180.68L110.92,-175.78L109.21,-157.51L109.26,-137.12L110.05,-130.10" />
        <path d="M325.61,313.96L323.82,337.33" />
        <path d="M347.03,273.46L347.62,290.66" />
        <path d="M123.32,288.68L124.38,310.59" />
        <path d="M-40.66,295.95L-41.78,308.13L-42.10,336.00" />
        <path d="M151.56,-45.50L150.71,-9.95" />
      </g>
      <g id="f12" style="--index:12; opacity:0;" class="frame">
        <path d="M-423.55,-116.33L-422.48,-85.75" />
        <path d="M-420.30,371.23L-420.23,374.27" />
        <path d="M-276.36,148.27L-273.76,185.28" />
        <path d="M-154.68,-222.32L-157.73,-185.05" />
        <path d="M-31.24,166.67L-28.85,197.79" />
        <path d="M60.41,-186.83L56.42,-163.13L54.37,-140.83" />
        <path d="M115.76,365.01L116.03,369.37" />
        <path d="M208.45,-141.09L208.38,-103.22" />
        <path d="M370.90,148.33L373.21,186.13" />
        <path d="M451.65,-359.02L455.17,-326.84" />
        <path d="M488.78,365.53L489.64,384.73" />
        <path d="M536.71,54.39L536.71,88.95" />
        <path d="M-446.02,327.40L-443.83,342.43" />
        <path d="M-528.57,85.24L-526.18,116.56" />
        <path d="M-380.85,-349.29L-381.05,-335.79L-379.59,-322.87" />
        <path d="M-333.18,356.73L-331.91,369.64" />
        <path d="M-247.24,-5.38L-242.93,30.10" />
        <path d="M-121.13,235.19L-119.95,260.47" />
        <path d="M-48.55,-109.71L-47.68,-72.58" />
        <path d="M87.18,175.34L88.57,204.20" />
        <path d="M198.17,-194.91L197.05,-176.45L197.05,-153.00" />
        <path d="M294.97,124.97L298.43,165.48" />
        <path d="M417.11,-320.69L417.84,-285.07" />
        <path d="M414.32,359.64L414.73,377.12" />
        <path d="M457.56,44.67L457.35,80.15" />
        <path d="M510.33,-234.03L509.87,-196.57" />
        <path d="M12.79,127.62L14.12,157.80" />
        <path d="M-236.57,-224.91L-233.33,-190.34" />
        <path d="M150.57,253.26L149.98,288.34" />
        <path d="M334.56,-66.89L330.18,-24.32" />
        <path d="M380.57,290.66L382.97,321.90" />
        <path d="M506.75,-200.54L506.75,-167.64" />
        <path d="M485.27,368.38L485.01,369.37L484.01,369.51" />
        <path d="M60.66,243.40L63.26,275.50" />
        <path d="M-245.00,339.06L-248.70,364.87" />
        <path d="M-56.10,124.83L-61.41,158.13" />
        <path d="M97.01,-194.85L95.41,-164.33L95.94,-144.01" />
        <path d="M110.05,-130.10L113.57,-100.65L116.55,-52.38" />
        <path d="M323.82,337.33L322.63,355.93" />
        <path d="M347.62,290.66L347.03,296.43" />
        <path d="M124.38,310.59L126.50,336.08" />
        <path d="M-42.10,336.00L-40.59,364.01" />
        <path d="M150.71,-9.95L148.71,29.04" />
      </g>
      <g id="f13" style="--index:13; opacity:0;" class="frame">
        <path d="M-422.48,-85.75L-421.76,-55.43" />
        <path d="M-273.76,185.28L-271.25,224.26" />
        <path d="M-157.73,-185.05L-160.45,-148.84" />
        <path d="M-28.85,197.79L-27.52,226.45" />
        <path d="M54.37,-140.83L54.64,-99.52" />
        <path d="M208.38,-103.22L209.05,-62.38" />
        <path d="M373.21,186.13L375.08,221.36" />
        <path d="M455.17,-326.84L461.80,-296.73" />
        <path d="M489.64,384.73L490.03,390.89L489.44,391.74" />
        <path d="M536.71,88.95L537.58,125.96" />
        <path d="M-507.02,-311.68L-508.68,-308.85L-509.94,-303.48L-511.07,-288.19" />
        <path d="M-443.83,342.43L-441.71,359.30" />
        <path d="M-526.18,116.56L-522.93,147.14" />
        <path d="M-379.59,-322.87L-376.81,-299.71" />
        <path d="M-242.93,30.10L-237.64,67.37" />
        <path d="M-152.10,-367.89" />
        <path d="M-119.95,260.47L-118.62,284.83" />
        <path d="M-47.68,-72.58L-47.41,-35.03" />
        <path d="M88.57,204.20L89.57,229.82" />
        <path d="M197.05,-153.00L197.44,-113.55" />
        <path d="M298.43,165.48L300.74,205.13" />
        <path d="M417.84,-285.07L417.77,-249.33" />
        <path d="M414.73,377.12L414.73,380.43" />
        <path d="M457.35,80.15L457.03,115.44" />
        <path d="M509.87,-196.57L509.60,-160.09" />
        <path d="M14.12,157.80L15.19,188.59" />
        <path d="M-233.33,-190.34L-229.34,-159.56" />
        <path d="M149.98,288.34L149.71,317.74" />
        <path d="M330.18,-24.32L326.14,16.86" />
        <path d="M382.97,321.90L384.95,347.99" />
        <path d="M506.75,-167.64L506.36,-137.19" />
        <path d="M63.26,275.50L66.57,302.57" />
        <path d="M-248.70,364.87L-251.96,377.12" />
        <path d="M-61.41,158.13L-64.19,190.63" />
        <path d="M95.94,-144.01L99.58,-111.63L100.91,-88.20" />
        <path d="M116.55,-52.38L121.27,-8.30L123.26,22.03" />
        <path d="M322.63,355.93L321.90,361.10" />
        <path d="M126.50,336.08L127.11,361.89" />
        <path d="M-40.59,364.01L-40.66,372.41L-42.30,381.75" />
        <path d="M148.71,29.04L148.05,46.84L145.40,73.39" />
      </g>
      <g id="f14" style="--index:14; opacity:0;" class="frame">
        <path d="M-421.76,-55.43L-421.03,-26.30" />
        <path d="M-271.25,224.26L-268.79,263.91" />
        <path d="M-160.45,-148.84L-161.91,-111.70" />
        <path d="M-27.52,226.45L-26.72,257.83" />
        <path d="M54.64,-99.52L59.20,-63.11" />
        <path d="M209.05,-62.38L211.23,-21.86" />
        <path d="M375.08,221.36L377.27,253.86" />
        <path d="M461.80,-296.73L466.43,-259.46" />
        <path d="M537.58,125.96L538.58,160.91" />
        <path d="M-511.07,-288.19L-511.07,-284.74L-506.09,-264.75L-504.37,-252.64" />
        <path d="M-441.71,359.30L-440.59,373.67" />
        <path d="M-522.93,147.14L-521.48,177.79" />
        <path d="M-376.81,-299.71L-376.08,-279.12L-374.87,-271.57" />
        <path d="M-237.64,67.37L-232.60,103.91" />
        <path d="M-152.10,-367.89L-153.76,-364.59L-154.56,-350.55" />
        <path d="M-118.62,284.83L-118.76,315.16" />
        <path d="M-47.41,-35.03L-46.15,4.42" />
        <path d="M89.57,229.82L90.24,257.29" />
        <path d="M197.44,-113.55L197.12,-73.96" />
        <path d="M300.74,205.13L301.88,242.40" />
        <path d="M417.77,-249.33L416.65,-214.45" />
        <path d="M457.03,115.44L457.56,150.32" />
        <path d="M509.60,-160.09L509.53,-122.36" />
        <path d="M15.19,188.59L17.70,216.65" />
        <path d="M-229.34,-159.56L-226.83,-128.11" />
        <path d="M149.71,317.74L150.12,344.95" />
        <path d="M326.14,16.86L324.61,36.85L324.48,54.99" />
        <path d="M384.95,347.99L388.40,364.20" />
        <path d="M506.36,-137.19L506.75,-109.25" />
        <path d="M66.57,302.57L69.69,326.28" />
        <path d="M-64.19,190.63L-67.36,224.46" />
        <path d="M100.91,-88.20L100.38,-28.15" />
        <path d="M123.26,22.03L125.17,54.72L128.62,81.54" />
        <path d="M127.11,361.89L127.11,375.14L126.11,381.22" />
        <path d="M-81.75,-372.86L-82.68,-368.23L-82.16,-359.94" />
        <path d="M145.40,73.39L142.34,97.29L138.31,119.14" />
      </g>
      <g id="f15" style="--index:15; opacity:0;" class="frame">
        <path d="M-421.03,-26.30L-421.82,3.63" />
        <path d="M-268.79,263.91L-267.01,299.14" />
        <path d="M-161.91,-111.70L-162.64,-75.35" />
        <path d="M-26.72,257.83L-24.99,289.73" />
        <path d="M59.20,-63.11L65.50,-28.56" />
        <path d="M211.23,-21.86L214.88,17.19" />
        <path d="M377.27,253.86L379.45,284.83" />
        <path d="M466.43,-259.46L470.74,-218.15" />
        <path d="M538.58,160.91L539.04,194.21" />
        <path d="M-504.37,-252.64L-503.30,-233.11L-500.59,-213.78" />
        <path d="M-521.48,177.79L-520.08,208.71" />
        <path d="M-374.87,-271.57L-373.09,-257.41L-372.63,-241.06" />
        <path d="M-232.60,103.91L-229.68,143.04" />
        <path d="M-154.56,-350.55L-153.63,-319.96" />
        <path d="M-118.76,315.16L-118.81,342.23" />
        <path d="M-46.15,4.42L-46.22,45.19" />
        <path d="M90.24,257.29L91.49,285.56" />
        <path d="M197.12,-73.96L196.78,-29.14" />
        <path d="M301.88,242.40L303.13,276.96" />
        <path d="M416.65,-214.45L415.58,-181.47" />
        <path d="M457.56,150.32L457.76,186.46" />
        <path d="M509.53,-122.36L509.28,-82.97" />
        <path d="M17.70,216.65L20.16,238.50" />
        <path d="M-226.83,-128.11L-226.62,-109.65L-227.62,-96.60" />
        <path d="M150.12,344.95L151.03,367.32" />
        <path d="M324.48,54.99L323.88,91.54" />
        <path d="M388.40,364.20" />
        <path d="M506.75,-109.25L506.95,-81.12" />
        <path d="M69.69,326.28L71.27,345.47" />
        <path d="M-67.36,224.46L-69.03,260.47" />
        <path d="M100.38,-28.15L100.45,18.12L99.65,36.65" />
        <path d="M128.62,81.54L129.69,99.81L129.89,137.21" />
        <path d="M-279.07,-142.75L-279.07,-138.51" />
        <path d="M-82.16,-359.94L-76.32,-340.36L-74.07,-324.60" />
        <path d="M138.31,119.14L134.13,155.35" />
      </g>
      <g id="f16" style="--index:16; opacity:0;" class="frame">
        <path d="M-421.82,3.63L-423.88,34.21" />
        <path d="M-267.01,299.14L-266.35,326.08" />
        <path d="M-162.64,-75.35L-161.31,-38.55" />
        <path d="M-24.99,289.73L-23.08,320.25" />
        <path d="M65.50,-28.56L68.02,-15.31L73.20,4.09" />
        <path d="M214.88,17.19L220.19,56.97" />
        <path d="M379.45,284.83L382.10,314.10" />
        <path d="M470.74,-218.15L474.07,-174.65" />
        <path d="M539.04,194.21L538.31,227.25" />
        <path d="M-500.59,-213.78L-498.60,-195.45L-498.14,-177.37" />
        <path d="M-520.08,208.71L-518.83,238.89" />
        <path d="M-372.63,-241.06L-370.97,-208.29" />
        <path d="M-229.68,143.04L-226.10,181.29" />
        <path d="M-153.63,-319.96L-151.83,-289.64" />
        <path d="M-118.81,342.23L-118.69,360.70L-117.96,366.52" />
        <path d="M-46.22,45.19L-45.95,87.90" />
        <path d="M70.35,-343.00L68.82,-332.34" />
        <path d="M91.49,285.56L91.76,309.60" />
        <path d="M196.78,-29.14L197.85,10.31" />
        <path d="M303.13,276.96L304.52,307.74" />
        <path d="M415.58,-181.47L415.26,-146.32" />
        <path d="M457.76,186.46L457.95,224.85" />
        <path d="M509.28,-82.97L508.87,-43.65" />
        <path d="M20.16,238.50L22.47,261.07" />
        <path d="M-227.62,-96.60L-230.20,-64.16" />
        <path d="M151.03,367.32L150.64,367.78" />
        <path d="M323.88,91.54L324.89,126.62" />
        <path d="M506.95,-81.12L506.95,-52.58" />
        <path d="M71.27,345.47L73.52,361.49" />
        <path d="M-264.89,-238.01L-267.33,-235.56L-269.45,-230.00L-270.98,-221.13L-271.11,-212.85" />
        <path d="M-69.03,260.47L-71.42,294.11" />
        <path d="M99.65,36.65L98.92,58.83L99.13,100.34" />
        <path d="M129.89,137.21L132.20,181.10" />
        <path d="M-279.07,-138.51L-276.29,-87.34" />
        <path d="M-74.07,-324.60L-70.08,-289.04" />
        <path d="M134.13,155.35L131.54,199.30" />
      </g>
      <g id="f17" style="--index:17; opacity:0;" class="frame">
        <path d="M-423.88,34.21L-425.01,63.59" />
        <path d="M-266.35,326.08L-265.21,346.94" />
        <path d="M-161.31,-38.55L-158.94,-3.46" />
        <path d="M-23.08,320.25L-23.08,335.67L-21.82,346.67" />
        <path d="M73.20,4.09L80.75,38.90" />
        <path d="M220.19,56.97L224.50,95.51" />
        <path d="M333.76,-382.72L333.10,-379.93L334.17,-372.86" />
        <path d="M382.10,314.10L384.56,339.85" />
        <path d="M474.07,-174.65L478.45,-130.17" />
        <path d="M538.31,227.25L537.99,257.76" />
        <path d="M-498.14,-177.37L-496.48,-139.83" />
        <path d="M-518.83,238.89L-518.17,268.75" />
        <path d="M-370.97,-208.29L-370.38,-172.07" />
        <path d="M-226.10,181.29L-222.25,215.53" />
        <path d="M-151.83,-289.64L-150.64,-259.99" />
        <path d="M-117.96,366.52L-116.30,377.12" />
        <path d="M-45.95,87.90L-43.10,125.43" />
        <path d="M68.82,-332.34L69.14,-299.84" />
        <path d="M91.76,309.60L91.76,332.57" />
        <path d="M197.85,10.31L200.17,53.73" />
        <path d="M292.53,-361.01" />
        <path d="M304.52,307.74L306.39,332.76" />
        <path d="M415.26,-146.32L414.00,-109.44" />
        <path d="M457.95,224.85L457.95,260.35" />
        <path d="M508.87,-43.65L508.87,-3.07" />
        <path d="M22.47,261.07L24.54,285.70" />
        <path d="M-230.20,-64.16L-231.93,-32.86" />
        <path d="M324.89,126.62L327.26,156.15" />
        <path d="M400.21,-239.26L401.07,-236.22" />
        <path d="M506.95,-52.58L505.95,-17.77" />
        <path d="M73.52,361.49L75.18,374.60" />
        <path d="M-271.11,-212.85L-268.79,-190.34L-268.06,-169.36" />
        <path d="M-71.42,294.11L-72.40,324.63" />
        <path d="M99.13,100.34L100.11,126.62L102.89,156.21" />
        <path d="M132.20,181.10L133.61,226.25" />
        <path d="M-276.29,-87.34L-276.22,-32.72" />
        <path d="M-70.08,-289.04L-67.91,-254.68" />
        <path d="M131.54,199.30L129.62,228.43L129.41,244.99" />
      </g>
      <g id="f18" style="--index:18; opacity:0;" class="frame">
        <path d="M-425.01,63.59L-425.20,90.55" />
        <path d="M-265.21,346.94L-263.95,363.87" />
        <path d="M-158.94,-3.46L-154.82,31.95" />
        <path d="M-21.82,346.67L-20.16,366.99" />
        <path d="M80.75,38.90L88.71,74.65" />
        <path d="M224.50,95.51L228.02,133.24" />
        <path d="M334.17,-372.86L335.69,-357.56L336.42,-333.80" />
        <path d="M384.56,339.85L386.80,359.24" />
        <path d="M478.45,-130.17L480.70,-80.25" />
        <path d="M537.99,257.76L538.51,282.66" />
        <path d="M-496.48,-139.83L-495.41,-104.68" />
        <path d="M-518.17,268.75L-517.03,295.89" />
        <path d="M-370.38,-172.07L-369.90,-131.96" />
        <path d="M-222.25,215.53L-220.53,247.83" />
        <path d="M-150.64,-259.99L-149.05,-228.47" />
        <path d="M-116.30,377.12" />
        <path d="M-43.10,125.43L-40.11,159.52" />
        <path d="M69.14,-299.84L70.28,-270.44" />
        <path d="M91.76,332.57L91.10,353.29" />
        <path d="M200.17,53.73L202.89,94.97" />
        <path d="M292.53,-361.01L291.27,-352.66L291.14,-335.79" />
        <path d="M306.39,332.76L307.90,350.31" />
        <path d="M414.00,-109.44L413.07,-71.32" />
        <path d="M457.95,260.35L457.56,289.40" />
        <path d="M508.87,-3.07L508.14,38.64" />
        <path d="M-1.39,-328.10L-1.73,-325.45" />
        <path d="M24.54,285.70L27.39,313.76" />
        <path d="M-231.93,-32.86L-233.26,-4.45" />
        <path d="M165.69,-265.41" />
        <path d="M327.26,156.15L329.65,187.26" />
        <path d="M401.07,-236.22L404.58,-220.80L404.97,-206.16" />
        <path d="M505.95,-17.77L505.15,20.63" />
        <path d="M75.18,374.60L76.78,383.61" />
        <path d="M-268.06,-169.36L-265.55,-143.47L-261.70,-124.41" />
        <path d="M-72.40,324.63L-72.20,356.20" />
        <path d="M102.89,156.21L109.26,203.95" />
        <path d="M133.61,226.25L133.79,265.04" />
        <path d="M-276.22,-32.72L-275.63,-13.39L-273.10,13.82" />
        <path d="M352.59,-158.83L349.74,-144.07" />
        <path d="M-67.91,-254.68L-65.77,-217.16" />
        <path d="M129.41,244.99L130.75,266.24L133.61,288.01" />
      </g>
      <g id="f19" style="--index:19; opacity:0;" class="frame">
        <path d="M-425.20,90.55L-424.88,117.94" />
        <path d="M-263.95,363.87L-263.75,371.17L-264.29,371.69" />
        <path d="M-154.82,31.95L-149.59,66.51" />
        <path d="M-53.04,-352.80L-53.25,-347.97" />
        <path d="M-20.16,366.99L-19.50,373.41" />
        <path d="M88.71,74.65L97.60,108.48" />
        <path d="M228.02,133.24L231.39,164.88" />
        <path d="M336.42,-333.80L339.87,-297.52" />
        <path d="M386.80,359.24L386.80,363.81" />
        <path d="M480.70,-80.25L482.21,-33.32" />
        <path d="M538.51,282.66L538.65,305.16" />
        <path d="M-495.41,-104.68L-492.56,-68.94" />
        <path d="M-517.03,295.89L-515.11,319.98" />
        <path d="M-369.90,-131.96L-367.19,-89.92" />
        <path d="M-220.53,247.83L-218.28,278.09" />
        <path d="M-149.05,-228.47L-148.79,-197.56" />
        <path d="M-40.11,159.52L-37.99,194.27" />
        <path d="M70.28,-270.44L70.35,-237.15" />
        <path d="M91.10,353.29L90.57,358.31" />
        <path d="M202.89,94.97L204.28,133.97" />
        <path d="M291.14,-335.79L290.68,-304.40" />
        <path d="M307.90,350.31L307.97,354.01" />
        <path d="M413.07,-71.32L410.74,-28.23" />
        <path d="M457.56,289.40L457.56,314.83" />
        <path d="M508.14,38.64L507.95,78.95" />
        <path d="M-1.73,-325.45L-1.87,-316.91L-0.59,-300.97" />
        <path d="M27.39,313.76L30.10,334.22" />
        <path d="M-233.26,-4.45L-233.58,23.28" />
        <path d="M165.69,-265.41L163.64,-248.67L159.72,-231.71" />
        <path d="M329.65,187.26L331.71,217.04" />
        <path d="M404.97,-206.16L402.33,-165.51" />
        <path d="M505.15,20.63L504.49,60.49" />
        <path d="M76.78,383.61L77.17,389.90" />
        <path d="M-261.70,-124.41L-256.86,-101.17L-255.40,-78.93" />
        <path d="M-72.20,356.20L-71.35,383.08" />
        <path d="M109.26,203.95L111.85,229.56L114.91,245.38" />
        <path d="M133.79,265.04L135.46,298.21" />
        <path d="M-273.10,13.82L-270.79,52.28" />
        <path d="M349.74,-144.07L337.48,-105.21L332.25,-82.04" />
        <path d="M348.95,-134.93" />
        <path d="M-65.77,-217.16L-65.58,-196.90L-67.70,-175.31" />
        <path d="M133.61,288.01L138.17,322.64" />
      </g>
    </g>
  </g>
</svg>