<svg width="44" height="44" viewBox="0 0 44 44" fill="none" xmlns="http://www.w3.org/2000/svg">
<g clip-path="url(#clip0_1726_9499)">
<path d="M22.5811 3.0093C22.3398 2.82102 22.0425 2.71875 21.7365 2.71875C21.4304 2.71875 21.1331 2.82102 20.8918 3.0093L1.3584 18.2417L3.04767 20.3782L5.43648 18.5156V35.3433C5.43795 36.0639 5.72486 36.7545 6.2344 37.2641C6.74394 37.7736 7.4346 38.0605 8.15519 38.062H35.3424C36.063 38.0607 36.7538 37.7738 37.2633 37.2642C37.7729 36.7547 38.0598 36.0639 38.0611 35.3433V18.528L40.4499 20.3903L42.1392 18.2537L22.5811 3.0093ZM24.4675 35.3433H19.0301V24.4684H24.4675V35.3433ZM27.1862 35.3433V24.4684C27.1854 23.7476 26.8987 23.0566 26.389 22.5469C25.8793 22.0372 25.1883 21.7505 24.4675 21.7497H19.0301C18.3092 21.7504 17.6181 22.0371 17.1084 22.5468C16.5987 23.0565 16.3121 23.7476 16.3113 24.4684V35.3433H8.15519V16.3959L21.7488 5.80646L35.3424 16.4101V35.3433H27.1862Z" fill="white"/>
</g>
<defs>
<clipPath id="clip0_1726_9499">
<rect width="43.4995" height="43.4995" fill="white"/>
</clipPath>
</defs>
</svg>
