<svg width="75" height="75" viewBox="0 0 75 75" fill="none" xmlns="http://www.w3.org/2000/svg">
<path d="M38.9351 5.18846C38.5191 4.86382 38.0065 4.6875 37.4788 4.6875C36.9511 4.6875 36.4385 4.86382 36.0225 5.18846L2.34375 31.4516L5.25633 35.1353L9.375 31.9239V60.9374C9.37754 62.1798 9.87221 63.3706 10.7507 64.2491C11.6293 65.1277 12.8201 65.6223 14.0625 65.6249H60.9375C62.18 65.6226 63.371 65.128 64.2495 64.2494C65.1281 63.3708 65.6227 62.1799 65.625 60.9374V31.9452L69.7437 35.1561L72.6562 31.4722L38.9351 5.18846ZM42.1875 60.9374H32.8125V42.1874H42.1875V60.9374ZM46.875 60.9374V42.1874C46.8736 40.9446 46.3793 39.7531 45.5005 38.8744C44.6217 37.9956 43.4303 37.5013 42.1875 37.4999H32.8125C31.5697 37.5011 30.3781 37.9954 29.4993 38.8742C28.6205 39.753 28.1262 40.9445 28.125 42.1874V60.9374H14.0625V28.269L37.5 10.0112L60.9375 28.2936V60.9374H46.875Z" fill="#022D40"/>
</svg>
