<?xml version="1.0" encoding="UTF-8"?>
<svg width="224px" height="299px" viewBox="0 0 224 299" version="1.1" xmlns="http://www.w3.org/2000/svg" xmlns:xlink="http://www.w3.org/1999/xlink">
    <!-- Generator: Sketch 54.1 (76490) - https://sketchapp.com -->
    <title>Group 5</title>
    <desc>Created with Sketch.</desc>
    <defs>
        <rect id="path-1" x="0" y="0" width="224" height="299"></rect>
    </defs>
    <g id="Page-2" stroke="none" stroke-width="1" fill="none" fill-rule="evenodd">
        <g id="Artboard" transform="translate(-54.000000, -302.000000)">
            <g id="Group-5" transform="translate(54.000000, 302.000000)">
                <g id="Blaze-model-2">
                    <mask id="mask-2" fill="white">
                        <use xlink:href="#path-1"></use>
                    </mask>
                    <use id="Mask" fill="#000000" xlink:href="#path-1"></use>
                </g>
                <path d="M68,165.999894 L68,163.771002 L85.3026701,163.771002 L85.3026701,165.999894 L68,165.999894 Z M68,161.32012 L68,159.091228 L85.3026701,159.091228 L85.3026701,161.32012 L68,161.32012 Z M72.9432394,156.640345 L72.9432394,154.411453 L80.3588978,154.411453 L80.3588978,156.640345 L72.9432394,156.640345 Z M72.9432394,151.96057 L72.9432394,149.731678 L80.3588978,149.731678 L80.3588978,151.96057 L72.9432394,151.96057 Z M72.9432394,147.280267 L72.9432394,145.051904 L80.3588978,145.051904 L80.3588978,147.280267 L72.9432394,147.280267 Z M72.9432394,142.601021 L72.9432394,140.372129 L80.3588978,140.372129 L80.3588978,142.601021 L72.9432394,142.601021 Z M68,137.920718 L68,135.691826 L85.3026701,135.691826 L85.3026701,137.920718 L68,137.920718 Z M68,133.240943 L68,131.012579 L85.3026701,131.012579 L85.3026701,133.240943 L68,133.240943 Z M87.7748228,159.091598 L115.084954,159.091598 C114.869637,159.880722 114.551991,160.62809 114.148537,161.319961 L87.7748228,161.319961 L87.7748228,159.091598 Z M92.7183286,156.640345 L92.7183286,154.411453 L100.133987,154.411453 L100.133987,156.640345 L92.7183286,156.640345 Z M112.252678,149.73152 C112.965784,150.376878 113.579225,151.127418 114.065821,151.960412 L92.7184885,151.960412 L92.7184885,149.73152 L112.252678,149.73152 Z M92.7182753,145.052009 L114.147151,145.052009 C113.660022,145.885003 113.046581,146.635014 112.334008,147.280373 L92.7182753,147.280373 L92.7182753,145.052009 Z M115.085061,137.920718 L87.7749294,137.920718 L87.7749294,135.691826 L114.148644,135.691826 C114.552097,136.384225 114.869744,137.131594 115.085061,137.920718 Z M112.086127,133.240679 L87.7749827,133.240679 L87.7749827,131.012315 L105.97623,131.012315 C108.307414,131.012315 110.439269,131.85218 112.086127,133.240679 Z M92.7183286,142.600492 L92.7183286,140.3716 L100.133987,140.3716 L100.133987,142.600492 L92.7183286,142.600492 Z M107.099984,142.600757 L107.099984,140.371865 L115.414219,140.371865 C115.414219,141.140375 115.315621,141.88563 115.13921,142.600757 L107.099984,142.600757 Z M107.099984,154.411559 L115.13921,154.411559 C115.315621,155.126686 115.414219,155.871412 115.414219,156.640451 L107.099984,156.640451 L107.099984,154.411559 Z M131.368544,131 L132.148271,133.228892 L117.436337,133.228892 L117.436337,131 L131.368544,131 Z M117.436657,165.999894 L117.436657,163.770474 L129.799819,163.770474 L129.799819,165.999894 L117.436657,165.999894 Z M117.436657,161.318534 L117.436657,159.089113 L129.799819,159.089113 L129.799819,161.318534 L117.436657,161.318534 Z M122.382028,156.636645 L122.382028,154.407753 L129.799819,154.407753 L129.799819,156.636645 L122.382028,156.636645 Z M122.382028,151.955813 L122.382028,149.726393 L129.799819,149.726393 L129.799819,151.955813 L122.382028,151.955813 Z M144.636465,165.999894 L144.636465,163.770474 L156.999627,163.770474 L156.999627,165.999894 L144.636465,165.999894 Z M144.636465,161.318534 L144.636465,159.089113 L156.999627,159.089113 L156.999627,161.318534 L144.636465,161.318534 Z M144.636465,156.636645 L144.636465,154.407753 L152.054256,154.407753 L152.054256,156.636645 L144.636465,156.636645 Z M144.636465,151.955813 L144.636465,149.726393 L152.054256,149.726393 L152.054256,151.955813 L144.636465,151.955813 Z M144.636465,147.274083 L144.636465,145.150901 L143.88019,147.274083 L137.369504,147.274083 L138.149763,145.044662 L144.636465,145.044662 L152.054256,145.044662 L152.054256,147.274083 L144.636465,147.274083 Z M136.286521,145.044768 L137.06678,147.274189 L130.555561,147.274189 L129.799819,145.151007 L129.799819,147.274189 L122.382028,147.274189 L122.382028,145.044768 L129.799819,145.044768 L136.286521,145.044768 Z M152.054202,140.363196 L152.054202,142.592617 L139.007781,142.592617 L139.786974,140.363196 L152.054202,140.363196 Z M143.062517,131.000529 L156.99952,131.000529 L156.99952,133.229949 L142.282791,133.229949 L143.062517,131.000529 Z M137.213452,165.999894 L136.428396,163.770474 L138.007568,163.770474 L137.213452,165.999894 Z M135.555775,161.318323 L134.762192,159.088902 L139.674519,159.088902 L138.880403,161.318323 L135.555775,161.318323 Z M133.889197,156.636751 L133.095614,154.407859 L141.340564,154.407859 L140.546981,156.636751 L133.889197,156.636751 Z M132.222672,151.955655 L131.429089,149.726234 L143.007195,149.726234 L142.213612,151.955655 L132.222672,151.955655 Z M122.382082,142.592511 L122.382082,140.363091 L134.648777,140.363091 L135.428503,142.592511 L122.382082,142.592511 Z M140.64494,137.910887 L141.425199,135.681466 L157,135.681466 L157,137.910887 L140.64494,137.910887 Z M133.011192,135.681625 L133.790918,137.911045 L117.436391,137.911045 L117.436391,135.681625 L133.011192,135.681625 Z M87.7748228,163.771108 L112.085967,163.771108 C110.439109,165.160135 108.307254,166 105.97607,166 L87.7748228,166 L87.7748228,163.771108 Z" id="logo-color" fill="#FFFFFF"></path>
            </g>
        </g>
    </g>
</svg>