<svg width="417" height="783" viewBox="0 0 417 783" fill="none" xmlns="http://www.w3.org/2000/svg">
<path fill-rule="evenodd" clip-rule="evenodd" d="M417 0H0V783H417V0ZM42 87.2471C42 67.5588 42 57.7146 45.832 50.1946C49.2021 43.5798 54.5801 38.2019 61.1943 34.8315C68.7148 31 78.5586 31 98.2471 31H115.525C116.079 31 116.454 31 116.742 31.0337C116.899 31.0522 117.031 31.0808 117.152 31.1248C117.727 31.3337 118.179 31.7861 118.388 32.3606C118.513 32.7034 118.513 33.1311 118.513 33.9871C118.513 40.8333 118.513 44.2566 119.51 46.9976C121.183 51.5928 124.803 55.2126 129.397 56.885C132.139 57.8828 135.562 57.8828 142.408 57.8828H275.042C281.888 57.8828 285.312 57.8828 288.053 56.885C292.647 55.2126 296.268 51.5928 297.939 46.9976C298.938 44.2566 298.938 40.8333 298.938 33.9871C298.938 33.1311 298.938 32.7034 299.062 32.3606C299.197 31.991 299.433 31.6716 299.735 31.4355C299.903 31.3047 300.093 31.1992 300.298 31.1248C300.492 31.0542 300.713 31.0234 301.023 31.0103C301.262 31 301.553 31 301.925 31H319.203C338.892 31 348.735 31 356.255 34.8315C362.87 38.2019 368.248 43.5798 371.618 50.1946C375.45 57.7146 375.45 67.5588 375.45 87.2471V695.935C375.45 715.624 375.45 725.468 371.618 732.988C368.248 739.603 362.87 744.98 356.255 748.351C348.735 752.182 338.892 752.182 319.203 752.182H98.2471C78.5586 752.182 68.7148 752.182 61.1943 748.351C54.5801 744.98 49.2021 739.603 45.832 732.988C42 725.468 42 715.624 42 695.935V87.2471Z" fill="#F1F1F1"/>
<path fill-rule="evenodd" clip-rule="evenodd" d="M29.445 42.3565C23.5849 53.8576 23.5849 68.9134 23.5849 99.0249V132.939H22.034C21.4629 132.939 21 133.402 21 133.973V161.889C21 162.46 21.4629 162.923 22.034 162.923H23.5849V187.221H22.034C21.4629 187.221 21 187.684 21 188.255V244.089C21 244.66 21.4629 245.123 22.034 245.123H23.5849V258.047H22.034C21.4629 258.047 21 258.51 21 259.081V314.914C21 315.485 21.4629 315.948 22.034 315.948H23.5849V685.38C23.5849 715.491 23.5849 730.547 29.445 742.048C34.5997 752.165 42.8248 760.39 52.9414 765.545C64.4425 771.405 79.4983 771.405 109.61 771.405H307.198C337.31 771.405 352.366 771.405 363.867 765.545C373.983 760.39 382.208 752.165 387.363 742.048C393.223 730.547 393.223 715.491 393.223 685.38V297.854H394.774C395.345 297.854 395.808 297.391 395.808 296.82V208.934C395.808 208.363 395.345 207.9 394.774 207.9H393.223V99.0249C393.223 68.9134 393.223 53.8576 387.363 42.3565C382.208 32.2399 373.983 24.0148 363.867 18.8601C352.366 13 337.31 13 307.198 13H109.61C79.4983 13 64.4425 13 52.9414 18.8601C42.8248 24.0148 34.5997 32.2399 29.445 42.3565ZM42 87.2471C42 67.5587 42 57.7146 45.8316 50.1946C49.202 43.5799 54.5799 38.202 61.1946 34.8316C68.7146 31 78.5587 31 98.2471 31H115.526C116.381 31 116.809 31 117.152 31.1247C117.726 31.3338 118.179 31.7862 118.388 32.3606C118.513 32.7033 118.513 33.1311 118.513 33.9868V33.987C118.513 40.8334 118.513 44.2566 119.51 46.9977C121.183 51.5928 124.803 55.2126 129.398 56.8851C132.139 57.8828 135.562 57.8828 142.408 57.8828H275.042C281.888 57.8828 285.311 57.8828 288.052 56.8851C292.647 55.2126 296.267 51.5928 297.94 46.9977C298.937 44.2566 298.937 40.8334 298.937 33.987C298.937 33.1312 298.937 32.7033 299.062 32.3606C299.271 31.7862 299.724 31.3338 300.298 31.1247C300.641 31 301.069 31 301.924 31H319.203C338.891 31 348.735 31 356.255 34.8316C362.87 38.202 368.248 43.5799 371.618 50.1946C375.45 57.7146 375.45 67.5587 375.45 87.2471V695.935C375.45 715.624 375.45 725.468 371.618 732.988C368.248 739.603 362.87 744.98 356.255 748.351C348.735 752.182 338.891 752.182 319.203 752.182H98.2471C78.5587 752.182 68.7146 752.182 61.1946 748.351C54.5799 744.98 49.202 739.603 45.8316 732.988C42 725.468 42 715.624 42 695.935V87.2471Z" fill="#353432"/>
<mask id="path-3-inside-1_1753_12583" fill="white">
<path fill-rule="evenodd" clip-rule="evenodd" d="M33.1864 44.5163C27.7207 55.2433 27.7207 69.2857 27.7207 97.3705V687.034C27.7207 715.119 27.7207 729.161 33.1864 739.888C37.9941 749.324 45.6656 756.995 55.1013 761.803C65.8283 767.269 79.8707 767.269 107.955 767.269H308.853C336.937 767.269 350.98 767.269 361.707 761.803C371.143 756.995 378.814 749.324 383.622 739.888C389.087 729.161 389.087 715.119 389.087 687.034V97.3705C389.087 69.2857 389.087 55.2433 383.622 44.5163C378.814 35.0806 371.143 27.4091 361.707 22.6014C350.98 17.1357 336.937 17.1357 308.853 17.1357H107.955C79.8707 17.1357 65.8283 17.1357 55.1013 22.6014C45.6656 27.4091 37.9941 35.0806 33.1864 44.5163ZM41.6797 87.8582C41.6797 68.1699 41.6797 58.3257 45.5113 50.8058C48.8817 44.1911 54.2596 38.8131 60.8743 35.4427C68.3943 31.6111 78.2384 31.6111 97.9268 31.6111H115.205C116.061 31.6111 116.489 31.6111 116.832 31.7359C117.406 31.9449 117.858 32.3974 118.068 32.9718C118.192 33.3144 118.192 33.7423 118.192 34.598V34.5981C118.192 41.4445 118.192 44.8677 119.19 47.6088C120.862 52.204 124.482 55.8237 129.077 57.4963C131.818 58.4939 135.242 58.4939 142.088 58.4939H274.721C281.568 58.4939 284.991 58.4939 287.732 57.4963C292.327 55.8237 295.947 52.204 297.619 47.6088C298.617 44.8677 298.617 41.4445 298.617 34.5981C298.617 33.7423 298.617 33.3144 298.742 32.9718C298.951 32.3974 299.403 31.9449 299.978 31.7359C300.32 31.6111 300.748 31.6111 301.604 31.6111H318.883C338.571 31.6111 348.415 31.6111 355.935 35.4427C362.55 38.8131 367.928 44.1911 371.298 50.8058C375.13 58.3257 375.13 68.1699 375.13 87.8582V696.547C375.13 716.235 375.13 726.079 371.298 733.599C367.928 740.214 362.55 745.592 355.935 748.962C348.415 752.794 338.571 752.794 318.883 752.794H97.9267C78.2384 752.794 68.3943 752.794 60.8743 748.962C54.2596 745.592 48.8817 740.214 45.5113 733.599C41.6797 726.079 41.6797 716.235 41.6797 696.547V87.8582Z"/>
</mask>
<path fill-rule="evenodd" clip-rule="evenodd" d="M33.1864 44.5163C27.7207 55.2433 27.7207 69.2857 27.7207 97.3705V687.034C27.7207 715.119 27.7207 729.161 33.1864 739.888C37.9941 749.324 45.6656 756.995 55.1013 761.803C65.8283 767.269 79.8707 767.269 107.955 767.269H308.853C336.937 767.269 350.98 767.269 361.707 761.803C371.143 756.995 378.814 749.324 383.622 739.888C389.087 729.161 389.087 715.119 389.087 687.034V97.3705C389.087 69.2857 389.087 55.2433 383.622 44.5163C378.814 35.0806 371.143 27.4091 361.707 22.6014C350.98 17.1357 336.937 17.1357 308.853 17.1357H107.955C79.8707 17.1357 65.8283 17.1357 55.1013 22.6014C45.6656 27.4091 37.9941 35.0806 33.1864 44.5163ZM41.6797 87.8582C41.6797 68.1699 41.6797 58.3257 45.5113 50.8058C48.8817 44.1911 54.2596 38.8131 60.8743 35.4427C68.3943 31.6111 78.2384 31.6111 97.9268 31.6111H115.205C116.061 31.6111 116.489 31.6111 116.832 31.7359C117.406 31.9449 117.858 32.3974 118.068 32.9718C118.192 33.3144 118.192 33.7423 118.192 34.598V34.5981C118.192 41.4445 118.192 44.8677 119.19 47.6088C120.862 52.204 124.482 55.8237 129.077 57.4963C131.818 58.4939 135.242 58.4939 142.088 58.4939H274.721C281.568 58.4939 284.991 58.4939 287.732 57.4963C292.327 55.8237 295.947 52.204 297.619 47.6088C298.617 44.8677 298.617 41.4445 298.617 34.5981C298.617 33.7423 298.617 33.3144 298.742 32.9718C298.951 32.3974 299.403 31.9449 299.978 31.7359C300.32 31.6111 300.748 31.6111 301.604 31.6111H318.883C338.571 31.6111 348.415 31.6111 355.935 35.4427C362.55 38.8131 367.928 44.1911 371.298 50.8058C375.13 58.3257 375.13 68.1699 375.13 87.8582V696.547C375.13 716.235 375.13 726.079 371.298 733.599C367.928 740.214 362.55 745.592 355.935 748.962C348.415 752.794 338.571 752.794 318.883 752.794H97.9267C78.2384 752.794 68.3943 752.794 60.8743 748.962C54.2596 745.592 48.8817 740.214 45.5113 733.599C41.6797 726.079 41.6797 716.235 41.6797 696.547V87.8582Z" fill="black"/>
<path d="M33.1864 44.5163L32.9561 44.399L32.9561 44.399L33.1864 44.5163ZM33.1864 739.888L33.4167 739.771L33.4167 739.771L33.1864 739.888ZM55.1013 761.803L54.9839 762.033L54.9839 762.033L55.1013 761.803ZM361.707 761.803L361.824 762.033L361.824 762.033L361.707 761.803ZM383.622 739.888L383.852 740.006L383.852 740.006L383.622 739.888ZM383.622 44.5163L383.852 44.399L383.852 44.399L383.622 44.5163ZM361.707 22.6014L361.824 22.3711L361.824 22.3711L361.707 22.6014ZM55.1013 22.6014L54.9839 22.3711L54.9839 22.3711L55.1013 22.6014ZM45.5113 50.8058L45.281 50.6884L45.281 50.6884L45.5113 50.8058ZM60.8743 35.4427L60.757 35.2124L60.757 35.2124L60.8743 35.4427ZM116.832 31.7359L116.743 31.9788L116.743 31.9788L116.832 31.7359ZM118.068 32.9718L118.31 32.8834L118.31 32.8834L118.068 32.9718ZM119.19 47.6088L118.947 47.6972L118.947 47.6972L119.19 47.6088ZM129.077 57.4963L129.166 57.2534L129.166 57.2534L129.077 57.4963ZM287.732 57.4963L287.82 57.7391L287.82 57.7391L287.732 57.4963ZM297.619 47.6088L297.862 47.6972L297.862 47.6972L297.619 47.6088ZM298.742 32.9718L298.499 32.8834L298.499 32.8834L298.742 32.9718ZM299.978 31.7359L299.889 31.493L299.889 31.493L299.978 31.7359ZM355.935 35.4427L355.818 35.6731L355.818 35.6731L355.935 35.4427ZM371.298 50.8058L371.528 50.6884L371.528 50.6884L371.298 50.8058ZM371.298 733.599L371.528 733.716L371.528 733.716L371.298 733.599ZM355.935 748.962L356.052 749.192L356.052 749.192L355.935 748.962ZM60.8743 748.962L60.757 749.192L60.757 749.192L60.8743 748.962ZM45.5113 733.599L45.7416 733.482L45.7416 733.482L45.5113 733.599ZM27.9792 97.3705C27.9792 83.3238 27.9794 72.8044 28.6615 64.4553C29.3434 56.1092 30.7055 49.9547 33.4167 44.6337L32.9561 44.399C30.2016 49.805 28.8308 56.0351 28.1463 64.4132C27.462 72.7882 27.4622 83.3323 27.4622 97.3705H27.9792ZM27.9792 687.034V97.3705H27.4622V687.034H27.9792ZM33.4167 739.771C30.7055 734.45 29.3434 728.295 28.6615 719.949C27.9794 711.6 27.9792 701.081 27.9792 687.034H27.4622C27.4622 701.072 27.462 711.616 28.1463 719.991C28.8308 728.369 30.2016 734.6 32.9561 740.006L33.4167 739.771ZM55.2186 761.573C45.8316 756.79 38.1996 749.158 33.4167 739.771L32.9561 740.006C37.7886 749.49 45.4996 757.201 54.9839 762.033L55.2186 761.573ZM107.955 767.01C93.9088 767.01 83.3894 767.01 75.0403 766.328C66.6942 765.646 60.5396 764.284 55.2186 761.573L54.9839 762.033C60.3899 764.788 66.6201 766.159 74.9982 766.843C83.3732 767.528 93.9173 767.527 107.955 767.527V767.01ZM308.853 767.01H107.955V767.527H308.853V767.01ZM361.589 761.573C356.268 764.284 350.114 765.646 341.768 766.328C333.419 767.01 322.899 767.01 308.853 767.01V767.527C322.891 767.527 333.435 767.528 341.81 766.843C350.188 766.159 356.418 764.788 361.824 762.033L361.589 761.573ZM383.391 739.771C378.608 749.158 370.977 756.79 361.589 761.573L361.824 762.033C371.309 757.201 379.019 749.49 383.852 740.006L383.391 739.771ZM388.829 687.034C388.829 701.081 388.829 711.6 388.147 719.949C387.465 728.295 386.103 734.45 383.391 739.771L383.852 740.006C386.607 734.6 387.977 728.369 388.662 719.991C389.346 711.616 389.346 701.072 389.346 687.034H388.829ZM388.829 97.3705V687.034H389.346V97.3705H388.829ZM383.391 44.6337C386.103 49.9547 387.465 56.1092 388.147 64.4553C388.829 72.8044 388.829 83.3238 388.829 97.3705H389.346C389.346 83.3324 389.346 72.7882 388.662 64.4132C387.977 56.0351 386.607 49.805 383.852 44.399L383.391 44.6337ZM361.589 22.8317C370.977 27.6147 378.608 35.2466 383.391 44.6337L383.852 44.399C379.019 34.9146 371.309 27.2036 361.824 22.3711L361.589 22.8317ZM308.853 17.3942C322.899 17.3942 333.419 17.3944 341.768 18.0766C350.114 18.7585 356.268 20.1206 361.589 22.8317L361.824 22.3711C356.418 19.6166 350.188 18.2458 341.81 17.5613C333.435 16.8771 322.891 16.8773 308.853 16.8773V17.3942ZM107.955 17.3942H308.853V16.8773H107.955V17.3942ZM55.2186 22.8317C60.5396 20.1206 66.6942 18.7585 75.0402 18.0766C83.3894 17.3944 93.9088 17.3942 107.955 17.3942V16.8773C93.9173 16.8773 83.3732 16.8771 74.9982 17.5613C66.6201 18.2458 60.3899 19.6166 54.9839 22.3711L55.2186 22.8317ZM33.4167 44.6337C38.1996 35.2466 45.8316 27.6147 55.2186 22.8317L54.9839 22.3711C45.4996 27.2036 37.7886 34.9146 32.9561 44.399L33.4167 44.6337ZM45.281 50.6884C43.3435 54.4909 42.3813 58.8697 41.901 64.7478C41.421 70.6229 41.4212 78.0183 41.4212 87.8582H41.9382C41.9382 78.0098 41.9384 70.639 42.4163 64.7899C42.8939 58.9438 43.8475 54.6406 45.7416 50.9231L45.281 50.6884ZM60.757 35.2124C54.0936 38.6076 48.6761 44.0251 45.281 50.6884L45.7416 50.9231C49.0872 44.357 54.4256 39.0187 60.9917 35.6731L60.757 35.2124ZM97.9268 31.3527C88.0869 31.3527 80.6914 31.3525 74.8163 31.8325C68.9383 32.3127 64.5595 33.275 60.757 35.2124L60.9917 35.6731C64.7091 33.7789 69.0124 32.8254 74.8584 32.3477C80.7076 31.8698 88.0783 31.8696 97.9268 31.8696V31.3527ZM115.205 31.3527H97.9268V31.8696H115.205V31.3527ZM116.92 31.493C116.524 31.3487 116.039 31.3527 115.205 31.3527V31.8696C116.084 31.8696 116.454 31.8736 116.743 31.9788L116.92 31.493ZM118.31 32.8834C118.075 32.2372 117.566 31.7282 116.92 31.493L116.743 31.9788C117.246 32.1617 117.642 32.5576 117.825 33.0602L118.31 32.8834ZM118.451 34.598C118.451 33.7648 118.455 33.2796 118.31 32.8834L117.825 33.0602C117.93 33.3492 117.934 33.7198 117.934 34.598H118.451ZM118.451 34.5981V34.598H117.934V34.5981H118.451ZM119.433 47.5204C118.455 44.8329 118.451 41.467 118.451 34.5981H117.934C117.934 41.422 117.93 44.9025 118.947 47.6972L119.433 47.5204ZM129.166 57.2534C124.642 55.607 121.079 52.0438 119.433 47.5204L118.947 47.6972C120.646 52.3642 124.322 56.0405 128.989 57.7391L129.166 57.2534ZM142.088 58.2354C135.219 58.2354 131.853 58.2315 129.166 57.2534L128.989 57.7391C131.784 58.7563 135.264 58.7524 142.088 58.7524V58.2354ZM274.721 58.2354H142.088V58.7524H274.721V58.2354ZM287.644 57.2534C284.956 58.2315 281.59 58.2354 274.721 58.2354V58.7524C281.545 58.7524 285.026 58.7563 287.82 57.7391L287.644 57.2534ZM297.377 47.5204C295.73 52.0438 292.167 55.607 287.644 57.2534L287.82 57.7391C292.487 56.0405 296.164 52.3642 297.862 47.6972L297.377 47.5204ZM298.359 34.5981C298.359 41.467 298.355 44.8329 297.377 47.5204L297.862 47.6972C298.88 44.9025 298.876 41.422 298.876 34.5981H298.359ZM298.499 32.8834C298.355 33.2796 298.359 33.7648 298.359 34.5981H298.876C298.876 33.7198 298.88 33.3492 298.985 33.0602L298.499 32.8834ZM299.889 31.493C299.243 31.7282 298.734 32.2372 298.499 32.8834L298.985 33.0602C299.168 32.5576 299.564 32.1617 300.066 31.9788L299.889 31.493ZM301.604 31.3527C300.771 31.3527 300.286 31.3487 299.889 31.493L300.066 31.9788C300.355 31.8736 300.726 31.8696 301.604 31.8696V31.3527ZM318.883 31.3527H301.604V31.8696H318.883V31.3527ZM356.052 35.2124C352.25 33.275 347.871 32.3127 341.993 31.8325C336.118 31.3525 328.722 31.3527 318.883 31.3527V31.8696C328.731 31.8696 336.102 31.8698 341.951 32.3477C347.797 32.8254 352.1 33.7789 355.818 35.6731L356.052 35.2124ZM371.528 50.6884C368.133 44.0251 362.716 38.6076 356.052 35.2124L355.818 35.6731C362.384 39.0187 367.722 44.357 371.068 50.9231L371.528 50.6884ZM375.388 87.8582C375.388 78.0183 375.388 70.6228 374.908 64.7478C374.428 58.8697 373.466 54.4909 371.528 50.6884L371.068 50.9231C372.962 54.6406 373.915 58.9438 374.393 64.7899C374.871 70.639 374.871 78.0098 374.871 87.8582H375.388ZM375.388 696.547V87.8582H374.871V696.547H375.388ZM371.528 733.716C373.466 729.914 374.428 725.535 374.908 719.657C375.388 713.782 375.388 706.386 375.388 696.547H374.871C374.871 706.395 374.871 713.766 374.393 719.615C373.915 725.461 372.962 729.764 371.068 733.482L371.528 733.716ZM356.052 749.192C362.716 745.797 368.133 740.38 371.528 733.716L371.068 733.482C367.722 740.048 362.384 745.386 355.818 748.732L356.052 749.192ZM318.883 753.052C328.722 753.052 336.118 753.052 341.993 752.572C347.871 752.092 352.25 751.13 356.052 749.192L355.818 748.732C352.1 750.626 347.797 751.579 341.951 752.057C336.102 752.535 328.731 752.535 318.883 752.535V753.052ZM97.9267 753.052H318.883V752.535H97.9267V753.052ZM60.757 749.192C64.5595 751.13 68.9383 752.092 74.8163 752.572C80.6914 753.052 88.0869 753.052 97.9267 753.052V752.535C88.0783 752.535 80.7076 752.535 74.8584 752.057C69.0124 751.579 64.7091 750.626 60.9917 748.732L60.757 749.192ZM45.281 733.716C48.6761 740.38 54.0936 745.797 60.757 749.192L60.9917 748.732C54.4256 745.386 49.0872 740.048 45.7416 733.482L45.281 733.716ZM41.4212 696.547C41.4212 706.386 41.421 713.782 41.901 719.657C42.3813 725.535 43.3435 729.914 45.281 733.716L45.7416 733.482C43.8475 729.764 42.8939 725.461 42.4163 719.615C41.9384 713.766 41.9382 706.395 41.9382 696.547H41.4212ZM41.4212 87.8582V696.547H41.9382V87.8582H41.4212Z" fill="url(#paint0_linear_1753_12583)" mask="url(#path-3-inside-1_1753_12583)"/>
<g filter="url(#filter0_iiii_1753_12583)">
<path d="M21 133.972C21 133.401 21.4629 132.938 22.034 132.938H23.5849V162.923H22.034C21.4629 162.923 21 162.46 21 161.889V133.972Z" fill="url(#paint1_linear_1753_12583)"/>
</g>
<g filter="url(#filter1_iiii_1753_12583)">
<path d="M21 188.255C21 187.684 21.4629 187.221 22.034 187.221H23.5849V245.122H22.034C21.4629 245.122 21 244.659 21 244.088V188.255Z" fill="url(#paint2_linear_1753_12583)"/>
</g>
<g filter="url(#filter2_iiii_1753_12583)">
<path d="M393.224 207.9H394.775C395.346 207.9 395.809 208.363 395.809 208.934V296.82C395.809 297.391 395.346 297.854 394.775 297.854H393.224V207.9Z" fill="url(#paint3_linear_1753_12583)"/>
</g>
<g filter="url(#filter3_iiii_1753_12583)">
<path d="M21 259.081C21 258.51 21.4629 258.047 22.034 258.047H23.5849V315.948H22.034C21.4629 315.948 21 315.485 21 314.914V259.081Z" fill="url(#paint4_linear_1753_12583)"/>
</g>
<g filter="url(#filter4_i_1753_12583)">
<path d="M188.501 41.4335C188.501 39.4349 190.121 37.8147 192.12 37.8147H225.206C227.205 37.8147 228.825 39.4349 228.825 41.4335C228.825 43.4322 227.205 45.0524 225.206 45.0524H192.12C190.121 45.0524 188.501 43.4322 188.501 41.4335Z" fill="#161616"/>
</g>
<g filter="url(#filter5_f_1753_12583)">
<path d="M192.12 38.3317H225.206C226.919 38.3317 228.308 39.7204 228.308 41.4335C228.308 43.1466 226.919 44.5354 225.206 44.5354H192.12C190.407 44.5354 189.018 43.1466 189.018 41.4335C189.018 39.7204 190.407 38.3317 192.12 38.3317Z" stroke="black" stroke-opacity="0.32" stroke-width="1.03395"/>
</g>
<path d="M192.12 38.0732H225.206C227.062 38.0732 228.567 39.5777 228.567 41.4335C228.567 43.2894 227.062 44.7939 225.206 44.7939H192.12C190.264 44.7939 188.759 43.2894 188.759 41.4335C188.759 39.5777 190.264 38.0732 192.12 38.0732Z" stroke="url(#paint5_linear_1753_12583)" stroke-width="0.516977"/>
<path d="M237.097 41.4337C237.097 37.4365 240.337 34.196 244.334 34.196C248.332 34.196 251.572 37.4365 251.572 41.4337C251.572 45.431 248.332 48.6714 244.334 48.6714C240.337 48.6714 237.097 45.431 237.097 41.4337Z" fill="url(#paint6_radial_1753_12583)"/>
<path d="M237.097 41.4337C237.097 37.4365 240.337 34.196 244.334 34.196C248.332 34.196 251.572 37.4365 251.572 41.4337C251.572 45.431 248.332 48.6714 244.334 48.6714C240.337 48.6714 237.097 45.431 237.097 41.4337Z" fill="url(#paint7_radial_1753_12583)"/>
<path d="M247.953 41.4335C247.953 39.4349 246.332 37.8147 244.334 37.8147C242.335 37.8147 240.715 39.4349 240.715 41.4335C240.715 43.4322 242.335 45.0524 244.334 45.0524C246.332 45.0524 247.953 43.4322 247.953 41.4335Z" fill="url(#paint8_linear_1753_12583)"/>
<path d="M247.953 41.4335C247.953 39.4349 246.332 37.8147 244.334 37.8147C242.335 37.8147 240.715 39.4349 240.715 41.4335C240.715 43.4322 242.335 45.0524 244.334 45.0524C246.332 45.0524 247.953 43.4322 247.953 41.4335Z" fill="url(#paint9_radial_1753_12583)"/>
<path d="M247.953 41.4335C247.953 39.4349 246.332 37.8147 244.334 37.8147C242.335 37.8147 240.715 39.4349 240.715 41.4335C240.715 43.4322 242.335 45.0524 244.334 45.0524C246.332 45.0524 247.953 43.4322 247.953 41.4335Z" fill="url(#paint10_radial_1753_12583)"/>
<path d="M247.953 41.4335C247.953 39.4349 246.332 37.8147 244.334 37.8147C242.335 37.8147 240.715 39.4349 240.715 41.4335C240.715 43.4322 242.335 45.0524 244.334 45.0524C246.332 45.0524 247.953 43.4322 247.953 41.4335Z" fill="url(#paint11_radial_1753_12583)"/>
<path d="M247.953 41.4335C247.953 39.4349 246.332 37.8147 244.334 37.8147C242.335 37.8147 240.715 39.4349 240.715 41.4335C240.715 43.4322 242.335 45.0524 244.334 45.0524C246.332 45.0524 247.953 43.4322 247.953 41.4335Z" fill="url(#paint12_radial_1753_12583)"/>
<defs>
<filter id="filter0_iiii_1753_12583" x="21" y="131.905" width="2.58496" height="32.0525" filterUnits="userSpaceOnUse" color-interpolation-filters="sRGB">
<feFlood flood-opacity="0" result="BackgroundImageFix"/>
<feBlend mode="normal" in="SourceGraphic" in2="BackgroundImageFix" result="shape"/>
<feColorMatrix in="SourceAlpha" type="matrix" values="0 0 0 0 0 0 0 0 0 0 0 0 0 0 0 0 0 0 127 0" result="hardAlpha"/>
<feOffset dy="2.06791"/>
<feGaussianBlur stdDeviation="0.516977"/>
<feComposite in2="hardAlpha" operator="arithmetic" k2="-1" k3="1"/>
<feColorMatrix type="matrix" values="0 0 0 0 1 0 0 0 0 1 0 0 0 0 1 0 0 0 0.08 0"/>
<feBlend mode="normal" in2="shape" result="effect1_innerShadow_1753_12583"/>
<feColorMatrix in="SourceAlpha" type="matrix" values="0 0 0 0 0 0 0 0 0 0 0 0 0 0 0 0 0 0 127 0" result="hardAlpha"/>
<feOffset dy="-2.06791"/>
<feGaussianBlur stdDeviation="0.516977"/>
<feComposite in2="hardAlpha" operator="arithmetic" k2="-1" k3="1"/>
<feColorMatrix type="matrix" values="0 0 0 0 1 0 0 0 0 1 0 0 0 0 1 0 0 0 0.08 0"/>
<feBlend mode="normal" in2="effect1_innerShadow_1753_12583" result="effect2_innerShadow_1753_12583"/>
<feColorMatrix in="SourceAlpha" type="matrix" values="0 0 0 0 0 0 0 0 0 0 0 0 0 0 0 0 0 0 127 0" result="hardAlpha"/>
<feOffset dy="0.516977"/>
<feGaussianBlur stdDeviation="0.258488"/>
<feComposite in2="hardAlpha" operator="arithmetic" k2="-1" k3="1"/>
<feColorMatrix type="matrix" values="0 0 0 0 1 0 0 0 0 1 0 0 0 0 1 0 0 0 0.32 0"/>
<feBlend mode="normal" in2="effect2_innerShadow_1753_12583" result="effect3_innerShadow_1753_12583"/>
<feColorMatrix in="SourceAlpha" type="matrix" values="0 0 0 0 0 0 0 0 0 0 0 0 0 0 0 0 0 0 127 0" result="hardAlpha"/>
<feOffset dy="-0.516977"/>
<feGaussianBlur stdDeviation="0.258488"/>
<feComposite in2="hardAlpha" operator="arithmetic" k2="-1" k3="1"/>
<feColorMatrix type="matrix" values="0 0 0 0 1 0 0 0 0 1 0 0 0 0 1 0 0 0 0.32 0"/>
<feBlend mode="normal" in2="effect3_innerShadow_1753_12583" result="effect4_innerShadow_1753_12583"/>
</filter>
<filter id="filter1_iiii_1753_12583" x="21" y="186.187" width="2.58496" height="59.9693" filterUnits="userSpaceOnUse" color-interpolation-filters="sRGB">
<feFlood flood-opacity="0" result="BackgroundImageFix"/>
<feBlend mode="normal" in="SourceGraphic" in2="BackgroundImageFix" result="shape"/>
<feColorMatrix in="SourceAlpha" type="matrix" values="0 0 0 0 0 0 0 0 0 0 0 0 0 0 0 0 0 0 127 0" result="hardAlpha"/>
<feOffset dy="2.06791"/>
<feGaussianBlur stdDeviation="0.516977"/>
<feComposite in2="hardAlpha" operator="arithmetic" k2="-1" k3="1"/>
<feColorMatrix type="matrix" values="0 0 0 0 1 0 0 0 0 1 0 0 0 0 1 0 0 0 0.08 0"/>
<feBlend mode="normal" in2="shape" result="effect1_innerShadow_1753_12583"/>
<feColorMatrix in="SourceAlpha" type="matrix" values="0 0 0 0 0 0 0 0 0 0 0 0 0 0 0 0 0 0 127 0" result="hardAlpha"/>
<feOffset dy="-2.06791"/>
<feGaussianBlur stdDeviation="0.516977"/>
<feComposite in2="hardAlpha" operator="arithmetic" k2="-1" k3="1"/>
<feColorMatrix type="matrix" values="0 0 0 0 1 0 0 0 0 1 0 0 0 0 1 0 0 0 0.08 0"/>
<feBlend mode="normal" in2="effect1_innerShadow_1753_12583" result="effect2_innerShadow_1753_12583"/>
<feColorMatrix in="SourceAlpha" type="matrix" values="0 0 0 0 0 0 0 0 0 0 0 0 0 0 0 0 0 0 127 0" result="hardAlpha"/>
<feOffset dy="0.516977"/>
<feGaussianBlur stdDeviation="0.258488"/>
<feComposite in2="hardAlpha" operator="arithmetic" k2="-1" k3="1"/>
<feColorMatrix type="matrix" values="0 0 0 0 1 0 0 0 0 1 0 0 0 0 1 0 0 0 0.32 0"/>
<feBlend mode="normal" in2="effect2_innerShadow_1753_12583" result="effect3_innerShadow_1753_12583"/>
<feColorMatrix in="SourceAlpha" type="matrix" values="0 0 0 0 0 0 0 0 0 0 0 0 0 0 0 0 0 0 127 0" result="hardAlpha"/>
<feOffset dy="-0.516977"/>
<feGaussianBlur stdDeviation="0.258488"/>
<feComposite in2="hardAlpha" operator="arithmetic" k2="-1" k3="1"/>
<feColorMatrix type="matrix" values="0 0 0 0 1 0 0 0 0 1 0 0 0 0 1 0 0 0 0.32 0"/>
<feBlend mode="normal" in2="effect3_innerShadow_1753_12583" result="effect4_innerShadow_1753_12583"/>
</filter>
<filter id="filter2_iiii_1753_12583" x="393.224" y="206.866" width="2.58496" height="92.0219" filterUnits="userSpaceOnUse" color-interpolation-filters="sRGB">
<feFlood flood-opacity="0" result="BackgroundImageFix"/>
<feBlend mode="normal" in="SourceGraphic" in2="BackgroundImageFix" result="shape"/>
<feColorMatrix in="SourceAlpha" type="matrix" values="0 0 0 0 0 0 0 0 0 0 0 0 0 0 0 0 0 0 127 0" result="hardAlpha"/>
<feOffset dy="2.06791"/>
<feGaussianBlur stdDeviation="0.516977"/>
<feComposite in2="hardAlpha" operator="arithmetic" k2="-1" k3="1"/>
<feColorMatrix type="matrix" values="0 0 0 0 1 0 0 0 0 1 0 0 0 0 1 0 0 0 0.08 0"/>
<feBlend mode="normal" in2="shape" result="effect1_innerShadow_1753_12583"/>
<feColorMatrix in="SourceAlpha" type="matrix" values="0 0 0 0 0 0 0 0 0 0 0 0 0 0 0 0 0 0 127 0" result="hardAlpha"/>
<feOffset dy="-2.06791"/>
<feGaussianBlur stdDeviation="0.516977"/>
<feComposite in2="hardAlpha" operator="arithmetic" k2="-1" k3="1"/>
<feColorMatrix type="matrix" values="0 0 0 0 1 0 0 0 0 1 0 0 0 0 1 0 0 0 0.08 0"/>
<feBlend mode="normal" in2="effect1_innerShadow_1753_12583" result="effect2_innerShadow_1753_12583"/>
<feColorMatrix in="SourceAlpha" type="matrix" values="0 0 0 0 0 0 0 0 0 0 0 0 0 0 0 0 0 0 127 0" result="hardAlpha"/>
<feOffset dy="0.516977"/>
<feGaussianBlur stdDeviation="0.258488"/>
<feComposite in2="hardAlpha" operator="arithmetic" k2="-1" k3="1"/>
<feColorMatrix type="matrix" values="0 0 0 0 1 0 0 0 0 1 0 0 0 0 1 0 0 0 0.32 0"/>
<feBlend mode="normal" in2="effect2_innerShadow_1753_12583" result="effect3_innerShadow_1753_12583"/>
<feColorMatrix in="SourceAlpha" type="matrix" values="0 0 0 0 0 0 0 0 0 0 0 0 0 0 0 0 0 0 127 0" result="hardAlpha"/>
<feOffset dy="-0.516977"/>
<feGaussianBlur stdDeviation="0.258488"/>
<feComposite in2="hardAlpha" operator="arithmetic" k2="-1" k3="1"/>
<feColorMatrix type="matrix" values="0 0 0 0 1 0 0 0 0 1 0 0 0 0 1 0 0 0 0.32 0"/>
<feBlend mode="normal" in2="effect3_innerShadow_1753_12583" result="effect4_innerShadow_1753_12583"/>
</filter>
<filter id="filter3_iiii_1753_12583" x="21" y="257.013" width="2.58496" height="59.9693" filterUnits="userSpaceOnUse" color-interpolation-filters="sRGB">
<feFlood flood-opacity="0" result="BackgroundImageFix"/>
<feBlend mode="normal" in="SourceGraphic" in2="BackgroundImageFix" result="shape"/>
<feColorMatrix in="SourceAlpha" type="matrix" values="0 0 0 0 0 0 0 0 0 0 0 0 0 0 0 0 0 0 127 0" result="hardAlpha"/>
<feOffset dy="2.06791"/>
<feGaussianBlur stdDeviation="0.516977"/>
<feComposite in2="hardAlpha" operator="arithmetic" k2="-1" k3="1"/>
<feColorMatrix type="matrix" values="0 0 0 0 1 0 0 0 0 1 0 0 0 0 1 0 0 0 0.08 0"/>
<feBlend mode="normal" in2="shape" result="effect1_innerShadow_1753_12583"/>
<feColorMatrix in="SourceAlpha" type="matrix" values="0 0 0 0 0 0 0 0 0 0 0 0 0 0 0 0 0 0 127 0" result="hardAlpha"/>
<feOffset dy="-2.06791"/>
<feGaussianBlur stdDeviation="0.516977"/>
<feComposite in2="hardAlpha" operator="arithmetic" k2="-1" k3="1"/>
<feColorMatrix type="matrix" values="0 0 0 0 1 0 0 0 0 1 0 0 0 0 1 0 0 0 0.08 0"/>
<feBlend mode="normal" in2="effect1_innerShadow_1753_12583" result="effect2_innerShadow_1753_12583"/>
<feColorMatrix in="SourceAlpha" type="matrix" values="0 0 0 0 0 0 0 0 0 0 0 0 0 0 0 0 0 0 127 0" result="hardAlpha"/>
<feOffset dy="0.516977"/>
<feGaussianBlur stdDeviation="0.258488"/>
<feComposite in2="hardAlpha" operator="arithmetic" k2="-1" k3="1"/>
<feColorMatrix type="matrix" values="0 0 0 0 1 0 0 0 0 1 0 0 0 0 1 0 0 0 0.32 0"/>
<feBlend mode="normal" in2="effect2_innerShadow_1753_12583" result="effect3_innerShadow_1753_12583"/>
<feColorMatrix in="SourceAlpha" type="matrix" values="0 0 0 0 0 0 0 0 0 0 0 0 0 0 0 0 0 0 127 0" result="hardAlpha"/>
<feOffset dy="-0.516977"/>
<feGaussianBlur stdDeviation="0.258488"/>
<feComposite in2="hardAlpha" operator="arithmetic" k2="-1" k3="1"/>
<feColorMatrix type="matrix" values="0 0 0 0 1 0 0 0 0 1 0 0 0 0 1 0 0 0 0.32 0"/>
<feBlend mode="normal" in2="effect3_innerShadow_1753_12583" result="effect4_innerShadow_1753_12583"/>
</filter>
<filter id="filter4_i_1753_12583" x="188.501" y="37.8147" width="40.3242" height="7.23779" filterUnits="userSpaceOnUse" color-interpolation-filters="sRGB">
<feFlood flood-opacity="0" result="BackgroundImageFix"/>
<feBlend mode="normal" in="SourceGraphic" in2="BackgroundImageFix" result="shape"/>
<feColorMatrix in="SourceAlpha" type="matrix" values="0 0 0 0 0 0 0 0 0 0 0 0 0 0 0 0 0 0 127 0" result="hardAlpha"/>
<feOffset/>
<feGaussianBlur stdDeviation="2.06791"/>
<feComposite in2="hardAlpha" operator="arithmetic" k2="-1" k3="1"/>
<feColorMatrix type="matrix" values="0 0 0 0 0 0 0 0 0 0 0 0 0 0 0 0 0 0 0.48 0"/>
<feBlend mode="normal" in2="shape" result="effect1_innerShadow_1753_12583"/>
</filter>
<filter id="filter5_f_1753_12583" x="187.984" y="37.2977" width="41.3582" height="8.27175" filterUnits="userSpaceOnUse" color-interpolation-filters="sRGB">
<feFlood flood-opacity="0" result="BackgroundImageFix"/>
<feBlend mode="normal" in="SourceGraphic" in2="BackgroundImageFix" result="shape"/>
<feGaussianBlur stdDeviation="0.258488" result="effect1_foregroundBlur_1753_12583"/>
</filter>
<linearGradient id="paint0_linear_1753_12583" x1="50.8178" y1="26.723" x2="360.91" y2="748.362" gradientUnits="userSpaceOnUse">
<stop stop-color="white" stop-opacity="0.16"/>
<stop offset="1" stop-color="white" stop-opacity="0.05"/>
</linearGradient>
<linearGradient id="paint1_linear_1753_12583" x1="21" y1="147.672" x2="23.5849" y2="147.672" gradientUnits="userSpaceOnUse">
<stop stop-color="white" stop-opacity="0.08"/>
<stop offset="0.276042" stop-color="white" stop-opacity="0.24"/>
<stop offset="1" stop-color="white" stop-opacity="0"/>
</linearGradient>
<linearGradient id="paint2_linear_1753_12583" x1="21" y1="215.672" x2="23.5849" y2="215.672" gradientUnits="userSpaceOnUse">
<stop stop-color="white" stop-opacity="0.08"/>
<stop offset="0.276042" stop-color="white" stop-opacity="0.24"/>
<stop offset="1" stop-color="white" stop-opacity="0"/>
</linearGradient>
<linearGradient id="paint3_linear_1753_12583" x1="393.224" y1="252.102" x2="395.809" y2="252.102" gradientUnits="userSpaceOnUse">
<stop stop-color="white" stop-opacity="0"/>
<stop offset="0.630208" stop-color="white" stop-opacity="0.24"/>
<stop offset="1" stop-color="white" stop-opacity="0.08"/>
</linearGradient>
<linearGradient id="paint4_linear_1753_12583" x1="21" y1="286.498" x2="23.5849" y2="286.498" gradientUnits="userSpaceOnUse">
<stop stop-color="white" stop-opacity="0.08"/>
<stop offset="0.276042" stop-color="white" stop-opacity="0.24"/>
<stop offset="1" stop-color="white" stop-opacity="0"/>
</linearGradient>
<linearGradient id="paint5_linear_1753_12583" x1="208.663" y1="37.8147" x2="208.663" y2="45.0524" gradientUnits="userSpaceOnUse">
<stop/>
<stop offset="0.483028" stop-color="#484848"/>
<stop offset="1"/>
</linearGradient>
<radialGradient id="paint6_radial_1753_12583" cx="0" cy="0" r="1" gradientUnits="userSpaceOnUse" gradientTransform="translate(245.627 44.7941) rotate(-127.694) scale(7.18672)">
<stop stop-color="#242424"/>
<stop offset="1" stop-color="#161616"/>
</radialGradient>
<radialGradient id="paint7_radial_1753_12583" cx="0" cy="0" r="1" gradientUnits="userSpaceOnUse" gradientTransform="translate(244.334 41.4337) rotate(90) scale(7.23767)">
<stop offset="0.463542" stop-opacity="0.25"/>
<stop offset="0.645833" stop-opacity="0"/>
</radialGradient>
<linearGradient id="paint8_linear_1753_12583" x1="244.334" y1="37.8147" x2="244.334" y2="45.0524" gradientUnits="userSpaceOnUse">
<stop stop-color="#0B528D"/>
<stop offset="0.276042" stop-color="#3625AF"/>
<stop offset="0.510417" stop-color="#070D17"/>
<stop offset="0.734375" stop-color="#16618F"/>
<stop offset="1" stop-color="#021762"/>
</linearGradient>
<radialGradient id="paint9_radial_1753_12583" cx="0" cy="0" r="1" gradientUnits="userSpaceOnUse" gradientTransform="translate(241.49 40.6581) rotate(58.3925) scale(3.94565)">
<stop stop-color="#070D17"/>
<stop offset="1" stop-color="#070D17" stop-opacity="0"/>
</radialGradient>
<radialGradient id="paint10_radial_1753_12583" cx="0" cy="0" r="1" gradientUnits="userSpaceOnUse" gradientTransform="translate(244.851 41.9505) rotate(106.699) scale(2.6987)">
<stop offset="0.146834" stop-color="#070D17"/>
<stop offset="1" stop-color="#070D17" stop-opacity="0"/>
</radialGradient>
<radialGradient id="paint11_radial_1753_12583" cx="0" cy="0" r="1" gradientUnits="userSpaceOnUse" gradientTransform="translate(245.368 40.6581) rotate(128.66) scale(1.65513)">
<stop stop-color="#6356D7"/>
<stop offset="1" stop-color="#15368A" stop-opacity="0"/>
</radialGradient>
<radialGradient id="paint12_radial_1753_12583" cx="0" cy="0" r="1" gradientUnits="userSpaceOnUse" gradientTransform="translate(244.334 41.4335) rotate(90) scale(3.61884)">
<stop offset="0.828125" stop-opacity="0"/>
<stop offset="1" stop-opacity="0.85"/>
</radialGradient>
</defs>
</svg>
