<svg width="1724" height="3467" viewBox="0 0 1724 3467" fill="none" xmlns="http://www.w3.org/2000/svg">
<g opacity="0.4">
<path d="M61.4887 541.634C59.6379 546.255 57.8258 550.896 56.0531 555.555L555.555 56.0531C550.896 57.8258 546.255 59.6378 541.635 61.4887L61.4887 541.634Z" fill="#FFC42D"/>
<path d="M358.457 162.277C367.506 155.753 376.686 149.401 385.993 143.225L143.225 385.993C149.401 376.686 155.753 367.505 162.277 358.457L358.457 162.277Z" fill="#FFC42D"/>
<path d="M662.262 23.2518L23.2518 662.261C22.3822 665.927 21.5359 669.602 20.7133 673.285L673.285 20.7133C669.602 21.5359 665.927 22.3822 662.262 23.2518Z" fill="#FFC42D"/>
<path d="M762.194 5.70924L5.70925 762.194C5.34359 765.366 4.99515 768.543 4.66402 771.725L771.725 4.66402C768.543 4.99515 765.366 5.34358 762.194 5.70924Z" fill="#FFC42D"/>
<path d="M850.219 0.0729118L0.0729129 850.218C0.0347617 853.068 0.0104361 855.921 0 858.777L858.777 0C855.921 0.010436 853.068 0.0347612 850.219 0.0729118Z" fill="#FFC42D"/>
<path d="M930.041 2.64056L2.64055 930.041C2.84483 932.657 3.06078 935.269 3.28835 937.878L937.878 3.28835C935.269 3.06078 932.657 2.84483 930.041 2.64056Z" fill="#FFC42D"/>
<path d="M1003.52 11.5555L11.5555 1003.52C11.9555 1005.94 12.3656 1008.36 12.7857 1010.77L1010.77 12.7857C1008.36 12.3656 1005.94 11.9555 1003.52 11.5555Z" fill="#FFC42D"/>
<path d="M1071.76 25.6972L25.6972 1071.76C26.2619 1074.02 26.8355 1076.28 27.4179 1078.53L1078.53 27.4179C1076.28 26.8355 1074.02 26.2619 1071.76 25.6972Z" fill="#FFC42D"/>
<path d="M1135.55 44.3041L44.3041 1135.55C45.0118 1137.66 45.7275 1139.77 46.4511 1141.88L1141.88 46.4511C1139.77 45.7275 1137.66 45.0118 1135.55 44.3041Z" fill="#FFC42D"/>
<path d="M1195.4 66.8396L66.8396 1195.4C67.6749 1197.39 68.5174 1199.38 69.3671 1201.36L1201.36 69.3671C1199.38 68.5174 1197.39 67.6749 1195.4 66.8396Z" fill="#FFC42D"/>
<path d="M1251.71 92.9159L92.9159 1251.71C93.8675 1253.59 94.8257 1255.46 95.7906 1257.32L1257.32 95.7906C1255.46 94.8257 1253.59 93.8675 1251.71 92.9159Z" fill="#FFC42D"/>
<path d="M1304.77 122.251L122.251 1304.77C123.311 1306.54 124.377 1308.3 125.449 1310.06L1310.06 125.449C1308.3 124.377 1306.54 123.311 1304.77 122.251Z" fill="#FFC42D"/>
<path d="M1354.77 154.641L154.641 1354.77C155.803 1356.43 156.971 1358.09 158.144 1359.75L1359.75 158.144C1358.09 156.971 1356.43 155.803 1354.77 154.641Z" fill="#FFC42D"/>
<path d="M1401.85 189.945L189.945 1401.85C191.206 1403.42 192.472 1404.98 193.743 1406.54L1406.54 193.743C1404.98 192.472 1403.42 191.206 1401.85 189.945Z" fill="#FFC42D"/>
<path d="M1446.11 228.073L228.073 1446.11C229.429 1447.58 230.791 1449.05 232.158 1450.51L1450.51 232.158C1449.05 230.791 1447.58 229.429 1446.11 228.073Z" fill="#FFC42D"/>
<path d="M1487.6 268.978L268.978 1487.6C270.43 1488.97 271.887 1490.35 273.349 1491.71L1491.71 273.349C1490.35 271.887 1488.97 270.43 1487.6 268.978Z" fill="#FFC42D"/>
<path d="M1526.31 312.658L312.658 1526.31C314.205 1527.59 315.758 1528.87 317.315 1530.14L1530.14 317.315C1528.87 315.758 1527.59 314.206 1526.31 312.658Z" fill="#FFC42D"/>
<path d="M1562.21 359.146L359.146 1562.21C360.792 1563.39 362.442 1564.57 364.097 1565.74L1565.74 364.097C1564.57 362.442 1563.39 360.792 1562.21 359.146Z" fill="#FFC42D"/>
<path d="M1595.22 408.527L408.527 1595.22C410.274 1596.3 412.026 1597.38 413.781 1598.45L1598.45 413.781C1597.38 412.026 1596.3 410.274 1595.22 408.527Z" fill="#FFC42D"/>
<path d="M1625.21 460.929L460.929 1625.21C462.783 1626.18 464.642 1627.15 466.504 1628.12L1628.12 466.504C1627.15 464.642 1626.18 462.783 1625.21 460.929Z" fill="#FFC42D"/>
<path d="M1651.98 516.542L516.542 1651.98C518.511 1652.85 520.484 1653.7 522.461 1654.55L1654.55 522.461C1653.7 520.484 1652.85 518.511 1651.98 516.542Z" fill="#FFC42D"/>
<path d="M1675.29 575.627L575.627 1675.29C577.722 1676.02 579.821 1676.75 581.923 1677.47L1677.47 581.923C1676.75 579.821 1676.02 577.722 1675.29 575.627Z" fill="#FFC42D"/>
<path d="M1694.75 638.55L638.55 1694.75C640.786 1695.35 643.025 1695.94 645.267 1696.52L1696.52 645.267C1695.94 643.025 1695.35 640.786 1694.75 638.55Z" fill="#FFC42D"/>
<path d="M1709.88 705.81L705.81 1709.88C708.206 1710.32 710.606 1710.75 713.009 1711.17L1711.17 713.01C1710.75 710.606 1710.32 708.207 1709.88 705.81Z" fill="#FFC42D"/>
<path d="M1719.97 778.117L778.117 1719.97C780.704 1720.22 783.294 1720.45 785.887 1720.68L1720.68 785.887C1720.45 783.294 1720.22 780.704 1719.97 778.117Z" fill="#FFC42D"/>
<path d="M1723.98 856.494L856.494 1723.98C858.326 1723.99 860.159 1723.99 861.994 1723.99C862.985 1723.99 863.976 1723.99 864.967 1723.99L1723.99 864.967C1723.99 863.976 1723.99 862.985 1723.99 861.994C1723.99 860.159 1723.99 858.326 1723.98 856.494Z" fill="#FFC42D"/>
<path d="M1720.28 942.584L942.584 1720.28C945.726 1719.99 948.862 1719.68 951.994 1719.35L1719.35 951.994C1719.68 948.862 1719.99 945.726 1720.28 942.584Z" fill="#FFC42D"/>
<path d="M1705.69 1039.56L1039.56 1705.69C1043.18 1704.93 1046.79 1704.15 1050.39 1703.34L1703.34 1050.39C1704.15 1046.79 1704.93 1043.18 1705.69 1039.56Z" fill="#FFC42D"/>
<path d="M1673.07 1154.57L1154.57 1673.07C1159.08 1671.45 1163.57 1669.78 1168.04 1668.08L1668.08 1168.04C1669.78 1163.57 1671.45 1159.08 1673.07 1154.57Z" fill="#FFC42D"/>
<path d="M1596.27 1313.76L1313.76 1596.27C1321.68 1591.38 1329.52 1586.37 1337.27 1581.24L1581.24 1337.27C1586.37 1329.52 1591.38 1321.68 1596.27 1313.76Z" fill="#FFC42D"/>
<path d="M61.4887 2284.63C59.6379 2289.26 57.8258 2293.9 56.0531 2298.56L555.555 1799.05C550.896 1800.83 546.255 1802.64 541.635 1804.49L61.4887 2284.63Z" fill="#FFC42D"/>
<path d="M358.457 1905.28C367.506 1898.75 376.686 1892.4 385.993 1886.23L143.225 2128.99C149.401 2119.69 155.753 2110.51 162.277 2101.46L358.457 1905.28Z" fill="#FFC42D"/>
<path d="M662.262 1766.25L23.2518 2405.26C22.3822 2408.93 21.5359 2412.6 20.7133 2416.29L673.285 1763.71C669.602 1764.54 665.927 1765.38 662.262 1766.25Z" fill="#FFC42D"/>
<path d="M762.194 1748.71L5.70925 2505.19C5.34359 2508.37 4.99515 2511.54 4.66402 2514.72L771.725 1747.66C768.543 1748 765.366 1748.34 762.194 1748.71Z" fill="#FFC42D"/>
<path d="M850.219 1743.07L0.0729129 2593.22C0.0347617 2596.07 0.0104361 2598.92 0 2601.78L858.777 1743C855.921 1743.01 853.068 1743.03 850.219 1743.07Z" fill="#FFC42D"/>
<path d="M930.041 1745.64L2.64055 2673.04C2.84483 2675.66 3.06078 2678.27 3.28835 2680.88L937.878 1746.29C935.269 1746.06 932.657 1745.84 930.041 1745.64Z" fill="#FFC42D"/>
<path d="M1003.52 1754.56L11.5555 2746.52C11.9555 2748.94 12.3656 2751.36 12.7857 2753.77L1010.77 1755.79C1008.36 1755.37 1005.94 1754.96 1003.52 1754.56Z" fill="#FFC42D"/>
<path d="M1071.76 1768.7L25.6972 2814.76C26.2619 2817.02 26.8355 2819.28 27.4179 2821.53L1078.53 1770.42C1076.28 1769.84 1074.02 1769.26 1071.76 1768.7Z" fill="#FFC42D"/>
<path d="M1135.55 1787.3L44.3041 2878.55C45.0118 2880.66 45.7275 2882.78 46.4511 2884.88L1141.88 1789.45C1139.77 1788.73 1137.66 1788.01 1135.55 1787.3Z" fill="#FFC42D"/>
<path d="M1195.4 1809.84L66.8396 2938.4C67.6749 2940.39 68.5174 2942.38 69.3671 2944.36L1201.36 1812.37C1199.38 1811.52 1197.39 1810.67 1195.4 1809.84Z" fill="#FFC42D"/>
<path d="M1251.71 1835.92L92.9159 2994.71C93.8675 2996.59 94.8257 2998.46 95.7906 3000.32L1257.32 1838.79C1255.46 1837.83 1253.59 1836.87 1251.71 1835.92Z" fill="#FFC42D"/>
<path d="M1304.77 1865.25L122.251 3047.77C123.311 3049.54 124.377 3051.3 125.449 3053.06L1310.06 1868.45C1308.3 1867.38 1306.54 1866.31 1304.77 1865.25Z" fill="#FFC42D"/>
<path d="M1354.77 1897.64L154.641 3097.77C155.803 3099.43 156.971 3101.09 158.144 3102.75L1359.75 1901.14C1358.09 1899.97 1356.43 1898.8 1354.77 1897.64Z" fill="#FFC42D"/>
<path d="M1401.85 1932.95L189.945 3144.85C191.206 3146.42 192.472 3147.98 193.743 3149.54L1406.54 1936.74C1404.98 1935.47 1403.42 1934.21 1401.85 1932.95Z" fill="#FFC42D"/>
<path d="M1446.11 1971.07L228.073 3189.11C229.429 3190.59 230.791 3192.05 232.158 3193.51L1450.51 1975.16C1449.05 1973.79 1447.58 1972.43 1446.11 1971.07Z" fill="#FFC42D"/>
<path d="M1487.6 2011.98L268.978 3230.6C270.43 3231.97 271.887 3233.35 273.349 3234.71L1491.71 2016.35C1490.35 2014.89 1488.97 2013.43 1487.6 2011.98Z" fill="#FFC42D"/>
<path d="M1526.31 2055.66L312.658 3269.31C314.205 3270.59 315.758 3271.87 317.315 3273.14L1530.14 2060.31C1528.87 2058.76 1527.59 2057.21 1526.31 2055.66Z" fill="#FFC42D"/>
<path d="M1562.21 2102.15L359.146 3305.21C360.792 3306.39 362.442 3307.57 364.097 3308.74L1565.74 2107.1C1564.57 2105.44 1563.39 2103.79 1562.21 2102.15Z" fill="#FFC42D"/>
<path d="M1595.22 2151.53L408.527 3338.22C410.274 3339.3 412.026 3340.38 413.781 3341.45L1598.45 2156.78C1597.38 2155.03 1596.3 2153.27 1595.22 2151.53Z" fill="#FFC42D"/>
<path d="M1625.21 2203.93L460.929 3368.21C462.783 3369.18 464.642 3370.15 466.504 3371.12L1628.12 2209.5C1627.15 2207.64 1626.18 2205.78 1625.21 2203.93Z" fill="#FFC42D"/>
<path d="M1651.98 2259.54L516.542 3394.98C518.511 3395.85 520.484 3396.7 522.461 3397.55L1654.55 2265.46C1653.7 2263.48 1652.85 2261.51 1651.98 2259.54Z" fill="#FFC42D"/>
<path d="M1675.29 2318.63L575.627 3418.29C577.722 3419.02 579.821 3419.75 581.923 3420.47L1677.47 2324.92C1676.75 2322.82 1676.02 2320.72 1675.29 2318.63Z" fill="#FFC42D"/>
<path d="M1694.75 2381.55L638.55 3437.75C640.786 3438.35 643.025 3438.94 645.267 3439.52L1696.52 2388.27C1695.94 2386.02 1695.35 2383.79 1694.75 2381.55Z" fill="#FFC42D"/>
<path d="M1709.88 2448.81L705.81 3452.88C708.206 3453.32 710.606 3453.75 713.009 3454.17L1711.17 2456.01C1710.75 2453.61 1710.32 2451.21 1709.88 2448.81Z" fill="#FFC42D"/>
<path d="M1719.97 2521.12L778.117 3462.97C780.704 3463.22 783.294 3463.45 785.887 3463.68L1720.68 2528.89C1720.45 2526.29 1720.22 2523.7 1719.97 2521.12Z" fill="#FFC42D"/>
<path d="M1723.98 2599.49L856.494 3466.98C858.326 3466.99 860.159 3466.99 861.994 3466.99C862.985 3466.99 863.976 3466.99 864.967 3466.99L1723.99 2607.97C1723.99 2606.98 1723.99 2605.99 1723.99 2604.99C1723.99 2603.16 1723.99 2601.33 1723.98 2599.49Z" fill="#FFC42D"/>
<path d="M1720.28 2685.58L942.584 3463.28C945.726 3462.99 948.862 3462.68 951.994 3462.35L1719.35 2694.99C1719.68 2691.86 1719.99 2688.73 1720.28 2685.58Z" fill="#FFC42D"/>
<path d="M1705.69 2782.56L1039.56 3448.69C1043.18 3447.93 1046.79 3447.15 1050.39 3446.34L1703.34 2793.39C1704.15 2789.79 1704.93 2786.18 1705.69 2782.56Z" fill="#FFC42D"/>
<path d="M1673.07 2897.57L1154.57 3416.07C1159.08 3414.45 1163.57 3412.78 1168.04 3411.08L1668.08 2911.04C1669.78 2906.57 1671.45 2902.08 1673.07 2897.57Z" fill="#FFC42D"/>
<path d="M1596.27 3056.76L1313.76 3339.27C1321.68 3334.38 1329.52 3329.37 1337.27 3324.24L1581.24 3080.27C1586.37 3072.52 1591.38 3064.68 1596.27 3056.76Z" fill="#FFC42D"/>
</g>
</svg>
