<svg width="200" height="11" viewBox="0 0 200 11" fill="none" xmlns="http://www.w3.org/2000/svg">
<path d="M145.579 10.8844H149.66V0H145.579V10.8844Z" fill="white"/>
<path fill-rule="evenodd" clip-rule="evenodd" d="M161.882 10.6622V0.0444566C162.602 0.0130299 184.795 0.0443981 191.994 0.0545727L194.206 0.0575178C201.931 0.0575178 201.931 10.6622 194.206 10.6622L192.458 10.6638C185.808 10.6706 162.618 10.6943 161.882 10.6622ZM166.279 2.00147V8.71822H192.45C196.703 8.71822 196.703 2.00147 192.45 2.00147H166.279Z" fill="white"/>
<path d="M7.3039 10.6642C13.3257 10.6698 34.9826 10.6898 35.7234 10.6574V8.71893H7.54002C5.68668 8.71893 4.36556 7.40846 4.36556 5.65389V0.0451744H0V5.79757C0 8.31404 2.47445 10.6629 5.78335 10.6629L7.3039 10.6642Z" fill="white"/>
<path d="M54.6999 10.6638L52.9561 10.6621C49.6472 10.6621 47.1727 8.31324 47.1727 5.79677V0.0443772H51.5394V5.6531C51.5394 7.40657 52.8583 8.71814 54.7116 8.71814H80.4528V0.0443772H84.8195V10.6621C84.084 10.6942 61.2842 10.6706 54.6999 10.6638Z" fill="white"/>
<path d="M103.626 10.6637C109.877 10.6692 132.897 10.6894 133.64 10.657V8.71848H103.919C99.6656 8.71848 99.6656 1.98759 103.919 1.98759H133.64V0.0490781C132.897 0.0166437 109.877 0.0368828 103.626 0.0423792C102.745 0.0431541 102.197 0.043636 102.091 0.043636C94.3656 0.043636 94.3656 10.6624 102.091 10.6624C102.197 10.6624 102.745 10.6629 103.626 10.6637Z" fill="white"/>
</svg>
