<svg width="132" height="132" viewBox="0 0 132 132" fill="none" xmlns="http://www.w3.org/2000/svg">
<g clip-path="url(#clip0_1547_8528)">
<path d="M81.7191 10.2989L86.0142 18.0474L20.6375 71.5574C19.1424 72.7838 18.1312 74.5009 17.7837 76.4031C17.4362 78.3053 17.7751 80.2691 18.7401 81.9449L27.3302 97.4418C28.2399 99.1481 29.7257 100.476 31.523 101.19C33.3203 101.903 35.3125 101.955 37.1447 101.337L46.2644 97.9159L53.0732 110.199C54.123 112.093 55.8823 113.493 57.964 114.09C60.0456 114.686 62.2792 114.432 64.1732 113.382L92.739 97.5478C94.6331 96.4979 96.0325 94.7386 96.6294 92.657C97.2263 90.5753 96.9718 88.3418 95.9219 86.4478L93.428 81.9486L117.01 73.965L121.305 81.7135L128.446 77.7549L88.8606 6.34032L81.7191 10.2989ZM88.7805 90.4063L60.2146 106.241L54.1382 95.2785L85.574 84.6217L88.7805 90.4063ZM34.3925 93.3404L25.8023 77.8435L90.0321 25.296L112.992 66.7164L34.3925 93.3404Z" fill="#022D40"/>
</g>
<defs>
<clipPath id="clip0_1547_8528">
<rect width="130.643" height="130.643" fill="white" transform="translate(0.478516 0.476562)"/>
</clipPath>
</defs>
</svg>
