<svg width="96" height="96" viewBox="0 0 96 96" fill="none" xmlns="http://www.w3.org/2000/svg">
<path d="M78.0051 87H77.4951C18.5451 83.61 10.1751 33.87 9.00514 18.69C8.91086 17.5097 9.0504 16.3225 9.41576 15.1962C9.78112 14.07 10.3651 13.0269 11.1343 12.1268C11.9035 11.2266 12.8427 10.4871 13.8982 9.95052C14.9536 9.41397 16.1046 9.09097 17.2851 9H33.8151C35.0168 8.99884 36.1911 9.35853 37.186 10.0325C38.1809 10.7064 38.9505 11.6636 39.3951 12.78L43.9551 24C44.3942 25.0906 44.5031 26.2862 44.2685 27.4383C44.0338 28.5903 43.4658 29.648 42.6351 30.48L36.2451 36.93C37.2433 42.6022 39.9597 47.831 44.0268 51.9089C48.094 55.9867 53.3155 58.7169 58.9851 59.73L65.4951 53.28C66.3396 52.4585 67.4073 51.9038 68.565 51.685C69.7227 51.4663 70.9191 51.5932 72.0051 52.05L83.3151 56.58C84.4147 57.0387 85.3528 57.8143 86.01 58.808C86.6671 59.8018 87.0136 60.9686 87.0051 62.16V78C87.0051 80.3869 86.0569 82.6761 84.3691 84.364C82.6813 86.0518 80.3921 87 78.0051 87ZM18.0051 15C17.2095 15 16.4464 15.3161 15.8838 15.8787C15.3212 16.4413 15.0051 17.2044 15.0051 18V18.24C16.3851 36 25.2351 78 77.8251 81C78.2193 81.0244 78.6143 80.9707 78.9876 80.842C79.361 80.7134 79.7052 80.5123 80.0007 80.2503C80.2961 79.9883 80.5369 79.6705 80.7093 79.3153C80.8817 78.96 80.9822 78.5742 81.0051 78.18V62.16L69.6951 57.63L61.0851 66.18L59.6451 66C33.5451 62.73 30.0051 36.63 30.0051 36.36L29.8251 34.92L38.3451 26.31L33.8451 15H18.0051Z" fill="black"/>
</svg>
