<svg width="73" height="73" viewBox="0 0 73 73" fill="none" xmlns="http://www.w3.org/2000/svg">
<path d="M36.5 4.5625C30.1834 4.5625 24.0086 6.4356 18.7565 9.94494C13.5044 13.4543 9.41089 18.4422 6.99361 24.278C4.57634 30.1139 3.94387 36.5354 5.17618 42.7307C6.4085 48.926 9.45025 54.6167 13.9168 59.0832C18.3833 63.5498 24.0741 66.5915 30.2693 67.8238C36.4646 69.0561 42.8862 68.4237 48.722 66.0064C54.5578 63.5891 59.5457 59.4956 63.0551 54.2435C66.5644 48.9914 68.4375 42.8166 68.4375 36.5C68.4375 28.0296 65.0727 19.9062 59.0832 13.9168C53.0938 7.92733 44.9704 4.5625 36.5 4.5625ZM36.5 57.0312C35.8232 57.0312 35.1616 56.8306 34.5989 56.4546C34.0362 56.0786 33.5976 55.5441 33.3386 54.9189C33.0796 54.2936 33.0119 53.6056 33.1439 52.9418C33.2759 52.278 33.6018 51.6683 34.0804 51.1897C34.5589 50.7112 35.1687 50.3853 35.8324 50.2533C36.4962 50.1212 37.1842 50.189 37.8095 50.448C38.4348 50.707 38.9692 51.1456 39.3452 51.7083C39.7212 52.271 39.9219 52.9326 39.9219 53.6094C39.9219 54.5169 39.5614 55.3873 38.9196 56.029C38.2779 56.6707 37.4076 57.0312 36.5 57.0312ZM39.1054 39.3424V45.0488H33.9726V34.2188H38.8203C40.258 34.2188 41.6368 33.6476 42.6535 32.631C43.6701 31.6144 44.2412 30.2355 44.2412 28.7978C44.2412 27.3601 43.6701 25.9813 42.6535 24.9646C41.6368 23.948 40.258 23.3769 38.8203 23.3769H35.3984C33.962 23.3785 32.5848 23.9499 31.5691 24.9656C30.5534 25.9813 29.9821 27.3584 29.9804 28.7949V30.2494H24.8476V28.7946C24.851 25.998 25.9639 23.317 27.942 21.34C29.9201 19.3631 32.6018 18.2517 35.3984 18.25H38.8203C41.5944 18.2479 44.2577 19.3389 46.2333 21.2865C48.2089 23.2341 49.3377 25.8815 49.3752 28.6555C49.4127 31.4294 48.3559 34.1064 46.4337 36.1067C44.5115 38.107 41.8786 39.2695 39.1054 39.3424Z" fill="#022D40"/>
</svg>
