<svg width="52" height="52" viewBox="0 0 52 52" fill="none" xmlns="http://www.w3.org/2000/svg">
<g clip-path="url(#clip0_1733_8963)">
<path d="M45.6561 36.901C47.5376 33.5333 48.5255 29.74 48.5255 25.8823C48.5255 22.0247 47.5376 18.2313 45.6561 14.8636L45.9602 14.5595C46.5659 13.9524 46.9061 13.1298 46.9061 12.2722C46.9061 11.4146 46.5659 10.5921 45.9602 9.98496L41.7777 5.802C41.1704 5.19642 40.3478 4.85635 39.4902 4.85635C38.6326 4.85635 37.81 5.19642 37.2027 5.802L36.8991 6.10528C33.5312 4.22401 29.7378 3.23633 25.8801 3.23633C22.0225 3.23633 18.229 4.22401 14.8612 6.10528L14.5571 5.802C13.9499 5.19626 13.1272 4.85609 12.2696 4.85609C11.4119 4.85609 10.5892 5.19626 9.98204 5.802L5.79957 9.98496C5.19386 10.5921 4.8537 11.4146 4.8537 12.2722C4.8537 13.1298 5.19386 13.9524 5.79957 14.5595L6.10334 14.8628C4.22205 18.2309 3.23438 22.0245 3.23438 25.8823C3.23438 29.7402 4.22205 33.5338 6.10334 36.9018L5.79957 37.2051C5.19386 37.8122 4.8537 38.6348 4.8537 39.4924C4.8537 40.35 5.19386 41.1726 5.79957 41.7797L9.98204 45.9626C10.5892 46.5685 11.4119 46.9087 12.2696 46.9087C13.1273 46.9087 13.95 46.5685 14.5571 45.9626L14.8612 45.6585C18.229 47.5399 22.0224 48.5278 25.88 48.5279C29.7377 48.528 33.5312 47.5405 36.8991 45.6594L37.2027 45.9626C37.8098 46.5685 38.6325 46.9087 39.4902 46.9087C40.3479 46.9087 41.1706 46.5685 41.7777 45.9626L45.9602 41.7797C46.5659 41.1726 46.9061 40.35 46.9061 39.4924C46.9061 38.6348 46.5659 37.8122 45.9602 37.2051L45.6561 36.901ZM45.2904 25.8823C45.2894 28.8751 44.5947 31.827 43.261 34.5062L36.961 28.2059C37.2832 26.6736 37.2832 25.091 36.961 23.5587L43.261 17.2584C44.5947 19.9376 45.2894 22.8895 45.2904 25.8823ZM43.6728 12.2722L35.6909 20.2541C34.6895 18.516 33.2469 17.0731 31.5089 16.0713L39.4904 8.08936L43.6728 12.2722ZM25.8799 33.97C24.2803 33.97 22.7166 33.4957 21.3866 32.607C20.0566 31.7183 19.02 30.4552 18.4078 28.9774C17.7957 27.4995 17.6355 25.8733 17.9476 24.3045C18.2596 22.7356 19.0299 21.2945 20.161 20.1634C21.2921 19.0324 22.7332 18.2621 24.3021 17.95C25.8709 17.6379 27.4971 17.7981 28.9749 18.4102C30.4528 19.0224 31.7159 20.059 32.6046 21.389C33.4933 22.719 33.9676 24.2827 33.9676 25.8823C33.9652 28.0266 33.1123 30.0823 31.5961 31.5985C30.0799 33.1147 28.0241 33.9676 25.8799 33.97ZM34.4778 8.52691L28.2035 14.8012C26.6712 14.479 25.0886 14.479 23.5563 14.8012L17.282 8.52691C19.9641 7.23497 22.9029 6.56408 25.8799 6.56408C28.8569 6.56408 31.7957 7.23497 34.4778 8.52691ZM12.2697 8.08936L20.2517 16.0713C18.5135 17.073 17.0706 18.5159 16.0689 20.2541L8.08693 12.2722L12.2697 8.08936ZM6.46939 25.8823C6.47043 22.8897 7.16506 19.938 8.49876 17.259L14.7988 23.5587C14.4765 25.091 14.4765 26.6736 14.7988 28.2059L8.49876 34.5056C7.16506 31.8266 6.47043 28.8749 6.46939 25.8823ZM12.2694 43.6753L8.08693 39.4925L16.0689 31.5114C17.0705 33.2496 18.5134 34.6925 20.2517 35.6942L12.2694 43.6753ZM17.282 43.2385L23.5563 36.9643C25.0886 37.2865 26.6712 37.2865 28.2035 36.9643L34.4778 43.2385C31.7957 44.5305 28.8569 45.2014 25.8799 45.2014C22.9029 45.2014 19.9641 44.5305 17.282 43.2385ZM39.4909 43.6753L31.5089 35.6934C33.2467 34.6917 34.6893 33.2491 35.6909 31.5114L43.6728 39.4925L39.4909 43.6753Z" fill="white"/>
</g>
<defs>
<clipPath id="clip0_1733_8963">
<rect width="51.7613" height="51.7613" fill="white"/>
</clipPath>
</defs>
</svg>
