<svg width="77" height="77" viewBox="0 0 77 77" fill="none" xmlns="http://www.w3.org/2000/svg">
<path d="M63.7656 47.2348L48.7025 38.5001L63.7656 29.7654C65.8583 28.5872 67.5505 26.8098 68.6244 24.6618C69.6983 22.5138 70.1049 20.0936 69.7917 17.7126C69.4786 15.3316 68.4601 13.0988 66.8672 11.3016C65.2744 9.50432 63.1802 8.22487 60.8541 7.62789C59.8406 7.36186 58.7978 7.22442 57.75 7.21882C55.6275 7.21146 53.5407 7.76574 51.7016 8.82543C49.8625 9.88512 48.3365 11.4125 47.2784 13.2525C46.2204 15.0925 45.6679 17.1797 45.6771 19.3023C45.6863 21.4248 46.2569 23.5071 47.3309 25.3379C48.6466 27.6035 50.6658 29.3777 53.0819 30.391L43.89 35.7088L9.625 15.8813L7.21875 20.0682L39.0775 38.5001L7.21875 56.9801L9.625 61.167L43.89 41.2913L53.0819 46.6091C50.6658 47.6224 48.6466 49.3967 47.3309 51.6623C46.2569 53.493 45.6863 55.5753 45.6771 57.6979C45.6679 59.8204 46.2204 61.9076 47.2784 63.7476C48.3365 65.5877 49.8625 67.115 51.7016 68.1747C53.5407 69.2344 55.6275 69.7887 57.75 69.7813C58.7978 69.7757 59.8406 69.6383 60.8541 69.3723C63.1802 68.7753 65.2744 67.4958 66.8672 65.6986C68.4601 63.9013 69.4786 61.6685 69.7917 59.2875C70.1049 56.9066 69.6983 54.4863 68.6244 52.3383C67.5505 50.1904 65.8583 48.4129 63.7656 47.2348ZM51.4937 22.9316C51.0117 22.1082 50.6977 21.1973 50.5698 20.2517C50.442 19.3061 50.503 18.3445 50.7491 17.4226C50.9952 16.5007 51.4217 15.6367 52.0038 14.8807C52.586 14.1246 53.3123 13.4915 54.1406 13.0179C54.9635 12.5444 55.8717 12.2378 56.8132 12.1158C57.7548 11.9937 58.7111 12.0586 59.6275 12.3067C60.5439 12.5548 61.4024 12.9813 62.1538 13.5616C62.9051 14.142 63.5346 14.8648 64.0063 15.6888C64.4845 16.5113 64.7955 17.4202 64.9213 18.3633C65.0471 19.3063 64.9852 20.265 64.7393 21.1841C64.4933 22.1031 64.068 22.9645 63.488 23.7187C62.9079 24.4728 62.1845 25.1049 61.3594 25.5785C60.5379 26.053 59.631 26.361 58.6905 26.4848C57.7499 26.6086 56.7942 26.5457 55.8779 26.2999C54.9617 26.0541 54.1029 25.6301 53.3506 25.0521C52.5983 24.4742 51.9674 23.7536 51.4937 22.9316ZM64.0063 61.4316C63.5346 62.2556 62.9051 62.9785 62.1538 63.5588C61.4024 64.1392 60.5439 64.5656 59.6275 64.8137C58.7111 65.0618 57.7548 65.1267 56.8132 65.0047C55.8717 64.8827 54.9635 64.5761 54.1406 64.1026C53.3123 63.629 52.586 62.9958 52.0038 62.2398C51.4217 61.4837 50.9952 60.6198 50.7491 59.6979C50.503 58.7759 50.442 57.8144 50.5698 56.8688C50.6977 55.9232 51.0117 55.0123 51.4937 54.1888C51.9674 53.3669 52.5983 52.6463 53.3506 52.0683C54.1029 51.4904 54.9617 51.0664 55.8779 50.8205C56.7942 50.5747 57.7499 50.5119 58.6905 50.6357C59.631 50.7595 60.5379 51.0674 61.3594 51.542C62.9935 52.4979 64.1867 54.0577 64.6818 55.885C65.1769 57.7124 64.9343 59.6611 64.0063 61.3113V61.4316Z" fill="#022D40"/>
</svg>
