<svg width="126" height="126" viewBox="0 0 126 126" fill="none" xmlns="http://www.w3.org/2000/svg">
<rect x="0.75" y="0.75" width="123.9" height="123.9" rx="61.95" fill="#FFC42D" fill-opacity="0.1"/>
<rect x="0.75" y="0.75" width="123.9" height="123.9" rx="61.95" stroke="#FFC42D" stroke-width="1.5"/>
<path d="M50.487 69.8L45.237 58.4L49.887 56.45L55.137 67.55" stroke="white" stroke-width="0.9"/>
<path d="M35.787 99.2L44.787 85.7L46.137 73.4L49.287 68.15" stroke="white" stroke-width="0.9"/>
<path d="M46.437 72.8L53.037 67.85H60.387L61.287 71H54.837L52.137 74.45L55.587 71.45H60.387L60.837 71.9L60.987 74.3L60.537 74.6H56.337L53.037 77.15L56.487 75.35L60.687 75.2L61.287 75.65V77.6L60.687 78.05H57.387L53.937 80.75L57.387 78.8H60.687L61.287 79.1L60.987 81.05H59.337L56.037 83.75C55.6545 87.445 55.045 89.0443 53.037 90.8L48.387 103.7" stroke="white" stroke-width="0.9"/>
<path d="M55.887 86L61.587 83.15L60.387 81.05" stroke="white" stroke-width="0.9"/>
<path d="M45.387 58.4L41.637 54.95L44.787 55.4L43.437 50.45L47.187 54.05L47.787 49.55L49.137 54.05L50.187 52.1V56.15" stroke="white" stroke-width="0.9"/>
<path d="M45.087 58.2497C45.9359 55.1575 46.9473 54.7142 49.737 56.2997" stroke="white" stroke-width="0.9"/>
<path d="M39.3869 53.45C40.4606 56.7522 41.5055 58.0722 44.9369 58.55L50.1869 56.6C51.9093 55.6694 51.9747 54.7222 51.3869 52.7C55.287 52.7 57.237 49.85 56.3369 45.5C59.0631 45.1294 59.4747 43.925 59.3369 41C61.0385 41.9666 61.8976 41.6049 63.3869 40.55C65.7689 42.7628 68.937 41.9 69.9869 39.2C71.937 40.55 74.787 39.5 73.5869 37.4C77.037 34.55 74.337 29.6 69.6869 31.85C69.6869 28.85 64.137 27.95 62.6369 30.05C59.3369 28.2501 55.437 28.7002 53.6369 31.85C48.837 29.6 43.587 32.15 44.6369 37.85C40.287 36.2 35.787 39.2 36.6869 44.45C32.037 45.8 33.387 54.95 39.3869 53.45Z" stroke="white" stroke-width="0.9"/>
<path d="M78.837 30.0502C75.8369 31.2502 76.8869 35.2998 79.737 33.6502C83.2326 35.6848 84.387 33.5003 84.237 31.2502C84.087 29 82.2573 27.6916 78.837 30.0502Z" stroke="white" stroke-width="0.9"/>
<path d="M77.9369 40.8501C77.187 39.5001 77.8299 37.7284 81.6869 37.7001C81.6869 37.7001 82.4369 37.4001 82.1369 39.0501C81.837 40.7001 78.6869 42.2001 77.9369 40.8501Z" stroke="white" stroke-width="0.9"/>
<path d="M89.3368 33.5C87.9866 33.8 86.4285 34.2342 87.0868 36.2C87.0868 36.2 87.5369 38.0002 89.3368 37.55C91.1367 37.0999 92.037 35.3001 91.5868 34.55C91.1366 33.8 90.687 33.2001 89.3368 33.5Z" stroke="white" stroke-width="0.9"/>
</svg>
