<svg width="687" height="687" viewBox="0 0 687 687" fill="none" xmlns="http://www.w3.org/2000/svg">
<circle cx="343.5" cy="343.5" r="342.49" stroke="black" stroke-width="2.02"/>
<circle cx="343.5" cy="343.5" r="227.49" stroke="black" stroke-width="2.02"/>
<circle cx="343.5" cy="343.5" r="105.49" stroke="black" stroke-width="2.02"/>
<path d="M311.552 345.536H296.998V358H294.718V331.476H296.998V343.522H311.552V331.476H313.832V358H311.552V345.536ZM331.058 358.456C327.663 358.456 325.003 357.303 323.078 354.998C321.153 352.667 320.19 349.247 320.19 344.738C320.19 340.229 321.153 336.821 323.078 334.516C325.003 332.185 327.663 331.02 331.058 331.02C334.427 331.02 337.075 332.185 339 334.516C340.925 336.847 341.888 340.254 341.888 344.738C341.888 349.222 340.925 352.629 339 354.96C337.075 357.291 334.427 358.456 331.058 358.456ZM331.058 356.404C332.325 356.404 333.465 356.189 334.478 355.758C335.517 355.302 336.403 354.643 337.138 353.782C337.873 352.921 338.443 351.869 338.848 350.628C339.253 349.387 339.456 347.981 339.456 346.41V343.066C339.456 341.495 339.253 340.089 338.848 338.848C338.443 337.607 337.873 336.568 337.138 335.732C336.403 334.871 335.517 334.212 334.478 333.756C333.465 333.3 332.325 333.072 331.058 333.072C329.791 333.072 328.639 333.3 327.6 333.756C326.561 334.212 325.675 334.871 324.94 335.732C324.205 336.568 323.635 337.607 323.23 338.848C322.825 340.089 322.622 341.495 322.622 343.066V346.41C322.622 347.981 322.825 349.387 323.23 350.628C323.635 351.869 324.205 352.921 324.94 353.782C325.675 354.643 326.561 355.302 327.6 355.758C328.639 356.189 329.791 356.404 331.058 356.404ZM369.073 334.402H368.921L359.763 350.628L350.605 334.402H350.453V358H348.249V331.476H351.365L359.763 346.41H359.877L368.275 331.476H371.277V358H369.073V334.402ZM378.986 358V331.476H394.49V333.49H381.266V343.522H393.844V345.536H381.266V355.986H394.49V358H378.986Z" fill="black"/>
<path d="M78.2831 241.337L78.2833 241.338L103.514 261.004L101.921 263.019L99.1824 260.884L98.375 260.255V261.278V283.311C98.3735 284.123 98.0503 284.902 97.4761 285.476C96.9019 286.05 96.1236 286.373 95.3116 286.375H59.6885C58.8765 286.373 58.0983 286.05 57.5241 285.476C56.9501 284.902 56.6268 284.124 56.625 283.312V261.262V260.238L55.8176 260.868L53.079 263.003L51.4857 260.988L76.6846 241.338L76.6847 241.337C76.913 241.159 77.1943 241.062 77.4839 241.062C77.7735 241.062 78.0548 241.159 78.2831 241.337ZM81.0625 283.812H81.5625V283.312V269.062V268.562H81.0625H73.9375H73.4375V269.062V283.312V283.812H73.9375H81.0625ZM84.125 283.312V283.812H84.625H95.3125H95.8125V283.312V258.503V258.259L95.62 258.109L77.8075 244.214L77.5002 243.975L77.1927 244.214L59.3802 258.09L59.1875 258.24V258.484V283.312V283.812H59.6875H70.375H70.875V283.312V269.063C70.8758 268.251 71.1988 267.472 71.773 266.898C72.3473 266.324 73.1259 266.001 73.938 266H81.0619C81.874 266.001 82.6526 266.324 83.2268 266.898C83.8011 267.472 84.1241 268.251 84.125 269.063V283.312Z" fill="black" stroke="white"/>
<path d="M258.283 476.337L258.283 476.338L283.514 496.004L281.921 498.019L279.182 495.884L278.375 495.255V496.278V518.311C278.374 519.123 278.05 519.902 277.476 520.476C276.902 521.05 276.124 521.373 275.312 521.375H239.689C238.877 521.373 238.098 521.05 237.524 520.476C236.95 519.902 236.627 519.124 236.625 518.312V496.262V495.238L235.818 495.868L233.079 498.003L231.486 495.988L256.685 476.338L256.685 476.337C256.913 476.159 257.194 476.062 257.484 476.062C257.773 476.062 258.055 476.159 258.283 476.337ZM261.062 518.812H261.562V518.312V504.062V503.562H261.062H253.938H253.438V504.062V518.312V518.812H253.938H261.062ZM264.125 518.312V518.812H264.625H275.312H275.812V518.312V493.503V493.259L275.62 493.109L257.808 479.214L257.5 478.975L257.193 479.214L239.38 493.09L239.188 493.24V493.484V518.312V518.812H239.688H250.375H250.875V518.312V504.063C250.876 503.251 251.199 502.472 251.773 501.898C252.347 501.324 253.126 501.001 253.938 501H261.062C261.874 501.001 262.653 501.324 263.227 501.898C263.801 502.472 264.124 503.251 264.125 504.063V518.312Z" fill="black" stroke="white"/>
<path d="M345.283 169.337L345.283 169.338L370.514 189.004L368.921 191.019L366.182 188.884L365.375 188.255V189.278V211.311C365.374 212.123 365.05 212.902 364.476 213.476C363.902 214.05 363.124 214.373 362.312 214.375H326.689C325.877 214.373 325.098 214.05 324.524 213.476C323.95 212.902 323.627 212.124 323.625 211.312V189.262V188.238L322.818 188.868L320.079 191.003L318.486 188.988L343.685 169.338L343.685 169.337C343.913 169.159 344.194 169.062 344.484 169.062C344.773 169.062 345.055 169.159 345.283 169.337ZM348.062 211.812H348.562V211.312V197.062V196.562H348.062H340.938H340.438V197.062V211.312V211.812H340.938H348.062ZM351.125 211.312V211.812H351.625H362.312H362.812V211.312V186.503V186.259L362.62 186.109L344.808 172.214L344.5 171.975L344.193 172.214L326.38 186.09L326.188 186.24V186.484V211.312V211.812H326.688H337.375H337.875V211.312V197.063C337.876 196.251 338.199 195.472 338.773 194.898C339.347 194.324 340.126 194.001 340.938 194H348.062C348.874 194.001 349.653 194.324 350.227 194.898C350.801 195.472 351.124 196.251 351.125 197.063V211.312Z" fill="black" stroke="white"/>
<path d="M572.283 169.337L572.283 169.338L597.514 189.004L595.921 191.019L593.182 188.884L592.375 188.255V189.278V211.311C592.374 212.123 592.05 212.902 591.476 213.476C590.902 214.05 590.124 214.373 589.312 214.375H553.689C552.877 214.373 552.098 214.05 551.524 213.476C550.95 212.902 550.627 212.124 550.625 211.312V189.262V188.238L549.818 188.868L547.079 191.003L545.486 188.988L570.685 169.338L570.685 169.337C570.913 169.159 571.194 169.062 571.484 169.062C571.773 169.062 572.055 169.159 572.283 169.337ZM575.062 211.812H575.562V211.312V197.062V196.562H575.062H567.938H567.438V197.062V211.312V211.812H567.938H575.062ZM578.125 211.312V211.812H578.625H589.312H589.812V211.312V186.503V186.259L589.62 186.109L571.808 172.214L571.5 171.975L571.193 172.214L553.38 186.09L553.188 186.24V186.484V211.312V211.812H553.688H564.375H564.875V211.312V197.063C564.876 196.251 565.199 195.472 565.773 194.898C566.347 194.324 567.126 194.001 567.938 194H575.062C575.874 194.001 576.653 194.324 577.227 194.898C577.801 195.472 578.124 196.251 578.125 197.063V211.312Z" fill="black" stroke="white"/>
<path d="M533.283 554.337L533.283 554.338L558.514 574.004L556.921 576.019L554.182 573.884L553.375 573.255V574.278V596.311C553.374 597.123 553.05 597.902 552.476 598.476C551.902 599.05 551.124 599.373 550.312 599.375H514.689C513.877 599.373 513.098 599.05 512.524 598.476C511.95 597.902 511.627 597.124 511.625 596.312V574.262V573.238L510.818 573.868L508.079 576.003L506.486 573.988L531.685 554.338L531.685 554.337C531.913 554.159 532.194 554.062 532.484 554.062C532.773 554.062 533.055 554.159 533.283 554.337ZM536.062 596.812H536.562V596.312V582.062V581.562H536.062H528.938H528.438V582.062V596.312V596.812H528.938H536.062ZM539.125 596.312V596.812H539.625H550.312H550.812V596.312V571.503V571.259L550.62 571.109L532.808 557.214L532.5 556.975L532.193 557.214L514.38 571.09L514.188 571.24V571.484V596.312V596.812H514.688H525.375H525.875V596.312V582.063C525.876 581.251 526.199 580.472 526.773 579.898C527.347 579.324 528.126 579.001 528.938 579H536.062C536.874 579.001 537.653 579.324 538.227 579.898C538.801 580.472 539.124 581.251 539.125 582.063V596.312Z" fill="black" stroke="white"/>
<path d="M506.283 341.337L506.283 341.338L531.514 361.004L529.921 363.019L527.182 360.884L526.375 360.255V361.278V383.311C526.374 384.123 526.05 384.902 525.476 385.476C524.902 386.05 524.124 386.373 523.312 386.375H487.689C486.877 386.373 486.098 386.05 485.524 385.476C484.95 384.902 484.627 384.124 484.625 383.312V361.262V360.238L483.818 360.868L481.079 363.003L479.486 360.988L504.685 341.338L504.685 341.337C504.913 341.159 505.194 341.062 505.484 341.062C505.773 341.062 506.055 341.159 506.283 341.337ZM509.062 383.812H509.562V383.312V369.062V368.562H509.062H501.938H501.438V369.062V383.312V383.812H501.938H509.062ZM512.125 383.312V383.812H512.625H523.312H523.812V383.312V358.503V358.259L523.62 358.109L505.808 344.214L505.5 343.975L505.193 344.214L487.38 358.09L487.188 358.24V358.484V383.312V383.812H487.688H498.375H498.875V383.312V369.063C498.876 368.251 499.199 367.472 499.773 366.898C500.347 366.324 501.126 366.001 501.938 366H509.062C509.874 366.001 510.653 366.324 511.227 366.898C511.801 367.472 512.124 368.251 512.125 369.063V383.312Z" fill="black" stroke="white"/>
<path d="M260.283 611.337L260.283 611.338L285.514 631.004L283.921 633.019L281.182 630.884L280.375 630.255V631.278V653.311C280.374 654.123 280.05 654.902 279.476 655.476C278.902 656.05 278.124 656.373 277.312 656.375H241.689C240.877 656.373 240.098 656.05 239.524 655.476C238.95 654.902 238.627 654.124 238.625 653.312V631.262V630.238L237.818 630.868L235.079 633.003L233.486 630.988L258.685 611.338L258.685 611.337C258.913 611.159 259.194 611.062 259.484 611.062C259.773 611.062 260.055 611.159 260.283 611.337ZM263.062 653.812H263.562V653.312V639.062V638.562H263.062H255.938H255.438V639.062V653.312V653.812H255.938H263.062ZM266.125 653.312V653.812H266.625H277.312H277.812V653.312V628.503V628.259L277.62 628.109L259.808 614.214L259.5 613.975L259.193 614.214L241.38 628.09L241.188 628.24V628.484V653.312V653.812H241.688H252.375H252.875V653.312V639.063C252.876 638.251 253.199 637.472 253.773 636.898C254.347 636.324 255.126 636.001 255.938 636H263.062C263.874 636.001 264.653 636.324 265.227 636.898C265.801 637.472 266.124 638.251 266.125 639.063V653.312Z" fill="black" stroke="white"/>
<path d="M106.994 303.003C107.315 303.452 107.94 303.555 108.389 303.234C108.838 302.912 108.941 302.287 108.62 301.838L106.994 303.003ZM114.234 309.679C113.912 309.23 113.287 309.127 112.838 309.448C112.389 309.77 112.286 310.394 112.607 310.843L114.234 309.679ZM118.221 318.684C118.542 319.133 119.167 319.237 119.616 318.915C120.065 318.594 120.169 317.969 119.847 317.52L118.221 318.684ZM125.461 325.361C125.139 324.912 124.515 324.809 124.066 325.13C123.617 325.452 123.513 326.076 123.835 326.525L125.461 325.361ZM129.448 334.366C129.77 334.815 130.394 334.919 130.843 334.597C131.293 334.276 131.396 333.651 131.074 333.202L129.448 334.366ZM136.688 341.043C136.367 340.594 135.742 340.49 135.293 340.812C134.844 341.133 134.74 341.758 135.062 342.207L136.688 341.043ZM140.676 350.048C140.997 350.497 141.622 350.601 142.071 350.279C142.52 349.958 142.623 349.333 142.302 348.884L140.676 350.048ZM147.915 356.725C147.594 356.276 146.969 356.172 146.52 356.494C146.071 356.815 145.968 357.44 146.289 357.889L147.915 356.725ZM151.903 365.73C152.224 366.179 152.849 366.282 153.298 365.961C153.747 365.639 153.851 365.015 153.529 364.566L151.903 365.73ZM159.143 372.407C158.821 371.957 158.196 371.854 157.747 372.176C157.298 372.497 157.195 373.122 157.516 373.571L159.143 372.407ZM163.13 381.412C163.452 381.861 164.076 381.964 164.525 381.643C164.974 381.321 165.078 380.696 164.756 380.247L163.13 381.412ZM170.37 388.088C170.048 387.639 169.424 387.536 168.975 387.857C168.526 388.179 168.422 388.804 168.744 389.253L170.37 388.088ZM174.357 397.094C174.679 397.543 175.304 397.646 175.753 397.324C176.202 397.003 176.305 396.378 175.984 395.929L174.357 397.094ZM181.597 403.77C181.276 403.321 180.651 403.218 180.202 403.539C179.753 403.861 179.65 404.485 179.971 404.934L181.597 403.77ZM185.585 412.775C185.906 413.224 186.531 413.328 186.98 413.006C187.429 412.685 187.532 412.06 187.211 411.611L185.585 412.775ZM192.824 419.452C192.503 419.003 191.878 418.9 191.429 419.221C190.98 419.543 190.877 420.167 191.198 420.616L192.824 419.452ZM196.812 428.457C197.133 428.906 197.758 429.01 198.207 428.688C198.656 428.367 198.76 427.742 198.438 427.293L196.812 428.457ZM204.052 435.134C203.73 434.685 203.106 434.581 202.657 434.903C202.207 435.224 202.104 435.849 202.426 436.298L204.052 435.134ZM208.039 444.139C208.361 444.588 208.985 444.691 209.434 444.37C209.883 444.048 209.987 443.424 209.665 442.975L208.039 444.139ZM215.279 450.816C214.958 450.367 214.333 450.263 213.884 450.585C213.435 450.906 213.331 451.531 213.653 451.98L215.279 450.816ZM219.266 459.821C219.588 460.27 220.213 460.373 220.662 460.052C221.111 459.73 221.214 459.106 220.893 458.657L219.266 459.821ZM226.506 466.497C226.185 466.048 225.56 465.945 225.111 466.266C224.662 466.588 224.559 467.213 224.88 467.662L226.506 466.497ZM104.187 299.082L106.994 303.003L108.62 301.838L105.813 297.918L104.187 299.082ZM112.607 310.843L118.221 318.684L119.847 317.52L114.234 309.679L112.607 310.843ZM123.835 326.525L129.448 334.366L131.074 333.202L125.461 325.361L123.835 326.525ZM135.062 342.207L140.676 350.048L142.302 348.884L136.688 341.043L135.062 342.207ZM146.289 357.889L151.903 365.73L153.529 364.566L147.915 356.725L146.289 357.889ZM157.516 373.571L163.13 381.412L164.756 380.247L159.143 372.407L157.516 373.571ZM168.744 389.253L174.357 397.094L175.984 395.929L170.37 388.088L168.744 389.253ZM179.971 404.934L185.585 412.775L187.211 411.611L181.597 403.77L179.971 404.934ZM191.198 420.616L196.812 428.457L198.438 427.293L192.824 419.452L191.198 420.616ZM202.426 436.298L208.039 444.139L209.665 442.975L204.052 435.134L202.426 436.298ZM213.653 451.98L219.266 459.821L220.893 458.657L215.279 450.816L213.653 451.98ZM224.88 467.662L227.687 471.582L229.313 470.418L226.506 466.497L224.88 467.662Z" fill="#BCBCBC"/>
<path d="M106.022 303.923C106.24 304.431 106.827 304.666 107.335 304.449C107.843 304.231 108.078 303.643 107.86 303.135L106.022 303.923ZM111.743 312.194C111.525 311.687 110.937 311.452 110.43 311.669C109.922 311.887 109.687 312.475 109.904 312.982L111.743 312.194ZM113.787 322.041C114.004 322.549 114.592 322.784 115.1 322.566C115.607 322.349 115.843 321.761 115.625 321.253L113.787 322.041ZM119.507 330.312C119.29 329.804 118.702 329.569 118.194 329.787C117.687 330.004 117.452 330.592 117.669 331.1L119.507 330.312ZM121.551 340.159C121.769 340.666 122.357 340.901 122.865 340.684C123.372 340.466 123.607 339.878 123.39 339.371L121.551 340.159ZM127.272 348.43C127.055 347.922 126.467 347.687 125.959 347.904C125.451 348.122 125.216 348.71 125.434 349.217L127.272 348.43ZM129.316 358.276C129.534 358.784 130.122 359.019 130.629 358.801C131.137 358.584 131.372 357.996 131.154 357.488L129.316 358.276ZM135.037 366.547C134.819 366.04 134.231 365.804 133.724 366.022C133.216 366.24 132.981 366.827 133.199 367.335L135.037 366.547ZM137.081 376.394C137.298 376.902 137.886 377.137 138.394 376.919C138.902 376.702 139.137 376.114 138.919 375.606L137.081 376.394ZM142.801 384.665C142.584 384.157 141.996 383.922 141.488 384.14C140.981 384.357 140.746 384.945 140.963 385.453L142.801 384.665ZM144.846 394.512C145.063 395.019 145.651 395.254 146.159 395.037C146.666 394.819 146.901 394.231 146.684 393.724L144.846 394.512ZM150.566 402.783C150.349 402.275 149.761 402.04 149.253 402.257C148.746 402.475 148.51 403.063 148.728 403.57L150.566 402.783ZM152.61 412.629C152.828 413.137 153.416 413.372 153.923 413.154C154.431 412.937 154.666 412.349 154.449 411.841L152.61 412.629ZM158.331 420.9C158.113 420.393 157.525 420.157 157.018 420.375C156.51 420.593 156.275 421.18 156.493 421.688L158.331 420.9ZM160.375 430.747C160.593 431.254 161.18 431.49 161.688 431.272C162.196 431.055 162.431 430.467 162.213 429.959L160.375 430.747ZM166.096 439.018C165.878 438.51 165.29 438.275 164.783 438.493C164.275 438.71 164.04 439.298 164.257 439.806L166.096 439.018ZM168.14 448.865C168.357 449.372 168.945 449.607 169.453 449.39C169.96 449.172 170.196 448.584 169.978 448.077L168.14 448.865ZM173.86 457.136C173.643 456.628 173.055 456.393 172.547 456.61C172.04 456.828 171.804 457.416 172.022 457.923L173.86 457.136ZM175.904 466.982C176.122 467.49 176.71 467.725 177.217 467.507C177.725 467.29 177.96 466.702 177.743 466.194L175.904 466.982ZM181.625 475.253C181.407 474.746 180.82 474.51 180.312 474.728C179.804 474.945 179.569 475.533 179.787 476.041L181.625 475.253ZM183.669 485.1C183.887 485.607 184.475 485.843 184.982 485.625C185.49 485.407 185.725 484.82 185.507 484.312L183.669 485.1ZM189.39 493.371C189.172 492.863 188.584 492.628 188.077 492.846C187.569 493.063 187.334 493.651 187.551 494.159L189.39 493.371ZM191.434 503.217C191.651 503.725 192.239 503.96 192.747 503.743C193.255 503.525 193.49 502.937 193.272 502.43L191.434 503.217ZM197.154 511.488C196.937 510.981 196.349 510.746 195.841 510.963C195.334 511.181 195.099 511.769 195.316 512.276L197.154 511.488ZM199.199 521.335C199.416 521.843 200.004 522.078 200.512 521.86C201.019 521.643 201.254 521.055 201.037 520.547L199.199 521.335ZM204.919 529.606C204.702 529.099 204.114 528.863 203.606 529.081C203.098 529.298 202.863 529.886 203.081 530.394L204.919 529.606ZM206.963 539.453C207.181 539.96 207.769 540.196 208.276 539.978C208.784 539.76 209.019 539.173 208.802 538.665L206.963 539.453ZM212.684 547.724C212.466 547.216 211.878 546.981 211.371 547.199C210.863 547.416 210.628 548.004 210.846 548.512L212.684 547.724ZM214.728 557.57C214.946 558.078 215.533 558.313 216.041 558.096C216.549 557.878 216.784 557.29 216.566 556.783L214.728 557.57ZM220.449 565.841C220.231 565.334 219.643 565.099 219.136 565.316C218.628 565.534 218.393 566.122 218.61 566.629L220.449 565.841ZM222.493 575.688C222.71 576.196 223.298 576.431 223.806 576.213C224.313 575.996 224.549 575.408 224.331 574.9L222.493 575.688ZM228.213 583.959C227.996 583.451 227.408 583.216 226.9 583.434C226.393 583.651 226.157 584.239 226.375 584.747L228.213 583.959ZM230.257 593.806C230.475 594.313 231.063 594.549 231.57 594.331C232.078 594.113 232.313 593.526 232.096 593.018L230.257 593.806ZM235.978 602.077C235.76 601.569 235.173 601.334 234.665 601.552C234.157 601.769 233.922 602.357 234.14 602.865L235.978 602.077ZM104.081 299.394L106.022 303.923L107.86 303.135L105.919 298.606L104.081 299.394ZM109.904 312.982L113.787 322.041L115.625 321.253L111.743 312.194L109.904 312.982ZM117.669 331.1L121.551 340.159L123.39 339.371L119.507 330.312L117.669 331.1ZM125.434 349.217L129.316 358.276L131.154 357.488L127.272 348.43L125.434 349.217ZM133.199 367.335L137.081 376.394L138.919 375.606L135.037 366.547L133.199 367.335ZM140.963 385.453L144.846 394.512L146.684 393.724L142.801 384.665L140.963 385.453ZM148.728 403.57L152.61 412.629L154.449 411.841L150.566 402.783L148.728 403.57ZM156.493 421.688L160.375 430.747L162.213 429.959L158.331 420.9L156.493 421.688ZM164.257 439.806L168.14 448.865L169.978 448.077L166.096 439.018L164.257 439.806ZM172.022 457.923L175.904 466.982L177.743 466.194L173.86 457.136L172.022 457.923ZM179.787 476.041L183.669 485.1L185.507 484.312L181.625 475.253L179.787 476.041ZM187.551 494.159L191.434 503.217L193.272 502.43L189.39 493.371L187.551 494.159ZM195.316 512.276L199.199 521.335L201.037 520.547L197.154 511.488L195.316 512.276ZM203.081 530.394L206.963 539.453L208.802 538.665L204.919 529.606L203.081 530.394ZM210.846 548.512L214.728 557.57L216.566 556.783L212.684 547.724L210.846 548.512ZM218.61 566.629L222.493 575.688L224.331 574.9L220.449 565.841L218.61 566.629ZM226.375 584.747L230.257 593.806L232.096 593.018L228.213 583.959L226.375 584.747ZM234.14 602.865L236.081 607.394L237.919 606.606L235.978 602.077L234.14 602.865Z" fill="#BCBCBC"/>
<path d="M501.1 403.247C500.706 403.634 500.073 403.628 499.686 403.234C499.299 402.84 499.305 402.207 499.7 401.82L501.1 403.247ZM492.5 408.886C492.894 408.499 493.527 408.505 493.914 408.9C494.301 409.294 494.295 409.927 493.9 410.314L492.5 408.886ZM486.7 417.38C486.306 417.767 485.673 417.761 485.286 417.367C484.899 416.973 484.905 416.34 485.3 415.953L486.7 417.38ZM478.1 423.02C478.494 422.633 479.127 422.639 479.514 423.033C479.901 423.427 479.895 424.06 479.5 424.447L478.1 423.02ZM472.3 431.514C471.906 431.901 471.273 431.895 470.886 431.5C470.499 431.106 470.505 430.473 470.9 430.086L472.3 431.514ZM463.7 437.153C464.094 436.766 464.727 436.772 465.114 437.166C465.501 437.56 465.495 438.193 465.1 438.58L463.7 437.153ZM457.9 445.647C457.506 446.034 456.873 446.028 456.486 445.634C456.099 445.24 456.105 444.607 456.5 444.22L457.9 445.647ZM449.3 451.286C449.694 450.899 450.327 450.905 450.714 451.3C451.101 451.694 451.095 452.327 450.7 452.714L449.3 451.286ZM443.5 459.78C443.106 460.167 442.473 460.161 442.086 459.767C441.699 459.373 441.705 458.74 442.1 458.353L443.5 459.78ZM434.9 465.42C435.294 465.033 435.927 465.039 436.314 465.433C436.701 465.827 436.695 466.46 436.3 466.847L434.9 465.42ZM429.1 473.914C428.706 474.301 428.073 474.295 427.686 473.9C427.299 473.506 427.305 472.873 427.7 472.486L429.1 473.914ZM420.5 479.553C420.894 479.166 421.527 479.172 421.914 479.566C422.301 479.96 422.295 480.594 421.9 480.98L420.5 479.553ZM414.7 488.047C414.306 488.434 413.673 488.428 413.286 488.034C412.899 487.64 412.905 487.007 413.3 486.62L414.7 488.047ZM406.1 493.686C406.494 493.299 407.127 493.305 407.514 493.7C407.901 494.094 407.895 494.727 407.5 495.114L406.1 493.686ZM400.3 502.18C399.906 502.567 399.273 502.561 398.886 502.167C398.499 501.773 398.505 501.14 398.9 500.753L400.3 502.18ZM391.7 507.82C392.094 507.433 392.727 507.439 393.114 507.833C393.501 508.227 393.495 508.86 393.1 509.247L391.7 507.82ZM385.9 516.314C385.506 516.701 384.873 516.695 384.486 516.3C384.099 515.906 384.105 515.273 384.5 514.886L385.9 516.314ZM377.3 521.953C377.694 521.566 378.327 521.572 378.714 521.966C379.101 522.36 379.095 522.994 378.7 523.38L377.3 521.953ZM371.5 530.447C371.106 530.834 370.473 530.828 370.086 530.434C369.699 530.04 369.705 529.407 370.1 529.02L371.5 530.447ZM362.9 536.086C363.294 535.699 363.927 535.705 364.314 536.1C364.701 536.494 364.695 537.127 364.3 537.514L362.9 536.086ZM357.1 544.58C356.706 544.967 356.073 544.961 355.686 544.567C355.299 544.173 355.305 543.54 355.7 543.153L357.1 544.58ZM348.5 550.22C348.894 549.833 349.527 549.839 349.914 550.233C350.301 550.627 350.295 551.26 349.9 551.647L348.5 550.22ZM342.7 558.714C342.306 559.101 341.673 559.095 341.286 558.7C340.899 558.306 340.905 557.673 341.3 557.286L342.7 558.714ZM334.099 564.353C334.494 563.966 335.127 563.972 335.514 564.366C335.901 564.76 335.895 565.394 335.5 565.78L334.099 564.353ZM328.3 572.847C327.906 573.234 327.273 573.228 326.886 572.834C326.499 572.44 326.505 571.807 326.899 571.42L328.3 572.847ZM319.699 578.486C320.094 578.099 320.727 578.105 321.114 578.5C321.501 578.894 321.495 579.527 321.1 579.914L319.699 578.486ZM313.9 586.98C313.506 587.367 312.873 587.361 312.486 586.967C312.099 586.573 312.105 585.94 312.499 585.553L313.9 586.98ZM305.299 592.62C305.694 592.233 306.327 592.239 306.714 592.633C307.1 593.027 307.095 593.66 306.7 594.047L305.299 592.62ZM299.5 601.114C299.106 601.501 298.473 601.495 298.086 601.101C297.699 600.706 297.705 600.073 298.099 599.686L299.5 601.114ZM290.899 606.753C291.294 606.366 291.927 606.372 292.314 606.766C292.7 607.16 292.695 607.794 292.3 608.18L290.899 606.753ZM504.7 399.714L501.1 403.247L499.7 401.82L503.3 398.286L504.7 399.714ZM493.9 410.314L486.7 417.38L485.3 415.953L492.5 408.886L493.9 410.314ZM479.5 424.447L472.3 431.514L470.9 430.086L478.1 423.02L479.5 424.447ZM465.1 438.58L457.9 445.647L456.5 444.22L463.7 437.153L465.1 438.58ZM450.7 452.714L443.5 459.78L442.1 458.353L449.3 451.286L450.7 452.714ZM436.3 466.847L429.1 473.914L427.7 472.486L434.9 465.42L436.3 466.847ZM421.9 480.98L414.7 488.047L413.3 486.62L420.5 479.553L421.9 480.98ZM407.5 495.114L400.3 502.18L398.9 500.753L406.1 493.686L407.5 495.114ZM393.1 509.247L385.9 516.314L384.5 514.886L391.7 507.82L393.1 509.247ZM378.7 523.38L371.5 530.447L370.1 529.02L377.3 521.953L378.7 523.38ZM364.3 537.514L357.1 544.58L355.7 543.153L362.9 536.086L364.3 537.514ZM349.9 551.647L342.7 558.714L341.3 557.286L348.5 550.22L349.9 551.647ZM335.5 565.78L328.3 572.847L326.899 571.42L334.099 564.353L335.5 565.78ZM321.1 579.914L313.9 586.98L312.499 585.553L319.699 578.486L321.1 579.914ZM306.7 594.047L299.5 601.114L298.099 599.686L305.299 592.62L306.7 594.047ZM292.3 608.18L288.7 611.714L287.3 610.286L290.899 606.753L292.3 608.18Z" fill="#BCBCBC"/>
<path d="M572.359 242.174C572.29 242.722 571.79 243.111 571.242 243.042C570.694 242.974 570.306 242.474 570.374 241.926L572.359 242.174ZM569.108 252.026C569.176 251.478 569.676 251.089 570.224 251.158C570.772 251.226 571.161 251.726 571.092 252.274L569.108 252.026ZM569.826 262.374C569.757 262.922 569.257 263.311 568.709 263.242C568.161 263.174 567.772 262.674 567.841 262.126L569.826 262.374ZM566.574 272.226C566.643 271.678 567.143 271.289 567.691 271.358C568.239 271.426 568.628 271.926 568.559 272.474L566.574 272.226ZM567.292 282.574C567.224 283.122 566.724 283.511 566.176 283.442C565.628 283.374 565.239 282.874 565.308 282.326L567.292 282.574ZM564.041 292.426C564.11 291.878 564.61 291.489 565.158 291.558C565.706 291.627 566.094 292.126 566.026 292.674L564.041 292.426ZM564.759 302.774C564.69 303.322 564.19 303.711 563.642 303.642C563.094 303.574 562.706 303.074 562.774 302.526L564.759 302.774ZM561.508 312.626C561.576 312.078 562.076 311.689 562.624 311.758C563.172 311.826 563.561 312.326 563.492 312.874L561.508 312.626ZM562.226 322.974C562.157 323.522 561.657 323.911 561.109 323.842C560.561 323.773 560.172 323.274 560.241 322.726L562.226 322.974ZM558.974 332.826C559.043 332.278 559.543 331.889 560.091 331.958C560.639 332.026 561.028 332.526 560.959 333.074L558.974 332.826ZM559.692 343.174C559.624 343.722 559.124 344.111 558.576 344.042C558.028 343.973 557.639 343.474 557.708 342.926L559.692 343.174ZM556.441 353.026C556.51 352.478 557.01 352.089 557.558 352.158C558.106 352.226 558.494 352.726 558.426 353.274L556.441 353.026ZM557.159 363.374C557.09 363.922 556.59 364.311 556.042 364.242C555.494 364.173 555.106 363.674 555.174 363.126L557.159 363.374ZM553.908 373.226C553.976 372.678 554.476 372.289 555.024 372.358C555.572 372.426 555.961 372.926 555.892 373.474L553.908 373.226ZM554.626 383.574C554.557 384.122 554.057 384.511 553.509 384.442C552.961 384.373 552.572 383.874 552.641 383.326L554.626 383.574ZM551.374 393.426C551.443 392.878 551.943 392.489 552.491 392.558C553.039 392.626 553.428 393.126 553.359 393.674L551.374 393.426ZM552.092 403.774C552.024 404.322 551.524 404.711 550.976 404.642C550.428 404.574 550.039 404.074 550.108 403.526L552.092 403.774ZM548.841 413.626C548.91 413.078 549.41 412.689 549.958 412.758C550.506 412.827 550.894 413.326 550.826 413.874L548.841 413.626ZM549.559 423.974C549.49 424.522 548.99 424.911 548.442 424.842C547.894 424.774 547.506 424.274 547.574 423.726L549.559 423.974ZM546.308 433.826C546.376 433.278 546.876 432.889 547.424 432.958C547.972 433.027 548.361 433.526 548.292 434.074L546.308 433.826ZM547.026 444.174C546.957 444.722 546.457 445.111 545.909 445.042C545.361 444.974 544.972 444.474 545.041 443.926L547.026 444.174ZM543.774 454.026C543.843 453.478 544.343 453.089 544.891 453.158C545.439 453.227 545.828 453.726 545.759 454.274L543.774 454.026ZM544.492 464.374C544.423 464.922 543.924 465.311 543.376 465.242C542.828 465.174 542.439 464.674 542.508 464.126L544.492 464.374ZM541.241 474.226C541.31 473.678 541.81 473.289 542.358 473.358C542.906 473.427 543.294 473.926 543.226 474.474L541.241 474.226ZM541.959 484.574C541.89 485.122 541.39 485.511 540.842 485.442C540.294 485.374 539.906 484.874 539.974 484.326L541.959 484.574ZM538.708 494.426C538.776 493.878 539.276 493.489 539.824 493.558C540.372 493.627 540.761 494.126 540.692 494.674L538.708 494.426ZM539.426 504.774C539.357 505.322 538.857 505.711 538.309 505.642C537.761 505.574 537.372 505.074 537.441 504.526L539.426 504.774ZM536.174 514.626C536.243 514.078 536.743 513.689 537.291 513.758C537.839 513.826 538.228 514.326 538.159 514.874L536.174 514.626ZM536.892 524.974C536.824 525.522 536.324 525.911 535.776 525.842C535.228 525.773 534.839 525.274 534.908 524.726L536.892 524.974ZM533.641 534.826C533.71 534.278 534.21 533.889 534.758 533.958C535.306 534.026 535.694 534.526 535.626 535.074L533.641 534.826ZM572.992 237.124L572.359 242.174L570.374 241.926L571.008 236.876L572.992 237.124ZM571.092 252.274L569.826 262.374L567.841 262.126L569.108 252.026L571.092 252.274ZM568.559 272.474L567.292 282.574L565.308 282.326L566.574 272.226L568.559 272.474ZM566.026 292.674L564.759 302.774L562.774 302.526L564.041 292.426L566.026 292.674ZM563.492 312.874L562.226 322.974L560.241 322.726L561.508 312.626L563.492 312.874ZM560.959 333.074L559.692 343.174L557.708 342.926L558.974 332.826L560.959 333.074ZM558.426 353.274L557.159 363.374L555.174 363.126L556.441 353.026L558.426 353.274ZM555.892 373.474L554.626 383.574L552.641 383.326L553.908 373.226L555.892 373.474ZM553.359 393.674L552.092 403.774L550.108 403.526L551.374 393.426L553.359 393.674ZM550.826 413.874L549.559 423.974L547.574 423.726L548.841 413.626L550.826 413.874ZM548.292 434.074L547.026 444.174L545.041 443.926L546.308 433.826L548.292 434.074ZM545.759 454.274L544.492 464.374L542.508 464.126L543.774 454.026L545.759 454.274ZM543.226 474.474L541.959 484.574L539.974 484.326L541.241 474.226L543.226 474.474ZM540.692 494.674L539.426 504.774L537.441 504.526L538.708 494.426L540.692 494.674ZM538.159 514.874L536.892 524.974L534.908 524.726L536.174 514.626L538.159 514.874ZM535.626 535.074L534.992 540.124L533.008 539.876L533.641 534.826L535.626 535.074Z" fill="#BCBCBC"/>
<path d="M383.715 226.285C384.097 226.684 384.73 226.698 385.129 226.316C385.528 225.935 385.542 225.302 385.16 224.903L383.715 226.285ZM392.035 232.09C391.653 231.691 391.02 231.677 390.621 232.059C390.222 232.44 390.208 233.073 390.59 233.472L392.035 232.09ZM397.465 240.66C397.847 241.059 398.48 241.073 398.879 240.691C399.278 240.31 399.292 239.677 398.91 239.278L397.465 240.66ZM405.785 246.465C405.403 246.066 404.77 246.052 404.371 246.434C403.972 246.815 403.958 247.448 404.34 247.847L405.785 246.465ZM411.215 255.035C411.597 255.434 412.23 255.448 412.629 255.066C413.028 254.685 413.042 254.052 412.66 253.653L411.215 255.035ZM419.535 260.84C419.153 260.441 418.52 260.427 418.121 260.809C417.722 261.19 417.708 261.823 418.09 262.222L419.535 260.84ZM424.965 269.41C425.347 269.809 425.98 269.823 426.379 269.441C426.778 269.06 426.792 268.427 426.41 268.028L424.965 269.41ZM433.285 275.215C432.903 274.816 432.27 274.802 431.871 275.184C431.472 275.565 431.458 276.198 431.84 276.597L433.285 275.215ZM438.715 283.785C439.097 284.184 439.73 284.198 440.129 283.816C440.528 283.435 440.542 282.802 440.16 282.403L438.715 283.785ZM447.035 289.59C446.653 289.191 446.02 289.177 445.621 289.559C445.222 289.94 445.208 290.573 445.59 290.972L447.035 289.59ZM452.465 298.16C452.847 298.559 453.48 298.573 453.879 298.191C454.278 297.81 454.292 297.177 453.91 296.778L452.465 298.16ZM460.785 303.965C460.403 303.566 459.77 303.552 459.371 303.934C458.972 304.315 458.958 304.948 459.34 305.347L460.785 303.965ZM466.215 312.535C466.597 312.934 467.23 312.948 467.629 312.566C468.028 312.185 468.042 311.552 467.66 311.153L466.215 312.535ZM474.535 318.34C474.153 317.941 473.52 317.927 473.121 318.309C472.722 318.69 472.708 319.323 473.09 319.722L474.535 318.34ZM479.965 326.91C480.347 327.309 480.98 327.323 481.379 326.941C481.778 326.56 481.792 325.927 481.41 325.528L479.965 326.91ZM488.285 332.715C487.903 332.316 487.27 332.302 486.871 332.684C486.472 333.065 486.458 333.698 486.84 334.097L488.285 332.715ZM380.277 222.691L383.715 226.285L385.16 224.903L381.723 221.309L380.277 222.691ZM390.59 233.472L397.465 240.66L398.91 239.278L392.035 232.09L390.59 233.472ZM404.34 247.847L411.215 255.035L412.66 253.653L405.785 246.465L404.34 247.847ZM418.09 262.222L424.965 269.41L426.41 268.028L419.535 260.84L418.09 262.222ZM431.84 276.597L438.715 283.785L440.16 282.403L433.285 275.215L431.84 276.597ZM445.59 290.972L452.465 298.16L453.91 296.778L447.035 289.59L445.59 290.972ZM459.34 305.347L466.215 312.535L467.66 311.153L460.785 303.965L459.34 305.347ZM473.09 319.722L479.965 326.91L481.41 325.528L474.535 318.34L473.09 319.722ZM486.84 334.097L490.277 337.691L491.723 336.309L488.285 332.715L486.84 334.097Z" fill="#BCBCBC"/>
<path d="M115.529 282.926C116.04 283.134 116.624 282.889 116.832 282.377C117.041 281.866 116.795 281.282 116.284 281.074L115.529 282.926ZM126.096 285.074C125.585 284.866 125.001 285.111 124.793 285.623C124.584 286.134 124.83 286.718 125.341 286.926L126.096 285.074ZM135.154 290.926C135.665 291.134 136.249 290.889 136.457 290.377C136.666 289.866 136.42 289.282 135.909 289.074L135.154 290.926ZM145.721 293.074C145.21 292.866 144.626 293.111 144.418 293.623C144.209 294.134 144.455 294.718 144.966 294.926L145.721 293.074ZM154.779 298.926C155.29 299.134 155.874 298.889 156.082 298.377C156.291 297.866 156.045 297.282 155.534 297.074L154.779 298.926ZM165.346 301.074C164.835 300.866 164.251 301.111 164.043 301.623C163.834 302.134 164.08 302.718 164.591 302.926L165.346 301.074ZM174.404 306.926C174.915 307.134 175.499 306.889 175.707 306.377C175.916 305.866 175.67 305.282 175.159 305.074L174.404 306.926ZM184.971 309.074C184.46 308.866 183.876 309.111 183.668 309.623C183.459 310.134 183.705 310.718 184.216 310.926L184.971 309.074ZM194.029 314.926C194.54 315.134 195.124 314.889 195.332 314.377C195.541 313.866 195.295 313.282 194.784 313.074L194.029 314.926ZM204.596 317.074C204.085 316.866 203.501 317.111 203.293 317.623C203.084 318.134 203.33 318.718 203.841 318.926L204.596 317.074ZM213.654 322.926C214.165 323.134 214.749 322.889 214.957 322.377C215.166 321.866 214.92 321.282 214.409 321.074L213.654 322.926ZM224.221 325.074C223.71 324.866 223.126 325.111 222.918 325.623C222.709 326.134 222.955 326.718 223.466 326.926L224.221 325.074ZM233.279 330.926C233.79 331.134 234.374 330.889 234.582 330.377C234.791 329.866 234.545 329.282 234.034 329.074L233.279 330.926ZM243.846 333.074C243.335 332.866 242.751 333.111 242.543 333.623C242.334 334.134 242.58 334.718 243.091 334.926L243.846 333.074ZM252.904 338.926C253.415 339.134 253.999 338.889 254.207 338.377C254.416 337.866 254.17 337.282 253.659 337.074L252.904 338.926ZM263.471 341.074C262.96 340.866 262.376 341.111 262.168 341.623C261.959 342.134 262.205 342.718 262.716 342.926L263.471 341.074ZM110.623 280.926L115.529 282.926L116.284 281.074L111.377 279.074L110.623 280.926ZM125.341 286.926L135.154 290.926L135.909 289.074L126.096 285.074L125.341 286.926ZM144.966 294.926L154.779 298.926L155.534 297.074L145.721 293.074L144.966 294.926ZM164.591 302.926L174.404 306.926L175.159 305.074L165.346 301.074L164.591 302.926ZM184.216 310.926L194.029 314.926L194.784 313.074L184.971 309.074L184.216 310.926ZM203.841 318.926L213.654 322.926L214.409 321.074L204.596 317.074L203.841 318.926ZM223.466 326.926L233.279 330.926L234.034 329.074L224.221 325.074L223.466 326.926ZM243.091 334.926L252.904 338.926L253.659 337.074L243.846 333.074L243.091 334.926ZM262.716 342.926L267.623 344.926L268.377 343.074L263.471 341.074L262.716 342.926Z" fill="#BCBCBC"/>
<path d="M539.679 233.137C539.258 233.495 538.627 233.444 538.269 233.023C537.912 232.602 537.963 231.971 538.383 231.613L539.679 233.137ZM530.446 238.363C530.867 238.005 531.498 238.056 531.856 238.477C532.213 238.898 532.162 239.529 531.742 239.887L530.446 238.363ZM523.804 246.637C523.383 246.995 522.752 246.944 522.394 246.523C522.037 246.102 522.088 245.471 522.508 245.113L523.804 246.637ZM514.571 251.863C514.992 251.505 515.623 251.556 515.981 251.977C516.338 252.398 516.287 253.029 515.867 253.387L514.571 251.863ZM507.929 260.137C507.508 260.495 506.877 260.444 506.519 260.023C506.162 259.602 506.213 258.971 506.633 258.613L507.929 260.137ZM498.696 265.363C499.117 265.005 499.748 265.056 500.106 265.477C500.463 265.898 500.412 266.529 499.992 266.887L498.696 265.363ZM492.054 273.637C491.633 273.995 491.002 273.944 490.644 273.523C490.287 273.102 490.338 272.471 490.758 272.113L492.054 273.637ZM482.821 278.863C483.242 278.505 483.873 278.556 484.231 278.977C484.588 279.398 484.537 280.029 484.117 280.387L482.821 278.863ZM476.179 287.137C475.758 287.495 475.127 287.444 474.769 287.023C474.412 286.602 474.463 285.971 474.883 285.613L476.179 287.137ZM466.946 292.363C467.367 292.005 467.998 292.056 468.356 292.477C468.713 292.898 468.662 293.529 468.242 293.887L466.946 292.363ZM460.304 300.637C459.883 300.995 459.252 300.944 458.894 300.523C458.537 300.102 458.588 299.471 459.008 299.113L460.304 300.637ZM451.071 305.863C451.492 305.505 452.123 305.556 452.481 305.977C452.838 306.398 452.787 307.029 452.367 307.387L451.071 305.863ZM444.429 314.137C444.008 314.495 443.377 314.444 443.019 314.023C442.662 313.602 442.713 312.971 443.133 312.613L444.429 314.137ZM435.196 319.363C435.617 319.005 436.248 319.056 436.606 319.477C436.963 319.898 436.912 320.529 436.492 320.887L435.196 319.363ZM428.554 327.637C428.133 327.995 427.502 327.944 427.144 327.523C426.787 327.102 426.838 326.471 427.258 326.113L428.554 327.637ZM419.321 332.863C419.742 332.505 420.373 332.556 420.731 332.977C421.088 333.398 421.037 334.029 420.617 334.387L419.321 332.863ZM543.648 229.762L539.679 233.137L538.383 231.613L542.352 228.238L543.648 229.762ZM531.742 239.887L523.804 246.637L522.508 245.113L530.446 238.363L531.742 239.887ZM515.867 253.387L507.929 260.137L506.633 258.613L514.571 251.863L515.867 253.387ZM499.992 266.887L492.054 273.637L490.758 272.113L498.696 265.363L499.992 266.887ZM484.117 280.387L476.179 287.137L474.883 285.613L482.821 278.863L484.117 280.387ZM468.242 293.887L460.304 300.637L459.008 299.113L466.946 292.363L468.242 293.887ZM452.367 307.387L444.429 314.137L443.133 312.613L451.071 305.863L452.367 307.387ZM436.492 320.887L428.554 327.637L427.258 326.113L435.196 319.363L436.492 320.887ZM420.617 334.387L416.648 337.762L415.352 336.238L419.321 332.863L420.617 334.387Z" fill="#BCBCBC"/>
<path d="M385.671 220.475C386.22 220.414 386.714 220.809 386.775 221.358C386.836 221.907 386.441 222.402 385.892 222.463L385.671 220.475ZM395.454 221.4C394.905 221.461 394.411 221.066 394.35 220.517C394.289 219.968 394.684 219.473 395.233 219.412L395.454 221.4ZM404.796 218.35C405.345 218.289 405.839 218.684 405.9 219.233C405.961 219.782 405.566 220.277 405.017 220.338L404.796 218.35ZM414.579 219.275C414.03 219.336 413.536 218.941 413.475 218.392C413.414 217.843 413.809 217.348 414.358 217.287L414.579 219.275ZM423.921 216.225C424.47 216.164 424.964 216.559 425.025 217.108C425.086 217.657 424.691 218.152 424.142 218.213L423.921 216.225ZM433.704 217.15C433.155 217.211 432.661 216.816 432.6 216.267C432.539 215.718 432.934 215.223 433.483 215.162L433.704 217.15ZM443.046 214.1C443.595 214.039 444.089 214.434 444.15 214.983C444.211 215.532 443.816 216.027 443.267 216.088L443.046 214.1ZM452.829 215.025C452.28 215.086 451.786 214.691 451.725 214.142C451.664 213.593 452.059 213.098 452.608 213.037L452.829 215.025ZM462.171 211.975C462.72 211.914 463.214 212.309 463.275 212.858C463.336 213.407 462.941 213.902 462.392 213.963L462.171 211.975ZM471.954 212.9C471.405 212.961 470.911 212.566 470.85 212.017C470.789 211.468 471.184 210.973 471.733 210.912L471.954 212.9ZM481.296 209.85C481.845 209.789 482.339 210.184 482.4 210.733C482.461 211.282 482.066 211.777 481.517 211.838L481.296 209.85ZM491.079 210.775C490.53 210.836 490.036 210.441 489.975 209.892C489.914 209.343 490.309 208.848 490.858 208.787L491.079 210.775ZM500.421 207.725C500.97 207.664 501.464 208.059 501.525 208.608C501.586 209.157 501.191 209.652 500.642 209.713L500.421 207.725ZM510.204 208.65C509.655 208.711 509.161 208.316 509.1 207.767C509.039 207.218 509.434 206.723 509.983 206.662L510.204 208.65ZM519.546 205.6C520.095 205.539 520.589 205.934 520.65 206.483C520.711 207.032 520.316 207.527 519.767 207.588L519.546 205.6ZM529.329 206.525C528.78 206.586 528.286 206.191 528.225 205.642C528.164 205.093 528.559 204.598 529.108 204.537L529.329 206.525ZM380.89 221.006L385.671 220.475L385.892 222.463L381.11 222.994L380.89 221.006ZM395.233 219.412L404.796 218.35L405.017 220.338L395.454 221.4L395.233 219.412ZM414.358 217.287L423.921 216.225L424.142 218.213L414.579 219.275L414.358 217.287ZM433.483 215.162L443.046 214.1L443.267 216.088L433.704 217.15L433.483 215.162ZM452.608 213.037L462.171 211.975L462.392 213.963L452.829 215.025L452.608 213.037ZM471.733 210.912L481.296 209.85L481.517 211.838L471.954 212.9L471.733 210.912ZM490.858 208.787L500.421 207.725L500.642 209.713L491.079 210.775L490.858 208.787ZM509.983 206.662L519.546 205.6L519.767 207.588L510.204 208.65L509.983 206.662ZM529.108 204.537L533.89 204.006L534.11 205.994L529.329 206.525L529.108 204.537Z" fill="#BCBCBC"/>
</svg>
