<svg width="106" height="106" viewBox="0 0 106 106" fill="none" xmlns="http://www.w3.org/2000/svg">
<path d="M53 76.1875C52.0173 76.1875 51.0566 76.4789 50.2395 77.0249C49.4224 77.5709 48.7855 78.3469 48.4095 79.2548C48.0334 80.1627 47.935 81.1618 48.1267 82.1256C48.3184 83.0894 48.7917 83.9748 49.4866 84.6697C50.1815 85.3646 51.0668 85.8378 52.0306 86.0295C52.9945 86.2212 53.9935 86.1228 54.9015 85.7468C55.8094 85.3707 56.5854 84.7338 57.1314 83.9167C57.6773 83.0996 57.9688 82.139 57.9688 81.1562C57.9688 79.8385 57.4453 78.5746 56.5134 77.6428C55.5816 76.711 54.3178 76.1875 53 76.1875Z" fill="black"/>
<path d="M56.3125 39.75H49.6875V69.5625H56.3125V39.75Z" fill="black"/>
<path d="M96.0625 99.375H9.93753C9.36842 99.375 8.80891 99.2284 8.31294 98.9493C7.81698 98.6702 7.40128 98.268 7.10595 97.7815C6.81061 97.2951 6.6456 96.7407 6.62681 96.1719C6.60802 95.6031 6.73609 95.0391 6.99868 94.5342L50.0612 11.7217C50.3409 11.1838 50.7628 10.7331 51.281 10.4185C51.7992 10.1039 52.3938 9.9375 53 9.9375C53.6062 9.9375 54.2008 10.1039 54.719 10.4185C55.2372 10.7331 55.6592 11.1838 55.9389 11.7217L99.0014 94.5342C99.264 95.0391 99.392 95.6031 99.3732 96.1719C99.3544 96.7407 99.1894 97.2951 98.8941 97.7815C98.5988 98.268 98.1831 98.6702 97.6871 98.9493C97.1911 99.2284 96.6316 99.375 96.0625 99.375V99.375ZM15.4055 92.75H90.5946L90.6012 92.7391L53.0066 20.4428H52.9934L15.3988 92.7391L15.4055 92.75Z" fill="black"/>
</svg>
