<svg width="77" height="77" viewBox="0 0 77 77" fill="none" xmlns="http://www.w3.org/2000/svg">
<path d="M38.5044 14.8511H38.4948L11.1855 67.368L11.1901 67.3761H65.8091L65.8137 67.368L38.5044 14.8511ZM35.7926 28.8761H41.2066V50.5324H35.7926V28.8761ZM38.4996 62.5636C37.7857 62.5636 37.0879 62.352 36.4944 61.9554C35.9008 61.5588 35.4382 60.995 35.165 60.3355C34.8918 59.676 34.8203 58.9503 34.9596 58.2501C35.0989 57.55 35.4426 56.9068 35.9474 56.4021C36.4522 55.8973 37.0953 55.5535 37.7955 55.4142C38.4956 55.275 39.2213 55.3465 39.8809 55.6196C40.5404 55.8928 41.1041 56.3554 41.5007 56.949C41.8973 57.5426 42.109 58.2404 42.109 58.9543C42.109 59.9115 41.7287 60.8296 41.0518 61.5065C40.3749 62.1834 39.4569 62.5636 38.4996 62.5636Z" fill="#022D40"/>
<path d="M69.7813 72.1875H7.21877C6.80536 72.1875 6.39892 72.081 6.03865 71.8783C5.67837 71.6755 5.3764 71.3834 5.16187 71.03C4.94733 70.6766 4.82746 70.2739 4.81381 69.8607C4.80016 69.4475 4.8932 69.0378 5.08394 68.671L36.3652 8.51479C36.5684 8.1241 36.8749 7.79665 37.2513 7.56812C37.6277 7.3396 38.0597 7.21875 38.5 7.21875C38.9404 7.21875 39.3723 7.3396 39.7487 7.56812C40.1252 7.79665 40.4317 8.1241 40.6348 8.51479L71.9161 68.671C72.1068 69.0378 72.1999 69.4475 72.1862 69.8607C72.1726 70.2739 72.0527 70.6766 71.8382 71.03C71.6236 71.3834 71.3217 71.6755 70.9614 71.8783C70.6011 72.081 70.1947 72.1875 69.7813 72.1875ZM11.1908 67.375H65.8093L65.8141 67.3671L38.5048 14.85H38.4952L11.186 67.3671L11.1908 67.375Z" fill="#022D40"/>
</svg>
