<svg width="182" height="61" viewBox="0 0 182 61" fill="none" xmlns="http://www.w3.org/2000/svg">
<path d="M22.98 0C18.9954 1.48321 17.117 2.43718 17.0345 5.26357C14.8037 7.18915 13.9831 8.30746 12.4102 10.2922L12.4574 9.58722C14.6104 7.48367 15.0936 5.41325 14.8639 0.37597C11.6404 4.05591 10.8488 6.08087 12.1742 9.58722L12.127 10.5741C10.4123 12.9969 9.67759 14.3684 8.54084 16.8246V16.2607C10.432 12.2675 10.3191 10.131 8.77677 6.43848C6.75255 10.3798 6.32305 14.4278 8.16334 16.4017V17.6706C7.20233 20.1792 6.79798 21.5895 6.22868 24.1091L6.08711 23.4981C7.12888 19.1222 6.87203 16.9389 4.29401 13.7229C3.22177 18.9151 3.24432 21.3232 5.80399 23.5921L6.08711 24.814C5.75688 27.5464 5.62361 29.0798 5.52087 31.8164L5.28494 31.4405C5.3984 26.6194 4.32238 24.7339 1.27405 22.1822C1.404 27.7259 1.97034 30.1382 5.049 31.5344L5.52087 32.5214C5.64417 35.4662 5.84709 37.0647 6.37024 39.8528L6.18149 39.5238C5.18264 35.2965 3.77938 33.7218 0 32.0984C0.765332 36.0168 2.45372 39.6648 5.99274 39.7588L6.60617 40.6047C7.69211 43.7796 8.40999 45.3922 9.81488 48.0771L9.3902 47.7951C7.20825 43.8607 5.42424 42.9709 1.65154 42.7665C3.44465 46.9962 5.75681 49.158 9.29583 48.1711L10.098 48.6411C11.6992 51.0086 12.6826 52.2314 14.5808 54.1866H14.1561C11.5136 51.1319 8.96552 50.8969 5.33212 52.3068C7.50272 55.4085 11.9855 56.5834 14.1561 54.5156L15.0526 54.6096C17.1909 56.3952 18.4624 57.2265 20.8566 58.3693L20.3848 58.4163C16.8102 56.523 14.8055 56.9721 11.2305 59.4972C14.2505 61.612 19.0635 61.612 20.5735 58.7452L21.3285 58.5573C23.0994 59.161 24.1116 59.4463 25.9528 59.8262L26 59.2152C23.8968 58.8204 22.8068 58.5168 20.951 57.7583L20.7623 57.0064C20.8379 52.825 19.9697 51.0367 16.5154 49.017C17.1922 54.5972 18.067 56.4191 20.5735 57.1004L20.6207 57.6643C18.1491 56.4403 16.8343 55.5013 14.5808 53.4817V52.4478C15.7439 48.1721 15.1722 46.1491 12.6461 43.0015C12.1841 48.2816 11.7549 51.0274 14.3448 52.5418V53.2467C12.4462 51.2311 11.3769 49.8809 10.0036 47.5602L10.1924 46.4322C12.2143 42.6208 12.3639 40.4737 10.7114 36.61C9.24825 41.0751 7.92443 43.5871 9.81488 46.3383V47.0902C8.4784 44.543 7.82212 42.8951 6.84211 39.4768L7.36116 38.3489C10.2051 35.7747 11.0142 33.8414 10.5227 29.1846C7.65097 33.0667 5.64386 35.3315 7.07804 38.2549L6.74773 38.9129C6.14722 35.8658 5.96542 34.1556 5.94555 31.1115L6.55898 30.2656C9.78183 29.0514 11.2305 25.9419 11.4192 22.3702C7.5964 25.1309 6.06659 26.7723 6.41742 30.1716L5.94555 30.6885C6.08472 27.5444 6.25164 25.783 6.98367 22.6522L7.78584 22.0882C11.2096 21.7979 13.0708 19.3154 13.9673 16.2607C9.97026 17.7058 7.78235 18.5427 7.5971 21.9002L7.07804 22.2292C7.74782 19.4999 8.33308 17.9703 9.72051 15.2268L10.5227 14.8508C13.6326 15.7228 15.902 14.0989 17.3176 11.5141C12.9429 11.6481 11.0671 12.0946 10.4755 14.6628L9.86207 14.8978C10.9745 12.7458 11.6973 11.5645 13.2123 9.54023L14.1089 9.44624C16.3585 10.7022 19.4882 9.9162 20.951 7.51939C17.209 6.95552 15.1491 6.68461 14.0145 9.21126L13.4483 9.30525C14.7387 7.68293 15.5618 6.83368 17.176 5.40456C20.2727 5.11111 22.4138 3.00776 22.98 0Z" fill="white"/>
<path d="M159.02 0C163.005 1.48321 164.883 2.43718 164.966 5.26357C167.196 7.18915 168.017 8.30746 169.59 10.2922L169.543 9.58722C167.39 7.48367 166.906 5.41325 167.136 0.37597C170.36 4.05591 171.151 6.08087 169.826 9.58722L169.873 10.5741C171.588 12.9969 172.322 14.3684 173.459 16.8246V16.2607C171.568 12.2675 171.681 10.131 173.223 6.43848C175.247 10.3798 175.677 14.4278 173.837 16.4017V17.6706C174.798 20.1792 175.202 21.5895 175.771 24.1091L175.913 23.4981C174.871 19.1222 175.128 16.9389 177.706 13.7229C178.778 18.9151 178.756 21.3232 176.196 23.5921L175.913 24.814C176.243 27.5464 176.376 29.0798 176.479 31.8164L176.715 31.4405C176.602 26.6194 177.678 24.7339 180.726 22.1822C180.596 27.7259 180.03 30.1382 176.951 31.5344L176.479 32.5214C176.356 35.4662 176.153 37.0647 175.63 39.8528L175.819 39.5238C176.817 35.2965 178.221 33.7218 182 32.0984C181.235 36.0168 179.546 39.6648 176.007 39.7588L175.394 40.6047C174.308 43.7796 173.59 45.3922 172.185 48.0771L172.61 47.7951C174.792 43.8607 176.576 42.9709 180.348 42.7665C178.555 46.9962 176.243 49.158 172.704 48.1711L171.902 48.6411C170.301 51.0086 169.317 52.2314 167.419 54.1866H167.844C170.486 51.1319 173.034 50.8969 176.668 52.3068C174.497 55.4085 170.015 56.5834 167.844 54.5156L166.947 54.6096C164.809 56.3952 163.538 57.2265 161.143 58.3693L161.615 58.4163C165.19 56.523 167.194 56.9721 170.77 59.4972C167.75 61.612 162.936 61.612 161.426 58.7452L160.672 58.5573C158.901 59.161 157.888 59.4463 156.047 59.8262L156 59.2152C158.103 58.8204 159.193 58.5168 161.049 57.7583L161.238 57.0064C161.162 52.825 162.03 51.0367 165.485 49.017C164.808 54.5972 163.933 56.4191 161.426 57.1004L161.379 57.6643C163.851 56.4403 165.166 55.5013 167.419 53.4817V52.4478C166.256 48.1721 166.828 46.1491 169.354 43.0015C169.816 48.2816 170.245 51.0274 167.655 52.5418V53.2467C169.554 51.2311 170.623 49.8809 171.996 47.5602L171.808 46.4322C169.786 42.6208 169.636 40.4737 171.289 36.61C172.752 41.0751 174.076 43.5871 172.185 46.3383V47.0902C173.522 44.543 174.178 42.8951 175.158 39.4768L174.639 38.3489C171.795 35.7747 170.986 33.8414 171.477 29.1846C174.349 33.0667 176.356 35.3315 174.922 38.2549L175.252 38.9129C175.853 35.8658 176.035 34.1556 176.054 31.1115L175.441 30.2656C172.218 29.0514 170.77 25.9419 170.581 22.3702C174.404 25.1309 175.933 26.7723 175.583 30.1716L176.054 30.6885C175.915 27.5444 175.748 25.783 175.016 22.6522L174.214 22.0882C170.79 21.7979 168.929 19.3154 168.033 16.2607C172.03 17.7058 174.218 18.5427 174.403 21.9002L174.922 22.2292C174.252 19.4999 173.667 17.9703 172.279 15.2268L171.477 14.8508C168.367 15.7228 166.098 14.0989 164.682 11.5141C169.057 11.6481 170.933 12.0946 171.525 14.6628L172.138 14.8978C171.026 12.7458 170.303 11.5645 168.788 9.54023L167.891 9.44624C165.642 10.7022 162.512 9.9162 161.049 7.51939C164.791 6.95552 166.851 6.68461 167.985 9.21126L168.552 9.30525C167.261 7.68293 166.438 6.83368 164.824 5.40456C161.727 5.11111 159.586 3.00776 159.02 0Z" fill="white"/>
<path d="M55.021 19H49.525V17.968L52.261 15.448C52.653 15.088 52.981 14.708 53.245 14.308C53.509 13.9 53.641 13.492 53.641 13.084V12.94C53.641 12.476 53.513 12.1 53.257 11.812C53.001 11.524 52.613 11.38 52.093 11.38C51.837 11.38 51.613 11.416 51.421 11.488C51.229 11.56 51.061 11.66 50.917 11.788C50.781 11.916 50.665 12.068 50.569 12.244C50.481 12.412 50.409 12.596 50.353 12.796L49.453 12.448C49.533 12.2 49.641 11.96 49.777 11.728C49.921 11.488 50.097 11.276 50.305 11.092C50.521 10.908 50.777 10.76 51.073 10.648C51.377 10.536 51.733 10.48 52.141 10.48C52.549 10.48 52.913 10.54 53.233 10.66C53.553 10.78 53.821 10.948 54.037 11.164C54.253 11.38 54.417 11.636 54.529 11.932C54.649 12.228 54.709 12.556 54.709 12.916C54.709 13.244 54.661 13.548 54.565 13.828C54.477 14.108 54.353 14.376 54.193 14.632C54.033 14.88 53.837 15.124 53.605 15.364C53.381 15.604 53.137 15.844 52.873 16.084L50.617 18.112H55.021V19ZM59.4203 19.144C58.4203 19.144 57.6883 18.764 57.2243 18.004C56.7683 17.244 56.5403 16.18 56.5403 14.812C56.5403 13.444 56.7683 12.38 57.2243 11.62C57.6883 10.86 58.4203 10.48 59.4203 10.48C60.4203 10.48 61.1483 10.86 61.6043 11.62C62.0683 12.38 62.3003 13.444 62.3003 14.812C62.3003 16.18 62.0683 17.244 61.6043 18.004C61.1483 18.764 60.4203 19.144 59.4203 19.144ZM59.4203 18.268C59.7483 18.268 60.0283 18.2 60.2603 18.064C60.4923 17.928 60.6803 17.736 60.8243 17.488C60.9683 17.24 61.0723 16.948 61.1363 16.612C61.2083 16.276 61.2443 15.904 61.2443 15.496V14.128C61.2443 13.72 61.2083 13.348 61.1363 13.012C61.0723 12.676 60.9683 12.384 60.8243 12.136C60.6803 11.888 60.4923 11.696 60.2603 11.56C60.0283 11.424 59.7483 11.356 59.4203 11.356C59.0923 11.356 58.8123 11.424 58.5803 11.56C58.3483 11.696 58.1603 11.888 58.0163 12.136C57.8723 12.384 57.7643 12.676 57.6923 13.012C57.6283 13.348 57.5963 13.72 57.5963 14.128V15.496C57.5963 15.904 57.6283 16.276 57.6923 16.612C57.7643 16.948 57.8723 17.24 58.0163 17.488C58.1603 17.736 58.3483 17.928 58.5803 18.064C58.8123 18.2 59.0923 18.268 59.4203 18.268ZM69.4116 19H63.9156V17.968L66.6516 15.448C67.0436 15.088 67.3716 14.708 67.6356 14.308C67.8996 13.9 68.0316 13.492 68.0316 13.084V12.94C68.0316 12.476 67.9036 12.1 67.6476 11.812C67.3916 11.524 67.0036 11.38 66.4836 11.38C66.2276 11.38 66.0036 11.416 65.8116 11.488C65.6196 11.56 65.4516 11.66 65.3076 11.788C65.1716 11.916 65.0556 12.068 64.9596 12.244C64.8716 12.412 64.7996 12.596 64.7436 12.796L63.8436 12.448C63.9236 12.2 64.0316 11.96 64.1676 11.728C64.3116 11.488 64.4876 11.276 64.6956 11.092C64.9116 10.908 65.1676 10.76 65.4636 10.648C65.7676 10.536 66.1236 10.48 66.5316 10.48C66.9396 10.48 67.3036 10.54 67.6236 10.66C67.9436 10.78 68.2116 10.948 68.4276 11.164C68.6436 11.38 68.8076 11.636 68.9196 11.932C69.0396 12.228 69.0996 12.556 69.0996 12.916C69.0996 13.244 69.0516 13.548 68.9556 13.828C68.8676 14.108 68.7436 14.376 68.5836 14.632C68.4236 14.88 68.2276 15.124 67.9956 15.364C67.7716 15.604 67.5276 15.844 67.2636 16.084L65.0076 18.112H69.4116V19ZM73.8109 19.144C72.8109 19.144 72.0789 18.764 71.6149 18.004C71.1589 17.244 70.9309 16.18 70.9309 14.812C70.9309 13.444 71.1589 12.38 71.6149 11.62C72.0789 10.86 72.8109 10.48 73.8109 10.48C74.8109 10.48 75.5389 10.86 75.9949 11.62C76.4589 12.38 76.6909 13.444 76.6909 14.812C76.6909 16.18 76.4589 17.244 75.9949 18.004C75.5389 18.764 74.8109 19.144 73.8109 19.144ZM73.8109 18.268C74.1389 18.268 74.4189 18.2 74.6509 18.064C74.8829 17.928 75.0709 17.736 75.2149 17.488C75.3589 17.24 75.4629 16.948 75.5269 16.612C75.5989 16.276 75.6349 15.904 75.6349 15.496V14.128C75.6349 13.72 75.5989 13.348 75.5269 13.012C75.4629 12.676 75.3589 12.384 75.2149 12.136C75.0709 11.888 74.8829 11.696 74.6509 11.56C74.4189 11.424 74.1389 11.356 73.8109 11.356C73.4829 11.356 73.2029 11.424 72.9709 11.56C72.7389 11.696 72.5509 11.888 72.4069 12.136C72.2629 12.384 72.1549 12.676 72.0829 13.012C72.0189 13.348 71.9869 13.72 71.9869 14.128V15.496C71.9869 15.904 72.0189 16.276 72.0829 16.612C72.1549 16.948 72.2629 17.24 72.4069 17.488C72.5509 17.736 72.7389 17.928 72.9709 18.064C73.2029 18.2 73.4829 18.268 73.8109 18.268ZM82.5222 19L80.4822 10.624H81.5502L82.4502 14.656L83.1462 17.788H83.1702L83.9502 14.656L85.0062 10.624H86.1582L87.1782 14.656L87.9582 17.776H87.9942L88.7142 14.656L89.6622 10.624H90.6942L88.5462 19H87.4302L86.3382 14.824L85.5702 11.752H85.5462L84.7542 14.824L83.6382 19H82.5222ZM91.6497 19V18.16H92.8257V11.464H91.6497V10.624H95.0097V11.464H93.8337V18.16H95.0097V19H91.6497ZM98.8784 13.888L97.8704 12.028H97.8344V19H96.8504V10.624H98.0144L101.074 15.736L102.082 17.596H102.118V10.624H103.102V19H101.938L98.8784 13.888ZM107.363 13.888L106.355 12.028H106.319V19H105.335V10.624H106.499L109.559 15.736L110.567 17.596H110.603V10.624H111.587V19H110.423L107.363 13.888ZM113.819 19V10.624H118.931V11.512H114.827V14.32H118.691V15.208H114.827V18.112H118.931V19H113.819ZM121.823 19H120.815V10.624H124.151C124.887 10.624 125.459 10.828 125.867 11.236C126.283 11.644 126.491 12.232 126.491 13C126.491 13.616 126.347 14.124 126.059 14.524C125.779 14.916 125.363 15.176 124.811 15.304L126.731 19H125.591L123.779 15.4H121.823V19ZM124.151 14.536C124.551 14.536 124.859 14.432 125.075 14.224C125.299 14.016 125.411 13.72 125.411 13.336V12.712C125.411 12.328 125.299 12.032 125.075 11.824C124.859 11.616 124.551 11.512 124.151 11.512H121.823V14.536H124.151ZM25.1844 35V26.624H30.1764V27.512H26.1924V30.32H29.8284V31.208H26.1924V35H25.1844ZM34.8203 35.144C34.2763 35.144 33.7843 35.052 33.3443 34.868C32.9123 34.676 32.5403 34.4 32.2283 34.04C31.9243 33.672 31.6883 33.22 31.5203 32.684C31.3523 32.14 31.2683 31.516 31.2683 30.812C31.2683 30.108 31.3523 29.488 31.5203 28.952C31.6883 28.416 31.9243 27.964 32.2283 27.596C32.5403 27.228 32.9123 26.952 33.3443 26.768C33.7843 26.576 34.2763 26.48 34.8203 26.48C35.3563 26.48 35.8443 26.576 36.2843 26.768C36.7243 26.952 37.0963 27.228 37.4003 27.596C37.7123 27.964 37.9523 28.416 38.1203 28.952C38.2883 29.488 38.3723 30.108 38.3723 30.812C38.3723 31.516 38.2883 32.14 38.1203 32.684C37.9523 33.22 37.7123 33.672 37.4003 34.04C37.0963 34.4 36.7243 34.676 36.2843 34.868C35.8443 35.052 35.3563 35.144 34.8203 35.144ZM34.8203 34.244C35.1803 34.244 35.5123 34.18 35.8163 34.052C36.1203 33.924 36.3803 33.74 36.5963 33.5C36.8203 33.26 36.9923 32.972 37.1123 32.636C37.2323 32.3 37.2923 31.924 37.2923 31.508V30.116C37.2923 29.7 37.2323 29.324 37.1123 28.988C36.9923 28.652 36.8203 28.364 36.5963 28.124C36.3803 27.884 36.1203 27.7 35.8163 27.572C35.5123 27.444 35.1803 27.38 34.8203 27.38C34.4603 27.38 34.1283 27.444 33.8243 27.572C33.5203 27.7 33.2563 27.884 33.0323 28.124C32.8163 28.364 32.6483 28.652 32.5283 28.988C32.4083 29.324 32.3483 29.7 32.3483 30.116V31.508C32.3483 31.924 32.4083 32.3 32.5283 32.636C32.6483 32.972 32.8163 33.26 33.0323 33.5C33.2563 33.74 33.5203 33.924 33.8243 34.052C34.1283 34.18 34.4603 34.244 34.8203 34.244ZM41.1924 35H40.1844V26.624H43.5204C44.2564 26.624 44.8284 26.828 45.2364 27.236C45.6524 27.644 45.8604 28.232 45.8604 29C45.8604 29.616 45.7164 30.124 45.4284 30.524C45.1484 30.916 44.7324 31.176 44.1804 31.304L46.1004 35H44.9604L43.1484 31.4H41.1924V35ZM43.5204 30.536C43.9204 30.536 44.2284 30.432 44.4444 30.224C44.6684 30.016 44.7804 29.72 44.7804 29.336V28.712C44.7804 28.328 44.6684 28.032 44.4444 27.824C44.2284 27.616 43.9204 27.512 43.5204 27.512H41.1924V30.536H43.5204ZM47.8601 26.624H50.6681C51.1881 26.624 51.6601 26.712 52.0841 26.888C52.5081 27.064 52.8681 27.328 53.1641 27.68C53.4681 28.024 53.7001 28.46 53.8601 28.988C54.0201 29.508 54.1001 30.116 54.1001 30.812C54.1001 31.508 54.0201 32.12 53.8601 32.648C53.7001 33.168 53.4681 33.604 53.1641 33.956C52.8681 34.3 52.5081 34.56 52.0841 34.736C51.6601 34.912 51.1881 35 50.6681 35H47.8601V26.624ZM50.6681 34.112C51.0121 34.112 51.3281 34.056 51.6161 33.944C51.9041 33.824 52.1521 33.652 52.3601 33.428C52.5681 33.204 52.7281 32.932 52.8401 32.612C52.9601 32.284 53.0201 31.912 53.0201 31.496V30.128C53.0201 29.712 52.9601 29.344 52.8401 29.024C52.7281 28.696 52.5681 28.42 52.3601 28.196C52.1521 27.972 51.9041 27.804 51.6161 27.692C51.3281 27.572 51.0121 27.512 50.6681 27.512H48.8681V34.112H50.6681ZM61.0989 35.144C60.4189 35.144 59.8389 35.016 59.3589 34.76C58.8789 34.496 58.4709 34.136 58.1349 33.68L58.8789 33.056C59.1749 33.448 59.5029 33.748 59.8629 33.956C60.2229 34.156 60.6469 34.256 61.1349 34.256C61.7349 34.256 62.1909 34.112 62.5029 33.824C62.8229 33.536 62.9829 33.152 62.9829 32.672C62.9829 32.272 62.8629 31.964 62.6229 31.748C62.3829 31.532 61.9869 31.36 61.4349 31.232L60.7509 31.076C59.9829 30.9 59.3949 30.636 58.9869 30.284C58.5869 29.924 58.3869 29.42 58.3869 28.772C58.3869 28.404 58.4549 28.076 58.5909 27.788C58.7269 27.5 58.9149 27.26 59.1549 27.068C59.4029 26.876 59.6949 26.732 60.0309 26.636C60.3749 26.532 60.7509 26.48 61.1589 26.48C61.7909 26.48 62.3309 26.596 62.7789 26.828C63.2349 27.06 63.6189 27.4 63.9309 27.848L63.1749 28.4C62.9429 28.08 62.6629 27.828 62.3349 27.644C62.0069 27.46 61.5989 27.368 61.1109 27.368C60.5749 27.368 60.1509 27.484 59.8389 27.716C59.5349 27.94 59.3829 28.28 59.3829 28.736C59.3829 29.136 59.5109 29.44 59.7669 29.648C60.0309 29.848 60.4269 30.008 60.9549 30.128L61.6389 30.284C62.4629 30.468 63.0589 30.748 63.4269 31.124C63.7949 31.5 63.9789 32 63.9789 32.624C63.9789 33.008 63.9109 33.356 63.7749 33.668C63.6469 33.98 63.4589 34.244 63.2109 34.46C62.9629 34.676 62.6589 34.844 62.2989 34.964C61.9469 35.084 61.5469 35.144 61.0989 35.144ZM72.2475 27.944H72.1875L71.4795 29.348L69.4755 32.996L67.4715 29.348L66.7635 27.944H66.7035V35H65.7195V26.624H67.0635L69.4635 31.136H69.5235L71.9355 26.624H73.2315V35H72.2475V27.944ZM80.7018 35L79.8618 32.528H76.4778L75.6378 35H74.6178L77.5458 26.624H78.8298L81.7578 35H80.7018ZM78.1938 27.56H78.1338L76.7178 31.64H79.6098L78.1938 27.56ZM84.1533 35H83.1453V26.624H86.4813C87.2173 26.624 87.7893 26.828 88.1973 27.236C88.6133 27.644 88.8213 28.232 88.8213 29C88.8213 29.616 88.6773 30.124 88.3893 30.524C88.1093 30.916 87.6933 31.176 87.1413 31.304L89.0613 35H87.9213L86.1093 31.4H84.1533V35ZM86.4813 30.536C86.8813 30.536 87.1893 30.432 87.4053 30.224C87.6293 30.016 87.7413 29.72 87.7413 29.336V28.712C87.7413 28.328 87.6293 28.032 87.4053 27.824C87.1893 27.616 86.8813 27.512 86.4813 27.512H84.1533V30.536H86.4813ZM93.3481 27.512V35H92.3401V27.512H89.6761V26.624H96.0121V27.512H93.3481ZM106.759 27.944H106.699L105.991 29.348L103.987 32.996L101.983 29.348L101.275 27.944H101.215V35H100.231V26.624H101.575L103.975 31.136H104.035L106.447 26.624H107.743V35H106.759V27.944ZM113.102 35.144C112.558 35.144 112.066 35.052 111.626 34.868C111.194 34.676 110.822 34.4 110.51 34.04C110.206 33.672 109.97 33.22 109.802 32.684C109.634 32.14 109.55 31.516 109.55 30.812C109.55 30.108 109.634 29.488 109.802 28.952C109.97 28.416 110.206 27.964 110.51 27.596C110.822 27.228 111.194 26.952 111.626 26.768C112.066 26.576 112.558 26.48 113.102 26.48C113.638 26.48 114.126 26.576 114.566 26.768C115.006 26.952 115.378 27.228 115.682 27.596C115.994 27.964 116.234 28.416 116.402 28.952C116.57 29.488 116.654 30.108 116.654 30.812C116.654 31.516 116.57 32.14 116.402 32.684C116.234 33.22 115.994 33.672 115.682 34.04C115.378 34.4 115.006 34.676 114.566 34.868C114.126 35.052 113.638 35.144 113.102 35.144ZM113.102 34.244C113.462 34.244 113.794 34.18 114.098 34.052C114.402 33.924 114.662 33.74 114.878 33.5C115.102 33.26 115.274 32.972 115.394 32.636C115.514 32.3 115.574 31.924 115.574 31.508V30.116C115.574 29.7 115.514 29.324 115.394 28.988C115.274 28.652 115.102 28.364 114.878 28.124C114.662 27.884 114.402 27.7 114.098 27.572C113.794 27.444 113.462 27.38 113.102 27.38C112.742 27.38 112.41 27.444 112.106 27.572C111.802 27.7 111.538 27.884 111.314 28.124C111.098 28.364 110.93 28.652 110.81 28.988C110.69 29.324 110.63 29.7 110.63 30.116V31.508C110.63 31.924 110.69 32.3 110.81 32.636C110.93 32.972 111.098 33.26 111.314 33.5C111.538 33.74 111.802 33.924 112.106 34.052C112.41 34.18 112.742 34.244 113.102 34.244ZM118.466 26.624H121.91C122.606 26.624 123.15 26.82 123.542 27.212C123.942 27.604 124.142 28.128 124.142 28.784C124.142 29.096 124.098 29.36 124.01 29.576C123.922 29.792 123.81 29.972 123.674 30.116C123.538 30.252 123.39 30.356 123.23 30.428C123.07 30.492 122.922 30.536 122.786 30.56V30.632C122.938 30.64 123.106 30.68 123.29 30.752C123.482 30.824 123.662 30.94 123.83 31.1C123.998 31.252 124.138 31.452 124.25 31.7C124.37 31.94 124.43 32.232 124.43 32.576C124.43 32.92 124.374 33.24 124.262 33.536C124.158 33.832 124.01 34.088 123.818 34.304C123.626 34.52 123.398 34.692 123.134 34.82C122.87 34.94 122.582 35 122.27 35H118.466V26.624ZM119.474 34.112H121.958C122.39 34.112 122.73 34.004 122.978 33.788C123.226 33.564 123.35 33.24 123.35 32.816V32.408C123.35 31.984 123.226 31.664 122.978 31.448C122.73 31.224 122.39 31.112 121.958 31.112H119.474V34.112ZM119.474 30.248H121.79C122.19 30.248 122.502 30.148 122.726 29.948C122.95 29.748 123.062 29.46 123.062 29.084V28.676C123.062 28.3 122.95 28.012 122.726 27.812C122.502 27.612 122.19 27.512 121.79 27.512H119.474V30.248ZM125.909 35V34.16H127.085V27.464H125.909V26.624H129.269V27.464H128.093V34.16H129.269V35H125.909ZM131.11 35V26.624H132.118V34.112H135.682V35H131.11ZM136.726 35V34.16H137.902V27.464H136.726V26.624H140.086V27.464H138.91V34.16H140.086V35H136.726ZM144.665 27.512V35H143.657V27.512H140.993V26.624H147.329V27.512H144.665ZM150.69 35V31.688L147.81 26.624H148.962L151.194 30.656H151.23L153.462 26.624H154.614L151.698 31.652V35H150.69ZM58.8336 51.144C57.7696 51.144 56.9416 50.784 56.3496 50.064C55.7576 49.336 55.4616 48.268 55.4616 46.86C55.4616 45.452 55.7576 44.372 56.3496 43.62C56.9416 42.86 57.7696 42.48 58.8336 42.48C59.5376 42.48 60.1256 42.64 60.5976 42.96C61.0776 43.28 61.4496 43.732 61.7136 44.316L60.8976 44.808C60.7296 44.376 60.4736 44.032 60.1296 43.776C59.7856 43.512 59.3536 43.38 58.8336 43.38C58.4736 43.38 58.1496 43.448 57.8616 43.584C57.5816 43.72 57.3416 43.916 57.1416 44.172C56.9496 44.42 56.8016 44.72 56.6976 45.072C56.5936 45.416 56.5416 45.804 56.5416 46.236V47.484C56.5416 48.348 56.7416 49.024 57.1416 49.512C57.5416 50 58.1056 50.244 58.8336 50.244C59.3696 50.244 59.8176 50.108 60.1776 49.836C60.5376 49.556 60.8016 49.188 60.9696 48.732L61.7736 49.236C61.5096 49.828 61.1296 50.296 60.6336 50.64C60.1376 50.976 59.5376 51.144 58.8336 51.144ZM68.5788 47.208H64.3428V51H63.3348V42.624H64.3428V46.32H68.5788V42.624H69.5868V51H68.5788V47.208ZM77.0631 51L76.2231 48.528H72.8391L71.9991 51H70.9791L73.9071 42.624H75.1911L78.1191 51H77.0631ZM74.5551 43.56H74.4951L73.0791 47.64H75.9711L74.5551 43.56ZM79.5066 51V42.624H80.5146V50.112H84.0786V51H79.5066ZM85.5183 51V42.624H86.5263V50.112H90.0903V51H85.5183ZM91.5301 51V42.624H96.6421V43.512H92.5381V46.32H96.4021V47.208H92.5381V50.112H96.6421V51H91.5301ZM100.554 45.888L99.5462 44.028H99.5102V51H98.5262V42.624H99.6902L102.75 47.736L103.758 49.596H103.794V42.624H104.778V51H103.614L100.554 45.888ZM112.435 49.776H112.399C112.295 50.168 112.039 50.496 111.631 50.76C111.231 51.016 110.711 51.144 110.071 51.144C109.559 51.144 109.087 51.052 108.655 50.868C108.231 50.676 107.867 50.4 107.563 50.04C107.259 49.672 107.019 49.22 106.843 48.684C106.675 48.14 106.591 47.516 106.591 46.812C106.591 46.116 106.675 45.5 106.843 44.964C107.011 44.42 107.251 43.968 107.563 43.608C107.875 43.24 108.251 42.96 108.691 42.768C109.131 42.576 109.619 42.48 110.155 42.48C110.907 42.48 111.535 42.648 112.039 42.984C112.543 43.32 112.931 43.764 113.203 44.316L112.375 44.82C112.183 44.372 111.895 44.02 111.511 43.764C111.135 43.508 110.683 43.38 110.155 43.38C109.787 43.38 109.451 43.448 109.147 43.584C108.843 43.712 108.579 43.896 108.355 44.136C108.139 44.376 107.971 44.664 107.851 45C107.731 45.336 107.671 45.712 107.671 46.128V47.484C107.671 47.9 107.731 48.28 107.851 48.624C107.971 48.96 108.139 49.248 108.355 49.488C108.579 49.728 108.851 49.916 109.171 50.052C109.491 50.18 109.851 50.244 110.251 50.244C110.539 50.244 110.811 50.208 111.067 50.136C111.331 50.056 111.559 49.94 111.751 49.788C111.951 49.636 112.107 49.448 112.219 49.224C112.331 48.992 112.387 48.72 112.387 48.408V47.58H110.539V46.692H113.371V51H112.435V49.776ZM115.354 51V42.624H120.466V43.512H116.362V46.32H120.226V47.208H116.362V50.112H120.466V51H115.354Z" fill="white"/>
</svg>
